<svg width="148" height="100" viewBox="0 0 148 100" fill="none" xmlns="http://www.w3.org/2000/svg">
<path fill-rule="evenodd" clip-rule="evenodd" d="M10.3925 0L0 17.5373H19.3884V99.4868H38.7769V0H10.3925ZM135.828 32.7722L120.639 47.9768C118.968 33.1571 106.404 21.6403 91.1536 21.6403C74.7647 21.6403 61.479 34.9403 61.479 51.3466C61.479 66.6136 72.9835 79.1907 87.7874 80.864L72.5992 96.0684C54.5035 88.9382 41.696 71.286 41.696 50.6393C41.696 23.6859 63.5227 1.83594 90.4472 1.83594C111.072 1.83594 128.705 14.6571 135.828 32.7722Z" fill="#CCA551"/>
<path fill-rule="evenodd" clip-rule="evenodd" d="M10.3925 0L0 17.5373H19.3884V99.4868H38.7769V0H10.3925ZM135.828 32.7722L120.639 47.9768C118.968 33.1571 106.404 21.6403 91.1536 21.6403C74.7647 21.6403 61.479 34.9403 61.479 51.3466C61.479 66.6136 72.9835 79.1907 87.7874 80.864L72.5992 96.0684C54.5035 88.9382 41.696 71.286 41.696 50.6393C41.696 23.6859 63.5227 1.83594 90.4472 1.83594C111.072 1.83594 128.705 14.6571 135.828 32.7722Z" fill="url(#paint0_linear_0_48346)" fill-opacity="0.13"/>
<path fill-rule="evenodd" clip-rule="evenodd" d="M101.386 53.5267C102.556 53.5267 103.466 52.9374 103.466 51.9272C103.466 51.1007 102.999 50.5574 102.006 50.3737L101.127 50.213C100.523 50.0982 100.247 49.8763 100.247 49.4324C100.247 48.935 100.706 48.6442 101.333 48.6442C102.044 48.6442 102.51 48.9426 102.51 49.5319H103.374C103.374 48.4299 102.457 47.9248 101.356 47.9248C100.133 47.9248 99.3531 48.5753 99.3531 49.4936C99.3531 50.2819 99.8577 50.8099 100.821 50.9859L101.7 51.1543C102.273 51.2614 102.564 51.4681 102.564 51.9425C102.564 52.4706 102.051 52.7843 101.394 52.7843C100.553 52.7843 100.125 52.4247 100.125 51.9043H99.2385C99.2385 52.8762 100.056 53.5267 101.386 53.5267ZM77.505 51.5522V53.4502H76.6489V51.5522L74.6309 48.0013H75.6704L77.0922 50.6416L78.5446 48.0013H79.5689L77.505 51.5522ZM85.0711 52.6772V53.4502H81.3102V48.0013H84.9488V48.7666H82.174V50.3278H84.3296V51.0854H82.174V52.6772H85.0711ZM87.4315 53.4502L87.8978 52.2027H90.191L90.6573 53.4502H91.5899L89.5107 48.0013H88.6393L86.5525 53.4502H87.4315ZM88.1654 51.5063H89.9311L89.0521 49.1416L88.1654 51.5063ZM94.2026 53.4502V51.5369H95.4639L96.4729 53.4502H97.4437L96.3659 51.4222C97.115 51.2308 97.5583 50.588 97.5583 49.7462C97.5583 48.6748 96.8092 48.0013 95.6779 48.0013H93.3465V53.4502H94.2026ZM94.2026 50.787H95.5938C96.2818 50.787 96.6563 50.4273 96.6563 49.7691C96.6563 49.1186 96.2818 48.7666 95.5938 48.7666H94.2026V50.787ZM80.1269 61.9259C80.1269 63.5637 79.072 64.7039 77.5127 64.7039C75.9456 64.7039 74.8831 63.5637 74.8831 61.9259C74.8831 60.2806 75.9456 59.1097 77.5127 59.1097C79.072 59.1097 80.1269 60.2806 80.1269 61.9259ZM77.5127 63.8927C76.4425 63.8927 75.8004 63.1121 75.8004 61.9183C75.8004 60.7245 76.4425 59.9209 77.5127 59.9209C78.5752 59.9209 79.2096 60.7245 79.2096 61.9183C79.2096 63.1121 78.5752 63.8927 77.5127 63.8927ZM82.9843 62.3316V64.6351H82.1205V59.1862H85.7208V59.9515H82.9843V61.5816H85.3615V62.3316H82.9843ZM91.0839 64.6351V62.7218H92.4139C93.5529 62.7218 94.3096 61.9719 94.3096 60.954C94.3096 59.9439 93.5605 59.1862 92.4139 59.1862H90.2048V64.6351H91.0839ZM91.0839 61.9719H92.3451C93.0254 61.9719 93.4 61.5739 93.4 60.9617C93.4 60.3571 93.0254 59.9515 92.3451 59.9515H91.0839V61.9719ZM96.1198 64.6351L96.586 63.3876H98.8792L99.3455 64.6351H100.278L98.1989 59.1862H97.3275L95.2407 64.6351H96.1198ZM96.8536 62.6912H98.6193L97.7403 60.3265L96.8536 62.6912ZM102.891 64.6351V62.7218H104.152L105.161 64.6351H106.132L105.054 62.6071C105.803 62.4157 106.247 61.7729 106.247 60.9311C106.247 59.8597 105.497 59.1862 104.366 59.1862H102.035V64.6351H102.891ZM102.891 61.9719H104.282C104.97 61.9719 105.345 61.6122 105.345 60.954C105.345 60.3036 104.97 59.9515 104.282 59.9515H102.891V61.9719ZM110.396 64.6351V59.9515H112.177V59.1862H107.759V59.9515H109.54V64.6351H110.396ZM114.874 60.6173V64.6351H114.025V59.1862H114.912L117.541 63.2499V59.1862H118.39V64.6351H117.511L114.874 60.6173ZM124.381 64.6351V63.8621H121.484V62.2703H123.64V61.5127H121.484V59.9515H124.259V59.1862H120.62V64.6351H124.381ZM127.193 62.7218V64.6351H126.337V59.1862H128.668C129.799 59.1862 130.548 59.8597 130.548 60.9311C130.548 61.7729 130.105 62.4157 129.356 62.6071L130.434 64.6351H129.463L128.454 62.7218H127.193ZM128.584 61.9719H127.193V59.9515H128.584C129.272 59.9515 129.646 60.3036 129.646 60.954C129.646 61.6122 129.272 61.9719 128.584 61.9719ZM133.406 59.1862V64.6351H132.542V59.1862H133.406ZM136.485 64.6351V60.6173L139.122 64.6351H140.001V59.1862H139.153V63.2499L136.523 59.1862H135.636V64.6351H136.485ZM146.336 63.8774C145.947 64.4131 145.32 64.7039 144.54 64.7039C143.057 64.7039 141.995 63.6402 141.995 61.9795C141.995 60.2959 143.057 59.1097 144.655 59.1097C145.947 59.1097 146.856 59.8061 147.116 60.9005H146.161C145.908 60.2117 145.343 59.898 144.647 59.898C143.585 59.898 142.889 60.6938 142.889 61.9183C142.889 63.1427 143.577 63.9233 144.624 63.9233C145.327 63.9233 146.229 63.5177 146.275 62.4693L146.321 62.4846V62.3162H144.578V61.5892H147.139V64.6427H146.428L146.336 63.8774Z" fill="#131A1D"/>
<defs>
<linearGradient id="paint0_linear_0_48346" x1="0" y1="0" x2="0" y2="99.4868" gradientUnits="userSpaceOnUse">
<stop stop-color="white" stop-opacity="0.5"/>
<stop offset="1" stop-opacity="0.5"/>
</linearGradient>
</defs>
</svg>
