<svg id="ehghjf5omig1" xmlns="http://www.w3.org/2000/svg" xmlns:xlink="http://www.w3.org/1999/xlink" viewBox="0 0 724 583" shape-rendering="geometricPrecision" text-rendering="geometricPrecision"><style><![CDATA[#ehghjf5omig8_tr {animation: ehghjf5omig8_tr__tr 8000ms linear infinite normal forwards}@keyframes ehghjf5omig8_tr__tr { 0% {transform: translate(153.126633px,153.002008px) rotate(0deg)} 15% {transform: translate(153.126633px,153.002008px) rotate(0deg);animation-timing-function: cubic-bezier(0.445000,0.050000,0.550000,0.950000)} 55% {transform: translate(153.126633px,153.002008px) rotate(10deg);animation-timing-function: cubic-bezier(0.445000,0.050000,0.550000,0.950000)} 95% {transform: translate(153.126633px,153.002008px) rotate(-360deg)} 100% {transform: translate(153.126633px,153.002008px) rotate(-360deg)} }#ehghjf5omig23_to {animation: ehghjf5omig23_to__to 8000ms linear infinite normal forwards}@keyframes ehghjf5omig23_to__to { 0% {transform: translate(0px,0px)} 6.250000% {transform: translate(0px,0px)} 10% {transform: translate(-54.533292px,0px)} 18.750000% {transform: translate(-54.529261px,0px)} 22.500000% {transform: translate(0px,0px)} 31.250000% {transform: translate(0px,0px)} 37.500000% {transform: translate(0px,0px)} 56.250000% {transform: translate(0px,0px)} 60% {transform: translate(0px,0px)} 68.750000% {transform: translate(0px,0px)} 72.500000% {transform: translate(-54.529261px,0px)} 81.250000% {transform: translate(-54.529261px,0px)} 85% {transform: translate(0px,0px)} 100% {transform: translate(0px,0px)} }#ehghjf5omig23_ts {animation: ehghjf5omig23_ts__ts 8000ms linear infinite normal forwards}@keyframes ehghjf5omig23_ts__ts { 0% {transform: scale(1,1)} 6.250000% {transform: scale(1,1)} 10% {transform: scale(1.990000,1)} 18.750000% {transform: scale(1.990000,1)} 22.500000% {transform: scale(1,1)} 31.250000% {transform: scale(1,1)} 37.500000% {transform: scale(1,1)} 56.250000% {transform: scale(1,1)} 60% {transform: scale(1,1)} 68.750000% {transform: scale(1,1)} 72.500000% {transform: scale(1.990000,1)} 81.250000% {transform: scale(1.990000,1)} 85% {transform: scale(1,1)} 100% {transform: scale(1,1)} }#ehghjf5omig24_ts {animation: ehghjf5omig24_ts__ts 8000ms linear infinite normal forwards}@keyframes ehghjf5omig24_ts__ts { 0% {transform: translate(-0.886345px,0px) scale(4.300000,1)} 6.250000% {transform: translate(-0.886345px,0px) scale(4.300000,1)} 10% {transform: translate(-0.886345px,0px) scale(1,1)} 18.750000% {transform: translate(-0.886345px,0px) scale(1,1)} 22.500000% {transform: translate(-0.886345px,0px) scale(4.300000,1)} 31.250000% {transform: translate(-0.886345px,0px) scale(4.300000,1)} 68.750000% {transform: translate(-0.886345px,0px) scale(4.300000,1)} 72.500000% {transform: translate(-0.886345px,0px) scale(1,1)} 81.250000% {transform: translate(-0.886345px,0px) scale(1,1)} 85% {transform: translate(-0.886345px,0px) scale(4.300000,1)} 100% {transform: translate(-0.886345px,0px) scale(4.300000,1)} }#ehghjf5omig25_to {animation: ehghjf5omig25_to__to 8000ms linear infinite normal forwards}@keyframes ehghjf5omig25_to__to { 0% {transform: translate(0px,0px)} 18.750000% {transform: translate(0px,0px)} 22.500000% {transform: translate(-115.417408px,0px)} 31.250000% {transform: translate(-115.417408px,0px)} 37.500000% {transform: translate(-0.003261px,0px)} 56.250000% {transform: translate(-0.003261px,0px)} 60% {transform: translate(-115.417408px,0px)} 68.750000% {transform: translate(-115.417408px,0px)} 75% {transform: translate(-0.003261px,0px)} 100% {transform: translate(-0.003261px,0px)} }#ehghjf5omig25_ts {animation: ehghjf5omig25_ts__ts 8000ms linear infinite normal forwards}@keyframes ehghjf5omig25_ts__ts { 0% {transform: scale(1,1)} 18.750000% {transform: scale(1,1)} 22.500000% {transform: scale(3.100000,1)} 31.250000% {transform: scale(3.100000,1)} 37.500000% {transform: scale(1,1)} 56.250000% {transform: scale(1,1)} 60% {transform: scale(3.100000,1)} 68.750000% {transform: scale(3.100000,1)} 75% {transform: scale(1,1)} 100% {transform: scale(1,1)} }#ehghjf5omig26_to {animation: ehghjf5omig26_to__to 8000ms linear infinite normal forwards}@keyframes ehghjf5omig26_to__to { 0% {transform: translate(-0.003372px,0px)} 18.750000% {transform: translate(-0.003372px,0px)} 22.500000% {transform: translate(5.273907px,0px)} 31.250000% {transform: translate(5.273907px,0px)} 37.500000% {transform: translate(-0.003372px,0px)} 56.250000% {transform: translate(-0.003372px,0px)} 60% {transform: translate(5.273907px,0px)} 68.750000% {transform: translate(5.273907px,0px)} 75% {transform: translate(-0.003372px,0px)} 100% {transform: translate(-0.003372px,0px)} }#ehghjf5omig26_ts {animation: ehghjf5omig26_ts__ts 8000ms linear infinite normal forwards}@keyframes ehghjf5omig26_ts__ts { 0% {transform: scale(1,1)} 18.750000% {transform: scale(1,1)} 22.500000% {transform: scale(0.250000,1)} 31.250000% {transform: scale(0.250000,1)} 37.500000% {transform: scale(1,1)} 56.250000% {transform: scale(1,1)} 60% {transform: scale(0.250000,1)} 68.750000% {transform: scale(0.250000,1)} 75% {transform: scale(1,1)} 100% {transform: scale(1,1)} }#ehghjf5omig30_to {animation: ehghjf5omig30_to__to 8000ms linear infinite normal forwards}@keyframes ehghjf5omig30_to__to { 0% {transform: translate(-1px,0px)} 6.250000% {transform: translate(-1px,0px)} 10% {transform: translate(-21px,0px)} 18.750000% {transform: translate(-20.705882px,0px)} 22.500000% {transform: translate(-1px,0px)} 68.750000% {transform: translate(-1px,0px)} 72.500000% {transform: translate(-21px,0px)} 81.250000% {transform: translate(-20.705882px,0px)} 85% {transform: translate(-1px,0px)} 100% {transform: translate(-1px,0px)} }#ehghjf5omig31_to {animation: ehghjf5omig31_to__to 8000ms linear infinite normal forwards}@keyframes ehghjf5omig31_to__to { 0% {transform: translate(0px,0px)} 6.250000% {transform: translate(0px,0px)} 18.750000% {transform: translate(0px,0px)} 22.500000% {transform: translate(-22px,0px)} 31.250000% {transform: translate(-22px,0px)} 37.500000% {transform: translate(-0.000016px,0.060533px)} 56.250000% {transform: translate(0px,0px)} 60% {transform: translate(-22px,0px)} 68.750000% {transform: translate(-22px,0px)} 75% {transform: translate(-0.000016px,0.060533px)} 100% {transform: translate(-0.000016px,0.060533px)} }#ehghjf5omig43_to {animation: ehghjf5omig43_to__to 8000ms linear infinite normal forwards}@keyframes ehghjf5omig43_to__to { 0% {transform: translate(5px,-5px)} 27.500000% {transform: translate(5px,-5px)} 43.750000% {transform: translate(0px,0px)} 60% {transform: translate(0px,0px)} 90% {transform: translate(5px,-5px)} 100% {transform: translate(5px,-5px)} }#ehghjf5omig69_to {animation: ehghjf5omig69_to__to 8000ms linear infinite normal forwards}@keyframes ehghjf5omig69_to__to { 0% {transform: translate(0px,0px);animation-timing-function: cubic-bezier(0.445000,0.050000,0.550000,0.950000)} 21.250000% {transform: translate(-7px,10px);animation-timing-function: cubic-bezier(0.445000,0.050000,0.550000,0.950000)} 52.500000% {transform: translate(3.200000px,0.428571px);animation-timing-function: cubic-bezier(0.445000,0.050000,0.550000,0.950000)} 72.500000% {transform: translate(9.017152px,6.270154px)} 100% {transform: translate(0px,0px)} }#ehghjf5omig87 {animation: ehghjf5omig87__m 8000ms linear infinite normal forwards}@keyframes ehghjf5omig87__m { 0% {d: path('M457.345445,378.631631L472.514831,388.375275L456.143803,408.199958L454.162076,393.215212L457.345445,378.631631ZM488.306727,388.375275L455.602489,352.348633L449.840837,350.274587L449.840837,345.946674L459.603761,334.102659L460.404237,326.580254L447.279979,317.137299L431.594862,338.744237L438.317161,343.385816L438.317161,345.946674L431.594862,343.705784L396.383528,341.785233L374.880102,322.189507L375.520409,309.919115L372.426024,313.013130L363.889954,303.196817L367.824488,312.687230L362.289371,318.028437L388.861123,351.281578L415.554184,359.711981L417.243379,524.671356L402.412129,531.999481L426.206568,531.999481L438.156992,440.377341L461.631462,526.144025L457.789989,531.999481L472.514831,531.999481L457.403655,417.727076L488.306727,388.375275Z');animation-timing-function: cubic-bezier(0.420000,0,0.580000,1)} 18.750000% {d: path('M457.345445,378.631631L472.514831,388.375275L456.143803,408.199958L454.162076,393.215212L457.345445,378.631631ZM488.306727,388.375275L455.602489,352.348633L449.840837,350.274587L449.840837,345.946674L459.603761,334.102659L460.404237,326.580254L447.279979,317.137299L431.594862,338.744237L438.317161,343.385816L438.317161,345.946674L431.594862,343.705784L396.383528,341.785233L381.498517,318.417542L382.138824,306.147150L379.044439,309.241165L370.508369,299.424852L374.442903,308.915265L368.907786,314.256472L388.861123,351.281578L415.554184,359.711981L417.243379,524.671356L402.412129,531.999481L426.206568,531.999481L438.156992,440.377341L461.631462,526.144025L457.789989,531.999481L472.514831,531.999481L457.403655,417.727076L488.306727,388.375275Z');animation-timing-function: cubic-bezier(0.420000,0,0.580000,1)} 37.125000% {d: path('M457.345445,378.631631L472.514831,388.375275L456.143803,408.199958L454.162076,393.215212L457.345445,378.631631ZM488.306727,388.375275L455.602489,352.348633L449.840837,350.274587L449.840837,345.946674L459.603761,334.102659L460.404237,326.580254L447.279979,317.137299L431.594862,338.744237L438.317161,343.385816L438.317161,345.946674L431.594862,343.705784L396.383528,341.785233L374.880102,322.189507L375.520409,309.919115L372.426024,313.013130L363.889954,303.196817L367.824488,312.687230L362.289371,318.028437L388.861123,351.281578L415.554184,359.711981L417.243379,524.671356L402.412129,531.999481L426.206568,531.999481L438.156992,440.377341L461.631462,526.144025L457.789989,531.999481L472.514831,531.999481L457.403655,417.727076L488.306727,388.375275Z');animation-timing-function: cubic-bezier(0.420000,0,0.580000,1)} 56% {d: path('M457.345445,378.631631L472.514831,388.375275L456.143803,408.199958L454.162076,393.215212L457.345445,378.631631ZM488.306727,388.375275L455.602489,352.348633L449.840837,350.274587L449.840837,345.946674L459.603761,334.102659L460.404237,326.580254L447.279979,317.137299L431.594862,338.744237L438.317161,343.385816L438.317161,345.946674L431.594862,343.705784L396.383528,341.785233L381.498517,318.417542L382.138824,306.147150L379.044439,309.241165L370.508369,299.424852L374.442903,308.915265L368.907786,314.256472L388.861123,351.281578L415.554184,359.711981L417.243379,524.671356L402.412129,531.999481L426.206568,531.999481L438.156992,440.377341L461.631462,526.144025L457.789989,531.999481L472.514831,531.999481L457.403655,417.727076L488.306727,388.375275Z');animation-timing-function: cubic-bezier(0.420000,0,0.580000,1)} 74.375000% {d: path('M457.345445,378.631631L472.514831,388.375275L456.143803,408.199958L454.162076,393.215212L457.345445,378.631631ZM488.306727,388.375275L455.602489,352.348633L449.840837,350.274587L449.840837,345.946674L459.603761,334.102659L460.404237,326.580254L447.279979,317.137299L431.594862,338.744237L438.317161,343.385816L438.317161,345.946674L431.594862,343.705784L396.383528,341.785233L374.880102,322.189507L375.520409,309.919115L372.426024,313.013130L363.889954,303.196817L367.824488,312.687230L362.289371,318.028437L388.861123,351.281578L415.554184,359.711981L417.243379,524.671356L402.412129,531.999481L426.206568,531.999481L438.156992,440.377341L461.631462,526.144025L457.789989,531.999481L472.514831,531.999481L457.403655,417.727076L488.306727,388.375275Z')} 100% {d: path('M457.345445,378.631631L472.514831,388.375275L456.143803,408.199958L454.162076,393.215212L457.345445,378.631631ZM488.306727,388.375275L455.602489,352.348633L449.840837,350.274587L449.840837,345.946674L459.603761,334.102659L460.404237,326.580254L447.279979,317.137299L431.594862,338.744237L438.317161,343.385816L438.317161,345.946674L431.594862,343.705784L396.383528,341.785233L374.880102,322.189507L375.520409,309.919115L372.426024,313.013130L363.889954,303.196817L367.824488,312.687230L362.289371,318.028437L388.861123,351.281578L415.554184,359.711981L417.243379,524.671356L402.412129,531.999481L426.206568,531.999481L438.156992,440.377341L461.631462,526.144025L457.789989,531.999481L472.514831,531.999481L457.403655,417.727076L488.306727,388.375275Z')} }#ehghjf5omig88 {animation: ehghjf5omig88__m 8000ms linear infinite normal forwards}@keyframes ehghjf5omig88__m { 0% {d: path('M85.523130,408.315821L70.588808,388.356552L84.312961,378.546912L87.518204,393.229486L85.523130,408.315821ZM188.731234,354.144793L192.273501,352.651732L191.966510,351.092675L180.979327,352.508618L153.267781,360.960895L118.211425,343.251043L106.197230,345.198289L106.051149,341.158088L114.216457,340.172601L110.365344,313.568522L94.245323,315.832770L91.433459,322.910630L94.582717,338.039603L94.342463,349.068310L91.868734,349.997442L86.067781,352.085577L54.689762,388.356552L84.254751,417.907823L69.040874,532.955122L83.865450,532.955122L79.998395,527.059624L103.631923,440.711213L115.663173,532.955122L139.619264,532.955122L124.687166,525.576944L126.348554,363.340450L153.135789,373.157135L183.643628,360.411425L202.261849,356.261849L188.731234,354.144793Z');animation-timing-function: cubic-bezier(0.445000,0.050000,0.550000,0.950000)} 12.500000% {d: path('M85.523130,408.315821L70.588808,388.356552L84.312961,378.546912L87.518204,393.229486L85.523130,408.315821ZM185.867533,345.198289L189.409800,343.705228L189.102809,342.146171L178.115626,343.562114L153.267781,360.960895L118.211425,343.251043L106.197230,345.198289L106.051149,341.158088L114.216457,340.172601L110.365344,313.568522L94.245323,315.832770L91.433459,322.910630L94.582717,338.039603L94.342463,349.068310L91.868734,349.997442L86.067781,352.085577L54.689762,388.356552L84.254751,417.907823L69.040874,532.955122L83.865450,532.955122L79.998395,527.059624L103.631923,440.711213L115.663173,532.955122L139.619264,532.955122L124.687166,525.576944L126.348554,363.340450L153.135789,373.157135L180.779927,351.464921L199.398148,347.315345L185.867533,345.198289Z');animation-timing-function: cubic-bezier(0.445000,0.050000,0.550000,0.950000)} 31.250000% {d: path('M85.523130,408.315821L70.588808,388.356552L84.312961,378.546912L87.518204,393.229486L85.523130,408.315821ZM188.731234,354.144793L192.273501,352.651732L191.966510,351.092675L180.979327,352.508618L153.267781,360.960895L118.211425,343.251043L106.197230,345.198289L106.051149,341.158088L114.216457,340.172601L110.365344,313.568522L94.245323,315.832770L91.433459,322.910630L94.582717,338.039603L94.342463,349.068310L91.868734,349.997442L86.067781,352.085577L54.689762,388.356552L84.254751,417.907823L69.040874,532.955122L83.865450,532.955122L79.998395,527.059624L103.631923,440.711213L115.663173,532.955122L139.619264,532.955122L124.687166,525.576944L126.348554,363.340450L153.135789,373.157135L183.643628,360.411425L202.261849,356.261849L188.731234,354.144793Z');animation-timing-function: cubic-bezier(0.445000,0.050000,0.550000,0.950000)} 53.750000% {d: path('M85.523130,408.315821L70.588808,388.356552L84.312961,378.546912L87.518204,393.229486L85.523130,408.315821ZM185.867533,345.198289L189.409800,343.705228L189.102809,342.146171L178.115626,343.562114L153.267781,360.960895L118.211425,343.251043L106.197230,345.198289L106.051149,341.158088L114.216457,340.172601L110.365344,313.568522L94.245323,315.832770L91.433459,322.910630L94.582717,338.039603L94.342463,349.068310L91.868734,349.997442L86.067781,352.085577L54.689762,388.356552L84.254751,417.907823L69.040874,532.955122L83.865450,532.955122L79.998395,527.059624L103.631923,440.711213L115.663173,532.955122L139.619264,532.955122L124.687166,525.576944L126.348554,363.340450L153.135789,373.157135L180.779927,351.464921L199.398148,347.315345L185.867533,345.198289Z');animation-timing-function: cubic-bezier(0.445000,0.050000,0.550000,0.950000)} 73.750000% {d: path('M85.523130,408.315821L70.588808,388.356552L84.312961,378.546912L87.518204,393.229486L85.523130,408.315821ZM188.731234,354.144793L192.273501,352.651732L191.966510,351.092675L180.979327,352.508618L153.267781,360.960895L118.211425,343.251043L106.197230,345.198289L106.051149,341.158088L114.216457,340.172601L110.365344,313.568522L94.245323,315.832770L91.433459,322.910630L94.582717,338.039603L94.342463,349.068310L91.868734,349.997442L86.067781,352.085577L54.689762,388.356552L84.254751,417.907823L69.040874,532.955122L83.865450,532.955122L79.998395,527.059624L103.631923,440.711213L115.663173,532.955122L139.619264,532.955122L124.687166,525.576944L126.348554,363.340450L153.135789,373.157135L183.643628,360.411425L202.261849,356.261849L188.731234,354.144793Z')} 100% {d: path('M85.523130,408.315821L70.588808,388.356552L84.312961,378.546912L87.518204,393.229486L85.523130,408.315821ZM188.731234,354.144793L192.273501,352.651732L191.966510,351.092675L180.979327,352.508618L153.267781,360.960895L118.211425,343.251043L106.197230,345.198289L106.051149,341.158088L114.216457,340.172601L110.365344,313.568522L94.245323,315.832770L91.433459,322.910630L94.582717,338.039603L94.342463,349.068310L91.868734,349.997442L86.067781,352.085577L54.689762,388.356552L84.254751,417.907823L69.040874,532.955122L83.865450,532.955122L79.998395,527.059624L103.631923,440.711213L115.663173,532.955122L139.619264,532.955122L124.687166,525.576944L126.348554,363.340450L153.135789,373.157135L183.643628,360.411425L202.261849,356.261849L188.731234,354.144793Z')} }]]></style><defs><linearGradient id="ehghjf5omig19-fill" x1="0.831384" y1="0.168614" x2="0.135351" y2="0.864663" spreadMethod="pad" gradientUnits="objectBoundingBox"><stop id="ehghjf5omig19-fill-0" offset="0%" stop-color="rgb(253,228,158)"/><stop id="ehghjf5omig19-fill-1" offset="100%" stop-color="rgb(251,174,121)"/></linearGradient><linearGradient id="ehghjf5omig28-fill" x1="0.806365" y1="0.193642" x2="0.248616" y2="0.751418" spreadMethod="pad" gradientUnits="objectBoundingBox"><stop id="ehghjf5omig28-fill-0" offset="0%" stop-color="rgb(253,228,158)"/><stop id="ehghjf5omig28-fill-1" offset="100%" stop-color="rgb(251,174,121)"/></linearGradient><linearGradient id="ehghjf5omig43-fill" x1="0.168604" y1="0.831384" x2="0.864652" y2="0.135336" spreadMethod="pad" gradientUnits="objectBoundingBox"><stop id="ehghjf5omig43-fill-0" offset="0%" stop-color="rgb(253,228,158)"/><stop id="ehghjf5omig43-fill-1" offset="100%" stop-color="rgb(251,174,121)"/></linearGradient><linearGradient id="ehghjf5omig68-fill" x1="0.767117" y1="0.290686" x2="-0.288992" y2="1.118258" spreadMethod="pad" gradientUnits="objectBoundingBox"><stop id="ehghjf5omig68-fill-0" offset="0%" stop-color="rgb(253,228,158)"/><stop id="ehghjf5omig68-fill-1" offset="100%" stop-color="rgb(251,174,121)"/></linearGradient></defs><g id="ehghjf5omig2"><g id="ehghjf5omig3"><g id="ehghjf5omig4"><g id="ehghjf5omig5" transform="matrix(1 0 0 1 9 0)"><path id="ehghjf5omig6" d="M378.751842,531.779869L132,531.776271L206.873512,456.903311C250.472804,502.096851,311.284185,530.574308,378.751842,531.779869ZM652.776271,11L652.776271,531.776271L387.680288,531.779869C520.930257,529.398862,628.216065,420.638265,628.216065,286.819725C628.216065,217.572963,599.487850,155.036036,553.299651,110.477172L652.776271,11Z" fill="rgb(248,250,253)" fill-rule="evenodd" stroke="none" stroke-width="1"/><g id="ehghjf5omig7" transform="matrix(1 0 0 1 226.16499999999999 133.44499999999999)"><g id="ehghjf5omig8_tr" transform="translate(153.126633,153.002008) rotate(0)"><g id="ehghjf5omig8" transform="translate(-153.126633,-153.002008)"><polygon id="ehghjf5omig9" points="248.288665,58.880307 235.018326,62.435922 244.732680,72.150646" fill="none" fill-rule="evenodd" stroke="rgb(91,96,99)" stroke-width="1.544970"/><polygon id="ehghjf5omig10" points="58.477918,248.691091 71.748257,245.135106 62.033533,235.420752" fill="none" fill-rule="evenodd" stroke="rgb(91,96,99)" stroke-width="1.544970"/><path id="ehghjf5omig11" d="M214.114799,278.860646C214.114799,276.621981,212.300286,274.807468,210.061621,274.807468C207.823326,274.807468,206.008814,276.621981,206.008814,278.860646C206.008814,281.098941,207.823326,282.913453,210.061621,282.913453C212.300286,282.913453,214.114799,281.098941,214.114799,278.860646" fill="none" fill-rule="evenodd" stroke="rgb(91,96,99)" stroke-width="1.544970"/><path id="ehghjf5omig12" d="M213.898644,277.557341C227.319142,271.027097,239.899862,262.188485,251.046102,251.041875C304.877881,197.210466,304.877881,109.932182,251.046102,56.100773L248.288739,58.880381" fill="none" fill-rule="evenodd" stroke="rgb(91,96,99)" stroke-width="1.544970"/><path id="ehghjf5omig13" d="M206.545307,280.871033C156.539057,301.656361,96.776186,291.713247,56.105000,251.042060L58.477881,248.691054" fill="none" fill-rule="evenodd" stroke="rgb(91,96,99)" stroke-width="1.544970"/></g></g><g id="ehghjf5omig14" transform="matrix(1 0 0 1 1 0)"><path id="ehghjf5omig15" d="M124.590620,326.473957C124.590620,328.897632,126.555291,330.862304,128.978967,330.862304C131.403014,330.862304,133.367685,328.897632,133.367685,326.473957C133.367685,324.050281,131.403014,322.085609,128.978967,322.085609C126.555291,322.085609,124.590620,324.050281,124.590620,326.473957Z" transform="matrix(1 0 0 1 -123 -133)" fill="none" fill-rule="evenodd" stroke="rgb(91,96,99)" stroke-width="1.544970"/><path id="ehghjf5omig16" d="M45.117039,262.030021C26.372389,243.285371,13.493946,220.896494,6.480599,197.143951" fill="none" fill-rule="evenodd" stroke="rgb(91,96,99)" stroke-width="1.544970"/><path id="ehghjf5omig17" d="M4.390906,189.308215C-7.564709,139.188512,6.010768,84.219232,45.116965,45.112664C105.017018,-14.787389,202.134232,-14.787389,262.034285,45.112664" fill="none" fill-rule="evenodd" stroke="rgb(91,96,99)" stroke-width="1.544970"/></g></g><g id="ehghjf5omig18" transform="matrix(1 0 0 1 601.00599999999997 202.77799999999999)"><polygon id="ehghjf5omig19" points="0.257309,0.165360 0.257309,16.957945 17.049523,16.957945 17.049523,8.561653 17.049523,0.165360" fill="url(#ehghjf5omig19-fill)" fill-rule="evenodd" stroke="none" stroke-width="1"/></g><g id="ehghjf5omig20" transform="matrix(1 0 0 1 581.72699999999998 207.59700000000001)"><polygon id="ehghjf5omig21" points="14.711419,16.963469 31.504004,16.963469 31.504004,8.567177 31.504004,0.170885 14.711419,0.170885" fill="none" fill-rule="evenodd" stroke="rgb(91,96,99)" stroke-width="1.544970"/><line id="ehghjf5omig22" x1="7.036372" y1="31.851743" x2="55.021965" y2="31.851743" fill="none" fill-rule="evenodd" stroke="rgb(91,96,99)" stroke-width="1.544970"/><g id="ehghjf5omig23_to" transform="translate(0,0)"><g id="ehghjf5omig23_ts" transform="scale(1,1)"><line id="ehghjf5omig23" x1="34.403146" y1="38.807177" x2="55.022002" y2="38.807177" transform="translate(0,0)" fill="none" fill-rule="evenodd" stroke="rgb(91,96,99)" stroke-width="1.544970"/></g></g><g id="ehghjf5omig24_ts" transform="translate(-0.886345,0) scale(4.300000,1)"><line id="ehghjf5omig24" x1="0.057987" y1="38.807177" x2="6.294111" y2="38.807177" transform="translate(0,0)" fill="none" fill-rule="evenodd" stroke="rgb(91,96,99)" stroke-width="1.544970"/></g><g id="ehghjf5omig25_to" transform="translate(0,0)"><g id="ehghjf5omig25_ts" transform="scale(1,1)"><line id="ehghjf5omig25" x1="44.416261" y1="45.762389" x2="55.021928" y2="45.762389" transform="translate(0,0)" fill="none" fill-rule="evenodd" stroke="rgb(91,96,99)" stroke-width="1.544970"/></g></g><g id="ehghjf5omig26_to" transform="translate(-0.003372,0)"><g id="ehghjf5omig26_ts" transform="scale(1,1)"><line id="ehghjf5omig26" x1="7.036372" y1="45.762389" x2="37.054804" y2="45.762389" transform="translate(0,0)" fill="none" fill-rule="evenodd" stroke="rgb(91,96,99)" stroke-width="1.544970"/></g></g></g><g id="ehghjf5omig27" transform="matrix(1 0 0 1 622.13999999999999 235.40500000000000)"><path id="ehghjf5omig28" d="M0.324788,4.105456C0.324788,6.199894,2.022511,7.897617,4.116949,7.897617L4.116949,7.897617C6.211017,7.897617,7.908369,6.199894,7.908369,4.105456L7.908369,4.105456C7.908369,2.011388,6.211017,0.313665,4.116949,0.313665L4.116949,0.313665C2.022511,0.313665,0.324788,2.011388,0.324788,4.105456" fill="url(#ehghjf5omig28-fill)" fill-rule="evenodd" stroke="none" stroke-width="1"/></g><g id="ehghjf5omig29" transform="matrix(1 0 0 1 0 0.34110200000000)"><g id="ehghjf5omig30_to" transform="translate(-1,0)"><path id="ehghjf5omig30" d="M608.726525,246.063533C608.726525,248.157601,610.424248,249.855323,612.518316,249.855323C614.612383,249.855323,616.310477,248.157601,616.310477,246.063533C616.310477,243.969465,614.612383,242.271372,612.518316,242.271372C610.424248,242.271372,608.726525,243.969465,608.726525,246.063533Z" transform="translate(0,0)" fill="none" fill-rule="evenodd" stroke="rgb(91,96,99)" stroke-width="1.544970"/></g><g id="ehghjf5omig31_to" transform="translate(0,0)"><path id="ehghjf5omig31" d="M618.672828,252.957754C618.672828,255.051822,620.370551,256.749915,622.464619,256.749915C624.558686,256.749915,626.256780,255.051822,626.256780,252.957754C626.256780,250.863686,624.558686,249.165593,622.464619,249.165593C620.370551,249.165593,618.672828,250.863686,618.672828,252.957754Z" transform="translate(0,0)" fill="none" fill-rule="evenodd" stroke="rgb(91,96,99)" stroke-width="1.544970"/></g><line id="ehghjf5omig32" x1="576.408252" y1="239.108099" x2="509.151896" y2="239.108099" fill="none" fill-rule="evenodd" stroke="rgb(91,96,99)" stroke-width="1.544970"/><polyline id="ehghjf5omig33" points="596.438114,215.823533 585.914386,215.823533 585.914386,186.036457 576.408400,186.036457" fill="none" fill-rule="evenodd" stroke="rgb(91,96,99)" stroke-width="1.544970"/><polyline id="ehghjf5omig34" points="576.408252,186.036345 576.408252,246.063570 581.784682,246.063570" fill="none" fill-rule="evenodd" stroke="rgb(91,96,99)" stroke-width="1.544970"/><line id="ehghjf5omig35" x1="618.418856" y1="192.435821" x2="585.914460" y2="192.435821" fill="none" fill-rule="evenodd" stroke="rgb(91,96,99)" stroke-width="1.544970"/><path id="ehghjf5omig36" d="M623.236954,192.435821C623.236954,199.045037,628.594846,204.402929,635.204063,204.402929C641.813649,204.402929,647.171541,199.045037,647.171541,192.435821C647.171541,185.826605,641.813649,180.468713,635.204063,180.468713C628.594846,180.468713,623.236954,185.826605,623.236954,192.435821Z" fill="none" fill-rule="evenodd" stroke="rgb(91,96,99)" stroke-width="1.544970"/><path id="ehghjf5omig37" d="M630.127579,189.770408C630.127579,192.574115,632.400355,194.846891,635.204062,194.846891C638.007770,194.846891,640.280916,192.574115,640.280916,189.770408C640.280916,186.966700,638.007770,184.693925,635.204062,184.693925C632.400355,184.693925,630.127579,186.966700,630.127579,189.770408Z" fill="none" fill-rule="evenodd" stroke="rgb(91,96,99)" stroke-width="1.544970"/><path id="ehghjf5omig38" d="M643.073649,201.484730C641.798226,198.468946,638.811732,196.353003,635.331382,196.353003C631.851033,196.353003,628.864910,198.468946,627.589115,201.484730" fill="none" fill-rule="evenodd" stroke="rgb(91,96,99)" stroke-width="1.544970"/><polygon id="ehghjf5omig39" points="573.451642,189.125689 579.200689,189.125689 579.200689,183.376642 573.451642,183.376642" fill="rgb(91,96,99)" fill-rule="evenodd" stroke="none" stroke-width="1"/><polygon id="ehghjf5omig40" points="573.451642,241.982733 579.200689,241.982733 579.200689,236.233686 573.451642,236.233686" fill="rgb(91,96,99)" fill-rule="evenodd" stroke="none" stroke-width="1"/><polygon id="ehghjf5omig41" points="583.013612,189.125689 588.763030,189.125689 588.763030,183.376642 583.013612,183.376642" fill="rgb(91,96,99)" fill-rule="evenodd" stroke="none" stroke-width="1"/></g><g id="ehghjf5omig42" transform="matrix(1 0 0 1 149.78800000000001 253.20099999999999)"><g id="ehghjf5omig43_to" transform="translate(5,-5)"><polygon id="ehghjf5omig43" points="0.115307,0.129025 0.115307,8.525318 0.115307,16.921610 16.907892,16.921610 16.907892,0.129025" transform="translate(0,0)" fill="url(#ehghjf5omig43-fill)" fill-rule="evenodd" stroke="none" stroke-width="1"/></g></g><g id="ehghjf5omig44" transform="matrix(1 0 0 1 0 0.34110200000000)"><polygon id="ehghjf5omig45" points="171.521245,248.163718 154.728660,248.163718 154.728660,256.560011 154.728660,264.956303 171.521245,264.956303" fill="none" fill-rule="evenodd" stroke="rgb(91,96,99)" stroke-width="1.544970"/><polyline id="ehghjf5omig46" points="226.357198,289.494343 178.762018,289.494343 178.762018,256.559862 171.521393,256.559862" fill="none" fill-rule="evenodd" stroke="rgb(91,96,99)" stroke-width="1.544970"/><polyline id="ehghjf5omig47" points="188.268040,289.494343 188.268040,234.745297 141.451833,234.745297" fill="none" fill-rule="evenodd" stroke="rgb(91,96,99)" stroke-width="1.544970"/><path id="ehghjf5omig48" d="M117.517357,234.745297C117.517357,241.354513,122.875249,246.712405,129.484465,246.712405C136.094052,246.712405,141.451944,241.354513,141.451944,234.745297C141.451944,228.136081,136.094052,222.778189,129.484465,222.778189C122.875249,222.778189,117.517357,228.136081,117.517357,234.745297Z" fill="none" fill-rule="evenodd" stroke="rgb(91,96,99)" stroke-width="1.544970"/><path id="ehghjf5omig49" d="M124.407982,232.079883C124.407982,234.883591,126.680757,237.156367,129.484465,237.156367C132.288173,237.156367,134.561319,234.883591,134.561319,232.079883C134.561319,229.276176,132.288173,227.003400,129.484465,227.003400C126.680757,227.003400,124.407982,229.276176,124.407982,232.079883Z" fill="none" fill-rule="evenodd" stroke="rgb(91,96,99)" stroke-width="1.544970"/><path id="ehghjf5omig50" d="M137.354052,243.794243C136.078628,240.778459,133.092135,238.662516,129.611785,238.662516C126.131435,238.662516,123.145313,240.778459,121.869518,243.794243" fill="none" fill-rule="evenodd" stroke="rgb(91,96,99)" stroke-width="1.544970"/><line id="ehghjf5omig51" x1="150.283697" y1="280.980222" x2="178.787934" y2="280.980222" fill="none" fill-rule="evenodd" stroke="rgb(91,96,99)" stroke-width="1.544970"/><polygon id="ehghjf5omig52" points="113.785593,280.868326 124.261494,280.868326 124.261494,270.392426 113.785593,270.392426" fill="none" fill-rule="evenodd" stroke="rgb(91,96,99)" stroke-width="1.544970"/><polygon id="ehghjf5omig53" points="124.261494,280.868326 134.737394,280.868326 134.737394,270.392426 124.261494,270.392426" fill="none" fill-rule="evenodd" stroke="rgb(91,96,99)" stroke-width="1.544970"/><polygon id="ehghjf5omig54" points="134.737394,280.868326 145.213294,280.868326 145.213294,270.392426 134.737394,270.392426" fill="none" fill-rule="evenodd" stroke="rgb(91,96,99)" stroke-width="1.544970"/><polygon id="ehghjf5omig55" points="113.785593,291.343856 124.261494,291.343856 124.261494,280.867956 113.785593,280.867956" fill="none" fill-rule="evenodd" stroke="rgb(91,96,99)" stroke-width="1.544970"/><polygon id="ehghjf5omig56" points="124.261494,291.343856 134.737394,291.343856 134.737394,280.867956 124.261494,280.867956" fill="none" fill-rule="evenodd" stroke="rgb(91,96,99)" stroke-width="1.544970"/><polygon id="ehghjf5omig57" points="134.737394,291.343856 145.213294,291.343856 145.213294,280.867956 134.737394,280.867956" fill="none" fill-rule="evenodd" stroke="rgb(91,96,99)" stroke-width="1.544970"/><line id="ehghjf5omig58" x1="120.967897" y1="266.193130" x2="138.001107" y2="266.193130" fill="none" fill-rule="evenodd" stroke="rgb(91,96,99)" stroke-width="1.544970"/><polyline id="ehghjf5omig59" points="141.968490,266.193130 145.213406,266.193130 145.213406,270.377929 113.785334,270.377929 113.785334,266.193130 117.142590,266.193130" fill="none" fill-rule="evenodd" stroke="rgb(91,96,99)" stroke-width="1.544970"/><path id="ehghjf5omig60" d="M118.994958,268.968808L118.994958,268.968808C119.558517,268.968808,120.019746,268.507579,120.019746,267.944020L120.019746,264.442537C120.019746,263.878607,119.558517,263.417749,118.994958,263.417749C118.431028,263.417749,117.970169,263.878607,117.970169,264.442537L117.970169,267.944020C117.970169,268.507579,118.431028,268.968808,118.994958,268.968808" fill="rgb(91,106,205)" fill-rule="evenodd" stroke="none" stroke-width="1"/><path id="ehghjf5omig61" d="M140.003893,268.968808L140.003893,268.968808C140.567452,268.968808,141.028681,268.507579,141.028681,267.944020L141.028681,264.442537C141.028681,263.878607,140.567452,263.417749,140.003893,263.417749C139.439963,263.417749,138.979105,263.878607,138.979105,264.442537L138.979105,267.944020C138.979105,268.507579,139.439963,268.968808,140.003893,268.968808" fill="rgb(91,106,205)" fill-rule="evenodd" stroke="none" stroke-width="1"/><polygon id="ehghjf5omig62" points="185.475530,292.153972 191.224576,292.153972 191.224576,286.404926 185.475530,286.404926" fill="rgb(91,96,99)" fill-rule="evenodd" stroke="none" stroke-width="1"/><polygon id="ehghjf5omig63" points="175.913559,292.153972 181.662606,292.153972 181.662606,286.404926 175.913559,286.404926" fill="rgb(91,96,99)" fill-rule="evenodd" stroke="none" stroke-width="1"/><path id="ehghjf5omig64" d="M502.710821,292.841367L699.816435,292.841367C699.816435,292.841367,688.113310,285.845445,678.463099,285.519915C668.813257,285.194386,659.163416,288.001059,659.163416,288.001059C659.163416,288.001059,640.890005,292.109110,625.901923,288.001059C610.913469,283.893008,595.514582,272.829449,574.367018,272.829449C553.219084,272.829449,525.090429,278.523994,502.710821,292.841367" fill="rgb(90,197,155)" fill-rule="evenodd" stroke="none" stroke-width="1"/><path id="ehghjf5omig65" d="M641.954502,161.761695L384.401960,161.761695C384.401960,161.761695,406.560964,159.219004,419.820180,155.222924C433.079025,151.226843,448.335911,146.141462,466.862182,150.500519C485.388824,154.859576,497.194650,151.590191,501.917055,149.955498C506.639460,148.321176,530.830985,129.794534,561.599841,129.794534C592.369439,129.794534,620.885169,152.821123,620.885169,152.821123C620.885169,152.821123,630.154979,159.219004,641.954502,161.761695" fill="rgb(170,173,224)" fill-rule="evenodd" stroke="none" stroke-width="1"/><path id="ehghjf5omig66" d="M236.444910,201.754126L115.941467,201.754126C115.941467,201.754126,131.959158,200.077908,139.408893,197.656827C146.858999,195.235376,163.435429,190.951584,179.638872,190.951584C195.842685,190.951584,213.163607,198.029073,213.163607,198.029073C213.163607,198.029073,222.476054,201.754126,236.444910,201.754126" fill="rgb(90,197,155)" fill-rule="evenodd" stroke="none" stroke-width="1"/></g><g id="ehghjf5omig67" transform="matrix(1 0 0 1 578.38999999999999 12.94700000000000)"><polygon id="ehghjf5omig68" points="72.690625,0.001854 0.246186,72.379926 20.167267,72.379926 92.611705,0.001854" fill="url(#ehghjf5omig68-fill)" fill-rule="evenodd" stroke="none" stroke-width="1"/></g><g id="ehghjf5omig69_to" transform="translate(0,0)"><path id="ehghjf5omig69" d="M0,341C18.526463,341,149.372558,341,174,341C136.530819,337.906813,126.858529,325,93.691637,325C60.524745,325,34.416219,337.835296,0,341Z" transform="translate(0,0)" fill="rgb(170,173,224)" fill-rule="evenodd" stroke="none" stroke-width="1"/></g><g id="ehghjf5omig70" transform="matrix(1 0 0 1 102.33100000000000 0.34110200000000)"><line id="ehghjf5omig71" x1="54.408204" y1="446.367532" x2="32.633310" y2="446.367532" fill="none" fill-rule="evenodd" stroke="rgb(91,96,99)" stroke-width="1.544970"/><line id="ehghjf5omig72" x1="43.520683" y1="435.480011" x2="43.520683" y2="457.254905" fill="none" fill-rule="evenodd" stroke="rgb(91,96,99)" stroke-width="1.544970"/><line id="ehghjf5omig73" x1="500.565736" y1="10.918851" x2="478.790842" y2="10.918851" fill="none" fill-rule="evenodd" stroke="rgb(91,96,99)" stroke-width="1.544970"/><line id="ehghjf5omig74" x1="489.678363" y1="0.031515" x2="489.678363" y2="21.806409" fill="none" fill-rule="evenodd" stroke="rgb(91,96,99)" stroke-width="1.544970"/><line id="ehghjf5omig75" x1="111.085291" y1="94.361446" x2="89.310397" y2="94.361446" fill="none" fill-rule="evenodd" stroke="rgb(91,96,99)" stroke-width="1.544970"/><line id="ehghjf5omig76" x1="100.197956" y1="83.474110" x2="100.197956" y2="105.249004" fill="none" fill-rule="evenodd" stroke="rgb(91,96,99)" stroke-width="1.544970"/><line id="ehghjf5omig77" x1="134.500922" y1="172.538284" x2="127.347055" y2="172.538284" fill="none" fill-rule="evenodd" stroke="rgb(91,96,99)" stroke-width="1.544970"/><line id="ehghjf5omig78" x1="130.923988" y1="168.961351" x2="130.923988" y2="176.115217" fill="none" fill-rule="evenodd" stroke="rgb(91,96,99)" stroke-width="1.544970"/><path id="ehghjf5omig79" d="M37.373957,106.270938C37.373957,108.077664,38.838469,109.541806,40.645196,109.541806C42.451552,109.541806,43.916065,108.077664,43.916065,106.270938C43.916065,104.464211,42.451552,102.999698,40.645196,102.999698C38.838469,102.999698,37.373957,104.464211,37.373957,106.270938Z" fill="none" fill-rule="evenodd" stroke="rgb(91,96,99)" stroke-width="1.544970"/><path id="ehghjf5omig80" d="M506.669010,29.078994C506.669010,30.885720,508.133522,32.349862,509.939878,32.349862C511.746605,32.349862,513.211118,30.885720,513.211118,29.078994C513.211118,27.272267,511.746605,25.807754,509.939878,25.807754C508.133522,25.807754,506.669010,27.272267,506.669010,29.078994Z" fill="none" fill-rule="evenodd" stroke="rgb(91,96,99)" stroke-width="1.544970"/><path id="ehghjf5omig81" d="M451.736917,70.704894C451.736917,73.844142,454.281833,76.389057,457.421081,76.389057C460.559958,76.389057,463.104873,73.844142,463.104873,70.704894C463.104873,67.565646,460.559958,65.020731,457.421081,65.020731C454.281833,65.020731,451.736917,67.565646,451.736917,70.704894Z" fill="none" fill-rule="evenodd" stroke="rgb(91,96,99)" stroke-width="1.544970"/><path id="ehghjf5omig82" d="M3.425625,407.911393C3.425625,411.226382,6.113284,413.913671,9.428273,413.913671C12.743263,413.913671,15.430922,411.226382,15.430922,407.911393C15.430922,404.596404,12.743263,401.908745,9.428273,401.908745C6.113284,401.908745,3.425625,404.596404,3.425625,407.911393Z" fill="none" fill-rule="evenodd" stroke="rgb(91,96,99)" stroke-width="1.544970"/><path id="ehghjf5omig83" d="M0.154645,454.604693C0.154645,456.411419,1.619158,457.875932,3.425514,457.875932C5.232240,457.875932,6.696753,456.411419,6.696753,454.604693C6.696753,452.798337,5.232240,451.333824,3.425514,451.333824C1.619158,451.333824,0.154645,452.798337,0.154645,454.604693Z" fill="none" fill-rule="evenodd" stroke="rgb(91,96,99)" stroke-width="1.544970"/><line id="ehghjf5omig84" x1="421.191928" y1="25.502060" x2="414.038061" y2="25.502060" fill="none" fill-rule="evenodd" stroke="rgb(91,96,99)" stroke-width="1.544970"/><line id="ehghjf5omig85" x1="417.614995" y1="21.925164" x2="417.614995" y2="29.079031" fill="none" fill-rule="evenodd" stroke="rgb(91,96,99)" stroke-width="1.544970"/><polygon id="ehghjf5omig86" points="486.570519,531.922844 509.734290,531.922844 557.640540,484.121891 557.660561,460.938099" fill="rgb(170,173,224)" fill-rule="evenodd" stroke="none" stroke-width="1"/><path id="ehghjf5omig87" d="M457.345445,378.631631L472.514831,388.375275L456.143803,408.199958L454.162076,393.215212L457.345445,378.631631ZM488.306727,388.375275L455.602489,352.348633L449.840837,350.274587L449.840837,345.946674L459.603761,334.102659L460.404237,326.580254L447.279979,317.137299L431.594862,338.744237L438.317161,343.385816L438.317161,345.946674L431.594862,343.705784L396.383528,341.785233L374.880102,322.189507L375.520409,309.919115L372.426024,313.013130L363.889954,303.196817L367.824488,312.687230L362.289371,318.028437L388.861123,351.281578L415.554184,359.711981L417.243379,524.671356L402.412129,531.999481L426.206568,531.999481L438.156992,440.377341L461.631462,526.144025L457.789989,531.999481L472.514831,531.999481L457.403655,417.727076L488.306727,388.375275Z" fill="rgb(93,115,231)" fill-rule="evenodd" stroke="none" stroke-width="1"/><path id="ehghjf5omig88" d="M85.523130,408.315821L70.588808,388.356552L84.312961,378.546912L87.518204,393.229486L85.523130,408.315821ZM188.731234,354.144793L192.273501,352.651732L191.966510,351.092675L180.979327,352.508618L153.267781,360.960895L118.211425,343.251043L106.197230,345.198289L106.051149,341.158088L114.216457,340.172601L110.365344,313.568522L94.245323,315.832770L91.433459,322.910630L94.582717,338.039603L94.342463,349.068310L91.868734,349.997442L86.067781,352.085577L54.689762,388.356552L84.254751,417.907823L69.040874,532.955122L83.865450,532.955122L79.998395,527.059624L103.631923,440.711213L115.663173,532.955122L139.619264,532.955122L124.687166,525.576944L126.348554,363.340450L153.135789,373.157135L183.643628,360.411425L202.261849,356.261849L188.731234,354.144793Z" fill="rgb(90,197,155)" fill-rule="evenodd" stroke="none" stroke-width="1"/></g></g></g></g></g></svg>