<svg width="160" height="40" viewBox="0 0 160 40" fill="none" xmlns="http://www.w3.org/2000/svg">
<path fill-rule="evenodd" clip-rule="evenodd" d="M24.965 21.9968C24.965 27.9964 29.9748 32.877 36.1333 32.877V32.8776C38.6566 32.882 41.1082 32.0431 43.0948 30.4956H45.7694C43.2838 33.1633 39.79 34.6756 36.1333 34.6667C30.5825 34.6667 25.8358 31.2593 23.9725 26.4799L10.802 27.3334C10.2961 27.3659 9.85816 26.9927 9.82486 26.4997C9.79028 26.0074 10.1745 25.5819 10.6803 25.5488L23.4353 24.7215C23.25 23.897 23.1492 23.0561 23.1344 22.2114L4.50259 17.7556C4.26815 17.7027 4.06485 17.5584 3.93823 17.3551C3.81161 17.1519 3.77226 16.9066 3.82899 16.6742C3.95645 16.1903 4.4511 15.898 4.93929 16.0182L23.2375 20.3931C23.3431 19.5796 23.5301 18.7786 23.7958 18.0021L2.26855 6.98689C2.05411 6.87998 1.89214 6.6915 1.81934 6.46417C1.74653 6.23684 1.76905 5.9899 1.8818 5.77932C2.1238 5.33993 2.67421 5.17308 3.12144 5.40355L24.5014 16.343C24.8145 15.7348 25.1776 15.1526 25.5829 14.6036L14.1687 5.36533C13.9818 5.21603 13.8635 4.9979 13.8407 4.76053C13.8179 4.52315 13.8926 4.2867 14.0477 4.1049C14.376 3.72384 14.9497 3.67243 15.3411 3.98898L26.7598 13.2304C27.3203 12.6611 27.9325 12.1445 28.5885 11.6872L24.0218 4.94434C23.8881 4.74634 23.8404 4.503 23.8896 4.26952C23.9388 4.03604 24.0807 3.83222 24.2831 3.70429C24.7061 3.43162 25.2705 3.54441 25.5547 3.95841L30.1547 10.7516C31.9463 9.84467 33.9787 9.32878 36.1333 9.32878C39.9447 9.31936 43.5708 10.9628 46.0646 13.8298H43.5014C41.5331 12.1433 38.9545 11.1166 36.1333 11.1166C29.9748 11.1166 24.965 15.9978 24.965 21.9968ZM46.2256 17.9152C45.4741 17.9152 45.108 17.4133 45.108 16.845C45.108 15.9936 45.7362 15.3087 46.7157 15.3087C47.4671 15.3087 47.8172 15.81 47.8172 16.3783C47.8172 17.2968 47.2051 17.9146 46.2256 17.9146V17.9152ZM35.8284 27.7533C34.5349 27.7533 32.7352 27.6687 31.7564 27.5196L33.7834 16.4622C34.7963 16.3288 36.7546 16.2279 37.8028 16.2279C40.3712 16.2279 42.3109 17.5637 42.3109 20.838C42.3109 24.9476 39.7251 27.7533 35.8291 27.7533H35.8284ZM37.332 18.4152C36.9286 18.4152 36.3872 18.4327 36.0025 18.4653L34.7109 25.5159C35.0423 25.5484 35.8111 25.566 36.2138 25.566C38.4502 25.566 39.569 23.5272 39.569 20.7221C39.569 19.0348 38.6076 18.4164 37.3326 18.4164L37.332 18.4152ZM43.2731 27.6016H45.6321L47.2404 18.8832H44.88L43.2731 27.6016ZM53.1995 20.8706C53.7749 20.8706 54.4217 20.9715 54.9291 21.1877C55.2265 20.5874 55.4532 19.8193 55.6099 19.1006C54.9991 18.8832 54.0203 18.7165 53.1288 18.7165C50.9624 18.7165 49.058 19.8017 48.498 23.0748C48.428 23.4934 48.3933 23.91 48.3933 24.2778C48.3933 26.5002 49.7395 27.7702 52.1153 27.7702C52.8321 27.7702 53.9156 27.6198 54.4744 27.3523C54.4744 26.6499 54.457 25.8824 54.3517 25.2132C53.8449 25.4639 53.1995 25.6155 52.6047 25.6155C51.5045 25.6155 50.9438 25.2978 50.9438 24.1782C50.9438 23.8937 50.9797 23.5604 51.0497 23.1594C51.3645 21.422 52.0286 20.8706 53.1995 20.8706ZM62.3031 20.8543H60.0667L59.3505 24.779C59.3326 24.8793 59.3326 24.9626 59.3326 25.0466C59.3326 25.5484 59.6486 25.6988 60.3294 25.6988C60.7661 25.6988 61.3769 25.5647 61.6923 25.4313C61.7096 25.665 61.7276 25.9325 61.7276 26.2157C61.7276 26.6336 61.6923 27.0678 61.657 27.4187C61.1155 27.653 60.084 27.7696 59.5786 27.7696C57.759 27.7696 56.9214 26.9175 56.9214 25.482C56.9214 25.2132 56.9561 24.9463 57.0088 24.6456L57.7076 20.855H56.6767L57.0428 18.8838H58.0737L58.4064 17.08C59.2017 16.8797 60.0154 16.7567 60.8355 16.7128L60.4334 18.8838H62.7919C62.7052 19.5354 62.5478 20.2535 62.3031 20.8543ZM63.1779 27.6016H65.537L67.1439 18.8832H64.7849L63.1779 27.6016ZM66.1317 17.9152C65.3796 17.9152 65.0116 17.4133 65.0116 16.845C65.0116 15.9936 65.641 15.3087 66.6205 15.3087C67.3719 15.3087 67.722 15.81 67.722 16.3783C67.722 17.2968 67.1093 17.9146 66.1317 17.9146V17.9152ZM72.0728 27.7689C74.4665 27.7689 76.2835 26.4338 76.773 23.4771C76.843 23.0592 76.8963 22.5742 76.8963 22.1901C76.8963 19.7854 75.3054 18.7165 73.1216 18.7165C70.7099 18.7165 68.9102 20.0523 68.4202 23.0084C68.3495 23.4602 68.2981 23.8937 68.2981 24.2947C68.2981 26.6505 69.8537 27.7689 72.0728 27.7689ZM72.9643 20.62C71.9674 20.62 71.3033 21.2221 70.9552 23.244C70.891 23.6074 70.8557 23.9752 70.8499 24.3442C70.8499 25.4808 71.4087 25.8649 72.2308 25.8649C73.2957 25.8649 73.8904 25.2132 74.2392 23.244C74.3098 22.8417 74.3445 22.4408 74.3445 22.1406C74.3445 21.0044 73.7854 20.6202 72.9643 20.62ZM85.2671 27.6016L86.4026 21.422C86.4373 21.2221 86.472 20.9715 86.472 20.7535C86.472 19.2673 85.3885 18.7172 84.1303 18.7172C83.3101 18.7172 82.5233 18.8337 81.6498 19.7015H81.5271L81.6845 18.8337C80.8906 18.835 80.0967 18.8788 79.308 18.9665L77.7171 27.6016H80.0775L81.2657 21.1382C81.8065 20.838 82.3139 20.6714 82.8727 20.6714C83.6762 20.6714 84.0076 20.9207 84.0076 21.422C84.0076 21.5059 84.0076 21.573 83.9909 21.6889L82.9074 27.6016H85.2671ZM95.8043 26.2658C95.5776 27.4187 94.9655 27.7696 94.1273 27.7696C93.2358 27.7696 92.7124 27.4688 92.4317 26.7834H92.3623C91.5235 27.5691 90.7714 27.7696 89.8632 27.7696C88.1156 27.7696 87.3468 26.8842 87.3468 25.5478C87.3468 25.3473 87.3641 25.1468 87.3982 24.93C87.7488 23.1268 89.0764 22.6751 91.2968 22.5918L92.7464 22.5416L93.0258 21.0548C92.6237 20.8706 91.9082 20.7215 91.2788 20.7215C90.5857 20.7235 89.8988 20.8479 89.2511 21.0887C89.1689 20.3932 89.1869 19.6908 89.3044 19.0004C90.142 18.783 90.8941 18.7165 91.7156 18.7165C93.0791 18.7165 94.6334 19.0674 95.5255 19.7347L94.5814 24.8624C94.5618 24.951 94.55 25.0412 94.5461 25.1318C94.5461 25.4144 94.7034 25.5152 95.0535 25.5152H95.9443L95.8043 26.2658ZM89.7752 24.9808C89.9152 24.2778 90.282 24.1118 91.0335 24.0773V24.0779L92.467 24.0278L92.1696 25.6311C91.7323 25.915 91.1388 26.0321 90.6314 26.0321C90.0026 26.0321 89.7412 25.7489 89.7412 25.2803C89.7431 25.1794 89.7547 25.0792 89.7752 24.9808ZM103.074 21.1551C102.788 21.0879 102.495 21.0543 102.201 21.0548C101.589 21.0548 100.943 21.2221 100.471 21.4727L99.3522 27.6016H96.9931L98.5834 18.9678C99.3724 18.8797 100.166 18.8349 100.96 18.8337L100.751 19.9521H100.873C101.763 18.8832 102.48 18.7172 103.057 18.7172C103.267 18.7172 103.545 18.7491 103.721 18.7992C103.588 19.6038 103.371 20.3931 103.074 21.1551ZM103.914 31.21C105.591 31.21 106.902 30.5753 108.561 27.4356L113.035 18.9678C112.354 18.8669 111.341 18.8331 110.694 18.8331L108.108 24.061C107.968 24.3279 107.792 24.6963 107.67 25.0798H107.548C107.548 24.7126 107.514 24.3279 107.478 24.061L106.902 18.8331C106.148 18.8376 105.396 18.8826 104.647 18.9678C104.752 22.0247 105.417 25.4313 106.045 27.5522L105.626 28.2207C105.207 28.8717 104.927 29.0383 104.314 29.0383C103.809 29.0383 103.18 28.9719 102.865 28.8391C102.586 29.4061 102.358 30.1091 102.184 30.8923C102.69 31.1598 103.477 31.21 103.914 31.21ZM113.385 27.7696C112.705 27.7696 112.215 27.4187 112.215 26.7332C112.215 25.7489 112.947 25.2477 113.787 25.2477C114.416 25.2477 114.905 25.6324 114.905 26.2997C114.905 27.2846 114.207 27.7696 113.385 27.7696ZM122.612 21.1874L122.613 21.1877H122.612L122.612 21.1874ZM123.294 19.1006C123.136 19.8192 122.909 20.5872 122.612 21.1874C122.105 20.9714 121.459 20.8706 120.883 20.8706C119.711 20.8706 119.047 21.422 118.732 23.1594C118.669 23.4956 118.633 23.8363 118.628 24.1782C118.628 25.2978 119.186 25.6155 120.288 25.6155C120.894 25.6114 121.491 25.4739 122.036 25.2132C122.141 25.8824 122.158 26.6499 122.158 27.3523C121.599 27.6198 120.516 27.7702 119.798 27.7702C117.421 27.7702 116.076 26.5002 116.076 24.2778C116.076 23.91 116.111 23.4934 116.182 23.0748C116.741 19.8017 118.646 18.7165 120.813 18.7165C121.703 18.7165 122.682 18.8832 123.294 19.1006ZM132.119 23.4771C131.629 26.4338 129.812 27.7689 127.418 27.7689C125.199 27.7689 123.644 26.6505 123.644 24.2947C123.644 23.8937 123.695 23.4602 123.766 23.0084C124.255 20.0523 126.056 18.7165 128.467 18.7165C130.651 18.7165 132.241 19.7854 132.241 22.1901C132.241 22.5742 132.189 23.0592 132.119 23.4771ZM126.3 23.244C126.649 21.2225 127.313 20.6202 128.309 20.62C129.131 20.62 129.69 21.0041 129.69 22.1406C129.685 22.5106 129.65 22.8795 129.585 23.244C129.235 25.2132 128.641 25.8649 127.574 25.8649C126.754 25.8649 126.195 25.4808 126.195 24.3442C126.201 23.9754 126.236 23.6075 126.3 23.244ZM146.152 21.422L145.016 27.6016H142.656L143.739 21.6889C143.757 21.5886 143.757 21.5229 143.757 21.4383C143.757 20.9715 143.477 20.6714 142.761 20.6714C142.29 20.6714 141.749 20.8706 141.364 21.1382L140.175 27.6016H137.816L138.9 21.6889C138.917 21.5886 138.934 21.4727 138.934 21.3882C138.934 20.937 138.655 20.6714 137.99 20.6714C137.484 20.6714 137.013 20.8543 136.523 21.1382L135.334 27.6016H132.975L134.566 18.9665C135.354 18.8788 136.148 18.835 136.942 18.8337L136.785 19.7015H136.907C137.78 18.8506 138.496 18.7172 139.355 18.7172C140.297 18.7172 140.978 19.0342 141.172 19.8857C142.15 18.9835 142.953 18.7172 143.897 18.7172C145.242 18.7172 146.222 19.3337 146.222 20.7535C146.222 20.9715 146.187 21.2384 146.152 21.422H146.152Z" fill="white"/>
<mask id="mask0_213_62869" style="mask-type:alpha" maskUnits="userSpaceOnUse" x="1" y="3" width="146" height="32">
<path fill-rule="evenodd" clip-rule="evenodd" d="M24.965 21.9968C24.965 27.9964 29.9748 32.877 36.1333 32.877V32.8776C38.6566 32.882 41.1082 32.0431 43.0948 30.4956H45.7694C43.2838 33.1633 39.79 34.6756 36.1333 34.6667C30.5825 34.6667 25.8358 31.2593 23.9725 26.4799L10.802 27.3334C10.2961 27.3659 9.85816 26.9927 9.82486 26.4997C9.79028 26.0074 10.1745 25.5819 10.6803 25.5488L23.4353 24.7215C23.25 23.897 23.1492 23.0561 23.1344 22.2114L4.50259 17.7556C4.26815 17.7027 4.06485 17.5584 3.93823 17.3551C3.81161 17.1519 3.77226 16.9066 3.82899 16.6742C3.95645 16.1903 4.4511 15.898 4.93929 16.0182L23.2375 20.3931C23.3431 19.5796 23.5301 18.7786 23.7958 18.0021L2.26855 6.98689C2.05411 6.87998 1.89214 6.6915 1.81934 6.46417C1.74653 6.23684 1.76905 5.9899 1.8818 5.77932C2.1238 5.33993 2.67421 5.17308 3.12144 5.40355L24.5014 16.343C24.8145 15.7348 25.1776 15.1526 25.5829 14.6036L14.1687 5.36533C13.9818 5.21603 13.8635 4.9979 13.8407 4.76053C13.8179 4.52315 13.8926 4.2867 14.0477 4.1049C14.376 3.72384 14.9497 3.67243 15.3411 3.98898L26.7598 13.2304C27.3203 12.6611 27.9325 12.1445 28.5885 11.6872L24.0218 4.94434C23.8881 4.74634 23.8404 4.503 23.8896 4.26952C23.9388 4.03604 24.0807 3.83222 24.2831 3.70429C24.7061 3.43162 25.2705 3.54441 25.5547 3.95841L30.1547 10.7516C31.9463 9.84467 33.9787 9.32878 36.1333 9.32878C39.9447 9.31936 43.5708 10.9628 46.0646 13.8298H43.5014C41.5331 12.1433 38.9545 11.1166 36.1333 11.1166C29.9748 11.1166 24.965 15.9978 24.965 21.9968ZM46.2256 17.9152C45.4741 17.9152 45.108 17.4133 45.108 16.845C45.108 15.9936 45.7362 15.3087 46.7157 15.3087C47.4671 15.3087 47.8172 15.81 47.8172 16.3783C47.8172 17.2968 47.2051 17.9146 46.2256 17.9146V17.9152ZM35.8284 27.7533C34.5349 27.7533 32.7352 27.6687 31.7564 27.5196L33.7834 16.4622C34.7963 16.3288 36.7546 16.2279 37.8028 16.2279C40.3712 16.2279 42.3109 17.5637 42.3109 20.838C42.3109 24.9476 39.7251 27.7533 35.8291 27.7533H35.8284ZM37.332 18.4152C36.9286 18.4152 36.3872 18.4327 36.0025 18.4653L34.7109 25.5159C35.0423 25.5484 35.8111 25.566 36.2138 25.566C38.4502 25.566 39.569 23.5272 39.569 20.7221C39.569 19.0348 38.6076 18.4164 37.3326 18.4164L37.332 18.4152ZM43.2731 27.6016H45.6321L47.2404 18.8832H44.88L43.2731 27.6016ZM53.1995 20.8706C53.7749 20.8706 54.4217 20.9715 54.9291 21.1877C55.2265 20.5874 55.4532 19.8193 55.6099 19.1006C54.9991 18.8832 54.0203 18.7165 53.1288 18.7165C50.9624 18.7165 49.058 19.8017 48.498 23.0748C48.428 23.4934 48.3933 23.91 48.3933 24.2778C48.3933 26.5002 49.7395 27.7702 52.1153 27.7702C52.8321 27.7702 53.9156 27.6198 54.4744 27.3523C54.4744 26.6499 54.457 25.8824 54.3517 25.2132C53.8449 25.4639 53.1995 25.6155 52.6047 25.6155C51.5045 25.6155 50.9438 25.2978 50.9438 24.1782C50.9438 23.8937 50.9797 23.5604 51.0497 23.1594C51.3645 21.422 52.0286 20.8706 53.1995 20.8706ZM62.3031 20.8543H60.0667L59.3505 24.779C59.3326 24.8793 59.3326 24.9626 59.3326 25.0466C59.3326 25.5484 59.6486 25.6988 60.3294 25.6988C60.7661 25.6988 61.3769 25.5647 61.6923 25.4313C61.7096 25.665 61.7276 25.9325 61.7276 26.2157C61.7276 26.6336 61.6923 27.0678 61.657 27.4187C61.1155 27.653 60.084 27.7696 59.5786 27.7696C57.759 27.7696 56.9214 26.9175 56.9214 25.482C56.9214 25.2132 56.9561 24.9463 57.0088 24.6456L57.7076 20.855H56.6767L57.0428 18.8838H58.0737L58.4064 17.08C59.2017 16.8797 60.0154 16.7567 60.8355 16.7128L60.4334 18.8838H62.7919C62.7052 19.5354 62.5478 20.2535 62.3031 20.8543ZM63.1779 27.6016H65.537L67.1439 18.8832H64.7849L63.1779 27.6016ZM66.1317 17.9152C65.3796 17.9152 65.0116 17.4133 65.0116 16.845C65.0116 15.9936 65.641 15.3087 66.6205 15.3087C67.3719 15.3087 67.722 15.81 67.722 16.3783C67.722 17.2968 67.1093 17.9146 66.1317 17.9146V17.9152ZM72.0728 27.7689C74.4665 27.7689 76.2835 26.4338 76.773 23.4771C76.843 23.0592 76.8963 22.5742 76.8963 22.1901C76.8963 19.7854 75.3054 18.7165 73.1216 18.7165C70.7099 18.7165 68.9102 20.0523 68.4202 23.0084C68.3495 23.4602 68.2981 23.8937 68.2981 24.2947C68.2981 26.6505 69.8537 27.7689 72.0728 27.7689ZM72.9643 20.62C71.9674 20.62 71.3033 21.2221 70.9552 23.244C70.891 23.6074 70.8557 23.9752 70.8499 24.3442C70.8499 25.4808 71.4087 25.8649 72.2308 25.8649C73.2957 25.8649 73.8904 25.2132 74.2392 23.244C74.3098 22.8417 74.3445 22.4408 74.3445 22.1406C74.3445 21.0044 73.7854 20.6202 72.9643 20.62ZM85.2671 27.6016L86.4026 21.422C86.4373 21.2221 86.472 20.9715 86.472 20.7535C86.472 19.2673 85.3885 18.7172 84.1303 18.7172C83.3101 18.7172 82.5233 18.8337 81.6498 19.7015H81.5271L81.6845 18.8337C80.8906 18.835 80.0967 18.8788 79.308 18.9665L77.7171 27.6016H80.0775L81.2657 21.1382C81.8065 20.838 82.3139 20.6714 82.8727 20.6714C83.6762 20.6714 84.0076 20.9207 84.0076 21.422C84.0076 21.5059 84.0076 21.573 83.9909 21.6889L82.9074 27.6016H85.2671ZM95.8043 26.2658C95.5776 27.4187 94.9655 27.7696 94.1273 27.7696C93.2358 27.7696 92.7124 27.4688 92.4317 26.7834H92.3623C91.5235 27.5691 90.7714 27.7696 89.8632 27.7696C88.1156 27.7696 87.3468 26.8842 87.3468 25.5478C87.3468 25.3473 87.3641 25.1468 87.3982 24.93C87.7488 23.1268 89.0764 22.6751 91.2968 22.5918L92.7464 22.5416L93.0258 21.0548C92.6237 20.8706 91.9082 20.7215 91.2788 20.7215C90.5857 20.7235 89.8988 20.8479 89.2511 21.0887C89.1689 20.3932 89.1869 19.6908 89.3044 19.0004C90.142 18.783 90.8941 18.7165 91.7156 18.7165C93.0791 18.7165 94.6334 19.0674 95.5255 19.7347L94.5814 24.8624C94.5618 24.951 94.55 25.0412 94.5461 25.1318C94.5461 25.4144 94.7034 25.5152 95.0535 25.5152H95.9443L95.8043 26.2658ZM89.7752 24.9808C89.9152 24.2778 90.282 24.1118 91.0335 24.0773V24.0779L92.467 24.0278L92.1696 25.6311C91.7323 25.915 91.1388 26.0321 90.6314 26.0321C90.0026 26.0321 89.7412 25.7489 89.7412 25.2803C89.7431 25.1794 89.7547 25.0792 89.7752 24.9808ZM103.074 21.1551C102.788 21.0879 102.495 21.0543 102.201 21.0548C101.589 21.0548 100.943 21.2221 100.471 21.4727L99.3522 27.6016H96.9931L98.5834 18.9678C99.3724 18.8797 100.166 18.8349 100.96 18.8337L100.751 19.9521H100.873C101.763 18.8832 102.48 18.7172 103.057 18.7172C103.267 18.7172 103.545 18.7491 103.721 18.7992C103.588 19.6038 103.371 20.3931 103.074 21.1551ZM103.914 31.21C105.591 31.21 106.902 30.5753 108.561 27.4356L113.035 18.9678C112.354 18.8669 111.341 18.8331 110.694 18.8331L108.108 24.061C107.968 24.3279 107.792 24.6963 107.67 25.0798H107.548C107.548 24.7126 107.514 24.3279 107.478 24.061L106.902 18.8331C106.148 18.8376 105.396 18.8826 104.647 18.9678C104.752 22.0247 105.417 25.4313 106.045 27.5522L105.626 28.2207C105.207 28.8717 104.927 29.0383 104.314 29.0383C103.809 29.0383 103.18 28.9719 102.865 28.8391C102.586 29.4061 102.358 30.1091 102.184 30.8923C102.69 31.1598 103.477 31.21 103.914 31.21ZM113.385 27.7696C112.705 27.7696 112.215 27.4187 112.215 26.7332C112.215 25.7489 112.947 25.2477 113.787 25.2477C114.416 25.2477 114.905 25.6324 114.905 26.2997C114.905 27.2846 114.207 27.7696 113.385 27.7696ZM122.612 21.1874L122.613 21.1877H122.612L122.612 21.1874ZM123.294 19.1006C123.136 19.8192 122.909 20.5872 122.612 21.1874C122.105 20.9714 121.459 20.8706 120.883 20.8706C119.711 20.8706 119.047 21.422 118.732 23.1594C118.669 23.4956 118.633 23.8363 118.628 24.1782C118.628 25.2978 119.186 25.6155 120.288 25.6155C120.894 25.6114 121.491 25.4739 122.036 25.2132C122.141 25.8824 122.158 26.6499 122.158 27.3523C121.599 27.6198 120.516 27.7702 119.798 27.7702C117.421 27.7702 116.076 26.5002 116.076 24.2778C116.076 23.91 116.111 23.4934 116.182 23.0748C116.741 19.8017 118.646 18.7165 120.813 18.7165C121.703 18.7165 122.682 18.8832 123.294 19.1006ZM132.119 23.4771C131.629 26.4338 129.812 27.7689 127.418 27.7689C125.199 27.7689 123.644 26.6505 123.644 24.2947C123.644 23.8937 123.695 23.4602 123.766 23.0084C124.255 20.0523 126.056 18.7165 128.467 18.7165C130.651 18.7165 132.241 19.7854 132.241 22.1901C132.241 22.5742 132.189 23.0592 132.119 23.4771ZM126.3 23.244C126.649 21.2225 127.313 20.6202 128.309 20.62C129.131 20.62 129.69 21.0041 129.69 22.1406C129.685 22.5106 129.65 22.8795 129.585 23.244C129.235 25.2132 128.641 25.8649 127.574 25.8649C126.754 25.8649 126.195 25.4808 126.195 24.3442C126.201 23.9754 126.236 23.6075 126.3 23.244ZM146.152 21.422L145.016 27.6016H142.656L143.739 21.6889C143.757 21.5886 143.757 21.5229 143.757 21.4383C143.757 20.9715 143.477 20.6714 142.761 20.6714C142.29 20.6714 141.749 20.8706 141.364 21.1382L140.175 27.6016H137.816L138.9 21.6889C138.917 21.5886 138.934 21.4727 138.934 21.3882C138.934 20.937 138.655 20.6714 137.99 20.6714C137.484 20.6714 137.013 20.8543 136.523 21.1382L135.334 27.6016H132.975L134.566 18.9665C135.354 18.8788 136.148 18.835 136.942 18.8337L136.785 19.7015H136.907C137.78 18.8506 138.496 18.7172 139.355 18.7172C140.297 18.7172 140.978 19.0342 141.172 19.8857C142.15 18.9835 142.953 18.7172 143.897 18.7172C145.242 18.7172 146.222 19.3337 146.222 20.7535C146.222 20.9715 146.187 21.2384 146.152 21.422H146.152Z" fill="white"/>
</mask>
<g mask="url(#mask0_213_62869)">
<rect width="160" height="40" fill="#6B79EF"/>
</g>
</svg>
