<svg width="16" height="16" viewBox="0 0 16 16" fill="none" xmlns="http://www.w3.org/2000/svg">
<path fill-rule="evenodd" clip-rule="evenodd" d="M9.3913 2.78227C9.99026 2.78227 10.4348 2.31618 10.4348 1.73879C10.4348 1.16279 9.99026 0.695312 9.3913 0.695312C8.79235 0.695312 8.34783 1.16279 8.34783 1.73879C8.34783 2.31618 8.79235 2.78227 9.3913 2.78227ZM13.2174 4.5214C13.2174 5.09879 12.7729 5.56488 12.1739 5.56488C11.575 5.56488 11.1304 5.09879 11.1304 4.5214C11.1304 3.9454 11.575 3.47792 12.1739 3.47792C12.7729 3.47792 13.2174 3.9454 13.2174 4.5214ZM16 7.99966C16 7.42366 15.5555 6.95618 14.9565 6.95618C14.3576 6.95618 13.913 7.42366 13.913 7.99966C13.913 8.57705 14.3576 9.04314 14.9565 9.04314C15.5555 9.04314 16 8.57705 16 7.99966ZM13.2174 11.4779C13.2174 10.9019 12.7729 10.4344 12.1739 10.4344C11.575 10.4344 11.1304 10.9019 11.1304 11.4779C11.1304 12.0553 11.575 12.5214 12.1739 12.5214C12.7729 12.5214 13.2174 12.0553 13.2174 11.4779ZM9.3913 13.2171C9.99026 13.2171 10.4348 13.6845 10.4348 14.2605C10.4348 14.8379 9.99026 15.304 9.3913 15.304C8.79235 15.304 8.34783 14.8379 8.34783 14.2605C8.34783 13.6845 8.79235 13.2171 9.3913 13.2171ZM2.08696 7.99966C2.08696 7.42366 1.64243 6.95618 1.04348 6.95618C0.444522 6.95618 0 7.42366 0 7.99966C0 8.57705 0.444522 9.04314 1.04348 9.04314C1.64243 9.04314 2.08696 8.57705 2.08696 7.99966ZM4.52174 6.95618C5.1207 6.95618 5.56522 7.42366 5.56522 7.99966C5.56522 8.57705 5.1207 9.04314 4.52174 9.04314C3.92278 9.04314 3.47826 8.57705 3.47826 7.99966C3.47826 7.42366 3.92278 6.95618 4.52174 6.95618ZM9.04348 7.99966C9.04348 7.42366 8.59896 6.95618 8 6.95618C7.40104 6.95618 6.95652 7.42366 6.95652 7.99966C6.95652 8.57705 7.40104 9.04314 8 9.04314C8.59896 9.04314 9.04348 8.57705 9.04348 7.99966ZM11.4783 6.95618C12.0772 6.95618 12.5217 7.42366 12.5217 7.99966C12.5217 8.57705 12.0772 9.04314 11.4783 9.04314C10.8793 9.04314 10.4348 8.57705 10.4348 7.99966C10.4348 7.42366 10.8793 6.95618 11.4783 6.95618Z" fill="#6B79EF"/>
<mask id="mask0_0_239" style="mask-type:alpha" maskUnits="userSpaceOnUse" x="0" y="0" width="16" height="16">
<path fill-rule="evenodd" clip-rule="evenodd" d="M9.3913 2.78227C9.99026 2.78227 10.4348 2.31618 10.4348 1.73879C10.4348 1.16279 9.99026 0.695312 9.3913 0.695312C8.79235 0.695312 8.34783 1.16279 8.34783 1.73879C8.34783 2.31618 8.79235 2.78227 9.3913 2.78227ZM13.2174 4.5214C13.2174 5.09879 12.7729 5.56488 12.1739 5.56488C11.575 5.56488 11.1304 5.09879 11.1304 4.5214C11.1304 3.9454 11.575 3.47792 12.1739 3.47792C12.7729 3.47792 13.2174 3.9454 13.2174 4.5214ZM16 7.99966C16 7.42366 15.5555 6.95618 14.9565 6.95618C14.3576 6.95618 13.913 7.42366 13.913 7.99966C13.913 8.57705 14.3576 9.04314 14.9565 9.04314C15.5555 9.04314 16 8.57705 16 7.99966ZM13.2174 11.4779C13.2174 10.9019 12.7729 10.4344 12.1739 10.4344C11.575 10.4344 11.1304 10.9019 11.1304 11.4779C11.1304 12.0553 11.575 12.5214 12.1739 12.5214C12.7729 12.5214 13.2174 12.0553 13.2174 11.4779ZM9.3913 13.2171C9.99026 13.2171 10.4348 13.6845 10.4348 14.2605C10.4348 14.8379 9.99026 15.304 9.3913 15.304C8.79235 15.304 8.34783 14.8379 8.34783 14.2605C8.34783 13.6845 8.79235 13.2171 9.3913 13.2171ZM2.08696 7.99966C2.08696 7.42366 1.64243 6.95618 1.04348 6.95618C0.444522 6.95618 0 7.42366 0 7.99966C0 8.57705 0.444522 9.04314 1.04348 9.04314C1.64243 9.04314 2.08696 8.57705 2.08696 7.99966ZM4.52174 6.95618C5.1207 6.95618 5.56522 7.42366 5.56522 7.99966C5.56522 8.57705 5.1207 9.04314 4.52174 9.04314C3.92278 9.04314 3.47826 8.57705 3.47826 7.99966C3.47826 7.42366 3.92278 6.95618 4.52174 6.95618ZM9.04348 7.99966C9.04348 7.42366 8.59896 6.95618 8 6.95618C7.40104 6.95618 6.95652 7.42366 6.95652 7.99966C6.95652 8.57705 7.40104 9.04314 8 9.04314C8.59896 9.04314 9.04348 8.57705 9.04348 7.99966ZM11.4783 6.95618C12.0772 6.95618 12.5217 7.42366 12.5217 7.99966C12.5217 8.57705 12.0772 9.04314 11.4783 9.04314C10.8793 9.04314 10.4348 8.57705 10.4348 7.99966C10.4348 7.42366 10.8793 6.95618 11.4783 6.95618Z" fill="white"/>
</mask>
<g mask="url(#mask0_0_239)">
<rect width="16" height="16" fill="#6B79EF"/>
</g>
</svg>
