<svg width="12" height="12" viewBox="0 0 12 12" fill="none" xmlns="http://www.w3.org/2000/svg">
<path fill-rule="evenodd" clip-rule="evenodd" d="M6.3569 8.36728L10.8524 4.28355C11.0492 4.10436 11.0492 3.81404 10.8524 3.63439C10.6556 3.4552 10.3359 3.4552 10.139 3.63439L6.00025 7.3942L1.86147 3.63485C1.66464 3.45565 1.34494 3.45565 1.14762 3.63485C0.950794 3.81404 0.950794 4.10481 1.14762 4.284L5.64306 8.36773C5.83785 8.54417 6.16257 8.54417 6.3569 8.36728Z" fill="#404040"/>
<mask id="mask0_0_53080" style="mask-type:alpha" maskUnits="userSpaceOnUse" x="1" y="3" width="10" height="6">
<path fill-rule="evenodd" clip-rule="evenodd" d="M6.3569 8.36728L10.8524 4.28355C11.0492 4.10436 11.0492 3.81404 10.8524 3.63439C10.6556 3.4552 10.3359 3.4552 10.139 3.63439L6.00025 7.3942L1.86147 3.63485C1.66464 3.45565 1.34494 3.45565 1.14762 3.63485C0.950794 3.81404 0.950794 4.10481 1.14762 4.284L5.64306 8.36773C5.83785 8.54417 6.16257 8.54417 6.3569 8.36728Z" fill="white"/>
</mask>
<g mask="url(#mask0_0_53080)">
<rect width="12" height="12" fill="#32325B"/>
</g>
</svg>
