<svg width="12" height="12" viewBox="0 0 12 12" fill="none" xmlns="http://www.w3.org/2000/svg">
<path fill-rule="evenodd" clip-rule="evenodd" d="M5.6431 3.63272L1.14762 7.71645C0.950793 7.89564 0.950793 8.18596 1.14762 8.36561C1.34445 8.5448 1.66414 8.5448 1.86097 8.36561L5.99975 4.6058L10.1385 8.36515C10.3354 8.54435 10.6551 8.54435 10.8524 8.36515C11.0492 8.18596 11.0492 7.89519 10.8524 7.716L6.35694 3.63227C6.16215 3.45583 5.83743 3.45583 5.6431 3.63272Z" fill="#404040"/>
<mask id="mask0_0_53191" style="mask-type:alpha" maskUnits="userSpaceOnUse" x="1" y="3" width="10" height="6">
<path fill-rule="evenodd" clip-rule="evenodd" d="M5.6431 3.63272L1.14762 7.71645C0.950793 7.89564 0.950793 8.18596 1.14762 8.36561C1.34445 8.5448 1.66414 8.5448 1.86097 8.36561L5.99975 4.6058L10.1385 8.36515C10.3354 8.54435 10.6551 8.54435 10.8524 8.36515C11.0492 8.18596 11.0492 7.89519 10.8524 7.716L6.35694 3.63227C6.16215 3.45583 5.83743 3.45583 5.6431 3.63272Z" fill="white"/>
</mask>
<g mask="url(#mask0_0_53191)">
<rect x="12" y="12" width="12" height="12" transform="rotate(180 12 12)" fill="#404040"/>
</g>
</svg>
