<svg width="24" height="24" viewBox="0 0 24 24" fill="none" xmlns="http://www.w3.org/2000/svg">
<path fill-rule="evenodd" clip-rule="evenodd" d="M0 4C0 3.44772 0.447469 3 1.00069 3H22.9993C23.5125 3 23.9355 3.38272 23.9933 3.88267L24 4C24 4.55228 23.5525 5 22.9993 5H1.00069C0.487503 5 0.0645376 4.61728 0.00673241 4.11733L0 4ZM0 12C0 11.4477 0.447469 11 1.00069 11H22.9993C23.5125 11 23.9355 11.3827 23.9933 11.8827L24 12C24 12.5523 23.5525 13 22.9993 13H1.00069C0.487503 13 0.0645376 12.6173 0.00673241 12.1173L0 12ZM1.00069 19C0.447469 19 0 19.4477 0 20L0.00673241 20.1173C0.0645376 20.6173 0.487503 21 1.00069 21H22.9993C23.5525 21 24 20.5523 24 20L23.9933 19.8827C23.9355 19.3827 23.5125 19 22.9993 19H1.00069Z" fill="#3B3B3B"/>
<mask id="mask0_263_28817" style="mask-type:alpha" maskUnits="userSpaceOnUse" x="0" y="3" width="24" height="18">
<path fill-rule="evenodd" clip-rule="evenodd" d="M0 4C0 3.44772 0.447469 3 1.00069 3H22.9993C23.5125 3 23.9355 3.38272 23.9933 3.88267L24 4C24 4.55228 23.5525 5 22.9993 5H1.00069C0.487503 5 0.0645376 4.61728 0.00673241 4.11733L0 4ZM0 12C0 11.4477 0.447469 11 1.00069 11H22.9993C23.5125 11 23.9355 11.3827 23.9933 11.8827L24 12C24 12.5523 23.5525 13 22.9993 13H1.00069C0.487503 13 0.0645376 12.6173 0.00673241 12.1173L0 12ZM1.00069 19C0.447469 19 0 19.4477 0 20L0.00673241 20.1173C0.0645376 20.6173 0.487503 21 1.00069 21H22.9993C23.5525 21 24 20.5523 24 20L23.9933 19.8827C23.9355 19.3827 23.5125 19 22.9993 19H1.00069Z" fill="white"/>
</mask>
<g mask="url(#mask0_263_28817)">
<rect width="24" height="24" fill="#444A4D"/>
</g>
</svg>
