<svg width="20" height="20" viewBox="0 0 20 20" fill="none" xmlns="http://www.w3.org/2000/svg">
<path fill-rule="evenodd" clip-rule="evenodd" d="M2.22222 9.99978C2.22222 9.38645 1.74889 8.88867 1.11111 8.88867C0.473333 8.88867 0 9.38645 0 9.99978C0 10.6146 0.473333 11.1109 1.11111 11.1109C1.74889 11.1109 2.22222 10.6146 2.22222 9.99978ZM20 9.99978C20 9.38645 19.5267 8.88867 18.8889 8.88867C18.2511 8.88867 17.7778 9.38645 17.7778 9.99978C17.7778 10.6146 18.2511 11.1109 18.8889 11.1109C19.5267 11.1109 20 10.6146 20 9.99978ZM5.55556 8.88867C6.19333 8.88867 6.66667 9.38645 6.66667 9.99978C6.66667 10.6146 6.19333 11.1109 5.55556 11.1109C4.91778 11.1109 4.44444 10.6146 4.44444 9.99978C4.44444 9.38645 4.91778 8.88867 5.55556 8.88867ZM11.1111 9.99978C11.1111 9.38645 10.6378 8.88867 10 8.88867C9.36222 8.88867 8.88889 9.38645 8.88889 9.99978C8.88889 10.6146 9.36222 11.1109 10 11.1109C10.6378 11.1109 11.1111 10.6146 11.1111 9.99978ZM14.4444 8.88867C15.0822 8.88867 15.5556 9.38645 15.5556 9.99978C15.5556 10.6146 15.0822 11.1109 14.4444 11.1109C13.8067 11.1109 13.3333 10.6146 13.3333 9.99978C13.3333 9.38645 13.8067 8.88867 14.4444 8.88867Z" fill="#404040"/>
<mask id="mask0_0_43767" style="mask-type:alpha" maskUnits="userSpaceOnUse" x="0" y="8" width="20" height="4">
<path fill-rule="evenodd" clip-rule="evenodd" d="M2.22222 9.99978C2.22222 9.38645 1.74889 8.88867 1.11111 8.88867C0.473333 8.88867 0 9.38645 0 9.99978C0 10.6146 0.473333 11.1109 1.11111 11.1109C1.74889 11.1109 2.22222 10.6146 2.22222 9.99978ZM20 9.99978C20 9.38645 19.5267 8.88867 18.8889 8.88867C18.2511 8.88867 17.7778 9.38645 17.7778 9.99978C17.7778 10.6146 18.2511 11.1109 18.8889 11.1109C19.5267 11.1109 20 10.6146 20 9.99978ZM5.55556 8.88867C6.19333 8.88867 6.66667 9.38645 6.66667 9.99978C6.66667 10.6146 6.19333 11.1109 5.55556 11.1109C4.91778 11.1109 4.44444 10.6146 4.44444 9.99978C4.44444 9.38645 4.91778 8.88867 5.55556 8.88867ZM11.1111 9.99978C11.1111 9.38645 10.6378 8.88867 10 8.88867C9.36222 8.88867 8.88889 9.38645 8.88889 9.99978C8.88889 10.6146 9.36222 11.1109 10 11.1109C10.6378 11.1109 11.1111 10.6146 11.1111 9.99978ZM14.4444 8.88867C15.0822 8.88867 15.5556 9.38645 15.5556 9.99978C15.5556 10.6146 15.0822 11.1109 14.4444 11.1109C13.8067 11.1109 13.3333 10.6146 13.3333 9.99978C13.3333 9.38645 13.8067 8.88867 14.4444 8.88867Z" fill="white"/>
</mask>
<g mask="url(#mask0_0_43767)">
<rect width="20" height="20" fill="#444A4D"/>
</g>
</svg>
