<svg width="15" height="15" viewBox="0 0 15 15" fill="none" xmlns="http://www.w3.org/2000/svg">
<path fill-rule="evenodd" clip-rule="evenodd" d="M8.92683 0C9.75247 0 10.4327 0.646055 10.5057 1.46779L10.5122 1.61453V7.07439H10.9756C11.1879 7.07439 11.3644 7.2301 11.4011 7.4355L11.408 7.51465V7.9866C11.408 8.29722 11.7104 8.50139 11.9832 8.40254L12.0566 8.36792L12.4579 8.13194C12.6389 8.0255 12.8639 8.06748 12.9974 8.22071L13.0486 8.29308L13.9133 9.81846C14.0177 10.0027 13.9766 10.2319 13.8261 10.3677L13.755 10.4198L13.3537 10.6558C13.0911 10.8102 13.0679 11.1742 13.2823 11.3663L13.3537 11.4185L13.755 11.6544C13.936 11.7609 14.0128 11.9804 13.9492 12.1746L13.9133 12.2559L13.0486 13.7812C12.944 13.9655 12.7285 14.0438 12.5377 13.9791L12.4579 13.9425L12.0566 13.7065C11.7919 13.5508 11.4675 13.7164 11.4153 14.0059L11.408 14.0878V14.5597C11.408 14.7759 11.2551 14.9556 11.0534 14.9929L10.9756 15H2.58537C1.75973 15 1.07952 14.354 1.00649 13.5323L1 13.3856V1.61453C1 0.773754 1.63434 0.0809896 2.44127 0.00661071L2.58537 0H8.92683ZM6.34982 12.3287H1.86475V13.3855C1.86475 13.7564 2.13638 14.064 2.48771 14.1127L2.58537 14.1194H8.81378C8.81378 13.7385 8.48945 13.5792 8.23314 13.6742L8.16522 13.7065L7.76393 13.9423C7.58294 14.0488 7.3579 14.0069 7.22444 13.8536L7.17324 13.7812L6.34982 12.3287ZM9.67853 7.95502H10.5433L10.5487 8.08467C10.6315 9.06122 11.643 9.62759 12.5157 9.11476L12.9481 9.8774L12.832 9.9533C12.0571 10.5145 12.0736 11.6822 12.9481 12.197L12.5157 12.9596L12.403 12.8998C11.5326 12.4855 10.5433 13.0919 10.5433 14.1194H9.67853L9.67301 13.9878C9.58914 12.9981 8.56476 12.455 7.70594 12.9596L7.27357 12.197L7.39116 12.1201C8.17514 11.5525 8.13673 10.3855 7.27357 9.8774L7.70594 9.11476L7.8187 9.17463C8.68911 9.58891 9.67853 8.98254 9.67853 7.95502ZM10.1109 9.71626C10.8261 9.71626 11.408 10.3088 11.408 11.0371C11.408 11.7656 10.8261 12.3581 10.1109 12.3581C9.39568 12.3581 8.81378 11.7656 8.81378 11.0371C8.81378 10.3088 9.39568 9.71626 10.1109 9.71626ZM9.67853 11.0371C9.67853 10.7944 9.87242 10.5969 10.1109 10.5969C10.3493 10.5969 10.5433 10.7944 10.5433 11.0371C10.5433 11.28 10.3493 11.4775 10.1109 11.4775C9.87242 11.4775 9.67853 11.28 9.67853 11.0371ZM9.64745 3.52249H1.86475V11.4482H6.81766L6.86811 11.4186C7.13056 11.2642 7.15386 10.9002 6.93953 10.708L6.86811 10.6559L6.46681 10.4198C6.28582 10.3135 6.20898 10.094 6.27255 9.89977L6.3085 9.81846L7.17324 8.29319C7.27768 8.10894 7.49323 8.03053 7.68406 8.09531L7.76393 8.13194L8.16522 8.36792C8.42986 8.5236 8.7543 8.35809 8.80653 8.06851L8.81378 7.9866V7.51465C8.81378 7.29848 8.96671 7.11876 9.16843 7.08149L9.24615 7.07439H9.64745V3.52249ZM5.31676 8.28682C5.28015 8.0814 5.10364 7.92561 4.89135 7.92561H3.16186L3.08414 7.9327C2.88242 7.96999 2.72949 8.14981 2.72949 8.36597V10.1272L2.73646 10.2063C2.77306 10.4117 2.94958 10.5675 3.16186 10.5675H4.89135L4.96908 10.5604C5.17079 10.5231 5.32372 10.3433 5.32372 10.1272V8.36597L5.31676 8.28682ZM4.45898 8.80623H3.59423V9.68685H4.45898V8.80623ZM5.31676 4.76433C5.28015 4.55891 5.10364 4.40311 4.89135 4.40311H3.16186L3.08414 4.41021C2.88242 4.4475 2.72949 4.62732 2.72949 4.84348V6.60473L2.73646 6.68385C2.77306 6.88918 2.94958 7.04498 3.16186 7.04498H4.89135L4.96908 7.03789C5.17079 7.0006 5.32372 6.82079 5.32372 6.60473V4.84348L5.31676 4.76433ZM8.35033 4.40311C8.56262 4.40311 8.73913 4.55891 8.77574 4.76433L8.7827 4.84348V6.60473C8.7827 6.82079 8.62977 7.0006 8.42806 7.03789L8.35033 7.04498H6.62084C6.40856 7.04498 6.23204 6.88918 6.19544 6.68385L6.18847 6.60473V4.84348C6.18847 4.62732 6.3414 4.4475 6.54312 4.41021L6.62084 4.40311H8.35033ZM3.59423 5.28374H4.45898V6.16436H3.59423V5.28374ZM7.91796 5.28374H7.05322V6.16436H7.91796V5.28374ZM2.58537 0.880623H8.92683L9.02448 0.887335C9.37582 0.936021 9.64745 1.24359 9.64745 1.61453V2.64187H1.86475V1.61453L1.87134 1.51508C1.91914 1.15728 2.22112 0.880623 2.58537 0.880623Z" fill="#6772E5"/>
<mask id="mask0_0_56043" style="mask-type:alpha" maskUnits="userSpaceOnUse" x="1" y="0" width="13" height="15">
<path fill-rule="evenodd" clip-rule="evenodd" d="M8.92683 0C9.75247 0 10.4327 0.646055 10.5057 1.46779L10.5122 1.61453V7.07439H10.9756C11.1879 7.07439 11.3644 7.2301 11.4011 7.4355L11.408 7.51465V7.9866C11.408 8.29722 11.7104 8.50139 11.9832 8.40254L12.0566 8.36792L12.4579 8.13194C12.6389 8.0255 12.8639 8.06748 12.9974 8.22071L13.0486 8.29308L13.9133 9.81846C14.0177 10.0027 13.9766 10.2319 13.8261 10.3677L13.755 10.4198L13.3537 10.6558C13.0911 10.8102 13.0679 11.1742 13.2823 11.3663L13.3537 11.4185L13.755 11.6544C13.936 11.7609 14.0128 11.9804 13.9492 12.1746L13.9133 12.2559L13.0486 13.7812C12.944 13.9655 12.7285 14.0438 12.5377 13.9791L12.4579 13.9425L12.0566 13.7065C11.7919 13.5508 11.4675 13.7164 11.4153 14.0059L11.408 14.0878V14.5597C11.408 14.7759 11.2551 14.9556 11.0534 14.9929L10.9756 15H2.58537C1.75973 15 1.07952 14.354 1.00649 13.5323L1 13.3856V1.61453C1 0.773754 1.63434 0.0809896 2.44127 0.00661071L2.58537 0H8.92683ZM6.34982 12.3287H1.86475V13.3855C1.86475 13.7564 2.13638 14.064 2.48771 14.1127L2.58537 14.1194H8.81378C8.81378 13.7385 8.48945 13.5792 8.23314 13.6742L8.16522 13.7065L7.76393 13.9423C7.58294 14.0488 7.3579 14.0069 7.22444 13.8536L7.17324 13.7812L6.34982 12.3287ZM9.67853 7.95502H10.5433L10.5487 8.08467C10.6315 9.06122 11.643 9.62759 12.5157 9.11476L12.9481 9.8774L12.832 9.9533C12.0571 10.5145 12.0736 11.6822 12.9481 12.197L12.5157 12.9596L12.403 12.8998C11.5326 12.4855 10.5433 13.0919 10.5433 14.1194H9.67853L9.67301 13.9878C9.58914 12.9981 8.56476 12.455 7.70594 12.9596L7.27357 12.197L7.39116 12.1201C8.17514 11.5525 8.13673 10.3855 7.27357 9.8774L7.70594 9.11476L7.8187 9.17463C8.68911 9.58891 9.67853 8.98254 9.67853 7.95502ZM10.1109 9.71626C10.8261 9.71626 11.408 10.3088 11.408 11.0371C11.408 11.7656 10.8261 12.3581 10.1109 12.3581C9.39568 12.3581 8.81378 11.7656 8.81378 11.0371C8.81378 10.3088 9.39568 9.71626 10.1109 9.71626ZM9.67853 11.0371C9.67853 10.7944 9.87242 10.5969 10.1109 10.5969C10.3493 10.5969 10.5433 10.7944 10.5433 11.0371C10.5433 11.28 10.3493 11.4775 10.1109 11.4775C9.87242 11.4775 9.67853 11.28 9.67853 11.0371ZM9.64745 3.52249H1.86475V11.4482H6.81766L6.86811 11.4186C7.13056 11.2642 7.15386 10.9002 6.93953 10.708L6.86811 10.6559L6.46681 10.4198C6.28582 10.3135 6.20898 10.094 6.27255 9.89977L6.3085 9.81846L7.17324 8.29319C7.27768 8.10894 7.49323 8.03053 7.68406 8.09531L7.76393 8.13194L8.16522 8.36792C8.42986 8.5236 8.7543 8.35809 8.80653 8.06851L8.81378 7.9866V7.51465C8.81378 7.29848 8.96671 7.11876 9.16843 7.08149L9.24615 7.07439H9.64745V3.52249ZM5.31676 8.28682C5.28015 8.0814 5.10364 7.92561 4.89135 7.92561H3.16186L3.08414 7.9327C2.88242 7.96999 2.72949 8.14981 2.72949 8.36597V10.1272L2.73646 10.2063C2.77306 10.4117 2.94958 10.5675 3.16186 10.5675H4.89135L4.96908 10.5604C5.17079 10.5231 5.32372 10.3433 5.32372 10.1272V8.36597L5.31676 8.28682ZM4.45898 8.80623H3.59423V9.68685H4.45898V8.80623ZM5.31676 4.76433C5.28015 4.55891 5.10364 4.40311 4.89135 4.40311H3.16186L3.08414 4.41021C2.88242 4.4475 2.72949 4.62732 2.72949 4.84348V6.60473L2.73646 6.68385C2.77306 6.88918 2.94958 7.04498 3.16186 7.04498H4.89135L4.96908 7.03789C5.17079 7.0006 5.32372 6.82079 5.32372 6.60473V4.84348L5.31676 4.76433ZM8.35033 4.40311C8.56262 4.40311 8.73913 4.55891 8.77574 4.76433L8.7827 4.84348V6.60473C8.7827 6.82079 8.62977 7.0006 8.42806 7.03789L8.35033 7.04498H6.62084C6.40856 7.04498 6.23204 6.88918 6.19544 6.68385L6.18847 6.60473V4.84348C6.18847 4.62732 6.3414 4.4475 6.54312 4.41021L6.62084 4.40311H8.35033ZM3.59423 5.28374H4.45898V6.16436H3.59423V5.28374ZM7.91796 5.28374H7.05322V6.16436H7.91796V5.28374ZM2.58537 0.880623H8.92683L9.02448 0.887335C9.37582 0.936021 9.64745 1.24359 9.64745 1.61453V2.64187H1.86475V1.61453L1.87134 1.51508C1.91914 1.15728 2.22112 0.880623 2.58537 0.880623Z" fill="white"/>
</mask>
<g mask="url(#mask0_0_56043)">
<rect width="15" height="15" fill="#6B79EF"/>
</g>
</svg>
