<svg width="42" height="42" viewBox="0 0 42 42" fill="none" xmlns="http://www.w3.org/2000/svg">
<rect width="42" height="42" rx="21" fill="white"/>
<path fill-rule="evenodd" clip-rule="evenodd" d="M22.24 13C23.3446 13 24.24 12.1046 24.24 11C24.24 9.89543 23.3446 9 22.24 9C21.1354 9 20.24 9.89543 20.24 11C20.24 12.1046 21.1354 13 22.24 13ZM17.24 15.5C18.3446 15.5 19.24 14.6046 19.24 13.5C19.24 12.3954 18.3446 11.5 17.24 11.5C16.1354 11.5 15.24 12.3954 15.24 13.5C15.24 14.6046 16.1354 15.5 17.24 15.5ZM24.24 16C24.24 17.1046 23.3446 18 22.24 18C21.1354 18 20.24 17.1046 20.24 16C20.24 14.8954 21.1354 14 22.24 14C23.3446 14 24.24 14.8954 24.24 16ZM22.24 23C23.3446 23 24.24 22.1046 24.24 21C24.24 19.8954 23.3446 19 22.24 19C21.1354 19 20.24 19.8954 20.24 21C20.24 22.1046 21.1354 23 22.24 23ZM24.24 26C24.24 27.1046 23.3446 28 22.24 28C21.1354 28 20.24 27.1046 20.24 26C20.24 24.8954 21.1354 24 22.24 24C23.3446 24 24.24 24.8954 24.24 26ZM22.24 33C23.3446 33 24.24 32.1046 24.24 31C24.24 29.8954 23.3446 29 22.24 29C21.1354 29 20.24 29.8954 20.24 31C20.24 32.1046 21.1354 33 22.24 33Z" fill="#5AC59B"/>
<mask id="mask0_0_46298" style="mask-type:alpha" maskUnits="userSpaceOnUse" x="15" y="9" width="10" height="24">
<path fill-rule="evenodd" clip-rule="evenodd" d="M22.24 13C23.3446 13 24.24 12.1046 24.24 11C24.24 9.89543 23.3446 9 22.24 9C21.1354 9 20.24 9.89543 20.24 11C20.24 12.1046 21.1354 13 22.24 13ZM17.24 15.5C18.3446 15.5 19.24 14.6046 19.24 13.5C19.24 12.3954 18.3446 11.5 17.24 11.5C16.1354 11.5 15.24 12.3954 15.24 13.5C15.24 14.6046 16.1354 15.5 17.24 15.5ZM24.24 16C24.24 17.1046 23.3446 18 22.24 18C21.1354 18 20.24 17.1046 20.24 16C20.24 14.8954 21.1354 14 22.24 14C23.3446 14 24.24 14.8954 24.24 16ZM22.24 23C23.3446 23 24.24 22.1046 24.24 21C24.24 19.8954 23.3446 19 22.24 19C21.1354 19 20.24 19.8954 20.24 21C20.24 22.1046 21.1354 23 22.24 23ZM24.24 26C24.24 27.1046 23.3446 28 22.24 28C21.1354 28 20.24 27.1046 20.24 26C20.24 24.8954 21.1354 24 22.24 24C23.3446 24 24.24 24.8954 24.24 26ZM22.24 33C23.3446 33 24.24 32.1046 24.24 31C24.24 29.8954 23.3446 29 22.24 29C21.1354 29 20.24 29.8954 20.24 31C20.24 32.1046 21.1354 33 22.24 33Z" fill="white"/>
</mask>
<g mask="url(#mask0_0_46298)">
<rect x="9" y="9" width="24" height="24" fill="#5AC59B"/>
</g>
</svg>
