<svg width="18" height="18" viewBox="0 0 18 18" fill="none" xmlns="http://www.w3.org/2000/svg">
<path fill-rule="evenodd" clip-rule="evenodd" d="M17.0992 2.4696L14.8305 0.219644C14.5936 -0.0152631 14.2291 -0.0676025 13.9347 0.0910218C12.519 0.850844 10.8137 0.857109 9.39239 0.107709C9.15234 -0.0356995 8.85201 -0.0356995 8.61196 0.107709C7.1896 0.852985 5.48638 0.846727 4.06963 0.0910218C3.77528 -0.0676025 3.41077 -0.0152631 3.17387 0.219644L0.90517 2.4696C0.763293 2.61026 0.683586 2.80107 0.683594 3.00003V11.2499C0.683645 11.4777 0.787961 11.6931 0.967182 11.8356L8.52953 17.8355C8.8058 18.0548 9.19854 18.0548 9.47482 17.8355L17.0372 11.8356C17.2164 11.6931 17.3207 11.4777 17.3208 11.2499V3.00003C17.3208 2.80107 17.2411 2.61026 17.0992 2.4696ZM15.052 10.1684C15.0521 10.3962 14.9478 10.6117 14.7685 10.7541L9.47482 14.954C9.19854 15.1734 8.8058 15.1734 8.52953 14.954L3.23589 10.7541C3.05655 10.6117 2.95221 10.3962 2.9523 10.1684V3.93207C2.95229 3.73311 3.032 3.5423 3.17387 3.40164L3.72309 2.8579C3.91648 2.66652 4.19879 2.59323 4.46193 2.66609C5.87494 3.04868 7.37254 2.98975 8.75054 2.49735C8.91337 2.44036 9.09097 2.44036 9.25381 2.49735C10.6318 2.98976 12.1294 3.04869 13.5424 2.66609C13.8056 2.59319 14.0879 2.66648 14.2813 2.8579L14.8305 3.40164C14.9724 3.5423 15.0521 3.73311 15.052 3.93207V10.1684ZM7.71128 10.2803C8.00659 10.5731 8.48529 10.5731 8.7806 10.2803L11.8055 7.28038L10.7362 6.21952L8.24594 8.68922L7.26813 7.71949L6.19881 8.78034L7.71128 10.2803Z" fill="white"/>
<mask id="mask0_913_2158" style="mask-type:alpha" maskUnits="userSpaceOnUse" x="0" y="0" width="18" height="18">
<path fill-rule="evenodd" clip-rule="evenodd" d="M17.0992 2.4696L14.8305 0.219644C14.5936 -0.0152631 14.2291 -0.0676025 13.9347 0.0910218C12.519 0.850844 10.8137 0.857109 9.39239 0.107709C9.15234 -0.0356995 8.85201 -0.0356995 8.61196 0.107709C7.1896 0.852985 5.48638 0.846727 4.06963 0.0910218C3.77528 -0.0676025 3.41077 -0.0152631 3.17387 0.219644L0.90517 2.4696C0.763293 2.61026 0.683586 2.80107 0.683594 3.00003V11.2499C0.683645 11.4777 0.787961 11.6931 0.967182 11.8356L8.52953 17.8355C8.8058 18.0548 9.19854 18.0548 9.47482 17.8355L17.0372 11.8356C17.2164 11.6931 17.3207 11.4777 17.3208 11.2499V3.00003C17.3208 2.80107 17.2411 2.61026 17.0992 2.4696ZM15.052 10.1684C15.0521 10.3962 14.9478 10.6117 14.7685 10.7541L9.47482 14.954C9.19854 15.1734 8.8058 15.1734 8.52953 14.954L3.23589 10.7541C3.05655 10.6117 2.95221 10.3962 2.9523 10.1684V3.93207C2.95229 3.73311 3.032 3.5423 3.17387 3.40164L3.72309 2.8579C3.91648 2.66652 4.19879 2.59323 4.46193 2.66609C5.87494 3.04868 7.37254 2.98975 8.75054 2.49735C8.91337 2.44036 9.09097 2.44036 9.25381 2.49735C10.6318 2.98976 12.1294 3.04869 13.5424 2.66609C13.8056 2.59319 14.0879 2.66648 14.2813 2.8579L14.8305 3.40164C14.9724 3.5423 15.0521 3.73311 15.052 3.93207V10.1684ZM7.71128 10.2803C8.00659 10.5731 8.48529 10.5731 8.7806 10.2803L11.8055 7.28038L10.7362 6.21952L8.24594 8.68922L7.26813 7.71949L6.19881 8.78034L7.71128 10.2803Z" fill="white"/>
</mask>
<g mask="url(#mask0_913_2158)">
<rect width="18" height="18" fill="#5AC59B"/>
</g>
</svg>
