<svg width="20" height="20" viewBox="0 0 20 20" fill="none" xmlns="http://www.w3.org/2000/svg">
<path fill-rule="evenodd" clip-rule="evenodd" d="M10 18.8891C10.6133 18.8891 11.1111 18.3952 11.1111 17.7297C11.1111 17.0642 10.6133 16.5703 10 16.5703C9.38519 16.5703 8.88889 17.0642 8.88889 17.7297C8.88889 18.3952 9.38519 18.8891 10 18.8891ZM10 3.43017C10.6133 3.43017 11.1111 2.93626 11.1111 2.27075C11.1111 1.60524 10.6133 1.11133 10 1.11133C9.38519 1.11133 8.88889 1.60524 8.88889 2.27075C8.88889 2.93626 9.38519 3.43017 10 3.43017ZM10 7.2949C10.6133 7.2949 11.1111 6.80099 11.1111 6.13548C11.1111 5.46998 10.6133 4.97606 10 4.97606C9.38519 4.97606 8.88889 5.46998 8.88889 6.13548C8.88889 6.80099 9.38519 7.2949 10 7.2949ZM10 15.0244C10.6133 15.0244 11.1111 14.5305 11.1111 13.865C11.1111 13.1994 10.6133 12.7055 10 12.7055C9.38519 12.7055 8.88889 13.1994 8.88889 13.865C8.88889 14.5305 9.38519 15.0244 10 15.0244ZM18.8889 8.88911C19.5267 8.88911 20 9.38688 20 10.0002C20 10.615 19.5267 11.1113 18.8889 11.1113C18.2511 11.1113 17.7778 10.615 17.7778 10.0002C17.7778 9.38688 18.2511 8.88911 18.8889 8.88911ZM2.22222 10.0002C2.22222 9.38688 1.74889 8.88911 1.11111 8.88911C0.473333 8.88911 0 9.38688 0 10.0002C0 10.615 0.473333 11.1113 1.11111 11.1113C1.74889 11.1113 2.22222 10.615 2.22222 10.0002ZM5.55556 8.88911C6.19333 8.88911 6.66667 9.38688 6.66667 10.0002C6.66667 10.615 6.19333 11.1113 5.55556 11.1113C4.91778 11.1113 4.44444 10.615 4.44444 10.0002C4.44444 9.38688 4.91778 8.88911 5.55556 8.88911ZM11.1111 10.0002C11.1111 9.38688 10.6378 8.88911 10 8.88911C9.36222 8.88911 8.88889 9.38688 8.88889 10.0002C8.88889 10.615 9.36222 11.1113 10 11.1113C10.6378 11.1113 11.1111 10.615 11.1111 10.0002ZM14.4444 8.88911C15.0822 8.88911 15.5556 9.38688 15.5556 10.0002C15.5556 10.615 15.0822 11.1113 14.4444 11.1113C13.8067 11.1113 13.3333 10.615 13.3333 10.0002C13.3333 9.38688 13.8067 8.88911 14.4444 8.88911Z" fill="#404040"/>
<mask id="mask0_543_58266" style="mask-type:alpha" maskUnits="userSpaceOnUse" x="0" y="1" width="20" height="18">
<path fill-rule="evenodd" clip-rule="evenodd" d="M10 18.8891C10.6133 18.8891 11.1111 18.3952 11.1111 17.7297C11.1111 17.0642 10.6133 16.5703 10 16.5703C9.38519 16.5703 8.88889 17.0642 8.88889 17.7297C8.88889 18.3952 9.38519 18.8891 10 18.8891ZM10 3.43017C10.6133 3.43017 11.1111 2.93626 11.1111 2.27075C11.1111 1.60524 10.6133 1.11133 10 1.11133C9.38519 1.11133 8.88889 1.60524 8.88889 2.27075C8.88889 2.93626 9.38519 3.43017 10 3.43017ZM10 7.2949C10.6133 7.2949 11.1111 6.80099 11.1111 6.13548C11.1111 5.46998 10.6133 4.97606 10 4.97606C9.38519 4.97606 8.88889 5.46998 8.88889 6.13548C8.88889 6.80099 9.38519 7.2949 10 7.2949ZM10 15.0244C10.6133 15.0244 11.1111 14.5305 11.1111 13.865C11.1111 13.1994 10.6133 12.7055 10 12.7055C9.38519 12.7055 8.88889 13.1994 8.88889 13.865C8.88889 14.5305 9.38519 15.0244 10 15.0244ZM18.8889 8.88911C19.5267 8.88911 20 9.38688 20 10.0002C20 10.615 19.5267 11.1113 18.8889 11.1113C18.2511 11.1113 17.7778 10.615 17.7778 10.0002C17.7778 9.38688 18.2511 8.88911 18.8889 8.88911ZM2.22222 10.0002C2.22222 9.38688 1.74889 8.88911 1.11111 8.88911C0.473333 8.88911 0 9.38688 0 10.0002C0 10.615 0.473333 11.1113 1.11111 11.1113C1.74889 11.1113 2.22222 10.615 2.22222 10.0002ZM5.55556 8.88911C6.19333 8.88911 6.66667 9.38688 6.66667 10.0002C6.66667 10.615 6.19333 11.1113 5.55556 11.1113C4.91778 11.1113 4.44444 10.615 4.44444 10.0002C4.44444 9.38688 4.91778 8.88911 5.55556 8.88911ZM11.1111 10.0002C11.1111 9.38688 10.6378 8.88911 10 8.88911C9.36222 8.88911 8.88889 9.38688 8.88889 10.0002C8.88889 10.615 9.36222 11.1113 10 11.1113C10.6378 11.1113 11.1111 10.615 11.1111 10.0002ZM14.4444 8.88911C15.0822 8.88911 15.5556 9.38688 15.5556 10.0002C15.5556 10.615 15.0822 11.1113 14.4444 11.1113C13.8067 11.1113 13.3333 10.615 13.3333 10.0002C13.3333 9.38688 13.8067 8.88911 14.4444 8.88911Z" fill="white"/>
</mask>
<g mask="url(#mask0_543_58266)">
<rect width="20" height="20" fill="#444A4D"/>
</g>
</svg>
