<svg width="30" height="30" viewBox="0 0 30 30" fill="none" xmlns="http://www.w3.org/2000/svg">
<path fill-rule="evenodd" clip-rule="evenodd" d="M13.2447 24.08C13.2447 25.1404 12.3851 26 11.3247 26H2.42C1.35961 26 0.5 25.1404 0.5 24.08V13.3286L5.68947 4H11.7947L7.21579 13.3286H11.3247C12.3851 13.3286 13.2447 14.1882 13.2447 15.2486V24.08ZM29.5 24.08C29.5 25.1404 28.6404 26 27.58 26H18.6753C17.6149 26 16.7553 25.1404 16.7553 24.08V13.3286L21.9447 4H28.05L23.4711 13.3286H27.58C28.6404 13.3286 29.5 14.1882 29.5 15.2486V24.08Z" fill="#404040"/>
<mask id="mask0_696_24588" style="mask-type:alpha" maskUnits="userSpaceOnUse" x="0" y="4" width="30" height="22">
<path fill-rule="evenodd" clip-rule="evenodd" d="M13.2447 24.08C13.2447 25.1404 12.3851 26 11.3247 26H2.42C1.35961 26 0.5 25.1404 0.5 24.08V13.3286L5.68947 4H11.7947L7.21579 13.3286H11.3247C12.3851 13.3286 13.2447 14.1882 13.2447 15.2486V24.08ZM29.5 24.08C29.5 25.1404 28.6404 26 27.58 26H18.6753C17.6149 26 16.7553 25.1404 16.7553 24.08V13.3286L21.9447 4H28.05L23.4711 13.3286H27.58C28.6404 13.3286 29.5 14.1882 29.5 15.2486V24.08Z" fill="white"/>
</mask>
<g mask="url(#mask0_696_24588)">
<rect width="30" height="30" fill="#444A4D"/>
</g>
</svg>
