<svg width="35" height="35" viewBox="0 0 35 35" fill="none" xmlns="http://www.w3.org/2000/svg">
<path fill-rule="evenodd" clip-rule="evenodd" d="M15.4528 28.4137C15.4528 29.474 14.5932 30.3337 13.5328 30.3337H2.50398C1.4436 30.3337 0.583984 29.474 0.583984 28.4137V15.5504L6.63837 4.66699H13.7612L8.41907 15.5504H13.5328C14.5932 15.5504 15.4528 16.41 15.4528 17.4704V28.4137ZM34.4173 28.4137C34.4173 29.474 33.5577 30.3337 32.4973 30.3337H21.4685C20.4081 30.3337 19.5485 29.474 19.5485 28.4137V15.5504L25.6028 4.66699H32.7256L27.3835 15.5504H32.4973C33.5577 15.5504 34.4173 16.41 34.4173 17.4704V28.4137Z" fill="#404040"/>
<mask id="mask0_0_107" style="mask-type:alpha" maskUnits="userSpaceOnUse" x="0" y="4" width="35" height="27">
<path fill-rule="evenodd" clip-rule="evenodd" d="M15.4528 28.4137C15.4528 29.474 14.5932 30.3337 13.5328 30.3337H2.50398C1.4436 30.3337 0.583984 29.474 0.583984 28.4137V15.5504L6.63837 4.66699H13.7612L8.41907 15.5504H13.5328C14.5932 15.5504 15.4528 16.41 15.4528 17.4704V28.4137ZM34.4173 28.4137C34.4173 29.474 33.5577 30.3337 32.4973 30.3337H21.4685C20.4081 30.3337 19.5485 29.474 19.5485 28.4137V15.5504L25.6028 4.66699H32.7256L27.3835 15.5504H32.4973C33.5577 15.5504 34.4173 16.41 34.4173 17.4704V28.4137Z" fill="white"/>
</mask>
<g mask="url(#mask0_0_107)">
<rect width="35" height="35" fill="white"/>
</g>
</svg>
