<svg width="24" height="24" viewBox="0 0 24 24" fill="none" xmlns="http://www.w3.org/2000/svg">
<path fill-rule="evenodd" clip-rule="evenodd" d="M9.00171 2C9.00171 3.10457 8.10628 4 7.00171 4C5.89714 4 5.00171 3.10457 5.00171 2C5.00171 0.89543 5.89714 0 7.00171 0C8.10628 0 9.00171 0.89543 9.00171 2ZM14.0017 2C14.0017 3.10457 13.1063 4 12.0017 4C10.8971 4 10.0017 3.10457 10.0017 2C10.0017 0.89543 10.8971 0 12.0017 0C13.1063 0 14.0017 0.89543 14.0017 2ZM17.0017 4C18.1063 4 19.0017 3.10457 19.0017 2C19.0017 0.89543 18.1063 0 17.0017 0C15.8971 0 15.0017 0.89543 15.0017 2C15.0017 3.10457 15.8971 4 17.0017 4ZM19.0017 7C19.0017 8.10457 18.1063 9 17.0017 9C15.8971 9 15.0017 8.10457 15.0017 7C15.0017 5.89543 15.8971 5 17.0017 5C18.1063 5 19.0017 5.89543 19.0017 7ZM17.0017 14C18.1063 14 19.0017 13.1046 19.0017 12C19.0017 10.8954 18.1063 10 17.0017 10C15.8971 10 15.0017 10.8954 15.0017 12C15.0017 13.1046 15.8971 14 17.0017 14ZM14.0017 12C14.0017 13.1046 13.1063 14 12.0017 14C10.8971 14 10.0017 13.1046 10.0017 12C10.0017 10.8954 10.8971 10 12.0017 10C13.1063 10 14.0017 10.8954 14.0017 12ZM7.00171 14C8.10628 14 9.00171 13.1046 9.00171 12C9.00171 10.8954 8.10628 10 7.00171 10C5.89714 10 5.00171 10.8954 5.00171 12C5.00171 13.1046 5.89714 14 7.00171 14ZM19.0017 17C19.0017 18.1046 18.1063 19 17.0017 19C15.8971 19 15.0017 18.1046 15.0017 17C15.0017 15.8954 15.8971 15 17.0017 15C18.1063 15 19.0017 15.8954 19.0017 17ZM17.0017 24C18.1063 24 19.0017 23.1046 19.0017 22C19.0017 20.8954 18.1063 20 17.0017 20C15.8971 20 15.0017 20.8954 15.0017 22C15.0017 23.1046 15.8971 24 17.0017 24ZM14.0017 22C14.0017 23.1046 13.1063 24 12.0017 24C10.8971 24 10.0017 23.1046 10.0017 22C10.0017 20.8954 10.8971 20 12.0017 20C13.1063 20 14.0017 20.8954 14.0017 22ZM7.00171 24C8.10628 24 9.00171 23.1046 9.00171 22C9.00171 20.8954 8.10628 20 7.00171 20C5.89714 20 5.00171 20.8954 5.00171 22C5.00171 23.1046 5.89714 24 7.00171 24Z" fill="#5AC59B"/>
<mask id="mask0_0_46314" style="mask-type:alpha" maskUnits="userSpaceOnUse" x="5" y="0" width="15" height="24">
<path fill-rule="evenodd" clip-rule="evenodd" d="M9.00171 2C9.00171 3.10457 8.10628 4 7.00171 4C5.89714 4 5.00171 3.10457 5.00171 2C5.00171 0.89543 5.89714 0 7.00171 0C8.10628 0 9.00171 0.89543 9.00171 2ZM14.0017 2C14.0017 3.10457 13.1063 4 12.0017 4C10.8971 4 10.0017 3.10457 10.0017 2C10.0017 0.89543 10.8971 0 12.0017 0C13.1063 0 14.0017 0.89543 14.0017 2ZM17.0017 4C18.1063 4 19.0017 3.10457 19.0017 2C19.0017 0.89543 18.1063 0 17.0017 0C15.8971 0 15.0017 0.89543 15.0017 2C15.0017 3.10457 15.8971 4 17.0017 4ZM19.0017 7C19.0017 8.10457 18.1063 9 17.0017 9C15.8971 9 15.0017 8.10457 15.0017 7C15.0017 5.89543 15.8971 5 17.0017 5C18.1063 5 19.0017 5.89543 19.0017 7ZM17.0017 14C18.1063 14 19.0017 13.1046 19.0017 12C19.0017 10.8954 18.1063 10 17.0017 10C15.8971 10 15.0017 10.8954 15.0017 12C15.0017 13.1046 15.8971 14 17.0017 14ZM14.0017 12C14.0017 13.1046 13.1063 14 12.0017 14C10.8971 14 10.0017 13.1046 10.0017 12C10.0017 10.8954 10.8971 10 12.0017 10C13.1063 10 14.0017 10.8954 14.0017 12ZM7.00171 14C8.10628 14 9.00171 13.1046 9.00171 12C9.00171 10.8954 8.10628 10 7.00171 10C5.89714 10 5.00171 10.8954 5.00171 12C5.00171 13.1046 5.89714 14 7.00171 14ZM19.0017 17C19.0017 18.1046 18.1063 19 17.0017 19C15.8971 19 15.0017 18.1046 15.0017 17C15.0017 15.8954 15.8971 15 17.0017 15C18.1063 15 19.0017 15.8954 19.0017 17ZM17.0017 24C18.1063 24 19.0017 23.1046 19.0017 22C19.0017 20.8954 18.1063 20 17.0017 20C15.8971 20 15.0017 20.8954 15.0017 22C15.0017 23.1046 15.8971 24 17.0017 24ZM14.0017 22C14.0017 23.1046 13.1063 24 12.0017 24C10.8971 24 10.0017 23.1046 10.0017 22C10.0017 20.8954 10.8971 20 12.0017 20C13.1063 20 14.0017 20.8954 14.0017 22ZM7.00171 24C8.10628 24 9.00171 23.1046 9.00171 22C9.00171 20.8954 8.10628 20 7.00171 20C5.89714 20 5.00171 20.8954 5.00171 22C5.00171 23.1046 5.89714 24 7.00171 24Z" fill="white"/>
</mask>
<g mask="url(#mask0_0_46314)">
<rect width="24" height="24" fill="#5AC59B"/>
</g>
</svg>
