<svg width="42" height="42" viewBox="0 0 42 42" fill="none" xmlns="http://www.w3.org/2000/svg">
<rect width="42" height="42" rx="21" fill="white"/>
<path fill-rule="evenodd" clip-rule="evenodd" d="M18.0017 11C18.0017 12.1046 17.1063 13 16.0017 13C14.8971 13 14.0017 12.1046 14.0017 11C14.0017 9.89543 14.8971 9 16.0017 9C17.1063 9 18.0017 9.89543 18.0017 11ZM23.0017 11C23.0017 12.1046 22.1063 13 21.0017 13C19.8971 13 19.0017 12.1046 19.0017 11C19.0017 9.89543 19.8971 9 21.0017 9C22.1063 9 23.0017 9.89543 23.0017 11ZM26.0017 13C27.1063 13 28.0017 12.1046 28.0017 11C28.0017 9.89543 27.1063 9 26.0017 9C24.8971 9 24.0017 9.89543 24.0017 11C24.0017 12.1046 24.8971 13 26.0017 13ZM28.0017 16C28.0017 17.1046 27.1063 18 26.0017 18C24.8971 18 24.0017 17.1046 24.0017 16C24.0017 14.8954 24.8971 14 26.0017 14C27.1063 14 28.0017 14.8954 28.0017 16ZM26.0017 23C27.1063 23 28.0017 22.1046 28.0017 21C28.0017 19.8954 27.1063 19 26.0017 19C24.8971 19 24.0017 19.8954 24.0017 21C24.0017 22.1046 24.8971 23 26.0017 23ZM23.0017 21C23.0017 22.1046 22.1063 23 21.0017 23C19.8971 23 19.0017 22.1046 19.0017 21C19.0017 19.8954 19.8971 19 21.0017 19C22.1063 19 23.0017 19.8954 23.0017 21ZM16.0017 23C17.1063 23 18.0017 22.1046 18.0017 21C18.0017 19.8954 17.1063 19 16.0017 19C14.8971 19 14.0017 19.8954 14.0017 21C14.0017 22.1046 14.8971 23 16.0017 23ZM18.0017 26C18.0017 27.1046 17.1063 28 16.0017 28C14.8971 28 14.0017 27.1046 14.0017 26C14.0017 24.8954 14.8971 24 16.0017 24C17.1063 24 18.0017 24.8954 18.0017 26ZM26.0017 33C27.1063 33 28.0017 32.1046 28.0017 31C28.0017 29.8954 27.1063 29 26.0017 29C24.8971 29 24.0017 29.8954 24.0017 31C24.0017 32.1046 24.8971 33 26.0017 33ZM23.0017 31C23.0017 32.1046 22.1063 33 21.0017 33C19.8971 33 19.0017 32.1046 19.0017 31C19.0017 29.8954 19.8971 29 21.0017 29C22.1063 29 23.0017 29.8954 23.0017 31ZM16.0017 33C17.1063 33 18.0017 32.1046 18.0017 31C18.0017 29.8954 17.1063 29 16.0017 29C14.8971 29 14.0017 29.8954 14.0017 31C14.0017 32.1046 14.8971 33 16.0017 33Z" fill="#5AC59B"/>
<mask id="mask0_0_46305" style="mask-type:alpha" maskUnits="userSpaceOnUse" x="14" y="9" width="15" height="24">
<path fill-rule="evenodd" clip-rule="evenodd" d="M18.0017 11C18.0017 12.1046 17.1063 13 16.0017 13C14.8971 13 14.0017 12.1046 14.0017 11C14.0017 9.89543 14.8971 9 16.0017 9C17.1063 9 18.0017 9.89543 18.0017 11ZM23.0017 11C23.0017 12.1046 22.1063 13 21.0017 13C19.8971 13 19.0017 12.1046 19.0017 11C19.0017 9.89543 19.8971 9 21.0017 9C22.1063 9 23.0017 9.89543 23.0017 11ZM26.0017 13C27.1063 13 28.0017 12.1046 28.0017 11C28.0017 9.89543 27.1063 9 26.0017 9C24.8971 9 24.0017 9.89543 24.0017 11C24.0017 12.1046 24.8971 13 26.0017 13ZM28.0017 16C28.0017 17.1046 27.1063 18 26.0017 18C24.8971 18 24.0017 17.1046 24.0017 16C24.0017 14.8954 24.8971 14 26.0017 14C27.1063 14 28.0017 14.8954 28.0017 16ZM26.0017 23C27.1063 23 28.0017 22.1046 28.0017 21C28.0017 19.8954 27.1063 19 26.0017 19C24.8971 19 24.0017 19.8954 24.0017 21C24.0017 22.1046 24.8971 23 26.0017 23ZM23.0017 21C23.0017 22.1046 22.1063 23 21.0017 23C19.8971 23 19.0017 22.1046 19.0017 21C19.0017 19.8954 19.8971 19 21.0017 19C22.1063 19 23.0017 19.8954 23.0017 21ZM16.0017 23C17.1063 23 18.0017 22.1046 18.0017 21C18.0017 19.8954 17.1063 19 16.0017 19C14.8971 19 14.0017 19.8954 14.0017 21C14.0017 22.1046 14.8971 23 16.0017 23ZM18.0017 26C18.0017 27.1046 17.1063 28 16.0017 28C14.8971 28 14.0017 27.1046 14.0017 26C14.0017 24.8954 14.8971 24 16.0017 24C17.1063 24 18.0017 24.8954 18.0017 26ZM26.0017 33C27.1063 33 28.0017 32.1046 28.0017 31C28.0017 29.8954 27.1063 29 26.0017 29C24.8971 29 24.0017 29.8954 24.0017 31C24.0017 32.1046 24.8971 33 26.0017 33ZM23.0017 31C23.0017 32.1046 22.1063 33 21.0017 33C19.8971 33 19.0017 32.1046 19.0017 31C19.0017 29.8954 19.8971 29 21.0017 29C22.1063 29 23.0017 29.8954 23.0017 31ZM16.0017 33C17.1063 33 18.0017 32.1046 18.0017 31C18.0017 29.8954 17.1063 29 16.0017 29C14.8971 29 14.0017 29.8954 14.0017 31C14.0017 32.1046 14.8971 33 16.0017 33Z" fill="white"/>
</mask>
<g mask="url(#mask0_0_46305)">
<rect x="9" y="9" width="24" height="24" fill="#5AC59B"/>
</g>
</svg>
