<svg width="15" height="15" viewBox="0 0 15 15" fill="none" xmlns="http://www.w3.org/2000/svg">
<path fill-rule="evenodd" clip-rule="evenodd" d="M3.79622 2.76758L6.52326 2.04403L3.79227 1.20001L1.0969 2.04403L3.79622 2.76758ZM11.1761 2.76758L13.9031 2.04403L11.1721 1.20001L8.47674 2.04403L11.1761 2.76758ZM3.43023 3.37055L3.42667 7.71164L0.5 6.7349V2.50234L3.43023 3.37055ZM4.18992 7.71164L7.10999 6.73205L7.12016 2.50234L4.18992 3.37055V7.71164ZM10.8101 3.37055L10.8065 7.71164L7.87985 6.7349V2.50234L10.8101 3.37055ZM11.5698 7.71164L14.4898 6.73205L14.5 2.50234L11.5698 3.37055V7.71164ZM10.2132 8.23007L7.48614 8.95364L4.78682 8.23007L7.48219 7.38606L10.2132 8.23007ZM7.1166 13.8977L7.12016 9.5566L4.18992 8.68838V12.9209L7.1166 13.8977ZM10.7999 12.9181L7.87985 13.8977V9.5566L10.8101 8.68838L10.7999 12.9181Z" fill="#F68D11"/>
<mask id="mask0_0_55852" style="mask-type:alpha" maskUnits="userSpaceOnUse" x="0" y="1" width="15" height="13">
<path fill-rule="evenodd" clip-rule="evenodd" d="M3.79622 2.76758L6.52326 2.04403L3.79227 1.20001L1.0969 2.04403L3.79622 2.76758ZM11.1761 2.76758L13.9031 2.04403L11.1721 1.20001L8.47674 2.04403L11.1761 2.76758ZM3.43023 3.37055L3.42667 7.71164L0.5 6.7349V2.50234L3.43023 3.37055ZM4.18992 7.71164L7.10999 6.73205L7.12016 2.50234L4.18992 3.37055V7.71164ZM10.8101 3.37055L10.8065 7.71164L7.87985 6.7349V2.50234L10.8101 3.37055ZM11.5698 7.71164L14.4898 6.73205L14.5 2.50234L11.5698 3.37055V7.71164ZM10.2132 8.23007L7.48614 8.95364L4.78682 8.23007L7.48219 7.38606L10.2132 8.23007ZM7.1166 13.8977L7.12016 9.5566L4.18992 8.68838V12.9209L7.1166 13.8977ZM10.7999 12.9181L7.87985 13.8977V9.5566L10.8101 8.68838L10.7999 12.9181Z" fill="white"/>
</mask>
<g mask="url(#mask0_0_55852)">
<rect width="15" height="15" fill="#6B79EF"/>
</g>
</svg>
