<svg width="15" height="15" viewBox="0 0 15 15" fill="none" xmlns="http://www.w3.org/2000/svg">
<path fill-rule="evenodd" clip-rule="evenodd" d="M13.8002 1.22095C14.2973 1.22095 14.7002 1.62701 14.7002 2.12792V13.093C14.7002 13.594 14.2973 14 13.8002 14H1.1002C0.603139 14 0.200195 13.594 0.200195 13.093V2.12792C0.200195 1.62701 0.603139 1.22095 1.1002 1.22095H13.8002ZM13.2502 3.58723H1.6502C1.49634 3.58723 1.36954 3.70394 1.35221 3.85429L1.3502 3.88955V12.5407C1.3502 12.6958 1.46601 12.8235 1.61521 12.841L1.6502 12.843H13.2502C13.404 12.843 13.5308 12.7263 13.5482 12.576L13.5502 12.5407V3.88955C13.5502 3.73451 13.4344 3.60672 13.2852 3.58926L13.2502 3.58723ZM10.0352 8.80002H6.8502C6.65688 8.80002 6.5002 8.9567 6.5002 9.15002C6.5002 9.34334 6.65688 9.50002 6.8502 9.50002H10.0352C10.2285 9.50002 10.3852 9.34334 10.3852 9.15002C10.3852 8.9567 10.2285 8.80002 10.0352 8.80002ZM3.78114 6.5564C3.65782 6.70936 3.67679 6.93401 3.82857 7.06307L4.92423 7.98081L3.82857 8.89855C3.67679 9.0276 3.65782 9.25226 3.78114 9.40521C3.85229 9.49125 3.95664 9.53427 4.05624 9.53427C4.13688 9.53427 4.21751 9.50559 4.28391 9.45301L5.70685 8.25804C5.78748 8.18634 5.83491 8.08597 5.83491 7.98081C5.83491 7.87565 5.78748 7.77527 5.70685 7.70357L4.28391 6.5086C4.13213 6.38433 3.90921 6.40345 3.78114 6.5564ZM1.5752 2.12327C1.45093 2.12327 1.3502 2.22479 1.3502 2.35002C1.3502 2.47524 1.45093 2.57676 1.5752 2.57676C1.69946 2.57676 1.8002 2.47524 1.8002 2.35002C1.8002 2.22479 1.69946 2.12327 1.5752 2.12327ZM2.4752 2.12327C2.35093 2.12327 2.2502 2.22479 2.2502 2.35002C2.2502 2.47524 2.35093 2.57676 2.4752 2.57676C2.59946 2.57676 2.7002 2.47524 2.7002 2.35002C2.7002 2.22479 2.59946 2.12327 2.4752 2.12327ZM3.3752 2.12327C3.25093 2.12327 3.1502 2.22479 3.1502 2.35002C3.1502 2.47524 3.25093 2.57676 3.3752 2.57676C3.49946 2.57676 3.6002 2.47524 3.6002 2.35002C3.6002 2.22479 3.49946 2.12327 3.3752 2.12327Z" fill="#F90909"/>
<mask id="mask0_0_55817" style="mask-type:alpha" maskUnits="userSpaceOnUse" x="0" y="1" width="15" height="13">
<path fill-rule="evenodd" clip-rule="evenodd" d="M13.8002 1.22095C14.2973 1.22095 14.7002 1.62701 14.7002 2.12792V13.093C14.7002 13.594 14.2973 14 13.8002 14H1.1002C0.603139 14 0.200195 13.594 0.200195 13.093V2.12792C0.200195 1.62701 0.603139 1.22095 1.1002 1.22095H13.8002ZM13.2502 3.58723H1.6502C1.49634 3.58723 1.36954 3.70394 1.35221 3.85429L1.3502 3.88955V12.5407C1.3502 12.6958 1.46601 12.8235 1.61521 12.841L1.6502 12.843H13.2502C13.404 12.843 13.5308 12.7263 13.5482 12.576L13.5502 12.5407V3.88955C13.5502 3.73451 13.4344 3.60672 13.2852 3.58926L13.2502 3.58723ZM10.0352 8.80002H6.8502C6.65688 8.80002 6.5002 8.9567 6.5002 9.15002C6.5002 9.34334 6.65688 9.50002 6.8502 9.50002H10.0352C10.2285 9.50002 10.3852 9.34334 10.3852 9.15002C10.3852 8.9567 10.2285 8.80002 10.0352 8.80002ZM3.78114 6.5564C3.65782 6.70936 3.67679 6.93401 3.82857 7.06307L4.92423 7.98081L3.82857 8.89855C3.67679 9.0276 3.65782 9.25226 3.78114 9.40521C3.85229 9.49125 3.95664 9.53427 4.05624 9.53427C4.13688 9.53427 4.21751 9.50559 4.28391 9.45301L5.70685 8.25804C5.78748 8.18634 5.83491 8.08597 5.83491 7.98081C5.83491 7.87565 5.78748 7.77527 5.70685 7.70357L4.28391 6.5086C4.13213 6.38433 3.90921 6.40345 3.78114 6.5564ZM1.5752 2.12327C1.45093 2.12327 1.3502 2.22479 1.3502 2.35002C1.3502 2.47524 1.45093 2.57676 1.5752 2.57676C1.69946 2.57676 1.8002 2.47524 1.8002 2.35002C1.8002 2.22479 1.69946 2.12327 1.5752 2.12327ZM2.4752 2.12327C2.35093 2.12327 2.2502 2.22479 2.2502 2.35002C2.2502 2.47524 2.35093 2.57676 2.4752 2.57676C2.59946 2.57676 2.7002 2.47524 2.7002 2.35002C2.7002 2.22479 2.59946 2.12327 2.4752 2.12327ZM3.3752 2.12327C3.25093 2.12327 3.1502 2.22479 3.1502 2.35002C3.1502 2.47524 3.25093 2.57676 3.3752 2.57676C3.49946 2.57676 3.6002 2.47524 3.6002 2.35002C3.6002 2.22479 3.49946 2.12327 3.3752 2.12327Z" fill="white"/>
</mask>
<g mask="url(#mask0_0_55817)">
<rect width="15" height="15" fill="#6B79EF"/>
</g>
</svg>
