<svg width="15" height="15" viewBox="0 0 15 15" fill="none" xmlns="http://www.w3.org/2000/svg">
<path fill-rule="evenodd" clip-rule="evenodd" d="M12.6 3.72093C13.0971 3.72093 13.5 4.127 13.5 4.62791V13.093C13.5 13.5939 13.0971 14 12.6 14H0.9C0.402944 14 0 13.5939 0 13.093V4.62791C0 4.127 0.402944 3.72093 0.9 3.72093H12.6ZM12.3 5.83721H1.2C1.04615 5.83721 0.919348 5.95392 0.902018 6.10428L0.9 6.13953V12.7907C0.9 12.9457 1.01581 13.0735 1.16501 13.091L1.2 13.093H12.3C12.4539 13.093 12.5807 12.9763 12.598 12.826L12.6 12.7907V6.13953C12.6 5.98449 12.4842 5.85671 12.335 5.83924L12.3 5.83721ZM7.07552 7.46368C7.2605 7.51626 7.36959 7.71701 7.31742 7.90821L6.3688 11.2541C6.31662 11.4472 6.11599 11.5524 5.92769 11.4979C5.7427 11.4453 5.63361 11.2446 5.68579 11.0534L6.63441 7.70745C6.68658 7.52104 6.88105 7.40632 7.07552 7.46368ZM14.1 1C14.5971 1 15 1.40607 15 1.90698V10.3721C15 10.873 14.5971 11.2791 14.1 11.2791V3.4186C14.1 3.26356 13.9842 3.13578 13.835 3.11831L13.8 3.11628H1.5V1.90698C1.5 1.40607 1.90294 1 2.4 1H14.1ZM5.05377 8.05639C5.17709 8.20934 5.15812 8.434 5.00634 8.56305L3.91068 9.48079L5.00634 10.3985C5.15812 10.5276 5.17709 10.7522 5.05377 10.9052C4.98262 10.9912 4.87827 11.0343 4.77867 11.0343C4.69804 11.0343 4.6174 11.0056 4.551 10.953L3.12806 9.75802C3.04743 9.68633 3 9.58595 3 9.48079C3 9.37563 3.04743 9.27526 3.12806 9.20356L4.551 8.00859C4.70278 7.88431 4.9257 7.90343 5.05377 8.05639ZM8.45221 8.00859L9.87514 9.20356C9.95578 9.27526 10.0032 9.37563 10.0032 9.48079C10.0032 9.58595 9.95578 9.68633 9.87514 9.75802L8.45221 10.953C8.3858 11.0056 8.30517 11.0343 8.22454 11.0343C8.12493 11.0343 8.02058 10.9912 7.94944 10.9052C7.82612 10.7522 7.84509 10.5276 7.99687 10.3985L9.09253 9.48079L7.99687 8.56305C7.84509 8.434 7.82612 8.20934 7.94944 8.05639C8.0775 7.90343 8.30043 7.88431 8.45221 8.00859ZM1.125 4.47674C1.00074 4.47674 0.9 4.57826 0.9 4.70349C0.9 4.82872 1.00074 4.93023 1.125 4.93023C1.24926 4.93023 1.35 4.82872 1.35 4.70349C1.35 4.57826 1.24926 4.47674 1.125 4.47674ZM2.025 4.47674C1.90074 4.47674 1.8 4.57826 1.8 4.70349C1.8 4.82872 1.90074 4.93023 2.025 4.93023C2.14926 4.93023 2.25 4.82872 2.25 4.70349C2.25 4.57826 2.14926 4.47674 2.025 4.47674ZM2.925 4.47674C2.80074 4.47674 2.7 4.57826 2.7 4.70349C2.7 4.82872 2.80074 4.93023 2.925 4.93023C3.04926 4.93023 3.15 4.82872 3.15 4.70349C3.15 4.57826 3.04926 4.47674 2.925 4.47674ZM2.625 1.75581C2.50074 1.75581 2.4 1.85733 2.4 1.98256C2.4 2.10779 2.50074 2.2093 2.625 2.2093C2.74926 2.2093 2.85 2.10779 2.85 1.98256C2.85 1.85733 2.74926 1.75581 2.625 1.75581ZM3.525 1.75581C3.40074 1.75581 3.3 1.85733 3.3 1.98256C3.3 2.10779 3.40074 2.2093 3.525 2.2093C3.64926 2.2093 3.75 2.10779 3.75 1.98256C3.75 1.85733 3.64926 1.75581 3.525 1.75581ZM4.425 1.75581C4.30074 1.75581 4.2 1.85733 4.2 1.98256C4.2 2.10779 4.30074 2.2093 4.425 2.2093C4.54926 2.2093 4.65 2.10779 4.65 1.98256C4.65 1.85733 4.54926 1.75581 4.425 1.75581Z" fill="#F90909"/>
<mask id="mask0_0_55927" style="mask-type:alpha" maskUnits="userSpaceOnUse" x="0" y="1" width="15" height="13">
<path fill-rule="evenodd" clip-rule="evenodd" d="M12.6 3.72093C13.0971 3.72093 13.5 4.127 13.5 4.62791V13.093C13.5 13.5939 13.0971 14 12.6 14H0.9C0.402944 14 0 13.5939 0 13.093V4.62791C0 4.127 0.402944 3.72093 0.9 3.72093H12.6ZM12.3 5.83721H1.2C1.04615 5.83721 0.919348 5.95392 0.902018 6.10428L0.9 6.13953V12.7907C0.9 12.9457 1.01581 13.0735 1.16501 13.091L1.2 13.093H12.3C12.4539 13.093 12.5807 12.9763 12.598 12.826L12.6 12.7907V6.13953C12.6 5.98449 12.4842 5.85671 12.335 5.83924L12.3 5.83721ZM7.07552 7.46368C7.2605 7.51626 7.36959 7.71701 7.31742 7.90821L6.3688 11.2541C6.31662 11.4472 6.11599 11.5524 5.92769 11.4979C5.7427 11.4453 5.63361 11.2446 5.68579 11.0534L6.63441 7.70745C6.68658 7.52104 6.88105 7.40632 7.07552 7.46368ZM14.1 1C14.5971 1 15 1.40607 15 1.90698V10.3721C15 10.873 14.5971 11.2791 14.1 11.2791V3.4186C14.1 3.26356 13.9842 3.13578 13.835 3.11831L13.8 3.11628H1.5V1.90698C1.5 1.40607 1.90294 1 2.4 1H14.1ZM5.05377 8.05639C5.17709 8.20934 5.15812 8.434 5.00634 8.56305L3.91068 9.48079L5.00634 10.3985C5.15812 10.5276 5.17709 10.7522 5.05377 10.9052C4.98262 10.9912 4.87827 11.0343 4.77867 11.0343C4.69804 11.0343 4.6174 11.0056 4.551 10.953L3.12806 9.75802C3.04743 9.68633 3 9.58595 3 9.48079C3 9.37563 3.04743 9.27526 3.12806 9.20356L4.551 8.00859C4.70278 7.88431 4.9257 7.90343 5.05377 8.05639ZM8.45221 8.00859L9.87514 9.20356C9.95578 9.27526 10.0032 9.37563 10.0032 9.48079C10.0032 9.58595 9.95578 9.68633 9.87514 9.75802L8.45221 10.953C8.3858 11.0056 8.30517 11.0343 8.22454 11.0343C8.12493 11.0343 8.02058 10.9912 7.94944 10.9052C7.82612 10.7522 7.84509 10.5276 7.99687 10.3985L9.09253 9.48079L7.99687 8.56305C7.84509 8.434 7.82612 8.20934 7.94944 8.05639C8.0775 7.90343 8.30043 7.88431 8.45221 8.00859ZM1.125 4.47674C1.00074 4.47674 0.9 4.57826 0.9 4.70349C0.9 4.82872 1.00074 4.93023 1.125 4.93023C1.24926 4.93023 1.35 4.82872 1.35 4.70349C1.35 4.57826 1.24926 4.47674 1.125 4.47674ZM2.025 4.47674C1.90074 4.47674 1.8 4.57826 1.8 4.70349C1.8 4.82872 1.90074 4.93023 2.025 4.93023C2.14926 4.93023 2.25 4.82872 2.25 4.70349C2.25 4.57826 2.14926 4.47674 2.025 4.47674ZM2.925 4.47674C2.80074 4.47674 2.7 4.57826 2.7 4.70349C2.7 4.82872 2.80074 4.93023 2.925 4.93023C3.04926 4.93023 3.15 4.82872 3.15 4.70349C3.15 4.57826 3.04926 4.47674 2.925 4.47674ZM2.625 1.75581C2.50074 1.75581 2.4 1.85733 2.4 1.98256C2.4 2.10779 2.50074 2.2093 2.625 2.2093C2.74926 2.2093 2.85 2.10779 2.85 1.98256C2.85 1.85733 2.74926 1.75581 2.625 1.75581ZM3.525 1.75581C3.40074 1.75581 3.3 1.85733 3.3 1.98256C3.3 2.10779 3.40074 2.2093 3.525 2.2093C3.64926 2.2093 3.75 2.10779 3.75 1.98256C3.75 1.85733 3.64926 1.75581 3.525 1.75581ZM4.425 1.75581C4.30074 1.75581 4.2 1.85733 4.2 1.98256C4.2 2.10779 4.30074 2.2093 4.425 2.2093C4.54926 2.2093 4.65 2.10779 4.65 1.98256C4.65 1.85733 4.54926 1.75581 4.425 1.75581Z" fill="white"/>
</mask>
<g mask="url(#mask0_0_55927)">
<rect width="15" height="15" fill="#6B79EF"/>
</g>
</svg>
