<svg width="128" height="32" viewBox="0 0 128 32" fill="none" xmlns="http://www.w3.org/2000/svg">
<g opacity="0.25">
<path fill-rule="evenodd" clip-rule="evenodd" d="M39.2295 22.2241C42.7736 22.2241 45.2625 20.2131 45.9793 17.2264H42.8533C42.2759 18.8392 40.9219 19.6157 39.2693 19.6157C36.7804 19.6157 35.2672 17.7242 35.2672 14.8769C35.2672 12.0296 36.8202 10.1181 39.3091 10.1181C40.9816 10.1181 42.2759 10.9146 42.8533 12.5075H45.9793C45.2426 9.40132 42.7936 7.50977 39.3688 7.50977C34.9884 7.50977 32.3203 10.6955 32.3203 14.9963C32.3203 19.3569 35.088 22.2241 39.2295 22.2241ZM52.1489 22.244C55.3148 22.244 57.5648 20.0936 57.5648 16.868C57.5648 13.6623 55.3148 11.4721 52.1489 11.4721C48.9831 11.4721 46.7331 13.6623 46.7331 16.868C46.7331 20.0936 48.9831 22.244 52.1489 22.244ZM49.5804 16.8481C49.5804 18.6799 50.5959 19.8746 52.1489 19.8746C53.702 19.8746 54.7175 18.6799 54.7175 16.8481C54.7175 14.9963 53.702 13.8415 52.1489 13.8415C50.5959 13.8415 49.5804 14.9963 49.5804 16.8481ZM61.6835 26.0271V20.7307C62.2211 21.6467 63.4954 22.2639 65.0087 22.2639C67.9953 22.2639 69.9068 20.1732 69.9068 16.8879C69.9068 13.4234 67.836 11.492 65.0087 11.492C63.4158 11.492 62.1813 12.2088 61.6636 13.1048L61.5043 11.6911H58.896V26.0271H61.6835ZM61.7432 16.9078C61.7432 18.6998 62.8782 19.775 64.3914 19.775C65.9246 19.775 67.0396 18.6998 67.0396 16.8879C67.0396 15.0959 65.9246 14.0008 64.3914 13.9809C62.8782 13.9809 61.7432 15.0959 61.7432 16.9078ZM72.7712 26.0271C74.3441 26.0271 75.7777 25.7085 76.4945 23.6975L80.8152 11.6911H77.9679L75.3994 19.5361L72.6915 11.6911H69.7048L73.6273 21.8259C73.7468 22.1444 73.8065 22.3635 73.8065 22.6024C73.8065 23.2395 73.4481 23.5581 72.7712 23.5581H70.2424V26.0271H72.7712ZM82.8718 7.62354C83.6965 7.62354 84.3651 8.29213 84.3651 9.11688C84.3651 9.94162 83.6965 10.6102 82.8718 10.6102C82.047 10.6102 81.3784 9.94162 81.3784 9.11688C81.3784 8.29213 82.047 7.62354 82.8718 7.62354ZM84.2769 11.6911H81.4894V22.0449H84.2769V11.6911ZM88.7541 16.5693V22.0449H85.9665V11.6911H88.555L88.7143 12.9256C89.2519 12.0694 90.2872 11.492 91.8403 11.492C94.4885 11.492 96.0017 13.2442 96.0017 15.8923V22.0449H93.1943V16.4698C93.1943 14.7574 92.3779 13.8813 91.024 13.8813C89.5505 13.8813 88.7541 14.8968 88.7541 16.5693Z" fill="#00394C"/>
<mask id="mask0_0_52107" style="mask-type:alpha" maskUnits="userSpaceOnUse" x="32" y="7" width="65" height="20">
<path fill-rule="evenodd" clip-rule="evenodd" d="M39.2295 22.2241C42.7736 22.2241 45.2625 20.2131 45.9793 17.2264H42.8533C42.2759 18.8392 40.9219 19.6157 39.2693 19.6157C36.7804 19.6157 35.2672 17.7242 35.2672 14.8769C35.2672 12.0296 36.8202 10.1181 39.3091 10.1181C40.9816 10.1181 42.2759 10.9146 42.8533 12.5075H45.9793C45.2426 9.40132 42.7936 7.50977 39.3688 7.50977C34.9884 7.50977 32.3203 10.6955 32.3203 14.9963C32.3203 19.3569 35.088 22.2241 39.2295 22.2241ZM52.1489 22.244C55.3148 22.244 57.5648 20.0936 57.5648 16.868C57.5648 13.6623 55.3148 11.4721 52.1489 11.4721C48.9831 11.4721 46.7331 13.6623 46.7331 16.868C46.7331 20.0936 48.9831 22.244 52.1489 22.244ZM49.5804 16.8481C49.5804 18.6799 50.5959 19.8746 52.1489 19.8746C53.702 19.8746 54.7175 18.6799 54.7175 16.8481C54.7175 14.9963 53.702 13.8415 52.1489 13.8415C50.5959 13.8415 49.5804 14.9963 49.5804 16.8481ZM61.6835 26.0271V20.7307C62.2211 21.6467 63.4954 22.2639 65.0087 22.2639C67.9953 22.2639 69.9068 20.1732 69.9068 16.8879C69.9068 13.4234 67.836 11.492 65.0087 11.492C63.4158 11.492 62.1813 12.2088 61.6636 13.1048L61.5043 11.6911H58.896V26.0271H61.6835ZM61.7432 16.9078C61.7432 18.6998 62.8782 19.775 64.3914 19.775C65.9246 19.775 67.0396 18.6998 67.0396 16.8879C67.0396 15.0959 65.9246 14.0008 64.3914 13.9809C62.8782 13.9809 61.7432 15.0959 61.7432 16.9078ZM72.7712 26.0271C74.3441 26.0271 75.7777 25.7085 76.4945 23.6975L80.8152 11.6911H77.9679L75.3994 19.5361L72.6915 11.6911H69.7048L73.6273 21.8259C73.7468 22.1444 73.8065 22.3635 73.8065 22.6024C73.8065 23.2395 73.4481 23.5581 72.7712 23.5581H70.2424V26.0271H72.7712ZM82.8718 7.62354C83.6965 7.62354 84.3651 8.29213 84.3651 9.11688C84.3651 9.94162 83.6965 10.6102 82.8718 10.6102C82.047 10.6102 81.3784 9.94162 81.3784 9.11688C81.3784 8.29213 82.047 7.62354 82.8718 7.62354ZM84.2769 11.6911H81.4894V22.0449H84.2769V11.6911ZM88.7541 16.5693V22.0449H85.9665V11.6911H88.555L88.7143 12.9256C89.2519 12.0694 90.2872 11.492 91.8403 11.492C94.4885 11.492 96.0017 13.2442 96.0017 15.8923V22.0449H93.1943V16.4698C93.1943 14.7574 92.3779 13.8813 91.024 13.8813C89.5505 13.8813 88.7541 14.8968 88.7541 16.5693Z" fill="white"/>
</mask>
<g mask="url(#mask0_0_52107)">
<rect width="128" height="32" fill="#122E45"/>
</g>
</g>
</svg>
