<svg width="160" height="40" viewBox="0 0 160 40" fill="none" xmlns="http://www.w3.org/2000/svg">
<path fill-rule="evenodd" clip-rule="evenodd" d="M24.965 21.9958C24.965 27.9954 29.9748 32.876 36.1333 32.876V32.8767C38.6566 32.881 41.1082 32.0422 43.0948 30.4946H45.7694C43.2838 33.1623 39.79 34.6746 36.1333 34.6657C30.5825 34.6657 25.8358 31.2583 23.9725 26.479L10.802 27.3324C10.2961 27.3649 9.85816 26.9917 9.82486 26.4987C9.79028 26.0064 10.1745 25.5809 10.6803 25.5478L23.4353 24.7205C23.25 23.8961 23.1492 23.0551 23.1344 22.2104L4.50259 17.7547C4.26815 17.7017 4.06485 17.5575 3.93823 17.3542C3.81161 17.1509 3.77226 16.9056 3.82899 16.6732C3.95645 16.1893 4.4511 15.8971 4.93929 16.0172L23.2375 20.3921C23.3431 19.5786 23.5301 18.7776 23.7958 18.0011L2.26855 6.98591C2.05411 6.879 1.89214 6.69052 1.81934 6.46319C1.74653 6.23586 1.76905 5.98893 1.8818 5.77834C2.1238 5.33895 2.67421 5.17211 3.12144 5.40257L24.5014 16.342C24.8145 15.7338 25.1776 15.1516 25.5829 14.6026L14.1687 5.36436C13.9818 5.21505 13.8635 4.99692 13.8407 4.75955C13.8179 4.52218 13.8926 4.28572 14.0477 4.10392C14.376 3.72287 14.9497 3.67145 15.3411 3.98801L26.7598 13.2295C27.3203 12.6601 27.9325 12.1435 28.5885 11.6863L24.0218 4.94336C23.8881 4.74536 23.8404 4.50202 23.8896 4.26854C23.9388 4.03507 24.0807 3.83125 24.2831 3.70331C24.7061 3.43064 25.2705 3.54343 25.5547 3.95744L30.1547 10.7506C31.9463 9.8437 33.9787 9.3278 36.1333 9.3278C39.9447 9.31838 43.5708 10.9618 46.0646 13.8288H43.5014C41.5331 12.1423 38.9545 11.1156 36.1333 11.1156C29.9748 11.1156 24.965 15.9968 24.965 21.9958ZM46.2256 17.9142C45.4741 17.9142 45.108 17.4123 45.108 16.8441C45.108 15.9926 45.7362 15.3078 46.7157 15.3078C47.4671 15.3078 47.8172 15.809 47.8172 16.3773C47.8172 17.2958 47.2051 17.9136 46.2256 17.9136V17.9142ZM35.8284 27.7523C34.5349 27.7523 32.7352 27.6677 31.7564 27.5186L33.7834 16.4612C34.7963 16.3278 36.7546 16.2269 37.8028 16.2269C40.3712 16.2269 42.3109 17.5627 42.3109 20.8371C42.3109 24.9466 39.7251 27.7523 35.8291 27.7523H35.8284ZM37.332 18.4142C36.9286 18.4142 36.3872 18.4317 36.0025 18.4643L34.7109 25.5149C35.0423 25.5475 35.8111 25.565 36.2138 25.565C38.4502 25.565 39.569 23.5262 39.569 20.7212C39.569 19.0339 38.6076 18.4154 37.3326 18.4154L37.332 18.4142ZM43.2731 27.6007H45.6321L47.2404 18.8822H44.88L43.2731 27.6007ZM53.1995 20.8696C53.7749 20.8696 54.4217 20.9705 54.9291 21.1867C55.2265 20.5864 55.4532 19.8183 55.6099 19.0996C54.9991 18.8822 54.0203 18.7156 53.1288 18.7156C50.9624 18.7156 49.058 19.8008 48.498 23.0738C48.428 23.4924 48.3933 23.909 48.3933 24.2768C48.3933 26.4992 49.7395 27.7692 52.1153 27.7692C52.8321 27.7692 53.9156 27.6188 54.4744 27.3513C54.4744 26.6489 54.457 25.8814 54.3517 25.2123C53.8449 25.4629 53.1995 25.6145 52.6047 25.6145C51.5045 25.6145 50.9438 25.2968 50.9438 24.1772C50.9438 23.8927 50.9797 23.5594 51.0497 23.1584C51.3645 21.421 52.0286 20.8696 53.1995 20.8696ZM62.3031 20.8534H60.0667L59.3505 24.7781C59.3326 24.8783 59.3326 24.9616 59.3326 25.0456C59.3326 25.5475 59.6486 25.6978 60.3294 25.6978C60.7661 25.6978 61.3769 25.5638 61.6923 25.4303C61.7096 25.664 61.7276 25.9315 61.7276 26.2147C61.7276 26.6327 61.6923 27.0669 61.657 27.4177C61.1155 27.652 60.084 27.7686 59.5786 27.7686C57.759 27.7686 56.9214 26.9165 56.9214 25.4811C56.9214 25.2123 56.9561 24.9454 57.0088 24.6446L57.7076 20.854H56.6767L57.0428 18.8829H58.0737L58.4064 17.079C59.2017 16.8787 60.0154 16.7557 60.8355 16.7119L60.4334 18.8829H62.7919C62.7052 19.5345 62.5478 20.2525 62.3031 20.8534ZM63.1779 27.6007H65.537L67.1439 18.8822H64.7849L63.1779 27.6007ZM66.1317 17.9142C65.3796 17.9142 65.0116 17.4123 65.0116 16.8441C65.0116 15.9926 65.641 15.3078 66.6205 15.3078C67.3719 15.3078 67.722 15.809 67.722 16.3773C67.722 17.2958 67.1093 17.9136 66.1317 17.9136V17.9142ZM72.0728 27.768C74.4665 27.768 76.2835 26.4328 76.773 23.4761C76.843 23.0582 76.8963 22.5732 76.8963 22.1892C76.8963 19.7845 75.3054 18.7156 73.1216 18.7156C70.7099 18.7156 68.9102 20.0514 68.4202 23.0074C68.3495 23.4592 68.2981 23.8927 68.2981 24.2937C68.2981 26.6496 69.8537 27.768 72.0728 27.768ZM72.9643 20.619C71.9674 20.619 71.3033 21.2211 70.9552 23.243C70.891 23.6064 70.8557 23.9742 70.8499 24.3432C70.8499 25.4798 71.4087 25.8639 72.2308 25.8639C73.2957 25.8639 73.8904 25.2123 74.2392 23.243C74.3098 22.8408 74.3445 22.4398 74.3445 22.1397C74.3445 21.0034 73.7854 20.6192 72.9643 20.619ZM85.2671 27.6007L86.4026 21.421C86.4373 21.2211 86.472 20.9705 86.472 20.7525C86.472 19.2663 85.3885 18.7162 84.1303 18.7162C83.3101 18.7162 82.5233 18.8327 81.6498 19.7005H81.5271L81.6845 18.8327C80.8906 18.834 80.0967 18.8778 79.308 18.9656L77.7171 27.6007H80.0775L81.2657 21.1372C81.8065 20.8371 82.3139 20.6704 82.8727 20.6704C83.6762 20.6704 84.0076 20.9198 84.0076 21.421C84.0076 21.505 84.0076 21.572 83.9909 21.6879L82.9074 27.6007H85.2671ZM95.8043 26.2649C95.5776 27.4177 94.9655 27.7686 94.1273 27.7686C93.2358 27.7686 92.7124 27.4678 92.4317 26.7824H92.3623C91.5235 27.5681 90.7714 27.7686 89.8632 27.7686C88.1156 27.7686 87.3468 26.8833 87.3468 25.5468C87.3468 25.3463 87.3641 25.1458 87.3982 24.9291C87.7488 23.1259 89.0764 22.6741 91.2968 22.5908L92.7464 22.5407L93.0258 21.0539C92.6237 20.8696 91.9082 20.7205 91.2788 20.7205C90.5857 20.7225 89.8988 20.8469 89.2511 21.0877C89.1689 20.3922 89.1869 19.6899 89.3044 18.9994C90.142 18.782 90.8941 18.7156 91.7156 18.7156C93.0791 18.7156 94.6334 19.0664 95.5255 19.7337L94.5814 24.8614C94.5618 24.9501 94.55 25.0402 94.5461 25.1308C94.5461 25.4134 94.7034 25.5143 95.0535 25.5143H95.9443L95.8043 26.2649ZM89.7752 24.9798C89.9152 24.2768 90.282 24.1108 91.0335 24.0763V24.077L92.467 24.0268L92.1696 25.6302C91.7323 25.914 91.1388 26.0312 90.6314 26.0312C90.0026 26.0312 89.7412 25.748 89.7412 25.2793C89.7431 25.1784 89.7547 25.0782 89.7752 24.9798ZM103.074 21.1541C102.788 21.0869 102.495 21.0533 102.201 21.0539C101.589 21.0539 100.943 21.2211 100.471 21.4718L99.3522 27.6007H96.9931L98.5834 18.9668C99.3724 18.8787 100.166 18.834 100.96 18.8327L100.751 19.9511H100.873C101.763 18.8822 102.48 18.7162 103.057 18.7162C103.267 18.7162 103.545 18.7481 103.721 18.7983C103.588 19.6028 103.371 20.3922 103.074 21.1541ZM103.914 31.209C105.591 31.209 106.902 30.5743 108.561 27.4346L113.035 18.9668C112.354 18.8659 111.341 18.8321 110.694 18.8321L108.108 24.06C107.968 24.3269 107.792 24.6954 107.67 25.0788H107.548C107.548 24.7117 107.514 24.3269 107.478 24.06L106.902 18.8321C106.148 18.8366 105.396 18.8816 104.647 18.9668C104.752 22.0238 105.417 25.4303 106.045 27.5512L105.626 28.2197C105.207 28.8707 104.927 29.0374 104.314 29.0374C103.809 29.0374 103.18 28.9709 102.865 28.8381C102.586 29.4051 102.358 30.1081 102.184 30.8913C102.69 31.1589 103.477 31.209 103.914 31.209ZM113.385 27.7686C112.705 27.7686 112.215 27.4177 112.215 26.7323C112.215 25.748 112.947 25.2467 113.787 25.2467C114.416 25.2467 114.905 25.6314 114.905 26.2987C114.905 27.2836 114.207 27.7686 113.385 27.7686ZM122.612 21.1865L122.613 21.1867H122.612L122.612 21.1865ZM123.294 19.0996C123.136 19.8182 122.909 20.5863 122.612 21.1865C122.105 20.9704 121.459 20.8696 120.883 20.8696C119.711 20.8696 119.047 21.421 118.732 23.1584C118.669 23.4946 118.633 23.8354 118.628 24.1772C118.628 25.2968 119.186 25.6145 120.288 25.6145C120.894 25.6104 121.491 25.4729 122.036 25.2123C122.141 25.8814 122.158 26.6489 122.158 27.3513C121.599 27.6188 120.516 27.7692 119.798 27.7692C117.421 27.7692 116.076 26.4992 116.076 24.2768C116.076 23.909 116.111 23.4924 116.182 23.0738C116.741 19.8008 118.646 18.7156 120.813 18.7156C121.703 18.7156 122.682 18.8822 123.294 19.0996ZM132.119 23.4761C131.629 26.4328 129.812 27.768 127.418 27.768C125.199 27.768 123.644 26.6496 123.644 24.2937C123.644 23.8927 123.695 23.4592 123.766 23.0074C124.255 20.0514 126.056 18.7156 128.467 18.7156C130.651 18.7156 132.241 19.7845 132.241 22.1892C132.241 22.5732 132.189 23.0582 132.119 23.4761ZM126.3 23.243C126.649 21.2215 127.313 20.6193 128.309 20.619C129.131 20.619 129.69 21.0031 129.69 22.1397C129.685 22.5096 129.65 22.8785 129.585 23.243C129.235 25.2123 128.641 25.8639 127.574 25.8639C126.754 25.8639 126.195 25.4798 126.195 24.3432C126.201 23.9744 126.236 23.6065 126.3 23.243ZM146.152 21.421L145.016 27.6007H142.656L143.739 21.6879C143.757 21.5877 143.757 21.5219 143.757 21.4373C143.757 20.9705 143.477 20.6704 142.761 20.6704C142.29 20.6704 141.749 20.8696 141.364 21.1372L140.175 27.6007H137.816L138.9 21.6879C138.917 21.5877 138.934 21.4718 138.934 21.3872C138.934 20.9361 138.655 20.6704 137.99 20.6704C137.484 20.6704 137.013 20.8534 136.523 21.1372L135.334 27.6007H132.975L134.566 18.9656C135.354 18.8778 136.148 18.834 136.942 18.8327L136.785 19.7005H136.907C137.78 18.8496 138.496 18.7162 139.355 18.7162C140.297 18.7162 140.978 19.0332 141.172 19.8847C142.15 18.9825 142.953 18.7162 143.897 18.7162C145.242 18.7162 146.222 19.3327 146.222 20.7525C146.222 20.9705 146.187 21.2374 146.152 21.421H146.152Z" fill="white"/>
<mask id="mask0_696_24449" style="mask-type:alpha" maskUnits="userSpaceOnUse" x="1" y="3" width="146" height="32">
<path fill-rule="evenodd" clip-rule="evenodd" d="M24.965 21.9958C24.965 27.9954 29.9748 32.876 36.1333 32.876V32.8767C38.6566 32.881 41.1082 32.0422 43.0948 30.4946H45.7694C43.2838 33.1623 39.79 34.6746 36.1333 34.6657C30.5825 34.6657 25.8358 31.2583 23.9725 26.479L10.802 27.3324C10.2961 27.3649 9.85816 26.9917 9.82486 26.4987C9.79028 26.0064 10.1745 25.5809 10.6803 25.5478L23.4353 24.7205C23.25 23.8961 23.1492 23.0551 23.1344 22.2104L4.50259 17.7547C4.26815 17.7017 4.06485 17.5575 3.93823 17.3542C3.81161 17.1509 3.77226 16.9056 3.82899 16.6732C3.95645 16.1893 4.4511 15.8971 4.93929 16.0172L23.2375 20.3921C23.3431 19.5786 23.5301 18.7776 23.7958 18.0011L2.26855 6.98591C2.05411 6.879 1.89214 6.69052 1.81934 6.46319C1.74653 6.23586 1.76905 5.98893 1.8818 5.77834C2.1238 5.33895 2.67421 5.17211 3.12144 5.40257L24.5014 16.342C24.8145 15.7338 25.1776 15.1516 25.5829 14.6026L14.1687 5.36436C13.9818 5.21505 13.8635 4.99692 13.8407 4.75955C13.8179 4.52218 13.8926 4.28572 14.0477 4.10392C14.376 3.72287 14.9497 3.67145 15.3411 3.98801L26.7598 13.2295C27.3203 12.6601 27.9325 12.1435 28.5885 11.6863L24.0218 4.94336C23.8881 4.74536 23.8404 4.50202 23.8896 4.26854C23.9388 4.03507 24.0807 3.83125 24.2831 3.70331C24.7061 3.43064 25.2705 3.54343 25.5547 3.95744L30.1547 10.7506C31.9463 9.8437 33.9787 9.3278 36.1333 9.3278C39.9447 9.31838 43.5708 10.9618 46.0646 13.8288H43.5014C41.5331 12.1423 38.9545 11.1156 36.1333 11.1156C29.9748 11.1156 24.965 15.9968 24.965 21.9958ZM46.2256 17.9142C45.4741 17.9142 45.108 17.4123 45.108 16.8441C45.108 15.9926 45.7362 15.3078 46.7157 15.3078C47.4671 15.3078 47.8172 15.809 47.8172 16.3773C47.8172 17.2958 47.2051 17.9136 46.2256 17.9136V17.9142ZM35.8284 27.7523C34.5349 27.7523 32.7352 27.6677 31.7564 27.5186L33.7834 16.4612C34.7963 16.3278 36.7546 16.2269 37.8028 16.2269C40.3712 16.2269 42.3109 17.5627 42.3109 20.8371C42.3109 24.9466 39.7251 27.7523 35.8291 27.7523H35.8284ZM37.332 18.4142C36.9286 18.4142 36.3872 18.4317 36.0025 18.4643L34.7109 25.5149C35.0423 25.5475 35.8111 25.565 36.2138 25.565C38.4502 25.565 39.569 23.5262 39.569 20.7212C39.569 19.0339 38.6076 18.4154 37.3326 18.4154L37.332 18.4142ZM43.2731 27.6007H45.6321L47.2404 18.8822H44.88L43.2731 27.6007ZM53.1995 20.8696C53.7749 20.8696 54.4217 20.9705 54.9291 21.1867C55.2265 20.5864 55.4532 19.8183 55.6099 19.0996C54.9991 18.8822 54.0203 18.7156 53.1288 18.7156C50.9624 18.7156 49.058 19.8008 48.498 23.0738C48.428 23.4924 48.3933 23.909 48.3933 24.2768C48.3933 26.4992 49.7395 27.7692 52.1153 27.7692C52.8321 27.7692 53.9156 27.6188 54.4744 27.3513C54.4744 26.6489 54.457 25.8814 54.3517 25.2123C53.8449 25.4629 53.1995 25.6145 52.6047 25.6145C51.5045 25.6145 50.9438 25.2968 50.9438 24.1772C50.9438 23.8927 50.9797 23.5594 51.0497 23.1584C51.3645 21.421 52.0286 20.8696 53.1995 20.8696ZM62.3031 20.8534H60.0667L59.3505 24.7781C59.3326 24.8783 59.3326 24.9616 59.3326 25.0456C59.3326 25.5475 59.6486 25.6978 60.3294 25.6978C60.7661 25.6978 61.3769 25.5638 61.6923 25.4303C61.7096 25.664 61.7276 25.9315 61.7276 26.2147C61.7276 26.6327 61.6923 27.0669 61.657 27.4177C61.1155 27.652 60.084 27.7686 59.5786 27.7686C57.759 27.7686 56.9214 26.9165 56.9214 25.4811C56.9214 25.2123 56.9561 24.9454 57.0088 24.6446L57.7076 20.854H56.6767L57.0428 18.8829H58.0737L58.4064 17.079C59.2017 16.8787 60.0154 16.7557 60.8355 16.7119L60.4334 18.8829H62.7919C62.7052 19.5345 62.5478 20.2525 62.3031 20.8534ZM63.1779 27.6007H65.537L67.1439 18.8822H64.7849L63.1779 27.6007ZM66.1317 17.9142C65.3796 17.9142 65.0116 17.4123 65.0116 16.8441C65.0116 15.9926 65.641 15.3078 66.6205 15.3078C67.3719 15.3078 67.722 15.809 67.722 16.3773C67.722 17.2958 67.1093 17.9136 66.1317 17.9136V17.9142ZM72.0728 27.768C74.4665 27.768 76.2835 26.4328 76.773 23.4761C76.843 23.0582 76.8963 22.5732 76.8963 22.1892C76.8963 19.7845 75.3054 18.7156 73.1216 18.7156C70.7099 18.7156 68.9102 20.0514 68.4202 23.0074C68.3495 23.4592 68.2981 23.8927 68.2981 24.2937C68.2981 26.6496 69.8537 27.768 72.0728 27.768ZM72.9643 20.619C71.9674 20.619 71.3033 21.2211 70.9552 23.243C70.891 23.6064 70.8557 23.9742 70.8499 24.3432C70.8499 25.4798 71.4087 25.8639 72.2308 25.8639C73.2957 25.8639 73.8904 25.2123 74.2392 23.243C74.3098 22.8408 74.3445 22.4398 74.3445 22.1397C74.3445 21.0034 73.7854 20.6192 72.9643 20.619ZM85.2671 27.6007L86.4026 21.421C86.4373 21.2211 86.472 20.9705 86.472 20.7525C86.472 19.2663 85.3885 18.7162 84.1303 18.7162C83.3101 18.7162 82.5233 18.8327 81.6498 19.7005H81.5271L81.6845 18.8327C80.8906 18.834 80.0967 18.8778 79.308 18.9656L77.7171 27.6007H80.0775L81.2657 21.1372C81.8065 20.8371 82.3139 20.6704 82.8727 20.6704C83.6762 20.6704 84.0076 20.9198 84.0076 21.421C84.0076 21.505 84.0076 21.572 83.9909 21.6879L82.9074 27.6007H85.2671ZM95.8043 26.2649C95.5776 27.4177 94.9655 27.7686 94.1273 27.7686C93.2358 27.7686 92.7124 27.4678 92.4317 26.7824H92.3623C91.5235 27.5681 90.7714 27.7686 89.8632 27.7686C88.1156 27.7686 87.3468 26.8833 87.3468 25.5468C87.3468 25.3463 87.3641 25.1458 87.3982 24.9291C87.7488 23.1259 89.0764 22.6741 91.2968 22.5908L92.7464 22.5407L93.0258 21.0539C92.6237 20.8696 91.9082 20.7205 91.2788 20.7205C90.5857 20.7225 89.8988 20.8469 89.2511 21.0877C89.1689 20.3922 89.1869 19.6899 89.3044 18.9994C90.142 18.782 90.8941 18.7156 91.7156 18.7156C93.0791 18.7156 94.6334 19.0664 95.5255 19.7337L94.5814 24.8614C94.5618 24.9501 94.55 25.0402 94.5461 25.1308C94.5461 25.4134 94.7034 25.5143 95.0535 25.5143H95.9443L95.8043 26.2649ZM89.7752 24.9798C89.9152 24.2768 90.282 24.1108 91.0335 24.0763V24.077L92.467 24.0268L92.1696 25.6302C91.7323 25.914 91.1388 26.0312 90.6314 26.0312C90.0026 26.0312 89.7412 25.748 89.7412 25.2793C89.7431 25.1784 89.7547 25.0782 89.7752 24.9798ZM103.074 21.1541C102.788 21.0869 102.495 21.0533 102.201 21.0539C101.589 21.0539 100.943 21.2211 100.471 21.4718L99.3522 27.6007H96.9931L98.5834 18.9668C99.3724 18.8787 100.166 18.834 100.96 18.8327L100.751 19.9511H100.873C101.763 18.8822 102.48 18.7162 103.057 18.7162C103.267 18.7162 103.545 18.7481 103.721 18.7983C103.588 19.6028 103.371 20.3922 103.074 21.1541ZM103.914 31.209C105.591 31.209 106.902 30.5743 108.561 27.4346L113.035 18.9668C112.354 18.8659 111.341 18.8321 110.694 18.8321L108.108 24.06C107.968 24.3269 107.792 24.6954 107.67 25.0788H107.548C107.548 24.7117 107.514 24.3269 107.478 24.06L106.902 18.8321C106.148 18.8366 105.396 18.8816 104.647 18.9668C104.752 22.0238 105.417 25.4303 106.045 27.5512L105.626 28.2197C105.207 28.8707 104.927 29.0374 104.314 29.0374C103.809 29.0374 103.18 28.9709 102.865 28.8381C102.586 29.4051 102.358 30.1081 102.184 30.8913C102.69 31.1589 103.477 31.209 103.914 31.209ZM113.385 27.7686C112.705 27.7686 112.215 27.4177 112.215 26.7323C112.215 25.748 112.947 25.2467 113.787 25.2467C114.416 25.2467 114.905 25.6314 114.905 26.2987C114.905 27.2836 114.207 27.7686 113.385 27.7686ZM122.612 21.1865L122.613 21.1867H122.612L122.612 21.1865ZM123.294 19.0996C123.136 19.8182 122.909 20.5863 122.612 21.1865C122.105 20.9704 121.459 20.8696 120.883 20.8696C119.711 20.8696 119.047 21.421 118.732 23.1584C118.669 23.4946 118.633 23.8354 118.628 24.1772C118.628 25.2968 119.186 25.6145 120.288 25.6145C120.894 25.6104 121.491 25.4729 122.036 25.2123C122.141 25.8814 122.158 26.6489 122.158 27.3513C121.599 27.6188 120.516 27.7692 119.798 27.7692C117.421 27.7692 116.076 26.4992 116.076 24.2768C116.076 23.909 116.111 23.4924 116.182 23.0738C116.741 19.8008 118.646 18.7156 120.813 18.7156C121.703 18.7156 122.682 18.8822 123.294 19.0996ZM132.119 23.4761C131.629 26.4328 129.812 27.768 127.418 27.768C125.199 27.768 123.644 26.6496 123.644 24.2937C123.644 23.8927 123.695 23.4592 123.766 23.0074C124.255 20.0514 126.056 18.7156 128.467 18.7156C130.651 18.7156 132.241 19.7845 132.241 22.1892C132.241 22.5732 132.189 23.0582 132.119 23.4761ZM126.3 23.243C126.649 21.2215 127.313 20.6193 128.309 20.619C129.131 20.619 129.69 21.0031 129.69 22.1397C129.685 22.5096 129.65 22.8785 129.585 23.243C129.235 25.2123 128.641 25.8639 127.574 25.8639C126.754 25.8639 126.195 25.4798 126.195 24.3432C126.201 23.9744 126.236 23.6065 126.3 23.243ZM146.152 21.421L145.016 27.6007H142.656L143.739 21.6879C143.757 21.5877 143.757 21.5219 143.757 21.4373C143.757 20.9705 143.477 20.6704 142.761 20.6704C142.29 20.6704 141.749 20.8696 141.364 21.1372L140.175 27.6007H137.816L138.9 21.6879C138.917 21.5877 138.934 21.4718 138.934 21.3872C138.934 20.9361 138.655 20.6704 137.99 20.6704C137.484 20.6704 137.013 20.8534 136.523 21.1372L135.334 27.6007H132.975L134.566 18.9656C135.354 18.8778 136.148 18.834 136.942 18.8327L136.785 19.7005H136.907C137.78 18.8496 138.496 18.7162 139.355 18.7162C140.297 18.7162 140.978 19.0332 141.172 19.8847C142.15 18.9825 142.953 18.7162 143.897 18.7162C145.242 18.7162 146.222 19.3327 146.222 20.7525C146.222 20.9705 146.187 21.2374 146.152 21.421H146.152Z" fill="white"/>
</mask>
<g mask="url(#mask0_696_24449)">
<rect width="160" height="40" fill="#6B79EF"/>
</g>
</svg>
