<svg width="124" height="31" viewBox="0 0 124 31" fill="none" xmlns="http://www.w3.org/2000/svg">
<g opacity="0.25">
<path fill-rule="evenodd" clip-rule="evenodd" d="M19.3484 17.0477C19.3484 21.6974 23.231 25.4799 28.0038 25.4799V25.4804C29.9594 25.4838 31.8594 24.8337 33.3989 23.6343H35.4717C33.5454 25.7018 30.8377 26.8738 28.0038 26.8669C23.7019 26.8669 20.0233 24.2262 18.5792 20.5222L8.37202 21.1836C7.97999 21.2088 7.64056 20.9195 7.61475 20.5375C7.58796 20.1559 7.8857 19.8262 8.27773 19.8005L18.1629 19.1593C18.0192 18.5204 17.9411 17.8687 17.9296 17.2141L3.49 13.7608C3.3083 13.7198 3.15075 13.608 3.05262 13.4505C2.95449 13.2929 2.92399 13.1028 2.96795 12.9227C3.06674 12.5477 3.45009 12.3212 3.82843 12.4143L18.0095 15.8048C18.0914 15.1744 18.2363 14.5537 18.4422 13.9519L1.75861 5.41506C1.59243 5.3322 1.4669 5.18613 1.41047 5.00995C1.35405 4.83377 1.3715 4.6424 1.45888 4.47919C1.64643 4.13866 2.073 4.00936 2.41961 4.18797L18.9891 12.666C19.2318 12.1947 19.5131 11.7435 19.8272 11.318L10.9813 4.15835C10.8364 4.04264 10.7447 3.87359 10.727 3.68963C10.7094 3.50566 10.7672 3.32241 10.8875 3.18152C11.1419 2.8862 11.5865 2.84635 11.8899 3.09168L20.7393 10.2538C21.1737 9.81258 21.6482 9.41222 22.1566 9.05782L18.6174 3.83208C18.5138 3.67863 18.4768 3.49004 18.5149 3.3091C18.553 3.12815 18.663 2.97019 18.8199 2.87104C19.1477 2.65972 19.5851 2.74714 19.8054 3.06799L23.3704 8.33273C24.7589 7.62984 26.334 7.23002 28.0038 7.23002C30.9576 7.22272 33.7679 8.49639 35.7005 10.7183H33.7141C32.1886 9.41124 30.1903 8.61556 28.0038 8.61556C23.231 8.61556 19.3484 12.3985 19.3484 17.0477ZM35.8253 13.8845C35.2429 13.8845 34.9592 13.4955 34.9592 13.0551C34.9592 12.3952 35.446 11.8645 36.2051 11.8645C36.7875 11.8645 37.0588 12.253 37.0588 12.6934C37.0588 13.4052 36.5844 13.884 35.8253 13.884V13.8845ZM27.7675 21.509C26.765 21.509 25.3703 21.4435 24.6117 21.3279L26.1826 12.7584C26.9676 12.655 28.4853 12.5768 29.2976 12.5768C31.2882 12.5768 32.7915 13.6121 32.7915 16.1497C32.7915 19.3346 30.7875 21.509 27.768 21.509H27.7675ZM28.9328 14.272C28.6202 14.272 28.2006 14.2856 27.9024 14.3108L26.9014 19.775C27.1582 19.8003 27.7541 19.8139 28.0662 19.8139C29.7994 19.8139 30.6665 18.2338 30.6665 16.0599C30.6665 14.7522 29.9213 14.2729 28.9333 14.2729L28.9328 14.272ZM33.5371 21.3915H35.3654L36.6118 14.6347H34.7825L33.5371 21.3915ZM41.2301 16.175C41.6761 16.175 42.1773 16.2531 42.5705 16.4207C42.801 15.9555 42.9767 15.3602 43.0982 14.8032C42.6248 14.6347 41.8662 14.5055 41.1753 14.5055C39.4963 14.5055 38.0205 15.3466 37.5864 17.8832C37.5322 18.2076 37.5053 18.5305 37.5053 18.8155C37.5053 20.5379 38.5486 21.5221 40.3898 21.5221C40.9453 21.5221 41.7851 21.4056 42.2181 21.1982C42.2181 20.6539 42.2047 20.0591 42.1231 19.5405C41.7303 19.7347 41.2301 19.8522 40.7691 19.8522C39.9165 19.8522 39.4819 19.606 39.4819 18.7383C39.4819 18.5179 39.5098 18.2595 39.564 17.9488C39.8079 16.6023 40.3226 16.175 41.2301 16.175ZM48.2854 16.1623H46.5522L45.9972 19.204C45.9832 19.2817 45.9832 19.3462 45.9832 19.4113C45.9832 19.8003 46.2281 19.9168 46.7558 19.9168C47.0942 19.9168 47.5676 19.8129 47.812 19.7095C47.8254 19.8906 47.8394 20.0979 47.8394 20.3174C47.8394 20.6413 47.812 20.9778 47.7846 21.2497C47.365 21.4313 46.5656 21.5216 46.1739 21.5216C44.7637 21.5216 44.1146 20.8612 44.1146 19.7488C44.1146 19.5405 44.1415 19.3336 44.1823 19.1005L44.7239 16.1628H43.925L44.2087 14.6352H45.0076L45.2654 13.2372C45.8818 13.082 46.5124 12.9867 47.148 12.9527L46.8364 14.6352H48.6642C48.597 15.1402 48.475 15.6967 48.2854 16.1623ZM48.9633 21.3915H50.7916L52.037 14.6347H50.2088L48.9633 21.3915ZM51.2526 13.8845C50.6697 13.8845 50.3845 13.4955 50.3845 13.0551C50.3845 12.3952 50.8723 11.8645 51.6314 11.8645C52.2137 11.8645 52.485 12.253 52.485 12.6934C52.485 13.4052 52.0102 13.884 51.2526 13.884V13.8845ZM55.8569 21.5211C57.7121 21.5211 59.1202 20.4864 59.4995 18.1949C59.5538 17.8711 59.5951 17.4952 59.5951 17.1976C59.5951 15.3339 58.3621 14.5055 56.6697 14.5055C54.8006 14.5055 53.4059 15.5408 53.0261 17.8317C52.9714 18.1818 52.9315 18.5179 52.9315 18.8286C52.9315 20.6544 54.1371 21.5211 55.8569 21.5211ZM56.5478 15.9807C55.7753 15.9807 55.2606 16.4474 54.9908 18.0143C54.941 18.2959 54.9136 18.581 54.9091 18.867C54.9091 19.7478 55.3422 20.0455 55.9793 20.0455C56.8046 20.0455 57.2656 19.5405 57.5359 18.0143C57.5906 17.7026 57.6175 17.3918 57.6175 17.1592C57.6175 16.2786 57.1842 15.9809 56.5478 15.9807ZM66.0825 21.3915L66.9625 16.6023C66.9894 16.4474 67.0163 16.2531 67.0163 16.0841C67.0163 14.9324 66.1766 14.506 65.2014 14.506C64.5658 14.506 63.956 14.5963 63.2791 15.2689H63.184L63.3059 14.5963C62.6907 14.5973 62.0755 14.6313 61.4642 14.6993L60.2312 21.3915H62.0605L62.9814 16.3823C63.4005 16.1497 63.7938 16.0205 64.2268 16.0205C64.8495 16.0205 65.1064 16.2138 65.1064 16.6023C65.1064 16.6673 65.1064 16.7193 65.0934 16.8091L64.2537 21.3915H66.0825ZM74.2488 20.3562C74.0731 21.2497 73.5987 21.5216 72.9491 21.5216C72.2582 21.5216 71.8526 21.2886 71.635 20.7573H71.5813C70.9312 21.3662 70.3483 21.5216 69.6445 21.5216C68.2901 21.5216 67.6942 20.8355 67.6942 19.7998C67.6942 19.6444 67.7077 19.489 67.7341 19.321C68.0058 17.9235 69.0347 17.5734 70.7555 17.5088L71.879 17.47L72.0955 16.3177C71.7839 16.175 71.2294 16.0594 70.7416 16.0594C70.2044 16.0609 69.672 16.1573 69.1701 16.3439C69.1064 15.8049 69.1203 15.2606 69.2114 14.7255C69.8605 14.557 70.4434 14.5055 71.08 14.5055C72.1368 14.5055 73.3414 14.7775 74.0328 15.2946L73.3011 19.2686C73.2859 19.3373 73.2767 19.4071 73.2737 19.4774C73.2737 19.6964 73.3956 19.7745 73.6669 19.7745H74.3573L74.2488 20.3562ZM69.5763 19.3603C69.6848 18.8155 69.969 18.6868 70.5514 18.6601V18.6606L71.6624 18.6218L71.432 19.8644C71.093 20.0843 70.633 20.1751 70.2398 20.1751C69.7525 20.1751 69.5499 19.9557 69.5499 19.5924C69.5514 19.5143 69.5604 19.4366 69.5763 19.3603ZM79.883 16.3954C79.6613 16.3434 79.4341 16.3173 79.2061 16.3177C78.7317 16.3177 78.2309 16.4474 77.8656 16.6416L76.9985 21.3915H75.1702L76.4026 14.7003C77.0141 14.632 77.629 14.5973 78.2444 14.5963L78.0826 15.4631H78.1772C78.8671 14.6347 79.4226 14.506 79.8696 14.506C80.0323 14.506 80.2479 14.5308 80.3843 14.5696C80.2809 15.1932 80.1129 15.8049 79.883 16.3954ZM80.5336 24.1879C81.8338 24.1879 82.8492 23.696 84.1354 21.2628L87.6029 14.7003C87.0747 14.6221 86.2897 14.5959 85.788 14.5959L83.784 18.6475C83.6755 18.8544 83.5396 19.1399 83.445 19.4371H83.3504C83.3504 19.1525 83.3236 18.8544 83.2962 18.6475L82.8492 14.5959C82.2653 14.5994 81.682 14.6342 81.102 14.7003C81.1837 17.0694 81.6984 19.7095 82.1857 21.3531L81.8606 21.8712C81.5356 22.3758 81.3186 22.5049 80.8442 22.5049C80.4525 22.5049 79.9646 22.4535 79.7207 22.3505C79.5047 22.79 79.328 23.3348 79.1931 23.9417C79.5854 24.1491 80.1951 24.1879 80.5336 24.1879ZM87.8741 21.5216C87.3465 21.5216 86.9672 21.2497 86.9672 20.7185C86.9672 19.9556 87.5347 19.5672 88.1857 19.5672C88.673 19.5672 89.0518 19.8653 89.0518 20.3825C89.0518 21.1458 88.5108 21.5216 87.8741 21.5216ZM95.0251 16.4205L95.0255 16.4207H95.025L95.0251 16.4205ZM95.5536 14.8032C95.4307 15.3601 95.255 15.9553 95.0251 16.4205C94.6319 16.2531 94.1309 16.175 93.6845 16.175C92.7766 16.175 92.2619 16.6023 92.018 17.9488C91.9686 18.2093 91.9414 18.4734 91.9369 18.7383C91.9369 19.606 92.3699 19.8522 93.2236 19.8522C93.6934 19.8491 94.1564 19.7425 94.578 19.5405C94.6597 20.0591 94.6726 20.6539 94.6726 21.1982C94.2395 21.4056 93.4003 21.5221 92.8438 21.5221C91.0021 21.5221 89.9598 20.5379 89.9598 18.8155C89.9598 18.5305 89.9866 18.2076 90.0414 17.8832C90.4744 15.3466 91.9513 14.5055 93.6303 14.5055C94.3207 14.5055 95.0788 14.6347 95.5536 14.8032ZM102.392 18.1949C102.013 20.4864 100.604 21.5211 98.7498 21.5211C97.03 21.5211 95.8244 20.6544 95.8244 18.8286C95.8244 18.5179 95.8643 18.1818 95.919 17.8317C96.2983 15.5408 97.6936 14.5055 99.5627 14.5055C101.255 14.5055 102.487 15.3339 102.487 17.1976C102.487 17.4952 102.447 17.8711 102.392 18.1949ZM97.8832 18.0143C98.1534 16.4477 98.6679 15.9809 99.4402 15.9807C100.077 15.9807 100.51 16.2784 100.51 17.1592C100.507 17.4459 100.479 17.7318 100.429 18.0143C100.158 19.5405 99.6976 20.0455 98.8703 20.0455C98.2346 20.0455 97.8016 19.7478 97.8016 18.867C97.806 18.5811 97.8333 18.296 97.8832 18.0143ZM113.269 16.6023L112.388 21.3915H110.559L111.399 16.8091C111.412 16.7314 111.412 16.6804 111.412 16.6149C111.412 16.2531 111.195 16.0205 110.64 16.0205C110.275 16.0205 109.856 16.175 109.557 16.3823L108.636 21.3915H106.808L107.648 16.8091C107.661 16.7314 107.675 16.6416 107.675 16.576C107.675 16.2264 107.458 16.0205 106.943 16.0205C106.55 16.0205 106.185 16.1623 105.806 16.3823L104.884 21.3915H103.056L104.289 14.6993C104.9 14.6313 105.515 14.5973 106.131 14.5963L106.009 15.2689H106.104C106.78 14.6095 107.335 14.506 108 14.506C108.731 14.506 109.259 14.7517 109.409 15.4116C110.167 14.7124 110.789 14.506 111.52 14.506C112.563 14.506 113.322 14.9838 113.322 16.0841C113.322 16.2531 113.295 16.46 113.268 16.6023H113.269Z" fill="white"/>
<mask id="mask0_0_45304" style="mask-type:alpha" maskUnits="userSpaceOnUse" x="1" y="2" width="113" height="25">
<path fill-rule="evenodd" clip-rule="evenodd" d="M19.3484 17.0477C19.3484 21.6974 23.231 25.4799 28.0038 25.4799V25.4804C29.9594 25.4838 31.8594 24.8337 33.3989 23.6343H35.4717C33.5454 25.7018 30.8377 26.8738 28.0038 26.8669C23.7019 26.8669 20.0233 24.2262 18.5792 20.5222L8.37202 21.1836C7.97999 21.2088 7.64056 20.9195 7.61475 20.5375C7.58796 20.1559 7.8857 19.8262 8.27773 19.8005L18.1629 19.1593C18.0192 18.5204 17.9411 17.8687 17.9296 17.2141L3.49 13.7608C3.3083 13.7198 3.15075 13.608 3.05262 13.4505C2.95449 13.2929 2.92399 13.1028 2.96795 12.9227C3.06674 12.5477 3.45009 12.3212 3.82843 12.4143L18.0095 15.8048C18.0914 15.1744 18.2363 14.5537 18.4422 13.9519L1.75861 5.41506C1.59243 5.3322 1.4669 5.18613 1.41047 5.00995C1.35405 4.83377 1.3715 4.6424 1.45888 4.47919C1.64643 4.13866 2.073 4.00936 2.41961 4.18797L18.9891 12.666C19.2318 12.1947 19.5131 11.7435 19.8272 11.318L10.9813 4.15835C10.8364 4.04264 10.7447 3.87359 10.727 3.68963C10.7094 3.50566 10.7672 3.32241 10.8875 3.18152C11.1419 2.8862 11.5865 2.84635 11.8899 3.09168L20.7393 10.2538C21.1737 9.81258 21.6482 9.41222 22.1566 9.05782L18.6174 3.83208C18.5138 3.67863 18.4768 3.49004 18.5149 3.3091C18.553 3.12815 18.663 2.97019 18.8199 2.87104C19.1477 2.65972 19.5851 2.74714 19.8054 3.06799L23.3704 8.33273C24.7589 7.62984 26.334 7.23002 28.0038 7.23002C30.9576 7.22272 33.7679 8.49639 35.7005 10.7183H33.7141C32.1886 9.41124 30.1903 8.61556 28.0038 8.61556C23.231 8.61556 19.3484 12.3985 19.3484 17.0477ZM35.8253 13.8845C35.2429 13.8845 34.9592 13.4955 34.9592 13.0551C34.9592 12.3952 35.446 11.8645 36.2051 11.8645C36.7875 11.8645 37.0588 12.253 37.0588 12.6934C37.0588 13.4052 36.5844 13.884 35.8253 13.884V13.8845ZM27.7675 21.509C26.765 21.509 25.3703 21.4435 24.6117 21.3279L26.1826 12.7584C26.9676 12.655 28.4853 12.5768 29.2976 12.5768C31.2882 12.5768 32.7915 13.6121 32.7915 16.1497C32.7915 19.3346 30.7875 21.509 27.768 21.509H27.7675ZM28.9328 14.272C28.6202 14.272 28.2006 14.2856 27.9024 14.3108L26.9014 19.775C27.1582 19.8003 27.7541 19.8139 28.0662 19.8139C29.7994 19.8139 30.6665 18.2338 30.6665 16.0599C30.6665 14.7522 29.9213 14.2729 28.9333 14.2729L28.9328 14.272ZM33.5371 21.3915H35.3654L36.6118 14.6347H34.7825L33.5371 21.3915ZM41.2301 16.175C41.6761 16.175 42.1773 16.2531 42.5705 16.4207C42.801 15.9555 42.9767 15.3602 43.0982 14.8032C42.6248 14.6347 41.8662 14.5055 41.1753 14.5055C39.4963 14.5055 38.0205 15.3466 37.5864 17.8832C37.5322 18.2076 37.5053 18.5305 37.5053 18.8155C37.5053 20.5379 38.5486 21.5221 40.3898 21.5221C40.9453 21.5221 41.7851 21.4056 42.2181 21.1982C42.2181 20.6539 42.2047 20.0591 42.1231 19.5405C41.7303 19.7347 41.2301 19.8522 40.7691 19.8522C39.9165 19.8522 39.4819 19.606 39.4819 18.7383C39.4819 18.5179 39.5098 18.2595 39.564 17.9488C39.8079 16.6023 40.3226 16.175 41.2301 16.175ZM48.2854 16.1623H46.5522L45.9972 19.204C45.9832 19.2817 45.9832 19.3462 45.9832 19.4113C45.9832 19.8003 46.2281 19.9168 46.7558 19.9168C47.0942 19.9168 47.5676 19.8129 47.812 19.7095C47.8254 19.8906 47.8394 20.0979 47.8394 20.3174C47.8394 20.6413 47.812 20.9778 47.7846 21.2497C47.365 21.4313 46.5656 21.5216 46.1739 21.5216C44.7637 21.5216 44.1146 20.8612 44.1146 19.7488C44.1146 19.5405 44.1415 19.3336 44.1823 19.1005L44.7239 16.1628H43.925L44.2087 14.6352H45.0076L45.2654 13.2372C45.8818 13.082 46.5124 12.9867 47.148 12.9527L46.8364 14.6352H48.6642C48.597 15.1402 48.475 15.6967 48.2854 16.1623ZM48.9633 21.3915H50.7916L52.037 14.6347H50.2088L48.9633 21.3915ZM51.2526 13.8845C50.6697 13.8845 50.3845 13.4955 50.3845 13.0551C50.3845 12.3952 50.8723 11.8645 51.6314 11.8645C52.2137 11.8645 52.485 12.253 52.485 12.6934C52.485 13.4052 52.0102 13.884 51.2526 13.884V13.8845ZM55.8569 21.5211C57.7121 21.5211 59.1202 20.4864 59.4995 18.1949C59.5538 17.8711 59.5951 17.4952 59.5951 17.1976C59.5951 15.3339 58.3621 14.5055 56.6697 14.5055C54.8006 14.5055 53.4059 15.5408 53.0261 17.8317C52.9714 18.1818 52.9315 18.5179 52.9315 18.8286C52.9315 20.6544 54.1371 21.5211 55.8569 21.5211ZM56.5478 15.9807C55.7753 15.9807 55.2606 16.4474 54.9908 18.0143C54.941 18.2959 54.9136 18.581 54.9091 18.867C54.9091 19.7478 55.3422 20.0455 55.9793 20.0455C56.8046 20.0455 57.2656 19.5405 57.5359 18.0143C57.5906 17.7026 57.6175 17.3918 57.6175 17.1592C57.6175 16.2786 57.1842 15.9809 56.5478 15.9807ZM66.0825 21.3915L66.9625 16.6023C66.9894 16.4474 67.0163 16.2531 67.0163 16.0841C67.0163 14.9324 66.1766 14.506 65.2014 14.506C64.5658 14.506 63.956 14.5963 63.2791 15.2689H63.184L63.3059 14.5963C62.6907 14.5973 62.0755 14.6313 61.4642 14.6993L60.2312 21.3915H62.0605L62.9814 16.3823C63.4005 16.1497 63.7938 16.0205 64.2268 16.0205C64.8495 16.0205 65.1064 16.2138 65.1064 16.6023C65.1064 16.6673 65.1064 16.7193 65.0934 16.8091L64.2537 21.3915H66.0825ZM74.2488 20.3562C74.0731 21.2497 73.5987 21.5216 72.9491 21.5216C72.2582 21.5216 71.8526 21.2886 71.635 20.7573H71.5813C70.9312 21.3662 70.3483 21.5216 69.6445 21.5216C68.2901 21.5216 67.6942 20.8355 67.6942 19.7998C67.6942 19.6444 67.7077 19.489 67.7341 19.321C68.0058 17.9235 69.0347 17.5734 70.7555 17.5088L71.879 17.47L72.0955 16.3177C71.7839 16.175 71.2294 16.0594 70.7416 16.0594C70.2044 16.0609 69.672 16.1573 69.1701 16.3439C69.1064 15.8049 69.1203 15.2606 69.2114 14.7255C69.8605 14.557 70.4434 14.5055 71.08 14.5055C72.1368 14.5055 73.3414 14.7775 74.0328 15.2946L73.3011 19.2686C73.2859 19.3373 73.2767 19.4071 73.2737 19.4774C73.2737 19.6964 73.3956 19.7745 73.6669 19.7745H74.3573L74.2488 20.3562ZM69.5763 19.3603C69.6848 18.8155 69.969 18.6868 70.5514 18.6601V18.6606L71.6624 18.6218L71.432 19.8644C71.093 20.0843 70.633 20.1751 70.2398 20.1751C69.7525 20.1751 69.5499 19.9557 69.5499 19.5924C69.5514 19.5143 69.5604 19.4366 69.5763 19.3603ZM79.883 16.3954C79.6613 16.3434 79.4341 16.3173 79.2061 16.3177C78.7317 16.3177 78.2309 16.4474 77.8656 16.6416L76.9985 21.3915H75.1702L76.4026 14.7003C77.0141 14.632 77.629 14.5973 78.2444 14.5963L78.0826 15.4631H78.1772C78.8671 14.6347 79.4226 14.506 79.8696 14.506C80.0323 14.506 80.2479 14.5308 80.3843 14.5696C80.2809 15.1932 80.1129 15.8049 79.883 16.3954ZM80.5336 24.1879C81.8338 24.1879 82.8492 23.696 84.1354 21.2628L87.6029 14.7003C87.0747 14.6221 86.2897 14.5959 85.788 14.5959L83.784 18.6475C83.6755 18.8544 83.5396 19.1399 83.445 19.4371H83.3504C83.3504 19.1525 83.3236 18.8544 83.2962 18.6475L82.8492 14.5959C82.2653 14.5994 81.682 14.6342 81.102 14.7003C81.1837 17.0694 81.6984 19.7095 82.1857 21.3531L81.8606 21.8712C81.5356 22.3758 81.3186 22.5049 80.8442 22.5049C80.4525 22.5049 79.9646 22.4535 79.7207 22.3505C79.5047 22.79 79.328 23.3348 79.1931 23.9417C79.5854 24.1491 80.1951 24.1879 80.5336 24.1879ZM87.8741 21.5216C87.3465 21.5216 86.9672 21.2497 86.9672 20.7185C86.9672 19.9556 87.5347 19.5672 88.1857 19.5672C88.673 19.5672 89.0518 19.8653 89.0518 20.3825C89.0518 21.1458 88.5108 21.5216 87.8741 21.5216ZM95.0251 16.4205L95.0255 16.4207H95.025L95.0251 16.4205ZM95.5536 14.8032C95.4307 15.3601 95.255 15.9553 95.0251 16.4205C94.6319 16.2531 94.1309 16.175 93.6845 16.175C92.7766 16.175 92.2619 16.6023 92.018 17.9488C91.9686 18.2093 91.9414 18.4734 91.9369 18.7383C91.9369 19.606 92.3699 19.8522 93.2236 19.8522C93.6934 19.8491 94.1564 19.7425 94.578 19.5405C94.6597 20.0591 94.6726 20.6539 94.6726 21.1982C94.2395 21.4056 93.4003 21.5221 92.8438 21.5221C91.0021 21.5221 89.9598 20.5379 89.9598 18.8155C89.9598 18.5305 89.9866 18.2076 90.0414 17.8832C90.4744 15.3466 91.9513 14.5055 93.6303 14.5055C94.3207 14.5055 95.0788 14.6347 95.5536 14.8032ZM102.392 18.1949C102.013 20.4864 100.604 21.5211 98.7498 21.5211C97.03 21.5211 95.8244 20.6544 95.8244 18.8286C95.8244 18.5179 95.8643 18.1818 95.919 17.8317C96.2983 15.5408 97.6936 14.5055 99.5627 14.5055C101.255 14.5055 102.487 15.3339 102.487 17.1976C102.487 17.4952 102.447 17.8711 102.392 18.1949ZM97.8832 18.0143C98.1534 16.4477 98.6679 15.9809 99.4402 15.9807C100.077 15.9807 100.51 16.2784 100.51 17.1592C100.507 17.4459 100.479 17.7318 100.429 18.0143C100.158 19.5405 99.6976 20.0455 98.8703 20.0455C98.2346 20.0455 97.8016 19.7478 97.8016 18.867C97.806 18.5811 97.8333 18.296 97.8832 18.0143ZM113.269 16.6023L112.388 21.3915H110.559L111.399 16.8091C111.412 16.7314 111.412 16.6804 111.412 16.6149C111.412 16.2531 111.195 16.0205 110.64 16.0205C110.275 16.0205 109.856 16.175 109.557 16.3823L108.636 21.3915H106.808L107.648 16.8091C107.661 16.7314 107.675 16.6416 107.675 16.576C107.675 16.2264 107.458 16.0205 106.943 16.0205C106.55 16.0205 106.185 16.1623 105.806 16.3823L104.884 21.3915H103.056L104.289 14.6993C104.9 14.6313 105.515 14.5973 106.131 14.5963L106.009 15.2689H106.104C106.78 14.6095 107.335 14.506 108 14.506C108.731 14.506 109.259 14.7517 109.409 15.4116C110.167 14.7124 110.789 14.506 111.52 14.506C112.563 14.506 113.322 14.9838 113.322 16.0841C113.322 16.2531 113.295 16.46 113.268 16.6023H113.269Z" fill="white"/>
</mask>
<g mask="url(#mask0_0_45304)">
<rect width="124" height="31" fill="#122E45"/>
</g>
</g>
</svg>
