<svg width="124" height="31" viewBox="0 0 124 31" fill="none" xmlns="http://www.w3.org/2000/svg">
<g opacity="0.25">
<path fill-rule="evenodd" clip-rule="evenodd" d="M42.3375 7.71989C42.3375 6.49979 41.3487 5.51074 40.1286 5.51074C38.9086 5.51074 37.919 6.49979 37.919 7.71989C37.919 8.93999 38.9086 9.92921 40.1286 9.92921C41.3487 9.92921 42.3375 8.94016 42.3375 7.71989ZM32.4225 20.2139H32.4639V21.5535H35.6017V5.7869H32.1941V12.3842H32.1524C31.8614 12.0408 31.4523 11.7247 30.9265 11.4362C30.3999 11.1475 29.7556 11.0029 28.9942 11.0029C28.2461 11.0029 27.5709 11.1477 26.9682 11.4362C26.3659 11.7247 25.8531 12.1163 25.431 12.6098C25.0082 13.1054 24.6827 13.6784 24.4544 14.3309C24.2258 14.9835 24.1113 15.6674 24.1113 16.381C24.1113 17.0955 24.222 17.7824 24.4436 18.4419C24.6652 19.1006 24.9873 19.6815 25.4101 20.1828C25.8322 20.6845 26.348 21.0867 26.9581 21.3884C27.567 21.6899 28.2599 21.8415 29.0359 21.8415C29.7284 21.8415 30.3827 21.7005 30.9993 21.4195C31.615 21.1377 32.0904 20.7355 32.4225 20.2139ZM83.4665 5.7869H86.9368V21.5535H83.4665V5.7869ZM95.4202 23.0988C95.2125 23.6341 94.9804 24.1111 94.7239 24.5305C94.4676 24.9494 94.1633 25.3066 93.81 25.6021C93.4569 25.8975 93.0411 26.12 92.5632 26.2721C92.0855 26.4223 91.5207 26.4985 90.8696 26.4985C90.5512 26.4985 90.2221 26.4778 89.8829 26.4367C89.543 26.3956 89.2494 26.34 89.0001 26.2721L89.374 23.4279C89.5398 23.4827 89.7234 23.5275 89.9241 23.5619C90.1253 23.5968 90.3088 23.6136 90.4753 23.6136C91.0013 23.6136 91.3822 23.4933 91.6177 23.2533C91.8531 23.0127 92.0545 22.6724 92.2202 22.2329L92.5524 21.3884L88.231 11.2916H92.0127L94.319 17.8859H94.3809L96.4385 11.2916H100.054L95.4202 23.0988ZM79.519 18.8214C79.3324 18.5801 79.2387 18.2187 79.2387 17.7356V13.806H81.6696V11.2916H79.2387V8.59256H75.8932V11.2915H74.252V13.8062H75.914V18.1437C75.914 18.6949 75.9767 19.1942 76.1013 19.6418C76.2259 20.0892 76.4298 20.4746 76.7141 20.7986C76.9975 21.1222 77.3755 21.3703 77.8462 21.5416C78.3172 21.7142 78.8988 21.8003 79.5918 21.8003C79.952 21.8003 80.3121 21.7692 80.6723 21.7074C81.0324 21.6464 81.3298 21.5742 81.5659 21.4911L81.524 19.0191C81.3994 19.0732 81.2437 19.1149 81.0562 19.1425C80.8698 19.1705 80.693 19.1836 80.5267 19.1836C80.0419 19.1836 79.7063 19.0633 79.519 18.8214ZM68.0476 18.2667C68.261 18.5064 68.5229 18.6994 68.8166 18.8333C69.1141 18.971 69.4502 19.039 69.8243 19.039C70.1703 19.039 70.5135 18.9741 70.8527 18.8439C71.192 18.713 71.466 18.5247 71.6735 18.2766L73.564 20.5642C73.1349 20.9763 72.5806 21.2992 71.902 21.533C71.2229 21.7661 70.5028 21.8833 69.7413 21.8833C68.9237 21.8833 68.161 21.7592 67.4521 21.5124C66.7439 21.2648 66.1287 20.9033 65.6059 20.4296C65.083 19.9565 64.6723 19.3831 64.3723 18.7099C64.0728 18.0367 63.9236 17.2743 63.9236 16.4222C63.9236 15.5844 64.073 14.829 64.3723 14.1565C64.6723 13.4832 65.083 12.9098 65.6059 12.4348C66.1287 11.9616 66.7439 11.5976 67.4521 11.3439C68.161 11.0897 68.9165 10.9625 69.7204 10.9625C70.0944 10.9625 70.4647 10.9961 70.8317 11.0652C71.1916 11.1322 71.546 11.2254 71.8919 11.3439C72.2311 11.4605 72.5425 11.6044 72.8268 11.7766C73.1103 11.9479 73.3563 12.1368 73.564 12.3432L71.5906 14.609C71.3963 14.362 71.133 14.1626 70.8008 14.0117C70.4685 13.8609 70.1286 13.7854 69.7825 13.7854C69.4224 13.7854 69.0971 13.8572 68.8065 14.0018C68.5202 14.142 68.2657 14.338 68.0584 14.5778C67.8502 14.8191 67.6876 15.0963 67.5698 15.4131C67.4521 15.7291 67.3932 16.0651 67.3932 16.4221C67.3932 16.7794 67.4483 17.116 67.5597 17.4321C67.6705 17.7486 67.833 18.0261 68.0476 18.2667ZM55.2484 18.1327C55.1034 17.8996 55.0167 17.6383 54.9889 17.3497H62.4901C62.5033 17.2255 62.5103 17.0955 62.5103 16.9582V16.5463C62.5103 15.6672 62.3825 14.8838 62.1262 14.1969C61.8699 13.51 61.5135 12.9266 61.056 12.4454C60.5989 11.9648 60.0515 11.5976 59.4148 11.3438C58.7774 11.0895 58.0775 10.9623 57.316 10.9623C56.5262 10.9623 55.792 11.0928 55.1135 11.3539C54.4351 11.615 53.8458 11.9821 53.3478 12.4558C52.849 12.9302 52.4542 13.5069 52.163 14.1869C51.8724 14.867 51.7268 15.6255 51.7268 16.4633C51.7268 17.3286 51.8757 18.0983 52.1736 18.7715C52.4713 19.4447 52.8801 20.0113 53.3997 20.4713C53.9186 20.9315 54.5243 21.2818 55.2174 21.5224C55.9098 21.7623 56.6438 21.8833 57.4199 21.8833C58.4724 21.8833 59.3971 21.6937 60.1938 21.3154C60.9901 20.9383 61.6306 20.3998 62.116 19.6992L59.7471 18.2155C59.5116 18.5309 59.2071 18.7889 58.8332 18.9878C58.4592 19.1873 58.0015 19.2871 57.4617 19.2871C57.1613 19.2877 56.8629 19.2388 56.5788 19.1425C56.3022 19.0503 56.0425 18.9148 55.8098 18.741C55.5859 18.5744 55.3957 18.368 55.2484 18.1327ZM58.8643 13.8671C58.5242 13.4832 58.0154 13.2906 57.337 13.2906C57.0047 13.2906 56.6996 13.3417 56.4224 13.4446C56.1452 13.5486 55.9035 13.689 55.6952 13.8671C55.4895 14.0433 55.3202 14.2569 55.1964 14.4962C55.0738 14.7295 55.003 14.986 54.9889 15.2484H59.3731C59.3731 14.7118 59.2035 14.2525 58.8641 13.8671H58.8643ZM49.9003 13.9706C50.0426 13.9708 50.1847 13.9776 50.3263 13.9912C50.4719 14.005 50.6206 14.0324 50.773 14.0735L50.9186 11.0853C50.8357 11.0584 50.7282 11.0378 50.5965 11.0241C50.4649 11.0104 50.3294 11.0029 50.1914 11.0029C49.5542 11.0029 48.9927 11.1694 48.5085 11.5016C48.0283 11.8278 47.6417 12.2708 47.3865 12.7875H47.3448V11.304H44.0618V21.5535H47.4694V16.2925C47.4694 16.0868 47.5112 15.8475 47.594 15.5733C47.6788 15.2969 47.8163 15.039 47.9992 14.8134C48.1864 14.5809 48.4357 14.3814 48.7472 14.2174C49.0592 14.0529 49.4435 13.9706 49.9003 13.9706ZM38.1321 11.2916H41.5397V21.5535H38.1321V11.2916ZM32.1625 15.4336C32.0495 15.1248 31.8807 14.8387 31.6645 14.5889C31.4479 14.3401 31.1828 14.1369 30.8848 13.9912C30.5803 13.8404 30.2335 13.7636 29.8461 13.7636C29.4442 13.7636 29.091 13.8402 28.7866 13.9912C28.4816 14.1421 28.2253 14.3377 28.0176 14.5778C27.81 14.8191 27.6536 15.0963 27.5498 15.4131C27.4466 15.7256 27.3941 16.0523 27.3943 16.381C27.3943 16.7114 27.4461 17.0374 27.5498 17.3603C27.6538 17.6831 27.81 17.968 28.0176 18.2155C28.2253 18.4624 28.4816 18.6618 28.7866 18.8127C29.091 18.9635 29.4442 19.039 29.8461 19.039C30.2333 19.039 30.5803 18.9635 30.8848 18.8127C31.1826 18.667 31.4477 18.4639 31.6645 18.2155C31.8806 17.9652 32.0493 17.6787 32.1625 17.3696C32.3978 16.7451 32.3978 16.0581 32.1625 15.4336Z" fill="white"/>
<mask id="mask0_0_45300" style="mask-type:alpha" maskUnits="userSpaceOnUse" x="24" y="5" width="77" height="22">
<path fill-rule="evenodd" clip-rule="evenodd" d="M42.3375 7.71989C42.3375 6.49979 41.3487 5.51074 40.1286 5.51074C38.9086 5.51074 37.919 6.49979 37.919 7.71989C37.919 8.93999 38.9086 9.92921 40.1286 9.92921C41.3487 9.92921 42.3375 8.94016 42.3375 7.71989ZM32.4225 20.2139H32.4639V21.5535H35.6017V5.7869H32.1941V12.3842H32.1524C31.8614 12.0408 31.4523 11.7247 30.9265 11.4362C30.3999 11.1475 29.7556 11.0029 28.9942 11.0029C28.2461 11.0029 27.5709 11.1477 26.9682 11.4362C26.3659 11.7247 25.8531 12.1163 25.431 12.6098C25.0082 13.1054 24.6827 13.6784 24.4544 14.3309C24.2258 14.9835 24.1113 15.6674 24.1113 16.381C24.1113 17.0955 24.222 17.7824 24.4436 18.4419C24.6652 19.1006 24.9873 19.6815 25.4101 20.1828C25.8322 20.6845 26.348 21.0867 26.9581 21.3884C27.567 21.6899 28.2599 21.8415 29.0359 21.8415C29.7284 21.8415 30.3827 21.7005 30.9993 21.4195C31.615 21.1377 32.0904 20.7355 32.4225 20.2139ZM83.4665 5.7869H86.9368V21.5535H83.4665V5.7869ZM95.4202 23.0988C95.2125 23.6341 94.9804 24.1111 94.7239 24.5305C94.4676 24.9494 94.1633 25.3066 93.81 25.6021C93.4569 25.8975 93.0411 26.12 92.5632 26.2721C92.0855 26.4223 91.5207 26.4985 90.8696 26.4985C90.5512 26.4985 90.2221 26.4778 89.8829 26.4367C89.543 26.3956 89.2494 26.34 89.0001 26.2721L89.374 23.4279C89.5398 23.4827 89.7234 23.5275 89.9241 23.5619C90.1253 23.5968 90.3088 23.6136 90.4753 23.6136C91.0013 23.6136 91.3822 23.4933 91.6177 23.2533C91.8531 23.0127 92.0545 22.6724 92.2202 22.2329L92.5524 21.3884L88.231 11.2916H92.0127L94.319 17.8859H94.3809L96.4385 11.2916H100.054L95.4202 23.0988ZM79.519 18.8214C79.3324 18.5801 79.2387 18.2187 79.2387 17.7356V13.806H81.6696V11.2916H79.2387V8.59256H75.8932V11.2915H74.252V13.8062H75.914V18.1437C75.914 18.6949 75.9767 19.1942 76.1013 19.6418C76.2259 20.0892 76.4298 20.4746 76.7141 20.7986C76.9975 21.1222 77.3755 21.3703 77.8462 21.5416C78.3172 21.7142 78.8988 21.8003 79.5918 21.8003C79.952 21.8003 80.3121 21.7692 80.6723 21.7074C81.0324 21.6464 81.3298 21.5742 81.5659 21.4911L81.524 19.0191C81.3994 19.0732 81.2437 19.1149 81.0562 19.1425C80.8698 19.1705 80.693 19.1836 80.5267 19.1836C80.0419 19.1836 79.7063 19.0633 79.519 18.8214ZM68.0476 18.2667C68.261 18.5064 68.5229 18.6994 68.8166 18.8333C69.1141 18.971 69.4502 19.039 69.8243 19.039C70.1703 19.039 70.5135 18.9741 70.8527 18.8439C71.192 18.713 71.466 18.5247 71.6735 18.2766L73.564 20.5642C73.1349 20.9763 72.5806 21.2992 71.902 21.533C71.2229 21.7661 70.5028 21.8833 69.7413 21.8833C68.9237 21.8833 68.161 21.7592 67.4521 21.5124C66.7439 21.2648 66.1287 20.9033 65.6059 20.4296C65.083 19.9565 64.6723 19.3831 64.3723 18.7099C64.0728 18.0367 63.9236 17.2743 63.9236 16.4222C63.9236 15.5844 64.073 14.829 64.3723 14.1565C64.6723 13.4832 65.083 12.9098 65.6059 12.4348C66.1287 11.9616 66.7439 11.5976 67.4521 11.3439C68.161 11.0897 68.9165 10.9625 69.7204 10.9625C70.0944 10.9625 70.4647 10.9961 70.8317 11.0652C71.1916 11.1322 71.546 11.2254 71.8919 11.3439C72.2311 11.4605 72.5425 11.6044 72.8268 11.7766C73.1103 11.9479 73.3563 12.1368 73.564 12.3432L71.5906 14.609C71.3963 14.362 71.133 14.1626 70.8008 14.0117C70.4685 13.8609 70.1286 13.7854 69.7825 13.7854C69.4224 13.7854 69.0971 13.8572 68.8065 14.0018C68.5202 14.142 68.2657 14.338 68.0584 14.5778C67.8502 14.8191 67.6876 15.0963 67.5698 15.4131C67.4521 15.7291 67.3932 16.0651 67.3932 16.4221C67.3932 16.7794 67.4483 17.116 67.5597 17.4321C67.6705 17.7486 67.833 18.0261 68.0476 18.2667ZM55.2484 18.1327C55.1034 17.8996 55.0167 17.6383 54.9889 17.3497H62.4901C62.5033 17.2255 62.5103 17.0955 62.5103 16.9582V16.5463C62.5103 15.6672 62.3825 14.8838 62.1262 14.1969C61.8699 13.51 61.5135 12.9266 61.056 12.4454C60.5989 11.9648 60.0515 11.5976 59.4148 11.3438C58.7774 11.0895 58.0775 10.9623 57.316 10.9623C56.5262 10.9623 55.792 11.0928 55.1135 11.3539C54.4351 11.615 53.8458 11.9821 53.3478 12.4558C52.849 12.9302 52.4542 13.5069 52.163 14.1869C51.8724 14.867 51.7268 15.6255 51.7268 16.4633C51.7268 17.3286 51.8757 18.0983 52.1736 18.7715C52.4713 19.4447 52.8801 20.0113 53.3997 20.4713C53.9186 20.9315 54.5243 21.2818 55.2174 21.5224C55.9098 21.7623 56.6438 21.8833 57.4199 21.8833C58.4724 21.8833 59.3971 21.6937 60.1938 21.3154C60.9901 20.9383 61.6306 20.3998 62.116 19.6992L59.7471 18.2155C59.5116 18.5309 59.2071 18.7889 58.8332 18.9878C58.4592 19.1873 58.0015 19.2871 57.4617 19.2871C57.1613 19.2877 56.8629 19.2388 56.5788 19.1425C56.3022 19.0503 56.0425 18.9148 55.8098 18.741C55.5859 18.5744 55.3957 18.368 55.2484 18.1327ZM58.8643 13.8671C58.5242 13.4832 58.0154 13.2906 57.337 13.2906C57.0047 13.2906 56.6996 13.3417 56.4224 13.4446C56.1452 13.5486 55.9035 13.689 55.6952 13.8671C55.4895 14.0433 55.3202 14.2569 55.1964 14.4962C55.0738 14.7295 55.003 14.986 54.9889 15.2484H59.3731C59.3731 14.7118 59.2035 14.2525 58.8641 13.8671H58.8643ZM49.9003 13.9706C50.0426 13.9708 50.1847 13.9776 50.3263 13.9912C50.4719 14.005 50.6206 14.0324 50.773 14.0735L50.9186 11.0853C50.8357 11.0584 50.7282 11.0378 50.5965 11.0241C50.4649 11.0104 50.3294 11.0029 50.1914 11.0029C49.5542 11.0029 48.9927 11.1694 48.5085 11.5016C48.0283 11.8278 47.6417 12.2708 47.3865 12.7875H47.3448V11.304H44.0618V21.5535H47.4694V16.2925C47.4694 16.0868 47.5112 15.8475 47.594 15.5733C47.6788 15.2969 47.8163 15.039 47.9992 14.8134C48.1864 14.5809 48.4357 14.3814 48.7472 14.2174C49.0592 14.0529 49.4435 13.9706 49.9003 13.9706ZM38.1321 11.2916H41.5397V21.5535H38.1321V11.2916ZM32.1625 15.4336C32.0495 15.1248 31.8807 14.8387 31.6645 14.5889C31.4479 14.3401 31.1828 14.1369 30.8848 13.9912C30.5803 13.8404 30.2335 13.7636 29.8461 13.7636C29.4442 13.7636 29.091 13.8402 28.7866 13.9912C28.4816 14.1421 28.2253 14.3377 28.0176 14.5778C27.81 14.8191 27.6536 15.0963 27.5498 15.4131C27.4466 15.7256 27.3941 16.0523 27.3943 16.381C27.3943 16.7114 27.4461 17.0374 27.5498 17.3603C27.6538 17.6831 27.81 17.968 28.0176 18.2155C28.2253 18.4624 28.4816 18.6618 28.7866 18.8127C29.091 18.9635 29.4442 19.039 29.8461 19.039C30.2333 19.039 30.5803 18.9635 30.8848 18.8127C31.1826 18.667 31.4477 18.4639 31.6645 18.2155C31.8806 17.9652 32.0493 17.6787 32.1625 17.3696C32.3978 16.7451 32.3978 16.0581 32.1625 15.4336Z" fill="white"/>
</mask>
<g mask="url(#mask0_0_45300)">
<rect width="124" height="31" fill="#122E45"/>
</g>
</g>
</svg>
