<svg width="124" height="31" viewBox="0 0 124 31" fill="none" xmlns="http://www.w3.org/2000/svg">
<g opacity="0.25">
<path fill-rule="evenodd" clip-rule="evenodd" d="M42.6061 5.97965C42.6061 3.2569 44.8137 1.0498 47.536 1.0498C50.2588 1.0498 52.4658 3.2569 52.4658 5.97965C52.4658 8.70241 50.2588 10.9095 47.536 10.9095C44.8137 10.9095 42.6061 8.70241 42.6061 5.97965ZM49.5079 5.97965C49.5079 4.89213 48.6235 4.00771 47.536 4.00771C46.4485 4.00771 45.5641 4.89213 45.5641 5.97965C45.5641 7.06718 46.4485 7.95159 47.536 7.95159C48.6235 7.95159 49.5079 7.06718 49.5079 5.97965ZM60.217 22.4572C60.0839 22.7086 59.9065 22.9413 59.6846 23.1557C59.4564 23.3751 59.1989 23.5617 58.9195 23.7103C58.6197 23.8699 58.3035 23.9963 57.9764 24.0875C57.6446 24.1825 57.3011 24.2311 56.956 24.2319C56.1869 24.2319 55.4809 24.0875 54.8381 23.7996C54.2128 23.5241 53.6503 23.1238 53.1851 22.6233C52.7261 22.1279 52.3717 21.5363 52.1203 20.8486C51.8684 20.1609 51.7426 19.4174 51.7426 18.6193C51.7426 17.8207 51.8684 17.0772 52.1198 16.389C52.3712 15.7018 52.7261 15.1107 53.1846 14.6143C53.6431 14.1198 54.1938 13.7269 54.8381 13.439C55.4804 13.1506 56.1869 13.0067 56.9564 13.0067C57.2966 13.0067 57.6358 13.055 57.9769 13.1506C58.3055 13.2422 58.6219 13.3726 58.9195 13.5391C59.2074 13.7018 59.4628 13.8935 59.6846 14.1159C59.9065 14.3372 60.0839 14.567 60.217 14.8036V8.43669H63.6112V23.9657H60.2175V22.4572H60.217ZM57.6659 21.348C58.0504 21.348 58.3979 21.274 58.709 21.1261C59.0196 20.9782 59.2858 20.782 59.5076 20.538C59.7345 20.2852 59.9112 19.9916 60.0282 19.6728C60.1548 19.3361 60.2188 18.979 60.217 18.6193C60.2217 17.9179 59.9691 17.2392 59.5071 16.7114C59.2853 16.46 59.0191 16.2604 58.7085 16.112C58.3979 15.9641 58.0499 15.8901 57.6659 15.8901C57.2813 15.8901 56.9338 15.9641 56.6237 16.112C56.3131 16.2599 56.0469 16.46 55.825 16.7114C55.3631 17.2392 55.1105 17.9179 55.1151 18.6193C55.1151 18.989 55.1778 19.3405 55.303 19.6728C55.4287 20.0056 55.6022 20.294 55.8246 20.538C56.0464 20.782 56.3126 20.9782 56.6232 21.1261C56.9338 21.274 57.2813 21.348 57.6659 21.348ZM73.7938 16.2342C73.9565 16.2564 74.1562 16.2973 74.3928 16.3565V13.2724C74.1118 13.1541 73.7717 13.0949 73.3723 13.0949C72.6181 13.0949 71.9486 13.2872 71.3644 13.6717C70.7802 14.0562 70.3627 14.4999 70.1112 15.0028V13.2724H66.717V23.9657H70.1112V19.7951C70.1112 18.4936 70.3923 17.5692 70.9543 17.022C71.5163 16.4748 72.2631 16.2012 73.1949 16.2012C73.395 16.199 73.5951 16.21 73.7938 16.2342ZM76.1897 23.9652H79.5839V13.2724H76.1897V23.9652ZM97.7968 15.8241C98.2257 15.4395 98.7729 15.2473 99.4384 15.2473C100.089 15.2473 100.618 15.4464 101.025 15.8462C101.432 16.2451 101.635 16.7928 101.635 17.4879H97.1534C97.1534 16.7632 97.3679 16.2086 97.7968 15.8241ZM97.1534 19.4396C97.1682 19.765 97.216 20.0721 97.2979 20.3605C97.3787 20.6489 97.5123 20.9008 97.6972 21.1148C97.8821 21.3297 98.1221 21.4993 98.4184 21.6255C98.7137 21.7507 99.0835 21.8128 99.5276 21.8128C100.119 21.8128 100.566 21.6955 100.87 21.4589C101.173 21.2222 101.383 20.9339 101.502 20.5937H104.83C104.755 21.0977 104.577 21.5809 104.308 22.0135C104.024 22.468 103.655 22.8634 103.221 23.1779C102.77 23.5107 102.238 23.7734 101.624 23.9657C101.01 24.1575 100.318 24.2541 99.5498 24.2541C98.6176 24.2541 97.7933 24.1171 97.076 23.8434C96.3582 23.5703 95.7558 23.1819 95.2678 22.6785C94.7754 22.1689 94.3972 21.5602 94.1585 20.8929C93.9071 20.2052 93.7814 19.4475 93.7814 18.6193C93.7814 17.8354 93.9032 17.1034 94.1477 16.423C94.382 15.7586 94.7522 15.1503 95.2347 14.637C95.7149 14.1267 96.3065 13.7239 97.0095 13.4282C97.7115 13.1324 98.5289 12.9845 99.4606 12.9845C100.304 12.9845 101.061 13.1176 101.735 13.3838C102.407 13.65 102.984 14.0045 103.465 14.4481C103.939 14.8828 104.317 15.4117 104.574 16.001C104.832 16.5885 104.964 17.2231 104.962 17.8645C104.962 18.0864 104.958 18.323 104.951 18.5744C104.944 18.8258 104.911 19.1152 104.851 19.4396H97.1534ZM39.6527 23.9652V18.1973C39.6527 17.4731 39.523 16.9072 39.2647 16.4999C39.0059 16.0932 38.5878 15.8901 38.011 15.8901C37.7596 15.8901 37.523 15.9345 37.3011 16.0232C37.0727 16.1169 36.8735 16.2701 36.7243 16.4669C36.5617 16.674 36.436 16.951 36.3472 17.2991C36.2585 17.6466 36.2141 18.079 36.2141 18.5966V23.9652H32.9308V18.1751C32.9308 17.4509 32.8046 16.8889 32.5537 16.4891C32.3023 16.0898 31.8956 15.8901 31.3336 15.8901C31.0673 15.8901 30.8233 15.9345 30.6015 16.0232C30.3796 16.112 30.1874 16.2638 30.0247 16.4778C29.862 16.6922 29.7323 16.9772 29.6367 17.3321C29.5401 17.6871 29.4923 18.1307 29.4923 18.6632V23.9652H26.209V13.2724H29.4923V14.8253C29.7289 14.3224 30.1134 13.8935 30.6458 13.5391C31.1783 13.1841 31.8216 13.0067 32.5759 13.0067C33.5076 13.0067 34.2244 13.1915 34.7278 13.5613C35.2306 13.931 35.593 14.3895 35.8148 14.9367C36.0958 14.3747 36.5247 13.9123 37.1015 13.5494C37.6783 13.1876 38.366 13.0071 39.1646 13.0071C39.9337 13.0071 40.5622 13.1284 41.0503 13.3725C41.5383 13.616 41.9229 13.9418 42.2039 14.3486C42.4849 14.7548 42.6732 15.2211 42.7693 15.7457C42.866 16.2712 42.9138 16.8145 42.9138 17.3765V23.9652H39.6527ZM45.8737 23.9652H49.2679V13.2724H45.8737V23.9652ZM92.3912 13.1723H82.0385C81.2793 13.1723 80.8051 13.9941 81.1852 14.6513L86.361 23.6167C86.5508 23.9455 86.8826 24.1097 87.2144 24.1097C87.5471 24.1097 87.8794 23.9455 88.0687 23.6167L93.2451 14.6513C93.6247 13.9941 93.1504 13.1723 92.3912 13.1723ZM89.4022 15.8837L87.2144 19.6728L85.0275 15.8837H89.4022Z" fill="white"/>
<mask id="mask0_0_45294" style="mask-type:alpha" maskUnits="userSpaceOnUse" x="26" y="1" width="79" height="24">
<path fill-rule="evenodd" clip-rule="evenodd" d="M42.6061 5.97965C42.6061 3.2569 44.8137 1.0498 47.536 1.0498C50.2588 1.0498 52.4658 3.2569 52.4658 5.97965C52.4658 8.70241 50.2588 10.9095 47.536 10.9095C44.8137 10.9095 42.6061 8.70241 42.6061 5.97965ZM49.5079 5.97965C49.5079 4.89213 48.6235 4.00771 47.536 4.00771C46.4485 4.00771 45.5641 4.89213 45.5641 5.97965C45.5641 7.06718 46.4485 7.95159 47.536 7.95159C48.6235 7.95159 49.5079 7.06718 49.5079 5.97965ZM60.217 22.4572C60.0839 22.7086 59.9065 22.9413 59.6846 23.1557C59.4564 23.3751 59.1989 23.5617 58.9195 23.7103C58.6197 23.8699 58.3035 23.9963 57.9764 24.0875C57.6446 24.1825 57.3011 24.2311 56.956 24.2319C56.1869 24.2319 55.4809 24.0875 54.8381 23.7996C54.2128 23.5241 53.6503 23.1238 53.1851 22.6233C52.7261 22.1279 52.3717 21.5363 52.1203 20.8486C51.8684 20.1609 51.7426 19.4174 51.7426 18.6193C51.7426 17.8207 51.8684 17.0772 52.1198 16.389C52.3712 15.7018 52.7261 15.1107 53.1846 14.6143C53.6431 14.1198 54.1938 13.7269 54.8381 13.439C55.4804 13.1506 56.1869 13.0067 56.9564 13.0067C57.2966 13.0067 57.6358 13.055 57.9769 13.1506C58.3055 13.2422 58.6219 13.3726 58.9195 13.5391C59.2074 13.7018 59.4628 13.8935 59.6846 14.1159C59.9065 14.3372 60.0839 14.567 60.217 14.8036V8.43669H63.6112V23.9657H60.2175V22.4572H60.217ZM57.6659 21.348C58.0504 21.348 58.3979 21.274 58.709 21.1261C59.0196 20.9782 59.2858 20.782 59.5076 20.538C59.7345 20.2852 59.9112 19.9916 60.0282 19.6728C60.1548 19.3361 60.2188 18.979 60.217 18.6193C60.2217 17.9179 59.9691 17.2392 59.5071 16.7114C59.2853 16.46 59.0191 16.2604 58.7085 16.112C58.3979 15.9641 58.0499 15.8901 57.6659 15.8901C57.2813 15.8901 56.9338 15.9641 56.6237 16.112C56.3131 16.2599 56.0469 16.46 55.825 16.7114C55.3631 17.2392 55.1105 17.9179 55.1151 18.6193C55.1151 18.989 55.1778 19.3405 55.303 19.6728C55.4287 20.0056 55.6022 20.294 55.8246 20.538C56.0464 20.782 56.3126 20.9782 56.6232 21.1261C56.9338 21.274 57.2813 21.348 57.6659 21.348ZM73.7938 16.2342C73.9565 16.2564 74.1562 16.2973 74.3928 16.3565V13.2724C74.1118 13.1541 73.7717 13.0949 73.3723 13.0949C72.6181 13.0949 71.9486 13.2872 71.3644 13.6717C70.7802 14.0562 70.3627 14.4999 70.1112 15.0028V13.2724H66.717V23.9657H70.1112V19.7951C70.1112 18.4936 70.3923 17.5692 70.9543 17.022C71.5163 16.4748 72.2631 16.2012 73.1949 16.2012C73.395 16.199 73.5951 16.21 73.7938 16.2342ZM76.1897 23.9652H79.5839V13.2724H76.1897V23.9652ZM97.7968 15.8241C98.2257 15.4395 98.7729 15.2473 99.4384 15.2473C100.089 15.2473 100.618 15.4464 101.025 15.8462C101.432 16.2451 101.635 16.7928 101.635 17.4879H97.1534C97.1534 16.7632 97.3679 16.2086 97.7968 15.8241ZM97.1534 19.4396C97.1682 19.765 97.216 20.0721 97.2979 20.3605C97.3787 20.6489 97.5123 20.9008 97.6972 21.1148C97.8821 21.3297 98.1221 21.4993 98.4184 21.6255C98.7137 21.7507 99.0835 21.8128 99.5276 21.8128C100.119 21.8128 100.566 21.6955 100.87 21.4589C101.173 21.2222 101.383 20.9339 101.502 20.5937H104.83C104.755 21.0977 104.577 21.5809 104.308 22.0135C104.024 22.468 103.655 22.8634 103.221 23.1779C102.77 23.5107 102.238 23.7734 101.624 23.9657C101.01 24.1575 100.318 24.2541 99.5498 24.2541C98.6176 24.2541 97.7933 24.1171 97.076 23.8434C96.3582 23.5703 95.7558 23.1819 95.2678 22.6785C94.7754 22.1689 94.3972 21.5602 94.1585 20.8929C93.9071 20.2052 93.7814 19.4475 93.7814 18.6193C93.7814 17.8354 93.9032 17.1034 94.1477 16.423C94.382 15.7586 94.7522 15.1503 95.2347 14.637C95.7149 14.1267 96.3065 13.7239 97.0095 13.4282C97.7115 13.1324 98.5289 12.9845 99.4606 12.9845C100.304 12.9845 101.061 13.1176 101.735 13.3838C102.407 13.65 102.984 14.0045 103.465 14.4481C103.939 14.8828 104.317 15.4117 104.574 16.001C104.832 16.5885 104.964 17.2231 104.962 17.8645C104.962 18.0864 104.958 18.323 104.951 18.5744C104.944 18.8258 104.911 19.1152 104.851 19.4396H97.1534ZM39.6527 23.9652V18.1973C39.6527 17.4731 39.523 16.9072 39.2647 16.4999C39.0059 16.0932 38.5878 15.8901 38.011 15.8901C37.7596 15.8901 37.523 15.9345 37.3011 16.0232C37.0727 16.1169 36.8735 16.2701 36.7243 16.4669C36.5617 16.674 36.436 16.951 36.3472 17.2991C36.2585 17.6466 36.2141 18.079 36.2141 18.5966V23.9652H32.9308V18.1751C32.9308 17.4509 32.8046 16.8889 32.5537 16.4891C32.3023 16.0898 31.8956 15.8901 31.3336 15.8901C31.0673 15.8901 30.8233 15.9345 30.6015 16.0232C30.3796 16.112 30.1874 16.2638 30.0247 16.4778C29.862 16.6922 29.7323 16.9772 29.6367 17.3321C29.5401 17.6871 29.4923 18.1307 29.4923 18.6632V23.9652H26.209V13.2724H29.4923V14.8253C29.7289 14.3224 30.1134 13.8935 30.6458 13.5391C31.1783 13.1841 31.8216 13.0067 32.5759 13.0067C33.5076 13.0067 34.2244 13.1915 34.7278 13.5613C35.2306 13.931 35.593 14.3895 35.8148 14.9367C36.0958 14.3747 36.5247 13.9123 37.1015 13.5494C37.6783 13.1876 38.366 13.0071 39.1646 13.0071C39.9337 13.0071 40.5622 13.1284 41.0503 13.3725C41.5383 13.616 41.9229 13.9418 42.2039 14.3486C42.4849 14.7548 42.6732 15.2211 42.7693 15.7457C42.866 16.2712 42.9138 16.8145 42.9138 17.3765V23.9652H39.6527ZM45.8737 23.9652H49.2679V13.2724H45.8737V23.9652ZM92.3912 13.1723H82.0385C81.2793 13.1723 80.8051 13.9941 81.1852 14.6513L86.361 23.6167C86.5508 23.9455 86.8826 24.1097 87.2144 24.1097C87.5471 24.1097 87.8794 23.9455 88.0687 23.6167L93.2451 14.6513C93.6247 13.9941 93.1504 13.1723 92.3912 13.1723ZM89.4022 15.8837L87.2144 19.6728L85.0275 15.8837H89.4022Z" fill="white"/>
</mask>
<g mask="url(#mask0_0_45294)">
<rect width="124" height="31" fill="#122E45"/>
</g>
</g>
</svg>
