<svg width="156" height="39" viewBox="0 0 156 39" fill="none" xmlns="http://www.w3.org/2000/svg">
<g opacity="0.4">
<path fill-rule="evenodd" clip-rule="evenodd" d="M20.8143 19.0906H6.30268C5.69353 19.0906 5.19955 18.5999 5.19955 17.9944V11.4981C5.19955 10.634 6.15937 10.1097 6.89374 10.5728L13.0628 14.6504C13.4341 14.8848 13.9106 14.8769 14.2742 14.631L20.1937 10.67C20.926 10.1746 21.9174 10.6959 21.9174 11.576V17.9944C21.9174 18.5999 21.4235 19.0906 20.8143 19.0906ZM7.04247 24.2051H18.7861C19.7999 24.2051 20.6293 23.3877 20.6293 22.3884C20.6293 21.3892 19.7999 20.5715 18.7861 20.5715H7.04247C6.02894 20.5715 5.19922 21.3892 5.19922 22.3884C5.19922 23.3877 6.02894 24.2051 7.04247 24.2051ZM12.8988 29.2452H7.04275C6.02894 29.2452 5.19951 28.4275 5.19951 27.4282C5.19951 26.429 6.02894 25.6113 7.04275 25.6113H12.8988C13.9126 25.6113 14.742 26.429 14.742 27.4282C14.742 28.4275 13.9126 29.2452 12.8988 29.2452ZM6.98129 34.285H7.0732C8.05312 34.285 8.85498 33.4946 8.85498 32.5287V32.4071C8.85498 31.441 8.05312 30.6508 7.0732 30.6508H6.98129C6.00137 30.6508 5.19951 31.441 5.19951 32.4071V32.5287C5.19951 33.4946 6.00137 34.285 6.98129 34.285ZM27.842 14.6077C27.9239 14.5394 28.0106 14.4956 28.1022 14.477C28.1939 14.4582 28.2806 14.4492 28.3624 14.4492H29.7921C29.9059 14.4492 30.0032 14.4692 30.0856 14.5096C30.1675 14.5504 30.2373 14.6046 30.2936 14.6729C30.3504 14.7412 30.3961 14.8187 30.4309 14.9056C30.4656 14.9924 30.4986 15.082 30.5302 15.1753L30.729 15.9942C30.8237 15.802 30.9596 15.6033 31.1362 15.3987C31.3129 15.1942 31.5369 15.0079 31.8083 14.8407C32.0794 14.6729 32.4031 14.5349 32.7784 14.4265C33.1541 14.3177 33.5941 14.2632 34.099 14.2632C34.4967 14.2632 34.8578 14.302 35.1829 14.3798C35.5077 14.4574 35.8044 14.5723 36.0726 14.724C36.3411 14.8761 36.5856 15.0624 36.8064 15.2824C37.027 15.5027 37.2355 15.7553 37.4308 16.0408C37.5511 15.8483 37.7289 15.6469 37.9655 15.4361C38.2025 15.2251 38.4848 15.0329 38.8128 14.8586C39.1411 14.6853 39.5072 14.5425 39.911 14.431C40.3151 14.3194 40.7439 14.2632 41.1983 14.2632C41.918 14.2632 42.5455 14.3998 43.0823 14.6729C43.6185 14.9458 44.0648 15.3181 44.4218 15.7896C44.7782 16.2611 45.0447 16.8119 45.2214 17.4422C45.398 18.0728 45.4867 18.7458 45.4867 19.4609V25.5728C45.4867 25.8094 45.4345 25.9878 45.3305 26.1095C45.2265 26.2309 45.0605 26.2913 44.8336 26.2913H42.6469C42.3755 26.2913 42.1894 26.2463 42.088 26.1561C41.9872 26.0659 41.9369 25.89 41.9369 25.629V19.4609C41.9369 19.1937 41.8944 18.9447 41.8088 18.7143C41.7238 18.4842 41.6055 18.2838 41.4539 18.1124C41.3028 17.9415 41.1178 17.8075 40.9002 17.7114C40.6825 17.615 40.4412 17.5667 40.1764 17.5667C39.936 17.5667 39.7091 17.6136 39.4946 17.7063C39.2801 17.7999 39.0908 17.9292 38.9265 18.0938C38.7625 18.2588 38.6318 18.4577 38.5336 18.691C38.4357 18.9242 38.3872 19.1808 38.3872 19.4609V25.5728C38.3872 25.8094 38.3349 25.9878 38.2309 26.1095C38.1269 26.2309 37.9609 26.2913 37.7341 26.2913H35.5473C35.2762 26.2913 35.0898 26.2463 34.9887 26.1561C34.8879 26.0659 34.8374 25.89 34.8374 25.629V19.4609C34.8374 19.1937 34.7977 18.9447 34.719 18.7143C34.6401 18.4842 34.5263 18.2838 34.3784 18.1124C34.2302 17.9415 34.0499 17.8075 33.8388 17.7114C33.6274 17.615 33.389 17.5667 33.1242 17.5667C32.8968 17.5667 32.6745 17.6116 32.4568 17.7016C32.2391 17.7921 32.0435 17.9196 31.8697 18.0846C31.6963 18.2495 31.5512 18.4468 31.4343 18.6769C31.3174 18.9074 31.25 19.1622 31.231 19.4424V25.6006C31.231 25.7068 31.21 25.8125 31.1695 25.9181C31.1282 26.0238 31.0667 26.1044 30.9846 26.1606C30.9027 26.2107 30.8252 26.2449 30.7531 26.2635C30.6804 26.2823 30.5969 26.2913 30.5021 26.2913H28.3624C28.091 26.2913 27.8957 26.2261 27.776 26.0954C27.6556 25.9648 27.5962 25.7906 27.5962 25.5728V15.1382C27.5962 15.0199 27.6229 14.9115 27.6766 14.8123C27.7303 14.7131 27.8041 14.6355 27.8989 14.5799L27.842 14.6077ZM58.7984 26.2643C58.89 26.2458 58.9774 26.2019 59.0595 26.1337L59.0023 26.1615C59.0968 26.1053 59.1709 26.028 59.2246 25.9282C59.2783 25.8288 59.3053 25.72 59.3053 25.6014V15.159C59.3053 14.9415 59.2453 14.767 59.1255 14.6364C59.0055 14.506 58.8099 14.4405 58.5385 14.4405H56.3992C56.3044 14.4405 56.2208 14.4501 56.1481 14.4686C56.0758 14.4874 55.9979 14.5214 55.9161 14.5712C55.8348 14.6274 55.7725 14.7083 55.7317 14.814C55.6909 14.9202 55.6702 15.0258 55.6702 15.1318V21.2037C55.6702 21.5524 55.5947 21.8512 55.4428 22.1004C55.2917 22.3497 55.1022 22.5534 54.8747 22.7124C54.6478 22.8709 54.4017 22.9881 54.1369 23.0628C53.8718 23.1376 53.626 23.1747 53.3982 23.1747C53.1334 23.1747 52.8824 23.1219 52.646 23.0159C52.4091 22.91 52.2026 22.7653 52.026 22.5815C51.8491 22.398 51.7089 22.1861 51.6049 21.9464C51.5004 21.7067 51.4487 21.4527 51.4487 21.1852V15.104C51.4487 14.8423 51.3976 14.6664 51.2971 14.5762C51.1957 14.486 51.0096 14.4405 50.7387 14.4405H48.5523C48.3248 14.4405 48.1594 14.5015 48.0554 14.6226C47.9506 14.744 47.8989 14.923 47.8989 15.159V21.2712C47.8989 21.9866 47.9966 22.6599 48.1919 23.2916C48.3877 23.923 48.6764 24.4746 49.0581 24.9475C49.44 25.4207 49.9085 25.7936 50.4642 26.0671C51.0193 26.341 51.6566 26.4782 52.3764 26.4782C52.8746 26.4782 53.3353 26.4189 53.7584 26.3014C54.1805 26.1834 54.5548 26.0342 54.8799 25.8543C55.205 25.6745 55.4775 25.4775 55.6987 25.2634C55.9198 25.0498 56.0769 24.8464 56.1717 24.6542L56.3704 25.566C56.3963 25.6588 56.4276 25.7492 56.4652 25.8361C56.5031 25.9226 56.5502 26.0007 56.6074 26.0685C56.664 26.1367 56.7337 26.191 56.8159 26.2317C56.8975 26.2722 56.9957 26.2921 57.1094 26.2921H58.5385C58.6201 26.2921 58.7074 26.2831 58.7984 26.2643ZM63.5154 22.6054C63.6854 22.7734 63.8704 22.9153 64.0691 23.03C64.2679 23.1452 64.4589 23.2388 64.6418 23.3098C64.8247 23.3818 64.9856 23.4324 65.1243 23.4641C65.2636 23.4953 65.3578 23.5108 65.4086 23.5108C65.5284 23.5108 65.6812 23.506 65.8676 23.4967C66.054 23.4874 66.2323 23.4591 66.4023 23.4127C66.5729 23.3663 66.7194 23.2896 66.8429 23.184C66.9658 23.0783 67.0273 22.9288 67.0273 22.7358C67.0273 22.5621 66.9925 22.4236 66.9233 22.3207C66.8535 22.2181 66.7527 22.131 66.62 22.0594C66.4879 21.9886 66.3251 21.9242 66.1329 21.868C65.9402 21.8127 65.7237 21.7466 65.4844 21.6722C64.7268 21.4735 64.1024 21.2338 63.6102 20.9536C63.1179 20.674 62.7279 20.3613 62.4407 20.0159C62.1538 19.6706 61.9536 19.2994 61.8399 18.9012C61.7261 18.503 61.6693 18.0832 61.6693 17.6412C61.6693 17.1249 61.7732 16.6554 61.9818 16.2322C62.1903 15.8093 62.4866 15.4471 62.8715 15.1453C63.2566 14.8438 63.7173 14.6105 64.2535 14.4456C64.7903 14.2806 65.3865 14.198 66.0428 14.198C66.4402 14.198 66.8127 14.2309 67.16 14.2961C67.5066 14.3613 67.838 14.4641 68.1537 14.6041C68.4693 14.744 68.7766 14.9244 69.0767 15.1453C69.376 15.3659 69.6744 15.6289 69.9711 15.9335C70.0782 16.058 70.1336 16.1746 70.1371 16.2836C70.1397 16.3924 70.069 16.509 69.924 16.6335C69.6776 16.8324 69.4423 17.0286 69.2186 17.2213C68.9943 17.4144 68.7622 17.6291 68.523 17.8654C68.4472 17.9275 68.3714 17.9666 68.2956 17.982C68.2197 17.9975 68.1471 17.9958 68.0779 17.977C68.0084 17.9584 67.942 17.9275 67.8791 17.8842C67.8156 17.8404 67.7593 17.7876 67.7085 17.7252C67.4877 17.4827 67.2352 17.3191 66.9515 17.2354C66.6677 17.1514 66.4023 17.1095 66.1565 17.1095C65.8472 17.1095 65.6008 17.1623 65.4178 17.2683C65.2349 17.3739 65.1499 17.5355 65.1622 17.7533C65.1751 17.9151 65.2366 18.041 65.3472 18.1312C65.4572 18.2214 65.593 18.2948 65.7538 18.3507C65.9147 18.4063 66.0853 18.4518 66.265 18.4856C66.4448 18.5201 66.6108 18.5589 66.7619 18.6022C67.33 18.7832 67.851 18.979 68.3243 19.1903C68.7976 19.4019 69.2074 19.6616 69.5546 19.9696C69.9016 20.2775 70.1712 20.6462 70.364 21.0753C70.5561 21.5047 70.6526 22.0271 70.6526 22.6425C70.6526 23.2587 70.528 23.8092 70.279 24.2945C70.0294 24.7792 69.6873 25.1875 69.2519 25.5166C68.8165 25.8468 68.3001 26.0985 67.7039 26.2728C67.1077 26.4467 66.4658 26.5338 65.778 26.5338C65.3865 26.5338 64.989 26.4995 64.5849 26.4312C64.1811 26.363 63.79 26.2525 63.4114 26.0999C63.0323 25.9479 62.6728 25.7521 62.3321 25.5121C61.9915 25.2727 61.6882 24.9818 61.4234 24.6396C61.3536 24.5527 61.3019 24.4611 61.2672 24.3645C61.2327 24.2678 61.2164 24.1731 61.2198 24.0798C61.223 23.9862 61.2419 23.9008 61.2764 23.8232C61.3111 23.7454 61.3666 23.6785 61.4424 23.6229L62.6636 22.4191C62.8146 22.2946 62.9488 22.2505 63.0656 22.2881C63.1822 22.3255 63.3325 22.4314 63.5154 22.6054ZM80.3979 22.5258C80.3192 22.5421 80.2353 22.5806 80.1468 22.6425C79.8625 22.8355 79.563 22.9943 79.2473 23.1185C78.932 23.2432 78.5942 23.3051 78.2347 23.3051C77.8372 23.3051 77.471 23.2289 77.1364 23.0766C76.8018 22.924 76.5166 22.7175 76.28 22.4562C76.0433 22.1948 75.8584 21.8854 75.7263 21.5277C75.5936 21.1703 75.5275 20.7861 75.5275 20.3756C75.5275 19.9774 75.5936 19.5978 75.7263 19.2367C75.8584 18.8762 76.0433 18.5586 76.28 18.2852C76.5166 18.0118 76.8018 17.7954 77.1364 17.6369C77.471 17.4782 77.8372 17.3986 78.2347 17.3986C78.5942 17.3986 78.9334 17.456 79.2519 17.5712C79.571 17.6861 79.8691 17.8342 80.1468 18.0143C80.2479 18.0832 80.3393 18.1309 80.4214 18.159C80.5033 18.1871 80.5725 18.2009 80.6296 18.2009C80.8821 18.2009 81.0969 18.0483 81.2732 17.7437L82.1159 16.335C82.1917 16.2167 82.229 16.1018 82.229 15.9897C82.229 15.8281 82.188 15.6927 82.1061 15.5834C82.0243 15.4749 81.914 15.3799 81.7747 15.2995L81.8037 15.3268C81.2922 14.9727 80.7445 14.7049 80.1612 14.5245C79.5776 14.3444 78.9415 14.2539 78.2536 14.2539C77.6855 14.2539 77.1379 14.3256 76.6114 14.4689C76.0841 14.6116 75.5936 14.8142 75.1392 15.075C74.6849 15.3364 74.2684 15.6525 73.8899 16.0223C73.5111 16.3921 73.1894 16.8029 72.9243 17.2542C72.6593 17.7052 72.4525 18.1947 72.3043 18.7239C72.1558 19.2524 72.082 19.8032 72.082 20.3756C72.082 20.9474 72.1558 21.4965 72.3043 22.022C72.4525 22.548 72.6593 23.0381 72.9243 23.4917C73.1894 23.9463 73.5111 24.358 73.8899 24.7284C74.2684 25.0984 74.6849 25.4157 75.1392 25.6804C75.5936 25.9443 76.0841 26.1483 76.6114 26.291C77.1379 26.4346 77.6855 26.506 78.2536 26.506C78.9415 26.506 79.5931 26.3989 80.2083 26.184C80.8235 25.969 81.3898 25.6849 81.9074 25.3303C82.0145 25.2614 82.1142 25.1825 82.2055 25.092C82.2971 25.0021 82.3428 24.8854 82.3428 24.7424C82.3428 24.7048 82.3284 24.6553 82.3003 24.5929C82.2721 24.5308 82.242 24.4746 82.2104 24.4249L81.1503 22.8479C81.0555 22.7051 80.9639 22.6118 80.8758 22.5677C80.787 22.5247 80.6897 22.5025 80.5825 22.5025C80.5377 22.5025 80.4763 22.5104 80.3979 22.5258ZM84.1722 11.6319C84.1722 11.4326 84.2225 11.2646 84.3233 11.128C84.4247 10.9912 84.5979 10.9223 84.8443 10.9223H87.1631C87.2263 10.9223 87.2927 10.94 87.3619 10.974C87.4311 11.008 87.496 11.0567 87.556 11.1188C87.616 11.1809 87.6663 11.2559 87.7077 11.3427C87.7487 11.4296 87.7691 11.5262 87.7691 11.6319V25.5728C87.7691 25.8094 87.701 25.9878 87.5658 26.1095C87.4299 26.2309 87.2547 26.2913 87.0402 26.2913H84.8443C84.5979 26.2913 84.4247 26.2309 84.3233 26.1095C84.2225 25.9878 84.1722 25.8094 84.1722 25.5728V11.6319ZM100.217 24.8728C99.6615 25.3766 99.0366 25.7703 98.3424 26.0533C97.6482 26.3363 96.9133 26.4779 96.1367 26.4779C95.2725 26.4779 94.4551 26.3222 93.6854 26.0114C92.9152 25.7001 92.24 25.2696 91.6595 24.7191C91.0788 24.1683 90.6184 23.5198 90.2775 22.7734C89.9369 22.0273 89.7663 21.215 89.7663 20.3379C89.7663 19.7906 89.8341 19.26 89.9702 18.7469C90.1055 18.2341 90.2976 17.7536 90.5472 17.3054C90.7965 16.8577 91.0998 16.4452 91.4559 16.0687C91.8123 15.6927 92.2118 15.3709 92.6535 15.1028C93.095 14.8359 93.5749 14.6274 94.0927 14.4776C94.6097 14.329 95.1556 14.2539 95.73 14.2539C96.2539 14.2539 96.7619 14.3225 97.2539 14.4591C97.7462 14.5962 98.2088 14.789 98.6408 15.0379C99.0727 15.2863 99.4688 15.5853 99.8289 15.9338C100.189 16.2819 100.498 16.663 100.757 17.0766C101.015 17.4905 101.216 17.9317 101.358 18.4015C101.5 18.8717 101.571 19.355 101.571 19.8527C101.571 20.1764 101.566 20.4408 101.556 20.6462C101.547 20.8513 101.498 21.0146 101.41 21.1357C101.321 21.2568 101.174 21.3409 100.969 21.3881C100.764 21.4341 100.463 21.4575 100.066 21.4575H93.2498C93.3127 21.8556 93.4408 22.1886 93.6332 22.4562C93.8259 22.724 94.0482 22.9364 94.3003 23.0954C94.5528 23.2539 94.8216 23.3677 95.1051 23.4357C95.3894 23.5046 95.6574 23.5383 95.9098 23.5383C96.1367 23.5383 96.3702 23.515 96.61 23.4686C96.8501 23.4217 97.0819 23.3596 97.3062 23.2817C97.5299 23.2042 97.735 23.114 97.9216 23.0111C98.1072 22.9086 98.2577 22.8009 98.3711 22.6894C98.4722 22.6085 98.5587 22.548 98.6313 22.5076C98.704 22.4671 98.7809 22.4466 98.8634 22.4466C98.9452 22.4466 99.0288 22.4747 99.1138 22.5309C99.1994 22.5865 99.2956 22.6675 99.4027 22.7734L100.406 23.8932C100.475 23.9739 100.52 24.0472 100.539 24.1124C100.558 24.1776 100.567 24.2445 100.567 24.3127C100.567 24.4381 100.532 24.5449 100.463 24.6351C100.393 24.7255 100.311 24.8045 100.217 24.8728ZM95.6634 17.0999C95.4175 17.0999 95.1792 17.148 94.9488 17.2449C94.7188 17.3408 94.5025 17.4703 94.3003 17.6319C94.0984 17.794 93.9172 17.977 93.7564 18.1824C93.5955 18.3875 93.4643 18.5963 93.3638 18.8079H98.2005C98.0678 18.5651 97.9245 18.3409 97.7697 18.1354C97.6155 17.9303 97.4383 17.7499 97.2398 17.5951C97.0408 17.4391 96.8139 17.3177 96.5586 17.2306C96.3027 17.1438 96.0046 17.0999 95.6634 17.0999ZM104.596 14.6086C104.596 14.03 104.722 13.4859 104.974 12.9756C105.227 12.4656 105.564 12.0194 105.987 11.6364C106.41 11.2536 106.895 10.9521 107.445 10.7315C107.994 10.5107 108.568 10.4005 109.168 10.4005H109.357C109.571 10.4005 109.737 10.4643 109.854 10.5913C109.971 10.7189 110.029 10.8948 110.029 11.119V12.9009C110.029 13.131 109.967 13.3224 109.844 13.475C109.722 13.627 109.559 13.7032 109.357 13.7032H109.168C109.035 13.7032 108.909 13.727 108.789 13.7734C108.669 13.8198 108.562 13.8841 108.467 13.9648C108.372 14.046 108.297 14.1407 108.24 14.2494C108.183 14.3585 108.155 14.4779 108.155 14.6086V15.6814H109.641C109.855 15.6814 110.021 15.7393 110.138 15.8542C110.254 15.9695 110.313 16.1513 110.313 16.4V18.1079C110.313 18.3751 110.254 18.5713 110.138 18.6955C110.021 18.8202 109.855 18.8823 109.641 18.8823H108.155V25.5728C108.155 25.8091 108.074 25.9878 107.913 26.1095C107.752 26.2306 107.577 26.2913 107.388 26.2913H105.343C105.116 26.2913 104.935 26.221 104.799 26.0811C104.663 25.9414 104.596 25.7717 104.596 25.5728V18.8823H103.62C103.399 18.8823 103.222 18.8202 103.085 18.6955C102.95 18.5713 102.882 18.3751 102.882 18.1079V16.4C102.882 16.1513 102.95 15.9695 103.085 15.8542C103.222 15.7393 103.399 15.6814 103.62 15.6814H104.596V14.6086ZM111.383 20.3753C111.383 19.8035 111.457 19.2524 111.605 18.7236C111.753 18.1947 111.961 17.7049 112.23 17.2539C112.498 16.8029 112.82 16.3924 113.196 16.0223C113.571 15.6525 113.989 15.3364 114.449 15.075C114.91 14.814 115.407 14.6116 115.941 14.4686C116.474 14.3256 117.03 14.2539 117.611 14.2539C118.469 14.2539 119.276 14.4116 120.03 14.7252C120.784 15.0396 121.44 15.4715 121.999 16.0223C122.557 16.5728 122.999 17.2196 123.324 17.9632C123.649 18.7064 123.811 19.5107 123.811 20.3753C123.811 20.9477 123.737 21.4965 123.589 22.022C123.441 22.5478 123.232 23.0381 122.964 23.4919C122.696 23.946 122.374 24.358 121.999 24.7284C121.623 25.0984 121.205 25.4154 120.744 25.6804C120.284 25.9445 119.79 26.1483 119.263 26.2913C118.736 26.4343 118.185 26.506 117.611 26.506C117.03 26.506 116.474 26.4343 115.941 26.2913C115.407 26.1483 114.91 25.9445 114.449 25.6804C113.989 25.4154 113.571 25.0984 113.196 24.7284C112.82 24.358 112.498 23.946 112.23 23.4919C111.961 23.0381 111.753 22.5478 111.605 22.022C111.457 21.4965 111.383 20.9477 111.383 20.3753ZM114.838 20.3753C114.838 20.7859 114.902 21.17 115.032 21.5277C115.161 21.8852 115.344 22.1945 115.581 22.4562C115.818 22.7172 116.105 22.924 116.442 23.0766C116.78 23.2289 117.16 23.3051 117.583 23.3051C117.993 23.3051 118.364 23.2289 118.695 23.0766C119.026 22.924 119.307 22.7172 119.537 22.4562C119.768 22.1945 119.945 21.8852 120.068 21.5277C120.191 21.17 120.252 20.7859 120.252 20.3753C120.252 19.9771 120.191 19.5975 120.068 19.2367C119.945 18.8759 119.768 18.5586 119.537 18.2849C119.307 18.0118 119.026 17.7954 118.695 17.6369C118.364 17.4779 117.993 17.3986 117.583 17.3986C117.16 17.3986 116.78 17.4779 116.442 17.6369C116.105 17.7954 115.818 18.0118 115.581 18.2849C115.344 18.5586 115.161 18.8759 115.032 19.2367C114.902 19.5975 114.838 19.9771 114.838 20.3753ZM125.486 18.7236C125.338 19.2524 125.264 19.8035 125.264 20.3753C125.264 20.9477 125.338 21.4965 125.486 22.022C125.634 22.5478 125.842 23.0381 126.111 23.4919C126.379 23.946 126.7 24.358 127.076 24.7284C127.452 25.0984 127.87 25.4154 128.33 25.6804C128.791 25.9445 129.288 26.1483 129.821 26.2913C130.355 26.4343 130.911 26.506 131.492 26.506C132.066 26.506 132.617 26.4343 133.144 26.2913C133.67 26.1483 134.165 25.9445 134.625 25.6804C135.086 25.4154 135.504 25.0984 135.879 24.7284C136.254 24.358 136.577 23.946 136.845 23.4919C137.113 23.0381 137.322 22.5478 137.47 22.022C137.618 21.4965 137.692 20.9477 137.692 20.3753C137.692 19.5107 137.53 18.7064 137.205 17.9632C136.88 17.2196 136.438 16.5728 135.879 16.0223C135.321 15.4715 134.665 15.0396 133.91 14.7252C133.156 14.4116 132.35 14.2539 131.492 14.2539C130.911 14.2539 130.355 14.3256 129.821 14.4686C129.288 14.6116 128.791 14.814 128.33 15.075C127.87 15.3364 127.452 15.6525 127.076 16.0223C126.7 16.3924 126.379 16.8029 126.111 17.2539C125.842 17.7049 125.634 18.1947 125.486 18.7236ZM128.913 21.5277C128.783 21.17 128.719 20.7859 128.719 20.3753C128.719 19.9771 128.783 19.5975 128.913 19.2367C129.042 18.8759 129.225 18.5586 129.462 18.2849C129.698 18.0118 129.985 17.7954 130.323 17.6369C130.661 17.4779 131.041 17.3986 131.464 17.3986C131.874 17.3986 132.245 17.4779 132.576 17.6369C132.907 17.7954 133.188 18.0118 133.418 18.2849C133.649 18.5586 133.825 18.8759 133.949 19.2367C134.072 19.5975 134.133 19.9771 134.133 20.3753C134.133 20.7859 134.072 21.17 133.949 21.5277C133.825 21.8852 133.649 22.1945 133.418 22.4562C133.188 22.7172 132.907 22.924 132.576 23.0766C132.245 23.2289 131.874 23.3051 131.464 23.3051C131.041 23.3051 130.661 23.2289 130.323 23.0766C129.985 22.924 129.698 22.7172 129.462 22.4562C129.225 22.1945 129.042 21.8852 128.913 21.5277ZM148.126 25.1249C147.955 25.2929 147.761 25.4592 147.543 25.6242C147.325 25.7891 147.089 25.9367 146.833 26.0671C146.578 26.1977 146.304 26.3037 146.01 26.3846C145.717 26.4652 145.406 26.5057 145.077 26.5057C144.219 26.5057 143.429 26.3472 142.706 26.0302C141.984 25.7127 141.362 25.2788 140.842 24.7284C140.321 24.1776 139.914 23.5293 139.62 22.783C139.327 22.0361 139.18 21.2338 139.18 20.3753C139.18 19.5107 139.327 18.7064 139.62 17.9635C139.914 17.2196 140.321 16.5728 140.842 16.0223C141.362 15.4715 141.984 15.0396 142.706 14.7252C143.429 14.4113 144.219 14.2542 145.077 14.2542C145.424 14.2542 145.742 14.2837 146.029 14.3424C146.316 14.4017 146.578 14.4874 146.815 14.5996C147.051 14.7111 147.269 14.8449 147.468 15.0003C147.667 15.1562 147.854 15.3271 148.031 15.5139V11.6223C148.031 11.4237 148.092 11.2556 148.216 11.119C148.339 10.9819 148.523 10.9134 148.769 10.9134H150.899C150.981 10.9134 151.068 10.9308 151.16 10.9651C151.251 10.9991 151.335 11.0474 151.41 11.1095C151.486 11.1719 151.548 11.2466 151.595 11.3335C151.642 11.4206 151.666 11.5167 151.666 11.6223V25.5728C151.666 26.0522 151.41 26.2913 150.899 26.2913H149.044C148.917 26.2913 148.82 26.2758 148.751 26.2449C148.681 26.2135 148.622 26.1688 148.575 26.1095C148.528 26.0502 148.485 25.9755 148.447 25.8852C148.409 25.795 148.362 25.6914 148.305 25.5728L148.126 25.1249ZM142.588 20.3753C142.588 20.7859 142.653 21.17 142.782 21.5277C142.911 21.8854 143.096 22.1948 143.336 22.4562C143.576 22.7172 143.864 22.924 144.202 23.0769C144.539 23.2289 144.913 23.3051 145.323 23.3051C145.728 23.3051 146.108 23.234 146.464 23.0904C146.821 22.9474 147.132 22.7501 147.397 22.4983C147.661 22.2462 147.875 21.9492 148.035 21.607C148.197 21.2647 148.286 20.898 148.305 20.5057V20.3753C148.305 19.9771 148.23 19.5978 148.078 19.2367C147.927 18.8759 147.717 18.5589 147.449 18.2849C147.18 18.0115 146.865 17.7951 146.502 17.6367C146.139 17.4782 145.746 17.3989 145.323 17.3989C144.913 17.3989 144.539 17.4782 144.202 17.6367C143.864 17.7951 143.576 18.0115 143.336 18.2849C143.096 18.5589 142.911 18.8759 142.782 19.2367C142.653 19.5978 142.588 19.9771 142.588 20.3753Z" fill="#1BA9A3"/>
<mask id="mask0_0_45538" style="mask-type:alpha" maskUnits="userSpaceOnUse" x="5" y="10" width="147" height="25">
<path fill-rule="evenodd" clip-rule="evenodd" d="M20.8143 19.0906H6.30268C5.69353 19.0906 5.19955 18.5999 5.19955 17.9944V11.4981C5.19955 10.634 6.15937 10.1097 6.89374 10.5728L13.0628 14.6504C13.4341 14.8848 13.9106 14.8769 14.2742 14.631L20.1937 10.67C20.926 10.1746 21.9174 10.6959 21.9174 11.576V17.9944C21.9174 18.5999 21.4235 19.0906 20.8143 19.0906ZM7.04247 24.2051H18.7861C19.7999 24.2051 20.6293 23.3877 20.6293 22.3884C20.6293 21.3892 19.7999 20.5715 18.7861 20.5715H7.04247C6.02894 20.5715 5.19922 21.3892 5.19922 22.3884C5.19922 23.3877 6.02894 24.2051 7.04247 24.2051ZM12.8988 29.2452H7.04275C6.02894 29.2452 5.19951 28.4275 5.19951 27.4282C5.19951 26.429 6.02894 25.6113 7.04275 25.6113H12.8988C13.9126 25.6113 14.742 26.429 14.742 27.4282C14.742 28.4275 13.9126 29.2452 12.8988 29.2452ZM6.98129 34.285H7.0732C8.05312 34.285 8.85498 33.4946 8.85498 32.5287V32.4071C8.85498 31.441 8.05312 30.6508 7.0732 30.6508H6.98129C6.00137 30.6508 5.19951 31.441 5.19951 32.4071V32.5287C5.19951 33.4946 6.00137 34.285 6.98129 34.285ZM27.842 14.6077C27.9239 14.5394 28.0106 14.4956 28.1022 14.477C28.1939 14.4582 28.2806 14.4492 28.3624 14.4492H29.7921C29.9059 14.4492 30.0032 14.4692 30.0856 14.5096C30.1675 14.5504 30.2373 14.6046 30.2936 14.6729C30.3504 14.7412 30.3961 14.8187 30.4309 14.9056C30.4656 14.9924 30.4986 15.082 30.5302 15.1753L30.729 15.9942C30.8237 15.802 30.9596 15.6033 31.1362 15.3987C31.3129 15.1942 31.5369 15.0079 31.8083 14.8407C32.0794 14.6729 32.4031 14.5349 32.7784 14.4265C33.1541 14.3177 33.5941 14.2632 34.099 14.2632C34.4967 14.2632 34.8578 14.302 35.1829 14.3798C35.5077 14.4574 35.8044 14.5723 36.0726 14.724C36.3411 14.8761 36.5856 15.0624 36.8064 15.2824C37.027 15.5027 37.2355 15.7553 37.4308 16.0408C37.5511 15.8483 37.7289 15.6469 37.9655 15.4361C38.2025 15.2251 38.4848 15.0329 38.8128 14.8586C39.1411 14.6853 39.5072 14.5425 39.911 14.431C40.3151 14.3194 40.7439 14.2632 41.1983 14.2632C41.918 14.2632 42.5455 14.3998 43.0823 14.6729C43.6185 14.9458 44.0648 15.3181 44.4218 15.7896C44.7782 16.2611 45.0447 16.8119 45.2214 17.4422C45.398 18.0728 45.4867 18.7458 45.4867 19.4609V25.5728C45.4867 25.8094 45.4345 25.9878 45.3305 26.1095C45.2265 26.2309 45.0605 26.2913 44.8336 26.2913H42.6469C42.3755 26.2913 42.1894 26.2463 42.088 26.1561C41.9872 26.0659 41.9369 25.89 41.9369 25.629V19.4609C41.9369 19.1937 41.8944 18.9447 41.8088 18.7143C41.7238 18.4842 41.6055 18.2838 41.4539 18.1124C41.3028 17.9415 41.1178 17.8075 40.9002 17.7114C40.6825 17.615 40.4412 17.5667 40.1764 17.5667C39.936 17.5667 39.7091 17.6136 39.4946 17.7063C39.2801 17.7999 39.0908 17.9292 38.9265 18.0938C38.7625 18.2588 38.6318 18.4577 38.5336 18.691C38.4357 18.9242 38.3872 19.1808 38.3872 19.4609V25.5728C38.3872 25.8094 38.3349 25.9878 38.2309 26.1095C38.1269 26.2309 37.9609 26.2913 37.7341 26.2913H35.5473C35.2762 26.2913 35.0898 26.2463 34.9887 26.1561C34.8879 26.0659 34.8374 25.89 34.8374 25.629V19.4609C34.8374 19.1937 34.7977 18.9447 34.719 18.7143C34.6401 18.4842 34.5263 18.2838 34.3784 18.1124C34.2302 17.9415 34.0499 17.8075 33.8388 17.7114C33.6274 17.615 33.389 17.5667 33.1242 17.5667C32.8968 17.5667 32.6745 17.6116 32.4568 17.7016C32.2391 17.7921 32.0435 17.9196 31.8697 18.0846C31.6963 18.2495 31.5512 18.4468 31.4343 18.6769C31.3174 18.9074 31.25 19.1622 31.231 19.4424V25.6006C31.231 25.7068 31.21 25.8125 31.1695 25.9181C31.1282 26.0238 31.0667 26.1044 30.9846 26.1606C30.9027 26.2107 30.8252 26.2449 30.7531 26.2635C30.6804 26.2823 30.5969 26.2913 30.5021 26.2913H28.3624C28.091 26.2913 27.8957 26.2261 27.776 26.0954C27.6556 25.9648 27.5962 25.7906 27.5962 25.5728V15.1382C27.5962 15.0199 27.6229 14.9115 27.6766 14.8123C27.7303 14.7131 27.8041 14.6355 27.8989 14.5799L27.842 14.6077ZM58.7984 26.2643C58.89 26.2458 58.9774 26.2019 59.0595 26.1337L59.0023 26.1615C59.0968 26.1053 59.1709 26.028 59.2246 25.9282C59.2783 25.8288 59.3053 25.72 59.3053 25.6014V15.159C59.3053 14.9415 59.2453 14.767 59.1255 14.6364C59.0055 14.506 58.8099 14.4405 58.5385 14.4405H56.3992C56.3044 14.4405 56.2208 14.4501 56.1481 14.4686C56.0758 14.4874 55.9979 14.5214 55.9161 14.5712C55.8348 14.6274 55.7725 14.7083 55.7317 14.814C55.6909 14.9202 55.6702 15.0258 55.6702 15.1318V21.2037C55.6702 21.5524 55.5947 21.8512 55.4428 22.1004C55.2917 22.3497 55.1022 22.5534 54.8747 22.7124C54.6478 22.8709 54.4017 22.9881 54.1369 23.0628C53.8718 23.1376 53.626 23.1747 53.3982 23.1747C53.1334 23.1747 52.8824 23.1219 52.646 23.0159C52.4091 22.91 52.2026 22.7653 52.026 22.5815C51.8491 22.398 51.7089 22.1861 51.6049 21.9464C51.5004 21.7067 51.4487 21.4527 51.4487 21.1852V15.104C51.4487 14.8423 51.3976 14.6664 51.2971 14.5762C51.1957 14.486 51.0096 14.4405 50.7387 14.4405H48.5523C48.3248 14.4405 48.1594 14.5015 48.0554 14.6226C47.9506 14.744 47.8989 14.923 47.8989 15.159V21.2712C47.8989 21.9866 47.9966 22.6599 48.1919 23.2916C48.3877 23.923 48.6764 24.4746 49.0581 24.9475C49.44 25.4207 49.9085 25.7936 50.4642 26.0671C51.0193 26.341 51.6566 26.4782 52.3764 26.4782C52.8746 26.4782 53.3353 26.4189 53.7584 26.3014C54.1805 26.1834 54.5548 26.0342 54.8799 25.8543C55.205 25.6745 55.4775 25.4775 55.6987 25.2634C55.9198 25.0498 56.0769 24.8464 56.1717 24.6542L56.3704 25.566C56.3963 25.6588 56.4276 25.7492 56.4652 25.8361C56.5031 25.9226 56.5502 26.0007 56.6074 26.0685C56.664 26.1367 56.7337 26.191 56.8159 26.2317C56.8975 26.2722 56.9957 26.2921 57.1094 26.2921H58.5385C58.6201 26.2921 58.7074 26.2831 58.7984 26.2643ZM63.5154 22.6054C63.6854 22.7734 63.8704 22.9153 64.0691 23.03C64.2679 23.1452 64.4589 23.2388 64.6418 23.3098C64.8247 23.3818 64.9856 23.4324 65.1243 23.4641C65.2636 23.4953 65.3578 23.5108 65.4086 23.5108C65.5284 23.5108 65.6812 23.506 65.8676 23.4967C66.054 23.4874 66.2323 23.4591 66.4023 23.4127C66.5729 23.3663 66.7194 23.2896 66.8429 23.184C66.9658 23.0783 67.0273 22.9288 67.0273 22.7358C67.0273 22.5621 66.9925 22.4236 66.9233 22.3207C66.8535 22.2181 66.7527 22.131 66.62 22.0594C66.4879 21.9886 66.3251 21.9242 66.1329 21.868C65.9402 21.8127 65.7237 21.7466 65.4844 21.6722C64.7268 21.4735 64.1024 21.2338 63.6102 20.9536C63.1179 20.674 62.7279 20.3613 62.4407 20.0159C62.1538 19.6706 61.9536 19.2994 61.8399 18.9012C61.7261 18.503 61.6693 18.0832 61.6693 17.6412C61.6693 17.1249 61.7732 16.6554 61.9818 16.2322C62.1903 15.8093 62.4866 15.4471 62.8715 15.1453C63.2566 14.8438 63.7173 14.6105 64.2535 14.4456C64.7903 14.2806 65.3865 14.198 66.0428 14.198C66.4402 14.198 66.8127 14.2309 67.16 14.2961C67.5066 14.3613 67.838 14.4641 68.1537 14.6041C68.4693 14.744 68.7766 14.9244 69.0767 15.1453C69.376 15.3659 69.6744 15.6289 69.9711 15.9335C70.0782 16.058 70.1336 16.1746 70.1371 16.2836C70.1397 16.3924 70.069 16.509 69.924 16.6335C69.6776 16.8324 69.4423 17.0286 69.2186 17.2213C68.9943 17.4144 68.7622 17.6291 68.523 17.8654C68.4472 17.9275 68.3714 17.9666 68.2956 17.982C68.2197 17.9975 68.1471 17.9958 68.0779 17.977C68.0084 17.9584 67.942 17.9275 67.8791 17.8842C67.8156 17.8404 67.7593 17.7876 67.7085 17.7252C67.4877 17.4827 67.2352 17.3191 66.9515 17.2354C66.6677 17.1514 66.4023 17.1095 66.1565 17.1095C65.8472 17.1095 65.6008 17.1623 65.4178 17.2683C65.2349 17.3739 65.1499 17.5355 65.1622 17.7533C65.1751 17.9151 65.2366 18.041 65.3472 18.1312C65.4572 18.2214 65.593 18.2948 65.7538 18.3507C65.9147 18.4063 66.0853 18.4518 66.265 18.4856C66.4448 18.5201 66.6108 18.5589 66.7619 18.6022C67.33 18.7832 67.851 18.979 68.3243 19.1903C68.7976 19.4019 69.2074 19.6616 69.5546 19.9696C69.9016 20.2775 70.1712 20.6462 70.364 21.0753C70.5561 21.5047 70.6526 22.0271 70.6526 22.6425C70.6526 23.2587 70.528 23.8092 70.279 24.2945C70.0294 24.7792 69.6873 25.1875 69.2519 25.5166C68.8165 25.8468 68.3001 26.0985 67.7039 26.2728C67.1077 26.4467 66.4658 26.5338 65.778 26.5338C65.3865 26.5338 64.989 26.4995 64.5849 26.4312C64.1811 26.363 63.79 26.2525 63.4114 26.0999C63.0323 25.9479 62.6728 25.7521 62.3321 25.5121C61.9915 25.2727 61.6882 24.9818 61.4234 24.6396C61.3536 24.5527 61.3019 24.4611 61.2672 24.3645C61.2327 24.2678 61.2164 24.1731 61.2198 24.0798C61.223 23.9862 61.2419 23.9008 61.2764 23.8232C61.3111 23.7454 61.3666 23.6785 61.4424 23.6229L62.6636 22.4191C62.8146 22.2946 62.9488 22.2505 63.0656 22.2881C63.1822 22.3255 63.3325 22.4314 63.5154 22.6054ZM80.3979 22.5258C80.3192 22.5421 80.2353 22.5806 80.1468 22.6425C79.8625 22.8355 79.563 22.9943 79.2473 23.1185C78.932 23.2432 78.5942 23.3051 78.2347 23.3051C77.8372 23.3051 77.471 23.2289 77.1364 23.0766C76.8018 22.924 76.5166 22.7175 76.28 22.4562C76.0433 22.1948 75.8584 21.8854 75.7263 21.5277C75.5936 21.1703 75.5275 20.7861 75.5275 20.3756C75.5275 19.9774 75.5936 19.5978 75.7263 19.2367C75.8584 18.8762 76.0433 18.5586 76.28 18.2852C76.5166 18.0118 76.8018 17.7954 77.1364 17.6369C77.471 17.4782 77.8372 17.3986 78.2347 17.3986C78.5942 17.3986 78.9334 17.456 79.2519 17.5712C79.571 17.6861 79.8691 17.8342 80.1468 18.0143C80.2479 18.0832 80.3393 18.1309 80.4214 18.159C80.5033 18.1871 80.5725 18.2009 80.6296 18.2009C80.8821 18.2009 81.0969 18.0483 81.2732 17.7437L82.1159 16.335C82.1917 16.2167 82.229 16.1018 82.229 15.9897C82.229 15.8281 82.188 15.6927 82.1061 15.5834C82.0243 15.4749 81.914 15.3799 81.7747 15.2995L81.8037 15.3268C81.2922 14.9727 80.7445 14.7049 80.1612 14.5245C79.5776 14.3444 78.9415 14.2539 78.2536 14.2539C77.6855 14.2539 77.1379 14.3256 76.6114 14.4689C76.0841 14.6116 75.5936 14.8142 75.1392 15.075C74.6849 15.3364 74.2684 15.6525 73.8899 16.0223C73.5111 16.3921 73.1894 16.8029 72.9243 17.2542C72.6593 17.7052 72.4525 18.1947 72.3043 18.7239C72.1558 19.2524 72.082 19.8032 72.082 20.3756C72.082 20.9474 72.1558 21.4965 72.3043 22.022C72.4525 22.548 72.6593 23.0381 72.9243 23.4917C73.1894 23.9463 73.5111 24.358 73.8899 24.7284C74.2684 25.0984 74.6849 25.4157 75.1392 25.6804C75.5936 25.9443 76.0841 26.1483 76.6114 26.291C77.1379 26.4346 77.6855 26.506 78.2536 26.506C78.9415 26.506 79.5931 26.3989 80.2083 26.184C80.8235 25.969 81.3898 25.6849 81.9074 25.3303C82.0145 25.2614 82.1142 25.1825 82.2055 25.092C82.2971 25.0021 82.3428 24.8854 82.3428 24.7424C82.3428 24.7048 82.3284 24.6553 82.3003 24.5929C82.2721 24.5308 82.242 24.4746 82.2104 24.4249L81.1503 22.8479C81.0555 22.7051 80.9639 22.6118 80.8758 22.5677C80.787 22.5247 80.6897 22.5025 80.5825 22.5025C80.5377 22.5025 80.4763 22.5104 80.3979 22.5258ZM84.1722 11.6319C84.1722 11.4326 84.2225 11.2646 84.3233 11.128C84.4247 10.9912 84.5979 10.9223 84.8443 10.9223H87.1631C87.2263 10.9223 87.2927 10.94 87.3619 10.974C87.4311 11.008 87.496 11.0567 87.556 11.1188C87.616 11.1809 87.6663 11.2559 87.7077 11.3427C87.7487 11.4296 87.7691 11.5262 87.7691 11.6319V25.5728C87.7691 25.8094 87.701 25.9878 87.5658 26.1095C87.4299 26.2309 87.2547 26.2913 87.0402 26.2913H84.8443C84.5979 26.2913 84.4247 26.2309 84.3233 26.1095C84.2225 25.9878 84.1722 25.8094 84.1722 25.5728V11.6319ZM100.217 24.8728C99.6615 25.3766 99.0366 25.7703 98.3424 26.0533C97.6482 26.3363 96.9133 26.4779 96.1367 26.4779C95.2725 26.4779 94.4551 26.3222 93.6854 26.0114C92.9152 25.7001 92.24 25.2696 91.6595 24.7191C91.0788 24.1683 90.6184 23.5198 90.2775 22.7734C89.9369 22.0273 89.7663 21.215 89.7663 20.3379C89.7663 19.7906 89.8341 19.26 89.9702 18.7469C90.1055 18.2341 90.2976 17.7536 90.5472 17.3054C90.7965 16.8577 91.0998 16.4452 91.4559 16.0687C91.8123 15.6927 92.2118 15.3709 92.6535 15.1028C93.095 14.8359 93.5749 14.6274 94.0927 14.4776C94.6097 14.329 95.1556 14.2539 95.73 14.2539C96.2539 14.2539 96.7619 14.3225 97.2539 14.4591C97.7462 14.5962 98.2088 14.789 98.6408 15.0379C99.0727 15.2863 99.4688 15.5853 99.8289 15.9338C100.189 16.2819 100.498 16.663 100.757 17.0766C101.015 17.4905 101.216 17.9317 101.358 18.4015C101.5 18.8717 101.571 19.355 101.571 19.8527C101.571 20.1764 101.566 20.4408 101.556 20.6462C101.547 20.8513 101.498 21.0146 101.41 21.1357C101.321 21.2568 101.174 21.3409 100.969 21.3881C100.764 21.4341 100.463 21.4575 100.066 21.4575H93.2498C93.3127 21.8556 93.4408 22.1886 93.6332 22.4562C93.8259 22.724 94.0482 22.9364 94.3003 23.0954C94.5528 23.2539 94.8216 23.3677 95.1051 23.4357C95.3894 23.5046 95.6574 23.5383 95.9098 23.5383C96.1367 23.5383 96.3702 23.515 96.61 23.4686C96.8501 23.4217 97.0819 23.3596 97.3062 23.2817C97.5299 23.2042 97.735 23.114 97.9216 23.0111C98.1072 22.9086 98.2577 22.8009 98.3711 22.6894C98.4722 22.6085 98.5587 22.548 98.6313 22.5076C98.704 22.4671 98.7809 22.4466 98.8634 22.4466C98.9452 22.4466 99.0288 22.4747 99.1138 22.5309C99.1994 22.5865 99.2956 22.6675 99.4027 22.7734L100.406 23.8932C100.475 23.9739 100.52 24.0472 100.539 24.1124C100.558 24.1776 100.567 24.2445 100.567 24.3127C100.567 24.4381 100.532 24.5449 100.463 24.6351C100.393 24.7255 100.311 24.8045 100.217 24.8728ZM95.6634 17.0999C95.4175 17.0999 95.1792 17.148 94.9488 17.2449C94.7188 17.3408 94.5025 17.4703 94.3003 17.6319C94.0984 17.794 93.9172 17.977 93.7564 18.1824C93.5955 18.3875 93.4643 18.5963 93.3638 18.8079H98.2005C98.0678 18.5651 97.9245 18.3409 97.7697 18.1354C97.6155 17.9303 97.4383 17.7499 97.2398 17.5951C97.0408 17.4391 96.8139 17.3177 96.5586 17.2306C96.3027 17.1438 96.0046 17.0999 95.6634 17.0999ZM104.596 14.6086C104.596 14.03 104.722 13.4859 104.974 12.9756C105.227 12.4656 105.564 12.0194 105.987 11.6364C106.41 11.2536 106.895 10.9521 107.445 10.7315C107.994 10.5107 108.568 10.4005 109.168 10.4005H109.357C109.571 10.4005 109.737 10.4643 109.854 10.5913C109.971 10.7189 110.029 10.8948 110.029 11.119V12.9009C110.029 13.131 109.967 13.3224 109.844 13.475C109.722 13.627 109.559 13.7032 109.357 13.7032H109.168C109.035 13.7032 108.909 13.727 108.789 13.7734C108.669 13.8198 108.562 13.8841 108.467 13.9648C108.372 14.046 108.297 14.1407 108.24 14.2494C108.183 14.3585 108.155 14.4779 108.155 14.6086V15.6814H109.641C109.855 15.6814 110.021 15.7393 110.138 15.8542C110.254 15.9695 110.313 16.1513 110.313 16.4V18.1079C110.313 18.3751 110.254 18.5713 110.138 18.6955C110.021 18.8202 109.855 18.8823 109.641 18.8823H108.155V25.5728C108.155 25.8091 108.074 25.9878 107.913 26.1095C107.752 26.2306 107.577 26.2913 107.388 26.2913H105.343C105.116 26.2913 104.935 26.221 104.799 26.0811C104.663 25.9414 104.596 25.7717 104.596 25.5728V18.8823H103.62C103.399 18.8823 103.222 18.8202 103.085 18.6955C102.95 18.5713 102.882 18.3751 102.882 18.1079V16.4C102.882 16.1513 102.95 15.9695 103.085 15.8542C103.222 15.7393 103.399 15.6814 103.62 15.6814H104.596V14.6086ZM111.383 20.3753C111.383 19.8035 111.457 19.2524 111.605 18.7236C111.753 18.1947 111.961 17.7049 112.23 17.2539C112.498 16.8029 112.82 16.3924 113.196 16.0223C113.571 15.6525 113.989 15.3364 114.449 15.075C114.91 14.814 115.407 14.6116 115.941 14.4686C116.474 14.3256 117.03 14.2539 117.611 14.2539C118.469 14.2539 119.276 14.4116 120.03 14.7252C120.784 15.0396 121.44 15.4715 121.999 16.0223C122.557 16.5728 122.999 17.2196 123.324 17.9632C123.649 18.7064 123.811 19.5107 123.811 20.3753C123.811 20.9477 123.737 21.4965 123.589 22.022C123.441 22.5478 123.232 23.0381 122.964 23.4919C122.696 23.946 122.374 24.358 121.999 24.7284C121.623 25.0984 121.205 25.4154 120.744 25.6804C120.284 25.9445 119.79 26.1483 119.263 26.2913C118.736 26.4343 118.185 26.506 117.611 26.506C117.03 26.506 116.474 26.4343 115.941 26.2913C115.407 26.1483 114.91 25.9445 114.449 25.6804C113.989 25.4154 113.571 25.0984 113.196 24.7284C112.82 24.358 112.498 23.946 112.23 23.4919C111.961 23.0381 111.753 22.5478 111.605 22.022C111.457 21.4965 111.383 20.9477 111.383 20.3753ZM114.838 20.3753C114.838 20.7859 114.902 21.17 115.032 21.5277C115.161 21.8852 115.344 22.1945 115.581 22.4562C115.818 22.7172 116.105 22.924 116.442 23.0766C116.78 23.2289 117.16 23.3051 117.583 23.3051C117.993 23.3051 118.364 23.2289 118.695 23.0766C119.026 22.924 119.307 22.7172 119.537 22.4562C119.768 22.1945 119.945 21.8852 120.068 21.5277C120.191 21.17 120.252 20.7859 120.252 20.3753C120.252 19.9771 120.191 19.5975 120.068 19.2367C119.945 18.8759 119.768 18.5586 119.537 18.2849C119.307 18.0118 119.026 17.7954 118.695 17.6369C118.364 17.4779 117.993 17.3986 117.583 17.3986C117.16 17.3986 116.78 17.4779 116.442 17.6369C116.105 17.7954 115.818 18.0118 115.581 18.2849C115.344 18.5586 115.161 18.8759 115.032 19.2367C114.902 19.5975 114.838 19.9771 114.838 20.3753ZM125.486 18.7236C125.338 19.2524 125.264 19.8035 125.264 20.3753C125.264 20.9477 125.338 21.4965 125.486 22.022C125.634 22.5478 125.842 23.0381 126.111 23.4919C126.379 23.946 126.7 24.358 127.076 24.7284C127.452 25.0984 127.87 25.4154 128.33 25.6804C128.791 25.9445 129.288 26.1483 129.821 26.2913C130.355 26.4343 130.911 26.506 131.492 26.506C132.066 26.506 132.617 26.4343 133.144 26.2913C133.67 26.1483 134.165 25.9445 134.625 25.6804C135.086 25.4154 135.504 25.0984 135.879 24.7284C136.254 24.358 136.577 23.946 136.845 23.4919C137.113 23.0381 137.322 22.5478 137.47 22.022C137.618 21.4965 137.692 20.9477 137.692 20.3753C137.692 19.5107 137.53 18.7064 137.205 17.9632C136.88 17.2196 136.438 16.5728 135.879 16.0223C135.321 15.4715 134.665 15.0396 133.91 14.7252C133.156 14.4116 132.35 14.2539 131.492 14.2539C130.911 14.2539 130.355 14.3256 129.821 14.4686C129.288 14.6116 128.791 14.814 128.33 15.075C127.87 15.3364 127.452 15.6525 127.076 16.0223C126.7 16.3924 126.379 16.8029 126.111 17.2539C125.842 17.7049 125.634 18.1947 125.486 18.7236ZM128.913 21.5277C128.783 21.17 128.719 20.7859 128.719 20.3753C128.719 19.9771 128.783 19.5975 128.913 19.2367C129.042 18.8759 129.225 18.5586 129.462 18.2849C129.698 18.0118 129.985 17.7954 130.323 17.6369C130.661 17.4779 131.041 17.3986 131.464 17.3986C131.874 17.3986 132.245 17.4779 132.576 17.6369C132.907 17.7954 133.188 18.0118 133.418 18.2849C133.649 18.5586 133.825 18.8759 133.949 19.2367C134.072 19.5975 134.133 19.9771 134.133 20.3753C134.133 20.7859 134.072 21.17 133.949 21.5277C133.825 21.8852 133.649 22.1945 133.418 22.4562C133.188 22.7172 132.907 22.924 132.576 23.0766C132.245 23.2289 131.874 23.3051 131.464 23.3051C131.041 23.3051 130.661 23.2289 130.323 23.0766C129.985 22.924 129.698 22.7172 129.462 22.4562C129.225 22.1945 129.042 21.8852 128.913 21.5277ZM148.126 25.1249C147.955 25.2929 147.761 25.4592 147.543 25.6242C147.325 25.7891 147.089 25.9367 146.833 26.0671C146.578 26.1977 146.304 26.3037 146.01 26.3846C145.717 26.4652 145.406 26.5057 145.077 26.5057C144.219 26.5057 143.429 26.3472 142.706 26.0302C141.984 25.7127 141.362 25.2788 140.842 24.7284C140.321 24.1776 139.914 23.5293 139.62 22.783C139.327 22.0361 139.18 21.2338 139.18 20.3753C139.18 19.5107 139.327 18.7064 139.62 17.9635C139.914 17.2196 140.321 16.5728 140.842 16.0223C141.362 15.4715 141.984 15.0396 142.706 14.7252C143.429 14.4113 144.219 14.2542 145.077 14.2542C145.424 14.2542 145.742 14.2837 146.029 14.3424C146.316 14.4017 146.578 14.4874 146.815 14.5996C147.051 14.7111 147.269 14.8449 147.468 15.0003C147.667 15.1562 147.854 15.3271 148.031 15.5139V11.6223C148.031 11.4237 148.092 11.2556 148.216 11.119C148.339 10.9819 148.523 10.9134 148.769 10.9134H150.899C150.981 10.9134 151.068 10.9308 151.16 10.9651C151.251 10.9991 151.335 11.0474 151.41 11.1095C151.486 11.1719 151.548 11.2466 151.595 11.3335C151.642 11.4206 151.666 11.5167 151.666 11.6223V25.5728C151.666 26.0522 151.41 26.2913 150.899 26.2913H149.044C148.917 26.2913 148.82 26.2758 148.751 26.2449C148.681 26.2135 148.622 26.1688 148.575 26.1095C148.528 26.0502 148.485 25.9755 148.447 25.8852C148.409 25.795 148.362 25.6914 148.305 25.5728L148.126 25.1249ZM142.588 20.3753C142.588 20.7859 142.653 21.17 142.782 21.5277C142.911 21.8854 143.096 22.1948 143.336 22.4562C143.576 22.7172 143.864 22.924 144.202 23.0769C144.539 23.2289 144.913 23.3051 145.323 23.3051C145.728 23.3051 146.108 23.234 146.464 23.0904C146.821 22.9474 147.132 22.7501 147.397 22.4983C147.661 22.2462 147.875 21.9492 148.035 21.607C148.197 21.2647 148.286 20.898 148.305 20.5057V20.3753C148.305 19.9771 148.23 19.5978 148.078 19.2367C147.927 18.8759 147.717 18.5589 147.449 18.2849C147.18 18.0115 146.865 17.7951 146.502 17.6367C146.139 17.4782 145.746 17.3989 145.323 17.3989C144.913 17.3989 144.539 17.4782 144.202 17.6367C143.864 17.7951 143.576 18.0115 143.336 18.2849C143.096 18.5589 142.911 18.8759 142.782 19.2367C142.653 19.5978 142.588 19.9771 142.588 20.3753Z" fill="white"/>
</mask>
<g mask="url(#mask0_0_45538)">
<rect width="156" height="39" fill="white"/>
</g>
</g>
</svg>
