<svg width="128" height="32" viewBox="0 0 128 32" fill="none" xmlns="http://www.w3.org/2000/svg">
<g opacity="0.25">
<path fill-rule="evenodd" clip-rule="evenodd" d="M114.975 10.344C114.975 11.4257 114.119 12.3272 113.038 12.3272C111.91 12.3272 111.054 11.4257 111.054 10.344C111.054 9.26284 111.91 8.36133 113.038 8.36133C114.119 8.36133 114.975 9.26284 114.975 10.344ZM113.038 8.6768C112.091 8.6768 111.37 9.44303 111.37 10.344C111.37 11.2455 112.091 11.9668 113.038 11.9668C113.939 11.9668 114.66 11.2455 114.66 10.344C114.66 9.44303 113.939 8.6768 113.038 8.6768ZM29.6642 15.6172C29.6642 19.4029 26.3742 21.6561 21.7774 21.6561C17.2261 21.6561 13.9361 19.4029 13.9361 15.6172C13.9361 11.8315 17.2261 9.57832 21.7774 9.57832C26.3742 9.57832 29.6642 11.8315 29.6642 15.6172ZM24.9321 15.6172C24.9321 13.3185 23.7606 11.9213 21.7774 11.9213C19.8397 11.9213 18.6682 13.3185 18.6682 15.6172C18.6682 17.8704 19.8397 19.3125 21.7774 19.3125C23.7606 19.3125 24.9321 17.8704 24.9321 15.6172ZM106.322 13.003H111.099C110.874 10.3894 107.224 9.62322 104.385 9.62322C101.591 9.62322 97.8949 10.5696 97.8949 13.364C97.8949 15.437 99.9231 16.068 101.365 16.3834C102.357 16.5636 104.024 16.8791 104.835 17.0593C106.007 17.2844 106.638 17.51 106.638 18.2308C106.638 18.9521 105.962 19.3125 104.565 19.3125C103.258 19.3125 102.447 18.9072 102.222 18.0057H97.3544C97.6249 21.07 101.545 21.701 104.655 21.701C107.765 21.701 111.505 20.9802 111.505 17.9608C111.505 16.293 110.423 15.2113 107.81 14.6708C106.458 14.4002 104.565 14.0398 103.844 13.9045C102.852 13.7693 102.537 13.4089 102.537 12.9132C102.537 12.4625 102.987 11.9213 104.34 11.9213C105.466 11.9213 106.097 12.2823 106.322 13.003ZM30.7004 9.98359H35.3876V18.7264H41.2912V21.2502H30.7004V9.98359ZM13.8008 26.8389L62.7883 28.1002L62.9459 28.0962L63.1037 28.1002L112.181 26.8389V26.2529L63.1037 24.991L62.9459 24.9951L62.7883 24.991L13.8008 26.2529V26.8389ZM83.3838 17.5998C83.3838 20.6193 86.4481 21.701 90.0985 21.701C93.7489 21.701 96.8138 20.6193 96.8138 17.5998V9.98359H92.2619V17.2395C92.2619 18.6815 91.2251 19.3125 90.0985 19.3125C88.927 19.3125 87.8902 18.6815 87.8902 17.2395V9.98359H83.3838V17.5998ZM82.5272 13.5891C82.5272 14.9413 81.6711 17.1042 78.2913 17.1042H73.649V21.2502H69.2324L69.1875 9.98359H78.2913C81.8064 9.98359 82.5272 12.3272 82.5272 13.5891ZM73.649 12.4625V14.6259H76.6236C77.6604 14.6259 78.0208 14.1296 78.0208 13.4987C78.0208 12.7779 77.3898 12.4625 76.6236 12.4625H73.649ZM46.9248 10.2542L47.0601 9.98359H51.7467L46.8344 17.4646V21.2502H42.4178V17.4646L37.551 9.98359H42.1927L42.328 10.2542L44.4459 13.9944C44.536 14.1072 44.5811 14.1636 44.6261 14.1636C44.6712 14.1636 44.7162 14.1072 44.8063 13.9944L46.9248 10.2542ZM61.2109 21.0251L61.1205 21.2502H58.6871L58.5967 21.0251L56.2082 15.437C56.1633 15.3017 56.028 15.3466 56.028 15.4819V21.2502H52.1975V9.98359H56.8392L56.9296 10.2542L59.7688 16.6989C59.8586 16.924 59.949 16.924 60.0843 16.6989L62.9235 10.2542L63.0133 9.98359H67.6551V21.2502H63.8245V15.4819C63.8245 15.3466 63.6892 15.3017 63.5994 15.437L61.2109 21.0251ZM114.029 9.80341C114.029 9.39813 113.758 9.17246 113.218 9.17246H112.181V11.4257H112.587V10.4344H113.127L113.578 11.4257H114.029L113.488 10.4344C113.849 10.344 114.029 10.1638 114.029 9.80341ZM112.587 9.48793H113.218C113.488 9.48793 113.623 9.62322 113.623 9.80341C113.623 10.0285 113.488 10.1189 113.218 10.1189H112.587V9.48793Z" fill="white"/>
<mask id="mask0_0_52103" style="mask-type:alpha" maskUnits="userSpaceOnUse" x="13" y="8" width="102" height="21">
<path fill-rule="evenodd" clip-rule="evenodd" d="M114.975 10.344C114.975 11.4257 114.119 12.3272 113.038 12.3272C111.91 12.3272 111.054 11.4257 111.054 10.344C111.054 9.26284 111.91 8.36133 113.038 8.36133C114.119 8.36133 114.975 9.26284 114.975 10.344ZM113.038 8.6768C112.091 8.6768 111.37 9.44303 111.37 10.344C111.37 11.2455 112.091 11.9668 113.038 11.9668C113.939 11.9668 114.66 11.2455 114.66 10.344C114.66 9.44303 113.939 8.6768 113.038 8.6768ZM29.6642 15.6172C29.6642 19.4029 26.3742 21.6561 21.7774 21.6561C17.2261 21.6561 13.9361 19.4029 13.9361 15.6172C13.9361 11.8315 17.2261 9.57832 21.7774 9.57832C26.3742 9.57832 29.6642 11.8315 29.6642 15.6172ZM24.9321 15.6172C24.9321 13.3185 23.7606 11.9213 21.7774 11.9213C19.8397 11.9213 18.6682 13.3185 18.6682 15.6172C18.6682 17.8704 19.8397 19.3125 21.7774 19.3125C23.7606 19.3125 24.9321 17.8704 24.9321 15.6172ZM106.322 13.003H111.099C110.874 10.3894 107.224 9.62322 104.385 9.62322C101.591 9.62322 97.8949 10.5696 97.8949 13.364C97.8949 15.437 99.9231 16.068 101.365 16.3834C102.357 16.5636 104.024 16.8791 104.835 17.0593C106.007 17.2844 106.638 17.51 106.638 18.2308C106.638 18.9521 105.962 19.3125 104.565 19.3125C103.258 19.3125 102.447 18.9072 102.222 18.0057H97.3544C97.6249 21.07 101.545 21.701 104.655 21.701C107.765 21.701 111.505 20.9802 111.505 17.9608C111.505 16.293 110.423 15.2113 107.81 14.6708C106.458 14.4002 104.565 14.0398 103.844 13.9045C102.852 13.7693 102.537 13.4089 102.537 12.9132C102.537 12.4625 102.987 11.9213 104.34 11.9213C105.466 11.9213 106.097 12.2823 106.322 13.003ZM30.7004 9.98359H35.3876V18.7264H41.2912V21.2502H30.7004V9.98359ZM13.8008 26.8389L62.7883 28.1002L62.9459 28.0962L63.1037 28.1002L112.181 26.8389V26.2529L63.1037 24.991L62.9459 24.9951L62.7883 24.991L13.8008 26.2529V26.8389ZM83.3838 17.5998C83.3838 20.6193 86.4481 21.701 90.0985 21.701C93.7489 21.701 96.8138 20.6193 96.8138 17.5998V9.98359H92.2619V17.2395C92.2619 18.6815 91.2251 19.3125 90.0985 19.3125C88.927 19.3125 87.8902 18.6815 87.8902 17.2395V9.98359H83.3838V17.5998ZM82.5272 13.5891C82.5272 14.9413 81.6711 17.1042 78.2913 17.1042H73.649V21.2502H69.2324L69.1875 9.98359H78.2913C81.8064 9.98359 82.5272 12.3272 82.5272 13.5891ZM73.649 12.4625V14.6259H76.6236C77.6604 14.6259 78.0208 14.1296 78.0208 13.4987C78.0208 12.7779 77.3898 12.4625 76.6236 12.4625H73.649ZM46.9248 10.2542L47.0601 9.98359H51.7467L46.8344 17.4646V21.2502H42.4178V17.4646L37.551 9.98359H42.1927L42.328 10.2542L44.4459 13.9944C44.536 14.1072 44.5811 14.1636 44.6261 14.1636C44.6712 14.1636 44.7162 14.1072 44.8063 13.9944L46.9248 10.2542ZM61.2109 21.0251L61.1205 21.2502H58.6871L58.5967 21.0251L56.2082 15.437C56.1633 15.3017 56.028 15.3466 56.028 15.4819V21.2502H52.1975V9.98359H56.8392L56.9296 10.2542L59.7688 16.6989C59.8586 16.924 59.949 16.924 60.0843 16.6989L62.9235 10.2542L63.0133 9.98359H67.6551V21.2502H63.8245V15.4819C63.8245 15.3466 63.6892 15.3017 63.5994 15.437L61.2109 21.0251ZM114.029 9.80341C114.029 9.39813 113.758 9.17246 113.218 9.17246H112.181V11.4257H112.587V10.4344H113.127L113.578 11.4257H114.029L113.488 10.4344C113.849 10.344 114.029 10.1638 114.029 9.80341ZM112.587 9.48793H113.218C113.488 9.48793 113.623 9.62322 113.623 9.80341C113.623 10.0285 113.488 10.1189 113.218 10.1189H112.587V9.48793Z" fill="white"/>
</mask>
<g mask="url(#mask0_0_52103)">
<rect width="128" height="32" fill="#122E45"/>
</g>
</g>
</svg>
