<svg width="124" height="36" viewBox="0 0 124 36" fill="none" xmlns="http://www.w3.org/2000/svg">
<g opacity="0.25" filter="url(#filter0_d_0_45297)">
<path fill-rule="evenodd" clip-rule="evenodd" d="M40.6313 10.9548H39.2663V5.58141H22.9169C22.9002 5.77357 22.8932 5.96647 22.8959 6.15936C22.9114 6.40378 22.7948 6.49524 22.5778 6.49682H21.5426V4.14089H21.9051C27.9833 4.14089 34.0615 4.13852 40.1397 4.13379C40.5224 4.13379 40.646 4.22998 40.6414 4.63841C40.6247 6.09255 40.6271 7.54669 40.6295 9.00084C40.6304 9.51786 40.6313 10.0349 40.6313 10.5519V10.9548ZM17.3689 8.24116L17.3688 8.24116C17.3201 8.24448 17.2714 8.2478 17.2227 8.25044L17.225 27.0979H36.5489V8.2264H36.1137H17.694C17.5856 8.2264 17.4773 8.23378 17.3689 8.24116ZM28.9742 19.9741C28.9223 19.9268 28.8658 19.8752 28.8028 19.8164C28.7995 19.8839 28.7963 19.9433 28.7933 19.997V19.997C28.7863 20.1228 28.7811 20.2174 28.7816 20.312C28.781 20.5253 28.7797 20.7386 28.7784 20.9519C28.7744 21.5918 28.7704 22.2317 28.7863 22.8716C28.7942 23.1965 28.674 23.4913 28.4171 23.5743C28.1218 23.6704 27.7235 23.7682 27.4879 23.3897C27.4095 23.2716 27.363 23.1357 27.3528 22.9949C27.3423 21.122 27.337 19.2492 27.337 17.3763C27.3365 15.9042 27.3399 14.4321 27.3473 12.96C27.3655 12.5883 27.6532 12.2842 28.0275 12.241C28.2852 12.2216 28.7541 12.6621 28.7753 12.9452C28.7854 13.0733 28.7947 13.2052 28.8084 13.4004L28.8091 13.4106C28.8954 13.3344 28.975 13.2621 29.0509 13.1933C29.2044 13.0539 29.3425 12.9286 29.4886 12.8134C30.0628 12.362 30.7258 12.075 31.4485 12.2573C32.0423 12.4062 32.5553 12.7785 33.0266 13.188C33.2648 13.3959 33.5089 13.5977 33.753 13.7996L33.7531 13.7997L33.7541 13.8005L33.7545 13.8008L33.7548 13.801L33.7551 13.8013C33.8572 13.8857 33.9594 13.9702 34.0611 14.0551C34.2716 14.2312 34.3628 14.453 34.4617 14.7152C34.7657 15.5183 34.7142 16.3353 34.663 17.1465C34.6469 17.4023 34.6308 17.6575 34.6259 17.9115C34.611 18.66 32.8436 20.1771 32.5333 20.4183C32.2426 20.644 31.9528 20.8681 31.5427 20.8472C31.163 20.8857 30.9288 20.8857 30.443 20.8472C29.9573 20.8087 29.5695 20.5703 29.2396 20.2267C29.1612 20.1447 29.077 20.0679 28.9742 19.9741ZM88.2179 17.1026C87.5144 17.4814 86.8405 17.4512 86.1858 17.4219C85.9427 17.4111 85.7022 17.4003 85.4639 17.4107C84.8512 17.4373 84.2327 17.431 83.615 17.4247C83.3453 17.422 83.0758 17.4192 82.8069 17.4192C82.5682 17.9687 82.9055 18.2675 83.2261 18.5514C83.2577 18.5794 83.2891 18.6072 83.3198 18.6352C83.4766 18.7692 83.6728 18.8491 83.8789 18.8629C84.2108 18.8795 84.5427 18.8785 84.8746 18.8775C85.1692 18.8766 85.4637 18.8757 85.7583 18.8871C86.3199 18.9067 86.8816 18.9411 87.4412 18.9754L87.4412 18.9754L87.4413 18.9754L87.4414 18.9754L87.4414 18.9754L87.4415 18.9754L87.4416 18.9754L87.4416 18.9754L87.4417 18.9754L87.4418 18.9754L87.4422 18.9755C87.6625 18.989 87.8825 19.0025 88.102 19.015L88.099 19.0357L88.0945 19.068L88.0942 19.07L88.0898 19.1011L88.0863 19.125L88.3886 19.7404C88.3818 19.7434 88.3697 19.7469 88.3554 19.7509C88.3151 19.7624 88.2574 19.7788 88.2516 19.8059C88.1573 20.2821 87.819 20.2746 87.4824 20.2671C87.4387 20.2661 87.395 20.2652 87.3518 20.2653C86.9885 20.2653 86.6251 20.263 86.2617 20.2607H86.2616C85.3852 20.2552 84.5087 20.2497 83.6331 20.2762C83.0911 20.2927 82.73 20.0079 82.3621 19.7178L82.3175 19.6826C82.0946 19.5096 81.9013 19.3018 81.7451 19.0673L81.7279 19.0409C81.5657 18.792 81.3799 18.5069 81.3708 18.2327C81.3301 17.0129 81.3324 15.7899 81.3637 14.567C81.3778 14.007 81.7412 13.5835 82.1648 13.2598C82.523 12.9864 82.9119 12.7518 83.3 12.5177L83.3032 12.5158C83.3901 12.4634 83.4769 12.411 83.5634 12.3582C83.6283 12.3181 83.7245 12.3193 83.8145 12.3204H83.8145H83.8146C83.833 12.3206 83.8512 12.3209 83.8688 12.3207C84.1904 12.3181 84.5123 12.319 84.8342 12.3199H84.8342H84.8343H84.8344H84.8344H84.8345H84.8346H84.8346C84.9954 12.3203 85.1561 12.3207 85.3167 12.3207C86.0731 12.3137 86.7183 12.5617 87.2352 13.1233C87.2915 13.1686 87.354 13.2056 87.4207 13.2333C87.8272 13.4673 88.0206 13.8315 88.178 14.2745C88.3315 14.7212 88.3933 15.1942 88.3596 15.6651C88.3395 16.0129 88.3003 16.3599 88.2633 16.6874L88.2632 16.6875L88.2632 16.688L88.2631 16.6885C88.2471 16.8308 88.2314 16.9693 88.2179 17.1026ZM82.7506 16.0278C83.0253 16.0278 83.2974 16.028 83.5675 16.0282H83.5677C84.6376 16.0289 85.6751 16.0297 86.7136 16.0185C86.8271 15.992 86.9189 15.9092 86.9564 15.7993L86.9609 15.7511C87.0132 15.197 87.0667 14.6305 86.5234 14.2394C86.4494 14.186 86.3755 14.1215 86.3012 14.0566C86.1248 13.9025 85.9466 13.7468 85.7614 13.7363C85.6424 13.7297 85.5225 13.7208 85.4023 13.7119C84.604 13.6525 83.7898 13.592 83.1045 14.1872L83.1009 14.1903C82.9628 14.31 82.7825 14.4661 82.767 14.62C82.7341 14.9382 82.7397 15.2599 82.7457 15.6018V15.6024V15.603V15.6036V15.6042V15.6048V15.6054V15.606V15.6067C82.7481 15.7435 82.7506 15.8835 82.7506 16.0278ZM97.2055 17.4299C97.7489 17.4492 98.2994 17.4686 98.826 17.1106L98.8262 16.5049V16.5045V16.5041V16.5036V16.5032V16.5027V16.5022V16.5018V16.5013C98.8266 15.7449 98.827 14.9616 98.822 14.1777C98.8068 14.0955 98.7644 14.0207 98.7014 13.9652C98.439 13.6935 98.1735 13.4241 97.9017 13.1617C97.373 12.651 96.759 12.3294 96.0024 12.3333C95.854 12.334 95.7049 12.3301 95.5558 12.3262C95.2326 12.3177 94.9093 12.3092 94.5925 12.3481C94.2505 12.3957 93.9215 12.5111 93.6252 12.6876C93.2481 12.9139 92.8986 13.1827 92.5835 13.4887C92.3603 13.7028 92.0689 13.9924 92.0595 14.2571C92.0152 15.4617 92.025 16.6663 92.0348 17.8699C92.0366 18.093 92.0384 18.3162 92.0399 18.5392C92.054 18.6541 92.1054 18.7613 92.1864 18.8444C92.4347 19.1448 92.7018 19.4292 92.9861 19.6962C93.0273 19.7325 93.0678 19.7697 93.1082 19.8069L93.1083 19.807L93.1085 19.8072L93.109 19.8076C93.3763 20.0533 93.6422 20.2977 94.0881 20.2754C94.6546 20.2464 95.2218 20.2538 95.7892 20.2611C96.044 20.2644 96.2989 20.2677 96.5538 20.2677C96.6926 20.2673 96.8315 20.268 96.9705 20.2686H96.9706H96.9707H96.9708L96.9716 20.2686C97.4457 20.2708 97.9203 20.273 98.3913 20.2357C98.551 20.2225 98.786 20.0154 98.8205 19.8597C98.8714 19.6308 98.8565 19.2291 98.7226 19.1512C98.4296 18.9799 98.0451 18.9091 97.695 18.8982C97.1025 18.8803 96.5095 18.8815 95.9164 18.8827H95.9163C95.4524 18.8836 94.9884 18.8846 94.5244 18.8764C93.6769 18.8616 93.2665 18.2878 93.4834 17.4267C93.8025 17.4267 94.122 17.4277 94.4419 17.4287C95.2112 17.4311 95.9829 17.4336 96.7574 17.422C96.9058 17.4193 97.0554 17.4246 97.2055 17.4299ZM97.4573 15.6749L97.4573 15.6765C97.4563 15.7939 97.4553 15.9152 97.4553 16.0424C97.1976 16.0424 96.943 16.0426 96.691 16.0427H96.6908C95.6539 16.0435 94.6605 16.0442 93.6706 16.0323C93.5868 16.0307 93.4419 15.875 93.4357 15.7839C93.4315 15.7177 93.4263 15.6507 93.4211 15.5835L93.4209 15.5814C93.3957 15.2564 93.3699 14.9238 93.456 14.627C93.5304 14.3693 93.8093 14.1256 94.0568 13.9699C94.6748 13.5828 95.3721 13.6568 96.0413 13.7278L96.0415 13.7278C96.1423 13.7385 96.2424 13.7491 96.3415 13.7581C96.667 13.7873 96.9882 14.0889 97.2697 14.3533L97.2705 14.3541C97.3037 14.3853 97.3363 14.4159 97.3684 14.4456C97.4573 14.5273 97.4557 14.7144 97.4543 14.8876V14.8877V14.8878V14.8879V14.888V14.8881V14.8882V14.8883V14.8884C97.4539 14.9378 97.4536 14.986 97.4553 15.0303C97.4609 15.2401 97.4592 15.4503 97.4573 15.6749ZM43.7985 14.9881V14.988C43.8019 14.7251 43.8051 14.4761 43.79 14.2287C43.7751 13.9852 43.3259 13.7153 42.9556 13.7114C42.5865 13.7078 42.2175 13.7075 41.8485 13.7073H41.8485H41.8485H41.8484H41.8484H41.8484H41.8484H41.8481C41.4236 13.707 40.9992 13.7067 40.575 13.7013C40.1844 13.7013 39.8718 13.468 39.8523 13.1039C39.8437 12.9258 39.9601 12.6614 40.1039 12.5758C40.3558 12.4323 40.6382 12.3502 40.9281 12.3362C41.3467 12.3142 41.7662 12.3181 42.1859 12.3221H42.186H42.1861H42.1862H42.1863H42.1864H42.1865H42.1867C42.4044 12.3241 42.6222 12.3261 42.8399 12.3246C43.3962 12.3246 43.9275 12.4537 44.3588 12.7866C44.8275 13.1498 45.2244 13.5893 45.2057 14.2598C45.1908 14.8042 45.2002 15.3487 45.226 15.8932C45.2508 16.4268 45.2815 16.9601 45.3123 17.4933C45.3503 18.1525 45.3883 18.8116 45.4151 19.4712C45.4416 20.1082 45.0049 20.4224 44.4103 20.2117C44.2631 20.157 44.1432 20.0469 44.0767 19.9052C43.986 19.6508 43.8046 19.7249 43.6782 19.7764L43.6658 19.7815C43.5349 19.8337 43.4146 19.9106 43.2936 19.9879L43.2936 19.9879C43.2108 20.0407 43.1277 20.0938 43.0407 20.1393C42.9412 20.1951 42.8298 20.2266 42.7157 20.2311C42.531 20.232 42.3463 20.2336 42.1616 20.2351H42.1615H42.1615H42.1614H42.1614H42.1613H42.1612H42.1612C41.4224 20.2412 40.6835 20.2473 39.9461 20.2155C39.5137 20.1969 39.2345 19.8704 38.9749 19.5668C38.9414 19.5276 38.9081 19.4887 38.8749 19.4509C38.2718 18.761 38.3202 17.8906 38.4491 17.0833C38.5466 16.4741 38.9216 15.9441 39.4648 15.6474C39.7743 15.4806 40.1173 15.3844 40.4687 15.3658C41.17 15.3384 41.8736 15.342 42.5759 15.3456H42.576C42.8494 15.347 43.1227 15.3484 43.3954 15.3479L43.7955 15.3464C43.7955 15.2239 43.797 15.1053 43.7985 14.9893V14.9891V14.9889V14.9887V14.9885V14.9883V14.9881ZM41.929 16.7309H40.7969C40.1351 16.7356 39.8125 17.0584 39.8117 17.7133C39.8117 17.7734 39.8106 17.8336 39.8096 17.8939L39.8096 17.894C39.807 18.0412 39.8044 18.1888 39.8172 18.3356C39.8429 18.6233 39.9929 18.8295 40.3 18.8435C40.3965 18.848 40.4931 18.853 40.5898 18.8581L40.5899 18.8581C41.6433 18.9131 42.6995 18.9682 43.6462 18.3356C43.6668 18.3218 43.6885 18.3079 43.7106 18.2938C43.8285 18.2182 43.9583 18.1351 43.9978 18.0244C44.1814 17.5196 43.7462 16.6897 43.1767 16.7255C42.8884 16.7438 42.5989 16.7393 42.3105 16.7349C42.1831 16.7329 42.0558 16.7309 41.929 16.7309ZM65.1513 14.033C65.2414 14.4307 65.3408 14.8571 65.462 15.3765C65.1775 15.3765 64.9068 15.3773 64.6458 15.3782H64.6457C64.0459 15.3801 63.4974 15.3818 62.9508 15.3726C62.1818 15.3571 61.4384 15.3664 60.751 15.816C60.3921 16.0502 60.0907 16.3843 60.0682 16.723C60.0573 16.8813 60.0414 17.0406 60.0254 17.2004C59.9547 17.9073 59.883 18.6246 60.2422 19.3069C60.5187 19.8309 60.9599 20.1798 61.5176 20.2278C62.3566 20.2891 63.1987 20.293 64.0382 20.2395C64.3326 20.2247 64.6456 20.0674 64.902 19.9022C65.2181 19.6976 65.4838 19.7154 65.6391 20.041L65.6401 20.043C65.6665 20.0981 65.7072 20.1829 65.7486 20.1867C65.8088 20.1925 65.8705 20.2009 65.9326 20.2094C66.1311 20.2366 66.3336 20.2644 66.5029 20.2053C66.6846 20.1418 66.7887 19.91 66.7887 19.6433C66.7762 18.8674 66.7719 18.0914 66.7676 17.3155C66.7626 16.3999 66.7575 15.4843 66.739 14.5687C66.7328 14.2253 66.6745 13.8222 66.4858 13.5547C66.0648 12.9586 65.4783 12.4244 64.7357 12.402C64.504 12.3947 64.2705 12.3787 64.0365 12.3627C63.1669 12.3032 62.289 12.2431 61.4578 12.6291C61.3118 13.402 61.3988 13.7586 62.3596 13.7586C62.5801 13.759 62.8027 13.7458 63.0264 13.7325C63.7347 13.6905 64.4542 13.6477 65.1513 14.033ZM63.0736 16.7618C63.1661 16.7595 63.2585 16.7572 63.3508 16.7572V16.7541C63.4315 16.7542 63.5123 16.7542 63.5931 16.7542C63.9003 16.7542 64.208 16.7542 64.5167 16.7634C65.1536 16.7634 65.643 17.5083 65.3711 18.0812C65.2966 18.2056 65.1869 18.3051 65.0558 18.3673C64.3116 18.7704 63.5302 19.0107 62.668 18.8937C62.5721 18.8809 62.4745 18.8838 62.3772 18.8867C62.28 18.8896 62.1829 18.8925 62.0878 18.8797C62.0447 18.8743 61.997 18.87 61.9477 18.8655C61.7475 18.8473 61.52 18.8266 61.4664 18.7247C61.2706 18.3502 61.1277 17.9494 61.2706 17.4843C61.4625 16.8579 61.8664 16.6928 62.4598 16.7517C62.6624 16.7721 62.8679 16.7669 63.0736 16.7618ZM73.6483 20.2653H73.6486H73.6489C73.8562 20.2673 74.077 20.2694 74.3178 20.2694C74.5624 20.2225 74.8373 20.2383 75.1302 20.2552C75.6213 20.2834 76.1632 20.3145 76.699 20.0582C77.0741 19.8765 77.6925 19.0853 77.6862 18.7072C77.6844 18.5998 77.6892 18.4921 77.6941 18.3843C77.7101 18.0272 77.7263 17.6679 77.5006 17.3087C77.2882 16.9703 77.0978 16.6827 76.729 16.5112C76.5693 16.4369 76.4094 16.3642 76.2496 16.2914C76.0402 16.1962 75.8311 16.1011 75.6233 16.0029C75.4189 15.9063 75.216 15.8076 75.0133 15.709L75.0129 15.7088C74.7692 15.5903 74.5259 15.4719 74.2807 15.3574C74.1396 15.2918 73.9954 15.233 73.851 15.1742L73.8509 15.1741L73.8509 15.1741L73.8508 15.1741L73.8508 15.1741C73.7276 15.1239 73.6044 15.0736 73.483 15.0191C73.225 14.9125 72.9742 14.7898 72.7319 14.6519C72.5574 14.5451 72.341 14.4087 72.2849 14.2403C72.2462 14.1203 72.4239 13.9043 72.5495 13.7726C72.6017 13.7178 72.7253 13.72 72.8325 13.722C72.8518 13.7224 72.8706 13.7227 72.8883 13.7227C73.1226 13.7214 73.3569 13.7251 73.5911 13.7288C74.0677 13.7364 74.5442 13.7439 75.0207 13.7095C75.6304 13.6658 76.0766 13.9332 76.53 14.2551C76.6469 14.3227 76.7779 14.363 76.913 14.3729C76.9588 14.2647 77.0652 14.2339 77.1726 14.2027C77.3115 14.1624 77.4521 14.1217 77.4659 13.9129C77.4975 13.4335 77.0962 12.7334 76.5805 12.5877C76.1261 12.4559 75.6578 12.3758 75.185 12.3491C74.4097 12.309 73.6328 12.309 72.8575 12.3491C72.49 12.3761 72.1313 12.4736 71.8015 12.636C71.4768 12.7927 71.3028 13.0892 71.123 13.3954L71.1229 13.3956C71.0845 13.461 71.0459 13.5268 71.0054 13.5917C70.7107 14.0662 70.8607 14.4402 71.0133 14.8206C71.0512 14.9152 71.0893 15.0102 71.1208 15.1072C71.1776 15.2747 71.2907 15.418 71.4414 15.5134C71.9145 15.7846 72.3978 16.0247 72.897 16.2648C73.3412 16.4785 73.7923 16.678 74.2435 16.8776L74.2436 16.8776L74.2437 16.8776L74.411 16.9516C74.5119 16.9961 74.6151 17.0357 74.7183 17.0754C74.8325 17.1193 74.9467 17.1632 75.0578 17.2136L75.1507 17.2544C75.4993 17.4073 75.8402 17.5568 76.1303 17.8497C76.3617 18.0851 76.3199 18.3213 76.2464 18.5069C76.1825 18.6698 75.9274 18.8592 75.752 18.8639C74.669 18.8898 73.5831 18.8778 72.4984 18.8659L72.3189 18.8639C72.2097 18.8552 72.1071 18.8088 72.029 18.7329C71.5291 18.2403 71.2297 18.2558 70.7906 18.8405C70.7077 18.9512 70.6177 19.1859 70.669 19.2451C71.1452 19.7877 71.6381 20.3131 72.4705 20.2749C72.8433 20.2575 73.2165 20.2611 73.6481 20.2653H73.6482H73.6482H73.6483H73.6483ZM50.5647 13.5476C50.6038 13.5247 50.6428 13.5012 50.6817 13.4776C50.7645 13.4276 50.8475 13.3775 50.9334 13.3331C51.1355 13.2295 51.3255 13.1094 51.5162 12.9887C51.8023 12.8078 52.09 12.6258 52.4225 12.4976C52.9768 12.2838 53.5445 12.2877 54.0617 12.3756C54.7802 12.4976 55.4309 12.8061 55.7356 13.6191C55.8474 13.921 55.9053 14.2397 55.907 14.5611C55.9152 14.9416 55.9163 15.3224 55.9174 15.7031V15.7037C55.9188 16.2037 55.9203 16.7038 55.9378 17.2036C55.9457 17.4222 55.9826 17.6401 56.0193 17.8577C56.059 18.0928 56.0987 18.3276 56.102 18.5629C56.107 18.9438 56.0709 19.3247 56.0345 19.7096C56.0189 19.8745 56.0032 20.04 55.9907 20.2067C55.8784 20.2124 55.7715 20.227 55.67 20.2408C55.3432 20.2854 55.0718 20.3224 54.8537 20.0318C54.7986 19.9698 54.7615 19.8944 54.7463 19.8134C54.6673 18.5435 54.5884 17.2735 54.5244 16.0051C54.5092 15.7049 54.5093 15.4046 54.5094 15.1043C54.5095 14.9383 54.5096 14.7722 54.507 14.6061C54.4999 14.1087 54.1178 13.7512 53.6101 13.724C53.1024 13.6968 52.6689 13.7823 52.2441 14.1398C51.9509 14.3869 51.6079 14.5754 51.2639 14.7645L51.2638 14.7646C51.0613 14.8759 50.8583 14.9875 50.6649 15.1113C50.549 15.2034 50.4782 15.3395 50.4699 15.4859C50.4557 16.8067 50.4539 18.1279 50.4644 19.4497C50.4715 20.1997 50.038 20.3645 49.4592 20.2385C49.2168 20.1857 49.0589 19.9751 49.0589 19.6945V16.6245C49.0589 16.2729 49.0603 15.9214 49.0617 15.5698C49.0648 14.7555 49.068 13.9413 49.0542 13.1271C49.048 12.7547 49.2897 12.597 49.53 12.4402C49.567 12.4161 49.604 12.3919 49.6401 12.367C49.704 12.3235 49.8833 12.3919 49.9812 12.4525C50.357 12.6857 50.5765 13.0113 50.436 13.5072L50.5647 13.5476ZM104.663 13.5302C104.52 13.6484 104.377 13.7666 104.233 13.8832L104.107 13.8575C104.107 13.7475 104.105 13.6375 104.104 13.5274L104.104 13.526C104.1 13.3049 104.097 13.0838 104.107 12.8635C104.116 12.6374 103.97 12.5856 103.822 12.5333C103.725 12.4989 103.627 12.4643 103.573 12.3797C103.551 12.3455 103.299 12.4155 103.186 12.487C102.842 12.7056 102.732 13.0649 102.732 13.4383C102.721 14.9402 102.714 16.4429 102.732 17.9448C102.735 18.1118 102.729 18.2801 102.723 18.4489V18.4491V18.4493C102.701 19.0452 102.68 19.6478 103.046 20.2253L103.061 20.2286C103.09 20.2351 103.15 20.2488 103.213 20.2564C103.787 20.331 104.146 20.2307 104.123 19.4623C104.106 18.8782 104.11 18.2937 104.113 17.7092C104.115 17.2188 104.118 16.7284 104.109 16.2383C104.102 15.9233 104.246 15.7452 104.466 15.5655C104.689 15.3824 104.907 15.1927 105.124 15.0032L105.124 15.0031L105.124 15.003C105.339 14.8159 105.553 14.629 105.773 14.4486L105.795 14.4311C106.292 14.0225 106.78 13.6208 107.519 13.7167C108.076 13.789 108.371 14.013 108.358 14.5723C108.349 14.9238 108.424 15.2116 108.758 15.3796C108.786 15.3933 108.816 15.4092 108.847 15.4257C108.977 15.4954 109.127 15.5748 109.207 15.5352C109.389 15.4442 109.559 15.2941 109.531 15.0016C109.5 14.6835 109.506 14.3614 109.512 14.0396V14.0395V14.0394V14.0393V14.0392C109.515 13.9072 109.517 13.7752 109.517 13.6436C109.517 13.6309 109.517 13.6178 109.518 13.6045C109.518 13.5935 109.519 13.5824 109.519 13.5712C109.522 13.4853 109.526 13.3945 109.484 13.3403C109.088 12.7982 108.484 12.4423 107.814 12.3563C107.412 12.3066 107.004 12.3066 106.602 12.3563C106.316 12.385 106.042 12.4819 105.802 12.6387C105.405 12.9161 105.034 13.2231 104.663 13.5302ZM39.1201 23.2309L39.1194 23.2309C38.9228 23.2295 38.7263 23.2281 38.5299 23.2322C38.2614 23.2399 38.1148 23.1467 38.1441 22.8556C38.1534 22.7635 38.1503 22.6703 38.1472 22.577L38.1472 22.577C38.1457 22.5303 38.1441 22.4836 38.1441 22.437C38.1526 22.0108 38.2907 21.8733 38.7089 21.8725C38.8505 21.8725 38.992 21.873 39.1334 21.8735C39.5047 21.8747 39.8758 21.8759 40.2473 21.8687C40.5096 21.8634 40.6331 21.9298 40.6392 22.2293L40.6396 22.2627C40.6448 22.7405 40.6475 22.9824 40.5278 23.105C40.405 23.2307 40.1535 23.2307 39.644 23.2307L39.4148 23.2322C39.3165 23.2322 39.2183 23.2315 39.1201 23.2309ZM32.074 18.5254C32.5153 18.1856 32.9172 17.876 32.8895 17.1311C32.8895 17.1311 32.8887 15.802 32.8625 15.4349C32.8377 15.2976 32.7672 15.1727 32.6625 15.0804C32.3255 14.7621 31.9786 14.4555 31.622 14.1605C31.2268 13.8337 30.926 13.8266 30.5403 14.1438C30.1491 14.4527 29.7772 14.7853 29.4269 15.1399C29.2438 15.3258 29.1219 15.5632 29.0777 15.8203C29.0293 16.2643 29.046 16.7159 29.0625 17.1654C29.0644 17.2177 29.0663 17.27 29.0682 17.3223C29.0808 17.4553 29.1365 17.5806 29.2269 17.6791C29.5687 18.0771 29.9314 18.4567 30.3134 18.8163C30.7252 19.189 31.1602 19.3001 31.6911 18.8242C31.7394 18.7806 31.7917 18.7416 31.8442 18.7025C31.8727 18.6812 31.9012 18.6599 31.9292 18.6379C31.9776 18.5996 32.026 18.5623 32.074 18.5254Z" fill="black"/>
<mask id="mask0_0_45297" style="mask-type:alpha" maskUnits="userSpaceOnUse" x="17" y="4" width="93" height="24">
<path fill-rule="evenodd" clip-rule="evenodd" d="M40.6313 10.9548H39.2663V5.58141H22.9169C22.9002 5.77357 22.8932 5.96647 22.8959 6.15936C22.9114 6.40378 22.7948 6.49524 22.5778 6.49682H21.5426V4.14089H21.9051C27.9833 4.14089 34.0615 4.13852 40.1397 4.13379C40.5224 4.13379 40.646 4.22998 40.6414 4.63841C40.6247 6.09255 40.6271 7.54669 40.6295 9.00084C40.6304 9.51786 40.6313 10.0349 40.6313 10.5519V10.9548ZM17.3689 8.24116L17.3688 8.24116C17.3201 8.24448 17.2714 8.2478 17.2227 8.25044L17.225 27.0979H36.5489V8.2264H36.1137H17.694C17.5856 8.2264 17.4773 8.23378 17.3689 8.24116ZM28.9742 19.9741C28.9223 19.9268 28.8658 19.8752 28.8028 19.8164C28.7995 19.8839 28.7963 19.9433 28.7933 19.997V19.997C28.7863 20.1228 28.7811 20.2174 28.7816 20.312C28.781 20.5253 28.7797 20.7386 28.7784 20.9519C28.7744 21.5918 28.7704 22.2317 28.7863 22.8716C28.7942 23.1965 28.674 23.4913 28.4171 23.5743C28.1218 23.6704 27.7235 23.7682 27.4879 23.3897C27.4095 23.2716 27.363 23.1357 27.3528 22.9949C27.3423 21.122 27.337 19.2492 27.337 17.3763C27.3365 15.9042 27.3399 14.4321 27.3473 12.96C27.3655 12.5883 27.6532 12.2842 28.0275 12.241C28.2852 12.2216 28.7541 12.6621 28.7753 12.9452C28.7854 13.0733 28.7947 13.2052 28.8084 13.4004L28.8091 13.4106C28.8954 13.3344 28.975 13.2621 29.0509 13.1933C29.2044 13.0539 29.3425 12.9286 29.4886 12.8134C30.0628 12.362 30.7258 12.075 31.4485 12.2573C32.0423 12.4062 32.5553 12.7785 33.0266 13.188C33.2648 13.3959 33.5089 13.5977 33.753 13.7996L33.7531 13.7997L33.7541 13.8005L33.7545 13.8008L33.7548 13.801L33.7551 13.8013C33.8572 13.8857 33.9594 13.9702 34.0611 14.0551C34.2716 14.2312 34.3628 14.453 34.4617 14.7152C34.7657 15.5183 34.7142 16.3353 34.663 17.1465C34.6469 17.4023 34.6308 17.6575 34.6259 17.9115C34.611 18.66 32.8436 20.1771 32.5333 20.4183C32.2426 20.644 31.9528 20.8681 31.5427 20.8472C31.163 20.8857 30.9288 20.8857 30.443 20.8472C29.9573 20.8087 29.5695 20.5703 29.2396 20.2267C29.1612 20.1447 29.077 20.0679 28.9742 19.9741ZM88.2179 17.1026C87.5144 17.4814 86.8405 17.4512 86.1858 17.4219C85.9427 17.4111 85.7022 17.4003 85.4639 17.4107C84.8512 17.4373 84.2327 17.431 83.615 17.4247C83.3453 17.422 83.0758 17.4192 82.8069 17.4192C82.5682 17.9687 82.9055 18.2675 83.2261 18.5514C83.2577 18.5794 83.2891 18.6072 83.3198 18.6352C83.4766 18.7692 83.6728 18.8491 83.8789 18.8629C84.2108 18.8795 84.5427 18.8785 84.8746 18.8775C85.1692 18.8766 85.4637 18.8757 85.7583 18.8871C86.3199 18.9067 86.8816 18.9411 87.4412 18.9754L87.4412 18.9754L87.4413 18.9754L87.4414 18.9754L87.4414 18.9754L87.4415 18.9754L87.4416 18.9754L87.4416 18.9754L87.4417 18.9754L87.4418 18.9754L87.4422 18.9755C87.6625 18.989 87.8825 19.0025 88.102 19.015L88.099 19.0357L88.0945 19.068L88.0942 19.07L88.0898 19.1011L88.0863 19.125L88.3886 19.7404C88.3818 19.7434 88.3697 19.7469 88.3554 19.7509C88.3151 19.7624 88.2574 19.7788 88.2516 19.8059C88.1573 20.2821 87.819 20.2746 87.4824 20.2671C87.4387 20.2661 87.395 20.2652 87.3518 20.2653C86.9885 20.2653 86.6251 20.263 86.2617 20.2607H86.2616C85.3852 20.2552 84.5087 20.2497 83.6331 20.2762C83.0911 20.2927 82.73 20.0079 82.3621 19.7178L82.3175 19.6826C82.0946 19.5096 81.9013 19.3018 81.7451 19.0673L81.7279 19.0409C81.5657 18.792 81.3799 18.5069 81.3708 18.2327C81.3301 17.0129 81.3324 15.7899 81.3637 14.567C81.3778 14.007 81.7412 13.5835 82.1648 13.2598C82.523 12.9864 82.9119 12.7518 83.3 12.5177L83.3032 12.5158C83.3901 12.4634 83.4769 12.411 83.5634 12.3582C83.6283 12.3181 83.7245 12.3193 83.8145 12.3204H83.8145H83.8146C83.833 12.3206 83.8512 12.3209 83.8688 12.3207C84.1904 12.3181 84.5123 12.319 84.8342 12.3199H84.8342H84.8343H84.8344H84.8344H84.8345H84.8346H84.8346C84.9954 12.3203 85.1561 12.3207 85.3167 12.3207C86.0731 12.3137 86.7183 12.5617 87.2352 13.1233C87.2915 13.1686 87.354 13.2056 87.4207 13.2333C87.8272 13.4673 88.0206 13.8315 88.178 14.2745C88.3315 14.7212 88.3933 15.1942 88.3596 15.6651C88.3395 16.0129 88.3003 16.3599 88.2633 16.6874L88.2632 16.6875L88.2632 16.688L88.2631 16.6885C88.2471 16.8308 88.2314 16.9693 88.2179 17.1026ZM82.7506 16.0278C83.0253 16.0278 83.2974 16.028 83.5675 16.0282H83.5677C84.6376 16.0289 85.6751 16.0297 86.7136 16.0185C86.8271 15.992 86.9189 15.9092 86.9564 15.7993L86.9609 15.7511C87.0132 15.197 87.0667 14.6305 86.5234 14.2394C86.4494 14.186 86.3755 14.1215 86.3012 14.0566C86.1248 13.9025 85.9466 13.7468 85.7614 13.7363C85.6424 13.7297 85.5225 13.7208 85.4023 13.7119C84.604 13.6525 83.7898 13.592 83.1045 14.1872L83.1009 14.1903C82.9628 14.31 82.7825 14.4661 82.767 14.62C82.7341 14.9382 82.7397 15.2599 82.7457 15.6018V15.6024V15.603V15.6036V15.6042V15.6048V15.6054V15.606V15.6067C82.7481 15.7435 82.7506 15.8835 82.7506 16.0278ZM97.2055 17.4299C97.7489 17.4492 98.2994 17.4686 98.826 17.1106L98.8262 16.5049V16.5045V16.5041V16.5036V16.5032V16.5027V16.5022V16.5018V16.5013C98.8266 15.7449 98.827 14.9616 98.822 14.1777C98.8068 14.0955 98.7644 14.0207 98.7014 13.9652C98.439 13.6935 98.1735 13.4241 97.9017 13.1617C97.373 12.651 96.759 12.3294 96.0024 12.3333C95.854 12.334 95.7049 12.3301 95.5558 12.3262C95.2326 12.3177 94.9093 12.3092 94.5925 12.3481C94.2505 12.3957 93.9215 12.5111 93.6252 12.6876C93.2481 12.9139 92.8986 13.1827 92.5835 13.4887C92.3603 13.7028 92.0689 13.9924 92.0595 14.2571C92.0152 15.4617 92.025 16.6663 92.0348 17.8699C92.0366 18.093 92.0384 18.3162 92.0399 18.5392C92.054 18.6541 92.1054 18.7613 92.1864 18.8444C92.4347 19.1448 92.7018 19.4292 92.9861 19.6962C93.0273 19.7325 93.0678 19.7697 93.1082 19.8069L93.1083 19.807L93.1085 19.8072L93.109 19.8076C93.3763 20.0533 93.6422 20.2977 94.0881 20.2754C94.6546 20.2464 95.2218 20.2538 95.7892 20.2611C96.044 20.2644 96.2989 20.2677 96.5538 20.2677C96.6926 20.2673 96.8315 20.268 96.9705 20.2686H96.9706H96.9707H96.9708L96.9716 20.2686C97.4457 20.2708 97.9203 20.273 98.3913 20.2357C98.551 20.2225 98.786 20.0154 98.8205 19.8597C98.8714 19.6308 98.8565 19.2291 98.7226 19.1512C98.4296 18.9799 98.0451 18.9091 97.695 18.8982C97.1025 18.8803 96.5095 18.8815 95.9164 18.8827H95.9163C95.4524 18.8836 94.9884 18.8846 94.5244 18.8764C93.6769 18.8616 93.2665 18.2878 93.4834 17.4267C93.8025 17.4267 94.122 17.4277 94.4419 17.4287C95.2112 17.4311 95.9829 17.4336 96.7574 17.422C96.9058 17.4193 97.0554 17.4246 97.2055 17.4299ZM97.4573 15.6749L97.4573 15.6765C97.4563 15.7939 97.4553 15.9152 97.4553 16.0424C97.1976 16.0424 96.943 16.0426 96.691 16.0427H96.6908C95.6539 16.0435 94.6605 16.0442 93.6706 16.0323C93.5868 16.0307 93.4419 15.875 93.4357 15.7839C93.4315 15.7177 93.4263 15.6507 93.4211 15.5835L93.4209 15.5814C93.3957 15.2564 93.3699 14.9238 93.456 14.627C93.5304 14.3693 93.8093 14.1256 94.0568 13.9699C94.6748 13.5828 95.3721 13.6568 96.0413 13.7278L96.0415 13.7278C96.1423 13.7385 96.2424 13.7491 96.3415 13.7581C96.667 13.7873 96.9882 14.0889 97.2697 14.3533L97.2705 14.3541C97.3037 14.3853 97.3363 14.4159 97.3684 14.4456C97.4573 14.5273 97.4557 14.7144 97.4543 14.8876V14.8877V14.8878V14.8879V14.888V14.8881V14.8882V14.8883V14.8884C97.4539 14.9378 97.4536 14.986 97.4553 15.0303C97.4609 15.2401 97.4592 15.4503 97.4573 15.6749ZM43.7985 14.9881V14.988C43.8019 14.7251 43.8051 14.4761 43.79 14.2287C43.7751 13.9852 43.3259 13.7153 42.9556 13.7114C42.5865 13.7078 42.2175 13.7075 41.8485 13.7073H41.8485H41.8485H41.8484H41.8484H41.8484H41.8484H41.8481C41.4236 13.707 40.9992 13.7067 40.575 13.7013C40.1844 13.7013 39.8718 13.468 39.8523 13.1039C39.8437 12.9258 39.9601 12.6614 40.1039 12.5758C40.3558 12.4323 40.6382 12.3502 40.9281 12.3362C41.3467 12.3142 41.7662 12.3181 42.1859 12.3221H42.186H42.1861H42.1862H42.1863H42.1864H42.1865H42.1867C42.4044 12.3241 42.6222 12.3261 42.8399 12.3246C43.3962 12.3246 43.9275 12.4537 44.3588 12.7866C44.8275 13.1498 45.2244 13.5893 45.2057 14.2598C45.1908 14.8042 45.2002 15.3487 45.226 15.8932C45.2508 16.4268 45.2815 16.9601 45.3123 17.4933C45.3503 18.1525 45.3883 18.8116 45.4151 19.4712C45.4416 20.1082 45.0049 20.4224 44.4103 20.2117C44.2631 20.157 44.1432 20.0469 44.0767 19.9052C43.986 19.6508 43.8046 19.7249 43.6782 19.7764L43.6658 19.7815C43.5349 19.8337 43.4146 19.9106 43.2936 19.9879L43.2936 19.9879C43.2108 20.0407 43.1277 20.0938 43.0407 20.1393C42.9412 20.1951 42.8298 20.2266 42.7157 20.2311C42.531 20.232 42.3463 20.2336 42.1616 20.2351H42.1615H42.1615H42.1614H42.1614H42.1613H42.1612H42.1612C41.4224 20.2412 40.6835 20.2473 39.9461 20.2155C39.5137 20.1969 39.2345 19.8704 38.9749 19.5668C38.9414 19.5276 38.9081 19.4887 38.8749 19.4509C38.2718 18.761 38.3202 17.8906 38.4491 17.0833C38.5466 16.4741 38.9216 15.9441 39.4648 15.6474C39.7743 15.4806 40.1173 15.3844 40.4687 15.3658C41.17 15.3384 41.8736 15.342 42.5759 15.3456H42.576C42.8494 15.347 43.1227 15.3484 43.3954 15.3479L43.7955 15.3464C43.7955 15.2239 43.797 15.1053 43.7985 14.9893V14.9891V14.9889V14.9887V14.9885V14.9883V14.9881ZM41.929 16.7309H40.7969C40.1351 16.7356 39.8125 17.0584 39.8117 17.7133C39.8117 17.7734 39.8106 17.8336 39.8096 17.8939L39.8096 17.894C39.807 18.0412 39.8044 18.1888 39.8172 18.3356C39.8429 18.6233 39.9929 18.8295 40.3 18.8435C40.3965 18.848 40.4931 18.853 40.5898 18.8581L40.5899 18.8581C41.6433 18.9131 42.6995 18.9682 43.6462 18.3356C43.6668 18.3218 43.6885 18.3079 43.7106 18.2938C43.8285 18.2182 43.9583 18.1351 43.9978 18.0244C44.1814 17.5196 43.7462 16.6897 43.1767 16.7255C42.8884 16.7438 42.5989 16.7393 42.3105 16.7349C42.1831 16.7329 42.0558 16.7309 41.929 16.7309ZM65.1513 14.033C65.2414 14.4307 65.3408 14.8571 65.462 15.3765C65.1775 15.3765 64.9068 15.3773 64.6458 15.3782H64.6457C64.0459 15.3801 63.4974 15.3818 62.9508 15.3726C62.1818 15.3571 61.4384 15.3664 60.751 15.816C60.3921 16.0502 60.0907 16.3843 60.0682 16.723C60.0573 16.8813 60.0414 17.0406 60.0254 17.2004C59.9547 17.9073 59.883 18.6246 60.2422 19.3069C60.5187 19.8309 60.9599 20.1798 61.5176 20.2278C62.3566 20.2891 63.1987 20.293 64.0382 20.2395C64.3326 20.2247 64.6456 20.0674 64.902 19.9022C65.2181 19.6976 65.4838 19.7154 65.6391 20.041L65.6401 20.043C65.6665 20.0981 65.7072 20.1829 65.7486 20.1867C65.8088 20.1925 65.8705 20.2009 65.9326 20.2094C66.1311 20.2366 66.3336 20.2644 66.5029 20.2053C66.6846 20.1418 66.7887 19.91 66.7887 19.6433C66.7762 18.8674 66.7719 18.0914 66.7676 17.3155C66.7626 16.3999 66.7575 15.4843 66.739 14.5687C66.7328 14.2253 66.6745 13.8222 66.4858 13.5547C66.0648 12.9586 65.4783 12.4244 64.7357 12.402C64.504 12.3947 64.2705 12.3787 64.0365 12.3627C63.1669 12.3032 62.289 12.2431 61.4578 12.6291C61.3118 13.402 61.3988 13.7586 62.3596 13.7586C62.5801 13.759 62.8027 13.7458 63.0264 13.7325C63.7347 13.6905 64.4542 13.6477 65.1513 14.033ZM63.0736 16.7618C63.1661 16.7595 63.2585 16.7572 63.3508 16.7572V16.7541C63.4315 16.7542 63.5123 16.7542 63.5931 16.7542C63.9003 16.7542 64.208 16.7542 64.5167 16.7634C65.1536 16.7634 65.643 17.5083 65.3711 18.0812C65.2966 18.2056 65.1869 18.3051 65.0558 18.3673C64.3116 18.7704 63.5302 19.0107 62.668 18.8937C62.5721 18.8809 62.4745 18.8838 62.3772 18.8867C62.28 18.8896 62.1829 18.8925 62.0878 18.8797C62.0447 18.8743 61.997 18.87 61.9477 18.8655C61.7475 18.8473 61.52 18.8266 61.4664 18.7247C61.2706 18.3502 61.1277 17.9494 61.2706 17.4843C61.4625 16.8579 61.8664 16.6928 62.4598 16.7517C62.6624 16.7721 62.8679 16.7669 63.0736 16.7618ZM73.6483 20.2653H73.6486H73.6489C73.8562 20.2673 74.077 20.2694 74.3178 20.2694C74.5624 20.2225 74.8373 20.2383 75.1302 20.2552C75.6213 20.2834 76.1632 20.3145 76.699 20.0582C77.0741 19.8765 77.6925 19.0853 77.6862 18.7072C77.6844 18.5998 77.6892 18.4921 77.6941 18.3843C77.7101 18.0272 77.7263 17.6679 77.5006 17.3087C77.2882 16.9703 77.0978 16.6827 76.729 16.5112C76.5693 16.4369 76.4094 16.3642 76.2496 16.2914C76.0402 16.1962 75.8311 16.1011 75.6233 16.0029C75.4189 15.9063 75.216 15.8076 75.0133 15.709L75.0129 15.7088C74.7692 15.5903 74.5259 15.4719 74.2807 15.3574C74.1396 15.2918 73.9954 15.233 73.851 15.1742L73.8509 15.1741L73.8509 15.1741L73.8508 15.1741L73.8508 15.1741C73.7276 15.1239 73.6044 15.0736 73.483 15.0191C73.225 14.9125 72.9742 14.7898 72.7319 14.6519C72.5574 14.5451 72.341 14.4087 72.2849 14.2403C72.2462 14.1203 72.4239 13.9043 72.5495 13.7726C72.6017 13.7178 72.7253 13.72 72.8325 13.722C72.8518 13.7224 72.8706 13.7227 72.8883 13.7227C73.1226 13.7214 73.3569 13.7251 73.5911 13.7288C74.0677 13.7364 74.5442 13.7439 75.0207 13.7095C75.6304 13.6658 76.0766 13.9332 76.53 14.2551C76.6469 14.3227 76.7779 14.363 76.913 14.3729C76.9588 14.2647 77.0652 14.2339 77.1726 14.2027C77.3115 14.1624 77.4521 14.1217 77.4659 13.9129C77.4975 13.4335 77.0962 12.7334 76.5805 12.5877C76.1261 12.4559 75.6578 12.3758 75.185 12.3491C74.4097 12.309 73.6328 12.309 72.8575 12.3491C72.49 12.3761 72.1313 12.4736 71.8015 12.636C71.4768 12.7927 71.3028 13.0892 71.123 13.3954L71.1229 13.3956C71.0845 13.461 71.0459 13.5268 71.0054 13.5917C70.7107 14.0662 70.8607 14.4402 71.0133 14.8206C71.0512 14.9152 71.0893 15.0102 71.1208 15.1072C71.1776 15.2747 71.2907 15.418 71.4414 15.5134C71.9145 15.7846 72.3978 16.0247 72.897 16.2648C73.3412 16.4785 73.7923 16.678 74.2435 16.8776L74.2436 16.8776L74.2437 16.8776L74.411 16.9516C74.5119 16.9961 74.6151 17.0357 74.7183 17.0754C74.8325 17.1193 74.9467 17.1632 75.0578 17.2136L75.1507 17.2544C75.4993 17.4073 75.8402 17.5568 76.1303 17.8497C76.3617 18.0851 76.3199 18.3213 76.2464 18.5069C76.1825 18.6698 75.9274 18.8592 75.752 18.8639C74.669 18.8898 73.5831 18.8778 72.4984 18.8659L72.3189 18.8639C72.2097 18.8552 72.1071 18.8088 72.029 18.7329C71.5291 18.2403 71.2297 18.2558 70.7906 18.8405C70.7077 18.9512 70.6177 19.1859 70.669 19.2451C71.1452 19.7877 71.6381 20.3131 72.4705 20.2749C72.8433 20.2575 73.2165 20.2611 73.6481 20.2653H73.6482H73.6482H73.6483H73.6483ZM50.5647 13.5476C50.6038 13.5247 50.6428 13.5012 50.6817 13.4776C50.7645 13.4276 50.8475 13.3775 50.9334 13.3331C51.1355 13.2295 51.3255 13.1094 51.5162 12.9887C51.8023 12.8078 52.09 12.6258 52.4225 12.4976C52.9768 12.2838 53.5445 12.2877 54.0617 12.3756C54.7802 12.4976 55.4309 12.8061 55.7356 13.6191C55.8474 13.921 55.9053 14.2397 55.907 14.5611C55.9152 14.9416 55.9163 15.3224 55.9174 15.7031V15.7037C55.9188 16.2037 55.9203 16.7038 55.9378 17.2036C55.9457 17.4222 55.9826 17.6401 56.0193 17.8577C56.059 18.0928 56.0987 18.3276 56.102 18.5629C56.107 18.9438 56.0709 19.3247 56.0345 19.7096C56.0189 19.8745 56.0032 20.04 55.9907 20.2067C55.8784 20.2124 55.7715 20.227 55.67 20.2408C55.3432 20.2854 55.0718 20.3224 54.8537 20.0318C54.7986 19.9698 54.7615 19.8944 54.7463 19.8134C54.6673 18.5435 54.5884 17.2735 54.5244 16.0051C54.5092 15.7049 54.5093 15.4046 54.5094 15.1043C54.5095 14.9383 54.5096 14.7722 54.507 14.6061C54.4999 14.1087 54.1178 13.7512 53.6101 13.724C53.1024 13.6968 52.6689 13.7823 52.2441 14.1398C51.9509 14.3869 51.6079 14.5754 51.2639 14.7645L51.2638 14.7646C51.0613 14.8759 50.8583 14.9875 50.6649 15.1113C50.549 15.2034 50.4782 15.3395 50.4699 15.4859C50.4557 16.8067 50.4539 18.1279 50.4644 19.4497C50.4715 20.1997 50.038 20.3645 49.4592 20.2385C49.2168 20.1857 49.0589 19.9751 49.0589 19.6945V16.6245C49.0589 16.2729 49.0603 15.9214 49.0617 15.5698C49.0648 14.7555 49.068 13.9413 49.0542 13.1271C49.048 12.7547 49.2897 12.597 49.53 12.4402C49.567 12.4161 49.604 12.3919 49.6401 12.367C49.704 12.3235 49.8833 12.3919 49.9812 12.4525C50.357 12.6857 50.5765 13.0113 50.436 13.5072L50.5647 13.5476ZM104.663 13.5302C104.52 13.6484 104.377 13.7666 104.233 13.8832L104.107 13.8575C104.107 13.7475 104.105 13.6375 104.104 13.5274L104.104 13.526C104.1 13.3049 104.097 13.0838 104.107 12.8635C104.116 12.6374 103.97 12.5856 103.822 12.5333C103.725 12.4989 103.627 12.4643 103.573 12.3797C103.551 12.3455 103.299 12.4155 103.186 12.487C102.842 12.7056 102.732 13.0649 102.732 13.4383C102.721 14.9402 102.714 16.4429 102.732 17.9448C102.735 18.1118 102.729 18.2801 102.723 18.4489V18.4491V18.4493C102.701 19.0452 102.68 19.6478 103.046 20.2253L103.061 20.2286C103.09 20.2351 103.15 20.2488 103.213 20.2564C103.787 20.331 104.146 20.2307 104.123 19.4623C104.106 18.8782 104.11 18.2937 104.113 17.7092C104.115 17.2188 104.118 16.7284 104.109 16.2383C104.102 15.9233 104.246 15.7452 104.466 15.5655C104.689 15.3824 104.907 15.1927 105.124 15.0032L105.124 15.0031L105.124 15.003C105.339 14.8159 105.553 14.629 105.773 14.4486L105.795 14.4311C106.292 14.0225 106.78 13.6208 107.519 13.7167C108.076 13.789 108.371 14.013 108.358 14.5723C108.349 14.9238 108.424 15.2116 108.758 15.3796C108.786 15.3933 108.816 15.4092 108.847 15.4257C108.977 15.4954 109.127 15.5748 109.207 15.5352C109.389 15.4442 109.559 15.2941 109.531 15.0016C109.5 14.6835 109.506 14.3614 109.512 14.0396V14.0395V14.0394V14.0393V14.0392C109.515 13.9072 109.517 13.7752 109.517 13.6436C109.517 13.6309 109.517 13.6178 109.518 13.6045C109.518 13.5935 109.519 13.5824 109.519 13.5712C109.522 13.4853 109.526 13.3945 109.484 13.3403C109.088 12.7982 108.484 12.4423 107.814 12.3563C107.412 12.3066 107.004 12.3066 106.602 12.3563C106.316 12.385 106.042 12.4819 105.802 12.6387C105.405 12.9161 105.034 13.2231 104.663 13.5302ZM39.1201 23.2309L39.1194 23.2309C38.9228 23.2295 38.7263 23.2281 38.5299 23.2322C38.2614 23.2399 38.1148 23.1467 38.1441 22.8556C38.1534 22.7635 38.1503 22.6703 38.1472 22.577L38.1472 22.577C38.1457 22.5303 38.1441 22.4836 38.1441 22.437C38.1526 22.0108 38.2907 21.8733 38.7089 21.8725C38.8505 21.8725 38.992 21.873 39.1334 21.8735C39.5047 21.8747 39.8758 21.8759 40.2473 21.8687C40.5096 21.8634 40.6331 21.9298 40.6392 22.2293L40.6396 22.2627C40.6448 22.7405 40.6475 22.9824 40.5278 23.105C40.405 23.2307 40.1535 23.2307 39.644 23.2307L39.4148 23.2322C39.3165 23.2322 39.2183 23.2315 39.1201 23.2309ZM32.074 18.5254C32.5153 18.1856 32.9172 17.876 32.8895 17.1311C32.8895 17.1311 32.8887 15.802 32.8625 15.4349C32.8377 15.2976 32.7672 15.1727 32.6625 15.0804C32.3255 14.7621 31.9786 14.4555 31.622 14.1605C31.2268 13.8337 30.926 13.8266 30.5403 14.1438C30.1491 14.4527 29.7772 14.7853 29.4269 15.1399C29.2438 15.3258 29.1219 15.5632 29.0777 15.8203C29.0293 16.2643 29.046 16.7159 29.0625 17.1654C29.0644 17.2177 29.0663 17.27 29.0682 17.3223C29.0808 17.4553 29.1365 17.5806 29.2269 17.6791C29.5687 18.0771 29.9314 18.4567 30.3134 18.8163C30.7252 19.189 31.1602 19.3001 31.6911 18.8242C31.7394 18.7806 31.7917 18.7416 31.8442 18.7025C31.8727 18.6812 31.9012 18.6599 31.9292 18.6379C31.9776 18.5996 32.026 18.5623 32.074 18.5254Z" fill="white"/>
</mask>
<g mask="url(#mask0_0_45297)">
<rect width="124" height="31" fill="#122E45"/>
</g>
</g>
<defs>
<filter id="filter0_d_0_45297" x="-4" y="0" width="132" height="39" filterUnits="userSpaceOnUse" color-interpolation-filters="sRGB">
<feFlood flood-opacity="0" result="BackgroundImageFix"/>
<feColorMatrix in="SourceAlpha" type="matrix" values="0 0 0 0 0 0 0 0 0 0 0 0 0 0 0 0 0 0 127 0" result="hardAlpha"/>
<feOffset dy="4"/>
<feGaussianBlur stdDeviation="2"/>
<feComposite in2="hardAlpha" operator="out"/>
<feColorMatrix type="matrix" values="0 0 0 0 0 0 0 0 0 0 0 0 0 0 0 0 0 0 0.25 0"/>
<feBlend mode="normal" in2="BackgroundImageFix" result="effect1_dropShadow_0_45297"/>
<feBlend mode="normal" in="SourceGraphic" in2="effect1_dropShadow_0_45297" result="shape"/>
</filter>
</defs>
</svg>
