<svg width="156" height="39" viewBox="0 0 156 39" fill="none" xmlns="http://www.w3.org/2000/svg">
<g opacity="0.4">
<path fill-rule="evenodd" clip-rule="evenodd" d="M123.535 16.3529C123.285 16.1512 122.994 16.0278 122.704 15.9048C122.626 15.8716 122.547 15.8384 122.47 15.8037C119.754 14.5856 116.939 13.6459 114.079 12.8358C109.685 11.5913 105.224 10.6492 100.723 9.88703C98.0212 9.42938 95.3089 9.04268 92.5877 8.72359C90.6213 8.49307 88.6484 8.32321 86.6748 8.15807C82.3614 7.79716 78.0408 7.80336 73.7191 7.85868C71.4222 7.88803 69.1253 7.94691 66.8296 8.02836C64.2331 8.12044 61.6379 8.25733 59.0472 8.45631C56.5152 8.65075 53.9876 8.89775 51.4692 9.22782C46.2253 9.91517 41.0583 10.9692 35.9903 12.4919C35.1659 12.7396 34.3464 13.0031 33.527 13.2666L33.5269 13.2666C32.9944 13.4378 32.4619 13.609 31.9281 13.7759C31.5719 13.8872 31.2233 14.0193 30.8805 14.1492C30.3757 14.3405 29.8836 14.5269 29.3986 14.6353C29.6878 14.4513 30.0533 14.2887 30.4303 14.1211C30.5287 14.0774 30.6278 14.0333 30.7266 13.9884C32.9214 12.99 35.1723 12.1363 37.4585 11.3743C41.3437 10.0793 45.3063 9.07893 49.3197 8.27422C52.6841 7.59967 56.0724 7.07235 59.4788 6.66571C61.7161 6.39866 63.9594 6.18974 66.2067 6.01759C71.4359 5.61704 76.6721 5.45822 81.915 5.53392C84.657 5.5735 87.3947 5.72377 90.13 5.92896C93.0654 6.14919 95.992 6.44961 98.9102 6.82747C102.626 7.30855 106.321 7.91549 109.992 8.66879C113.692 9.42789 117.357 10.3229 120.952 11.4837C123.823 12.4107 126.641 13.4737 129.281 14.9576C130.599 15.6985 131.852 16.531 132.914 17.6233C133.245 17.9641 133.547 18.328 133.811 18.7229C134.852 20.2778 134.868 21.8597 133.938 23.4676C133.289 24.5885 132.415 25.5157 131.44 26.3515C129.671 27.8677 127.681 29.035 125.558 29.9733C125.383 30.0507 125.209 30.1322 125.035 30.2137L125.035 30.2137L125.035 30.2139C124.645 30.3969 124.254 30.5802 123.844 30.7185C123.757 30.7477 123.672 30.7801 123.591 30.8107C123.437 30.8691 123.299 30.9213 123.201 30.9335C125.423 29.7108 127.552 28.199 129.067 25.9583C129.374 25.5047 129.622 25.0213 129.829 24.5137C130.304 23.3441 130.216 22.2096 129.613 21.1143C128.99 19.9829 128.064 19.1303 127.034 18.3798C127.005 18.3582 126.966 18.3493 126.927 18.3405C126.909 18.3364 126.891 18.3323 126.873 18.3269C126.261 18.7277 125.618 19.0755 124.975 19.4233L124.975 19.4234C124.786 19.526 124.596 19.6287 124.407 19.7327C122.735 20.6532 121.04 21.5294 119.33 22.3774L119.299 22.393L119.275 22.4056C119.229 22.4289 119.184 22.4523 119.136 22.4716C119 22.5274 118.972 22.6149 119.043 22.7422C119.075 22.7985 119.104 22.8562 119.133 22.914C119.15 22.9459 119.166 22.9778 119.182 23.0095L119.684 23.9677L119.686 23.9713L119.687 23.9736L119.688 23.976L119.689 23.9783L119.69 23.9795C120.266 25.0801 120.843 26.1807 121.417 27.2825C121.432 27.3117 121.449 27.3402 121.466 27.369L121.466 27.3691C121.522 27.4623 121.579 27.5577 121.577 27.6825C121.503 27.7444 121.417 27.7375 121.332 27.7308C121.306 27.7287 121.28 27.7266 121.254 27.7267C120.811 27.7279 120.367 27.7275 119.923 27.7271C119.089 27.7263 118.255 27.7255 117.42 27.7356C117.137 27.7389 116.984 27.656 116.855 27.3965C116.407 26.4976 115.935 25.6106 115.462 24.7243C115.425 24.6545 115.395 24.5951 115.37 24.5453L115.37 24.545C115.307 24.4176 115.274 24.3523 115.225 24.334C115.172 24.3146 115.1 24.3474 114.953 24.4146L114.953 24.4147C114.902 24.4379 114.842 24.4653 114.771 24.496C112.649 25.4114 110.499 26.2475 108.288 26.9272C105.285 27.8508 102.218 28.3009 99.0761 28.1626C97.5345 28.0947 96.0243 27.8389 94.5887 27.2385C93.9626 26.9767 93.3765 26.6477 92.8551 26.21C92.3674 25.8007 91.9727 25.3205 91.7523 24.6706C91.6164 24.7828 91.5502 24.9001 91.4882 25.0101L91.4655 25.0501C91.4592 25.0612 91.4528 25.0722 91.4462 25.083C90.9742 25.8711 90.5027 26.6595 90.0369 27.4512C89.937 27.621 89.8388 27.7353 89.6085 27.7334C88.6352 27.7252 87.6618 27.7258 86.6884 27.7264C86.2832 27.7266 85.878 27.7269 85.4728 27.7265C85.4459 27.7265 85.4189 27.7197 85.3896 27.7124C85.3751 27.7088 85.3601 27.705 85.3443 27.7018C85.3258 27.5638 85.3966 27.4642 85.465 27.368L85.4651 27.368L85.4651 27.3679L85.4651 27.3679L85.4652 27.3678C85.4868 27.3375 85.5081 27.3074 85.5263 27.2766C86.2194 26.1054 86.9152 24.9357 87.6109 23.766C88.0231 23.0731 88.4353 22.3802 88.8469 21.6869L88.8847 21.6237L88.9041 21.5913C89.0398 21.3653 89.1755 21.139 89.2539 20.8825C89.4555 20.2217 89.2588 19.6501 88.6828 19.2708C88.316 19.0292 87.9057 18.9082 87.4712 18.8627C87.0211 18.8157 86.5701 18.8192 86.1191 18.8228C85.8667 18.8248 85.6143 18.8268 85.3621 18.8199C85.1345 18.8136 85.0537 18.9514 84.9658 19.1015L84.9488 19.1305L84.4203 20.0236L84.419 20.0257L84.4184 20.0268L84.4178 20.0279L84.4171 20.0289L84.4165 20.03C83.5707 21.4594 82.7248 22.8889 81.8774 24.3175C81.6165 24.7571 81.3546 25.196 81.0927 25.635L81.0921 25.6359L81.0909 25.6379C80.7356 26.2333 80.3803 26.8287 80.0278 27.4257C79.9205 27.6075 79.8201 27.7373 79.5697 27.7349C78.6037 27.7256 77.6376 27.7262 76.6715 27.7269C76.2734 27.7271 75.8753 27.7274 75.4771 27.7269C75.47 27.7269 75.4627 27.7272 75.4553 27.7274C75.4077 27.7288 75.3566 27.7303 75.3151 27.6723C75.3148 27.5642 75.3744 27.4779 75.4339 27.3917C75.4543 27.3622 75.4746 27.3327 75.4926 27.3024C76.6323 25.3753 77.7744 23.4495 78.9173 21.5243C79.0495 21.3017 79.1745 21.0778 79.2444 20.8254C79.4138 20.2122 79.2325 19.6827 78.7168 19.3108C78.3583 19.0522 77.949 18.9214 77.5168 18.8724C76.9554 18.8089 76.3921 18.8147 75.8287 18.8205C75.5592 18.8233 75.2897 18.8261 75.0203 18.8212C74.8079 18.8175 74.7324 18.9521 74.6553 19.0897C74.6436 19.1105 74.6319 19.1314 74.6197 19.1518C74.0565 20.0957 73.4939 21.04 72.9314 21.9842L72.9265 21.9925L72.9247 21.9955L72.918 22.0067C72.5447 22.6333 72.1715 23.2598 71.798 23.8863C71.6016 24.2157 71.4045 24.5448 71.2075 24.8738C70.704 25.7146 70.2005 26.5554 69.7078 27.4025C69.5668 27.645 69.4159 27.7397 69.1313 27.7364C68.1144 27.7249 67.0974 27.7266 66.0798 27.7282C65.7187 27.7288 65.3575 27.7294 64.9962 27.7294C64.9459 27.5863 65.0145 27.4933 65.0791 27.4057C65.0975 27.3808 65.1156 27.3562 65.1306 27.3311C66.7983 24.5226 68.469 21.716 70.1397 18.9093L70.7876 17.8208C70.8925 17.6447 70.9979 17.469 71.1034 17.2932L71.1036 17.2929L71.1038 17.2925L71.104 17.2922L71.1042 17.2919C71.3604 16.865 71.6166 16.4382 71.8635 16.006C71.9697 15.8201 72.0937 15.7508 72.307 15.7516C73.3973 15.7554 74.4875 15.7559 75.5778 15.7565C76.7995 15.7571 78.0212 15.7577 79.2429 15.7629C80.1391 15.7667 81.0145 15.919 81.8578 16.231C82.6539 16.5255 83.337 16.9802 83.8327 17.6704C83.9545 17.6331 83.9974 17.5485 84.0382 17.4681C84.0489 17.4468 84.0596 17.4259 84.0715 17.4062L84.0932 17.3703C84.3679 16.9153 84.6426 16.4603 84.9072 15.9994C85.0009 15.836 85.1038 15.7491 85.3093 15.7511C85.8671 15.7567 86.425 15.7573 86.9829 15.7579H86.983C87.8611 15.7588 88.7392 15.7597 89.6169 15.7802C90.5117 15.8011 91.3814 15.9978 92.2052 16.3649C92.4946 16.4938 92.769 16.6491 93.0256 16.8351C93.878 17.4531 94.2491 18.1657 94.3254 19.3294C94.3984 19.3859 94.4486 19.34 94.4968 19.2959L94.5075 19.2863C96.2383 17.7271 98.3068 16.8451 100.535 16.2891C102.346 15.8375 104.186 15.6752 106.047 15.7774C107.012 15.8304 107.961 15.9897 108.847 16.3993C109.795 16.8371 110.475 17.5091 110.7 18.5713C110.845 19.2564 110.663 19.8487 110.22 20.3727C109.911 20.7396 109.525 21.0149 109.112 21.2505C108.106 21.8234 107.015 22.1787 105.908 22.4848C104.288 22.9327 102.633 23.2085 100.97 23.4437C99.4923 23.6527 98.0088 23.8105 96.523 23.9502L96.5125 23.951C96.4754 23.9537 96.4324 23.9568 96.4012 24.0476C96.4703 24.2131 96.6333 24.3379 96.7939 24.4609L96.8095 24.4728C97.4077 24.9313 98.1026 25.1417 98.8362 25.2497C99.7355 25.3822 100.633 25.308 101.529 25.234C101.648 25.2241 101.768 25.2142 101.887 25.2048C104.752 24.9799 107.452 24.1163 110.099 23.0549C111.205 22.6118 112.302 22.1502 113.386 21.6555L113.386 21.6551C113.763 21.4832 113.766 21.482 113.567 21.1031C113.228 20.4541 112.888 19.8053 112.548 19.1566L112.537 19.1343C112.021 18.1508 111.506 17.1673 110.992 16.183C110.978 16.155 110.96 16.1276 110.943 16.1C110.885 16.0076 110.826 15.9134 110.86 15.7894C110.954 15.7386 111.053 15.7439 111.15 15.749C111.18 15.7506 111.21 15.7522 111.24 15.7522C111.632 15.7514 112.024 15.7522 112.416 15.753C113.273 15.7546 114.131 15.7563 114.988 15.7424C115.295 15.7375 115.444 15.8491 115.577 16.1085C116.032 17.0015 116.499 17.8885 116.966 18.7755L116.967 18.776L116.967 18.7766L116.967 18.7773L116.968 18.7783L116.969 18.7797L116.969 18.7814L116.97 18.783L116.971 18.7847L116.972 18.7864C117.078 18.9878 117.184 19.1892 117.29 19.3907C117.451 19.6963 117.457 19.6987 117.771 19.5374C119.724 18.5333 121.642 17.4655 123.535 16.3529ZM123.535 16.3529C123.576 16.372 123.617 16.3901 123.659 16.4082L123.659 16.4083C123.618 16.3902 123.576 16.372 123.535 16.3529ZM96.0172 22.7006L96.0383 22.7086C96.0685 22.7204 96.0953 22.7309 96.1212 22.7289C96.2041 22.7226 96.2871 22.7167 96.3701 22.7107L96.3702 22.7107C96.6591 22.6899 96.948 22.6691 97.2351 22.6342C99.4612 22.3633 101.635 21.8523 103.776 21.1959C104.344 21.0219 104.865 20.7539 105.319 20.3677C105.574 20.1517 105.792 19.9041 105.915 19.5896C106.08 19.1681 105.958 18.8346 105.567 18.6006C105.303 18.4429 105.012 18.376 104.709 18.3462C103.682 18.2454 102.677 18.4048 101.68 18.6173C100.326 18.9063 99.0312 19.3557 97.8736 20.1414C97.2371 20.5734 96.6896 21.093 96.2973 21.7622C96.1297 22.0481 96.0027 22.3484 95.9903 22.6914C95.9956 22.693 96.0007 22.6947 96.0058 22.6964L96.0172 22.7006ZM40.0256 24.9912C39.5703 25.0615 39.113 25.0886 38.5152 25.0908C37.9753 25.0989 37.3063 25.0402 36.6589 24.8212C36.3439 24.7146 36.0469 24.5737 35.792 24.3567C35.3134 23.9493 35.1285 23.4327 35.2457 22.8162C35.3842 22.0873 35.7704 21.4872 36.2624 20.9516C37.0316 20.1143 37.9699 19.5129 38.9948 19.0398C40.4739 18.3571 42.0218 17.9773 43.6587 18.0194C44.3062 18.0362 44.9459 18.1256 45.5536 18.3642C46.9167 18.8996 47.2896 19.9476 46.5693 21.2282C46.1172 22.0322 45.4692 22.6574 44.7194 23.1801C43.3036 24.1672 41.7226 24.7293 40.0256 24.9912ZM23.8248 33.9335L23.4004 34.6417C23.5398 34.7179 23.6512 34.7124 23.7541 34.7073C23.7798 34.706 23.805 34.7047 23.8299 34.7048C24.2059 34.7057 24.5819 34.7048 24.958 34.704H24.9583C25.7307 34.7023 26.5031 34.7006 27.2753 34.7136C27.5922 34.7189 27.7578 34.6055 27.9124 34.3381C28.9504 32.5438 29.9969 30.7544 31.0434 28.9651L31.0437 28.9646C31.3589 28.4255 31.6742 27.8865 31.9892 27.3473C32.0013 27.3265 32.0138 27.3059 32.0262 27.2853L32.0263 27.2853L32.0263 27.2852L32.0264 27.2851C32.0585 27.232 32.0906 27.1788 32.1171 27.123C32.1997 26.9493 32.3138 26.9392 32.4604 27.0431C32.4975 27.0695 32.539 27.0899 32.5803 27.1101L32.6115 27.1254C34.1904 27.9199 35.8499 28.3535 37.6309 28.2626C40.5492 28.1136 43.2691 27.2834 45.8224 25.8838C47.2289 25.1128 48.5107 24.1755 49.5847 22.9738C50.2896 22.1851 50.8659 21.3178 51.1755 20.2931C51.6681 18.6634 51.153 17.1884 49.752 16.2171C49.2401 15.8622 48.6801 15.6087 48.0867 15.427C46.4201 14.9166 44.7188 14.9054 43.0102 15.1123C40.7494 15.3861 38.6294 16.1107 36.6028 17.1409C34.4099 18.2555 32.5684 19.7659 31.1945 21.8208C31.1098 21.9475 31.0246 22.0739 30.9394 22.2003L30.9394 22.2003L30.9394 22.2003L30.9394 22.2003L30.9394 22.2003C30.6235 22.6691 30.3074 23.138 30.0157 23.6214C28.7037 25.7951 27.3983 27.9728 26.0929 30.1505L26.0928 30.1506C25.6498 30.8897 25.2068 31.6287 24.7636 32.3676C24.4521 32.8866 24.141 33.4058 23.8248 33.9335ZM47.8708 27.6451C47.9341 27.5367 47.9906 27.4395 48.0429 27.3498L48.0431 27.3493L48.0438 27.3481C48.1447 27.1747 48.2294 27.029 48.3156 26.8841C48.6324 26.3514 48.949 25.8186 49.2657 25.2858C50.2679 23.5994 51.2701 21.9129 52.2768 20.2291C52.6677 19.5753 53.1278 18.9704 53.635 18.4006C54.9426 16.9315 56.5862 16.1136 58.5237 15.854C59.3213 15.7471 60.1216 15.6859 60.9261 15.6827C62.1458 15.6777 63.3656 15.6757 64.5853 15.6738C64.6518 15.6737 64.7183 15.6787 64.7833 15.6836C64.8129 15.6858 64.8423 15.688 64.8711 15.6897C64.899 15.7963 64.852 15.8649 64.8071 15.9305C64.7959 15.9468 64.7848 15.9629 64.7751 15.9794C64.6208 16.2407 64.4655 16.5014 64.3102 16.7621L64.3097 16.7629L64.309 16.7641C63.9729 17.3283 63.6367 17.8925 63.3109 18.4627C63.1858 18.6816 63.0395 18.7536 62.7959 18.7499L62.6542 18.7476C62.0415 18.7377 61.4282 18.7278 60.8164 18.7755C59.8314 18.8525 58.8983 19.1151 58.0328 19.595C57.2641 20.0212 56.6596 20.6115 56.2096 21.3763C55.632 22.3583 55.0479 23.3364 54.4639 24.3146C53.8715 25.3067 53.2791 26.2989 52.6933 27.295C52.5325 27.5685 52.3549 27.6576 52.0453 27.653C51.155 27.6396 50.2645 27.6416 49.374 27.6437C49.0447 27.6444 48.7154 27.6451 48.3861 27.6451H47.8708ZM70.6247 16.0087C70.6858 15.9201 70.7487 15.829 70.7466 15.7044C70.7322 15.7005 70.7184 15.6957 70.7049 15.691C70.6775 15.6815 70.6518 15.6726 70.626 15.6726C70.1962 15.6719 69.7664 15.6719 69.3366 15.6718C68.375 15.6718 67.4135 15.6717 66.452 15.6646C66.2426 15.6631 66.1451 15.7606 66.052 15.9193C65.7111 16.5007 65.3661 17.0796 65.0211 17.6586L64.8011 18.0279L63.6045 20.0371L63.6009 20.0432C62.1891 22.4138 60.7773 24.7844 59.3675 27.1563C59.3479 27.1893 59.3256 27.2217 59.3032 27.2542C59.2306 27.3595 59.1568 27.4668 59.167 27.6063C59.2759 27.6564 59.3786 27.6517 59.4781 27.6472C59.5067 27.646 59.535 27.6447 59.5632 27.6447C59.9546 27.6453 60.3461 27.6445 60.7376 27.6437C61.5798 27.642 62.4219 27.6403 63.2638 27.6523C63.5733 27.6567 63.748 27.5668 63.9097 27.2936C65.4476 24.6956 66.9923 22.1016 68.5369 19.5075C69.2148 18.3691 69.8927 17.2307 70.57 16.0919C70.5867 16.0638 70.6056 16.0364 70.6247 16.0087ZM131.725 29.9924C132.252 30.001 132.68 29.5863 132.691 29.0554C132.704 28.5064 132.314 28.0802 131.784 28.0636C131.238 28.0464 130.796 28.4696 130.788 29.0169C130.781 29.537 131.21 29.9839 131.725 29.9924ZM131.716 30.1681C131.078 30.1602 130.577 29.6376 130.594 28.9982C130.611 28.3586 131.136 27.8587 131.772 27.8774C132.415 27.8963 132.912 28.4162 132.896 29.0541C132.88 29.6916 132.367 30.176 131.716 30.1681ZM131.608 28.7887C131.604 28.7039 131.613 28.6228 131.71 28.6102C131.822 28.6268 131.889 28.6702 131.884 28.7719C131.879 28.8699 131.811 28.9195 131.719 28.927C131.623 28.9348 131.611 28.8584 131.608 28.7887ZM131.991 29.2659C131.969 29.2362 131.946 29.2066 131.924 29.1773C131.932 29.1653 131.939 29.1542 131.945 29.1441C131.957 29.1248 131.966 29.109 131.979 29.0972C132.149 28.9473 132.223 28.7748 132.103 28.5645C132.014 28.4089 131.687 28.3126 131.469 28.3584C131.379 28.3772 131.345 28.4298 131.344 28.5042C131.342 28.8614 131.344 29.2186 131.347 29.5757C131.347 29.6401 131.392 29.6834 131.456 29.6846C131.514 29.6857 131.565 29.6601 131.592 29.5983C131.606 29.5676 131.606 29.5332 131.606 29.498C131.606 29.4355 131.607 29.3702 131.683 29.3173C131.712 29.3495 131.739 29.3819 131.767 29.4143C131.831 29.4904 131.896 29.5661 131.966 29.6362C132.031 29.7011 132.128 29.7304 132.202 29.6633C132.26 29.6103 132.218 29.5609 132.179 29.5154C132.17 29.5046 132.161 29.4939 132.154 29.4835C132.1 29.4097 132.045 29.3372 131.991 29.2659Z" fill="white"/>
<mask id="mask0_0_45544" style="mask-type:alpha" maskUnits="userSpaceOnUse" x="23" y="5" width="112" height="30">
<path fill-rule="evenodd" clip-rule="evenodd" d="M123.535 16.3529C123.285 16.1512 122.994 16.0278 122.704 15.9048C122.626 15.8716 122.547 15.8384 122.47 15.8037C119.754 14.5856 116.939 13.6459 114.079 12.8358C109.685 11.5913 105.224 10.6492 100.723 9.88703C98.0212 9.42938 95.3089 9.04268 92.5877 8.72359C90.6213 8.49307 88.6484 8.32321 86.6748 8.15807C82.3614 7.79716 78.0408 7.80336 73.7191 7.85868C71.4222 7.88803 69.1253 7.94691 66.8296 8.02836C64.2331 8.12044 61.6379 8.25733 59.0472 8.45631C56.5152 8.65075 53.9876 8.89775 51.4692 9.22782C46.2253 9.91517 41.0583 10.9692 35.9903 12.4919C35.1659 12.7396 34.3464 13.0031 33.527 13.2666L33.5269 13.2666C32.9944 13.4378 32.4619 13.609 31.9281 13.7759C31.5719 13.8872 31.2233 14.0193 30.8805 14.1492C30.3757 14.3405 29.8836 14.5269 29.3986 14.6353C29.6878 14.4513 30.0533 14.2887 30.4303 14.1211C30.5287 14.0774 30.6278 14.0333 30.7266 13.9884C32.9214 12.99 35.1723 12.1363 37.4585 11.3743C41.3437 10.0793 45.3063 9.07893 49.3197 8.27422C52.6841 7.59967 56.0724 7.07235 59.4788 6.66571C61.7161 6.39866 63.9594 6.18974 66.2067 6.01759C71.4359 5.61704 76.6721 5.45822 81.915 5.53392C84.657 5.5735 87.3947 5.72377 90.13 5.92896C93.0654 6.14919 95.992 6.44961 98.9102 6.82747C102.626 7.30855 106.321 7.91549 109.992 8.66879C113.692 9.42789 117.357 10.3229 120.952 11.4837C123.823 12.4107 126.641 13.4737 129.281 14.9576C130.599 15.6985 131.852 16.531 132.914 17.6233C133.245 17.9641 133.547 18.328 133.811 18.7229C134.852 20.2778 134.868 21.8597 133.938 23.4676C133.289 24.5885 132.415 25.5157 131.44 26.3515C129.671 27.8677 127.681 29.035 125.558 29.9733C125.383 30.0507 125.209 30.1322 125.035 30.2137L125.035 30.2137L125.035 30.2139C124.645 30.3969 124.254 30.5802 123.844 30.7185C123.757 30.7477 123.672 30.7801 123.591 30.8107C123.437 30.8691 123.299 30.9213 123.201 30.9335C125.423 29.7108 127.552 28.199 129.067 25.9583C129.374 25.5047 129.622 25.0213 129.829 24.5137C130.304 23.3441 130.216 22.2096 129.613 21.1143C128.99 19.9829 128.064 19.1303 127.034 18.3798C127.005 18.3582 126.966 18.3493 126.927 18.3405C126.909 18.3364 126.891 18.3323 126.873 18.3269C126.261 18.7277 125.618 19.0755 124.975 19.4233L124.975 19.4234C124.786 19.526 124.596 19.6287 124.407 19.7327C122.735 20.6532 121.04 21.5294 119.33 22.3774L119.299 22.393L119.275 22.4056C119.229 22.4289 119.184 22.4523 119.136 22.4716C119 22.5274 118.972 22.6149 119.043 22.7422C119.075 22.7985 119.104 22.8562 119.133 22.914C119.15 22.9459 119.166 22.9778 119.182 23.0095L119.684 23.9677L119.686 23.9713L119.687 23.9736L119.688 23.976L119.689 23.9783L119.69 23.9795C120.266 25.0801 120.843 26.1807 121.417 27.2825C121.432 27.3117 121.449 27.3402 121.466 27.369L121.466 27.3691C121.522 27.4623 121.579 27.5577 121.577 27.6825C121.503 27.7444 121.417 27.7375 121.332 27.7308C121.306 27.7287 121.28 27.7266 121.254 27.7267C120.811 27.7279 120.367 27.7275 119.923 27.7271C119.089 27.7263 118.255 27.7255 117.42 27.7356C117.137 27.7389 116.984 27.656 116.855 27.3965C116.407 26.4976 115.935 25.6106 115.462 24.7243C115.425 24.6545 115.395 24.5951 115.37 24.5453L115.37 24.545C115.307 24.4176 115.274 24.3523 115.225 24.334C115.172 24.3146 115.1 24.3474 114.953 24.4146L114.953 24.4147C114.902 24.4379 114.842 24.4653 114.771 24.496C112.649 25.4114 110.499 26.2475 108.288 26.9272C105.285 27.8508 102.218 28.3009 99.0761 28.1626C97.5345 28.0947 96.0243 27.8389 94.5887 27.2385C93.9626 26.9767 93.3765 26.6477 92.8551 26.21C92.3674 25.8007 91.9727 25.3205 91.7523 24.6706C91.6164 24.7828 91.5502 24.9001 91.4882 25.0101L91.4655 25.0501C91.4592 25.0612 91.4528 25.0722 91.4462 25.083C90.9742 25.8711 90.5027 26.6595 90.0369 27.4512C89.937 27.621 89.8388 27.7353 89.6085 27.7334C88.6352 27.7252 87.6618 27.7258 86.6884 27.7264C86.2832 27.7266 85.878 27.7269 85.4728 27.7265C85.4459 27.7265 85.4189 27.7197 85.3896 27.7124C85.3751 27.7088 85.3601 27.705 85.3443 27.7018C85.3258 27.5638 85.3966 27.4642 85.465 27.368L85.4651 27.368L85.4651 27.3679L85.4651 27.3679L85.4652 27.3678C85.4868 27.3375 85.5081 27.3074 85.5263 27.2766C86.2194 26.1054 86.9152 24.9357 87.6109 23.766C88.0231 23.0731 88.4353 22.3802 88.8469 21.6869L88.8847 21.6237L88.9041 21.5913C89.0398 21.3653 89.1755 21.139 89.2539 20.8825C89.4555 20.2217 89.2588 19.6501 88.6828 19.2708C88.316 19.0292 87.9057 18.9082 87.4712 18.8627C87.0211 18.8157 86.5701 18.8192 86.1191 18.8228C85.8667 18.8248 85.6143 18.8268 85.3621 18.8199C85.1345 18.8136 85.0537 18.9514 84.9658 19.1015L84.9488 19.1305L84.4203 20.0236L84.419 20.0257L84.4184 20.0268L84.4178 20.0279L84.4171 20.0289L84.4165 20.03C83.5707 21.4594 82.7248 22.8889 81.8774 24.3175C81.6165 24.7571 81.3546 25.196 81.0927 25.635L81.0921 25.6359L81.0909 25.6379C80.7356 26.2333 80.3803 26.8287 80.0278 27.4257C79.9205 27.6075 79.8201 27.7373 79.5697 27.7349C78.6037 27.7256 77.6376 27.7262 76.6715 27.7269C76.2734 27.7271 75.8753 27.7274 75.4771 27.7269C75.47 27.7269 75.4627 27.7272 75.4553 27.7274C75.4077 27.7288 75.3566 27.7303 75.3151 27.6723C75.3148 27.5642 75.3744 27.4779 75.4339 27.3917C75.4543 27.3622 75.4746 27.3327 75.4926 27.3024C76.6323 25.3753 77.7744 23.4495 78.9173 21.5243C79.0495 21.3017 79.1745 21.0778 79.2444 20.8254C79.4138 20.2122 79.2325 19.6827 78.7168 19.3108C78.3583 19.0522 77.949 18.9214 77.5168 18.8724C76.9554 18.8089 76.3921 18.8147 75.8287 18.8205C75.5592 18.8233 75.2897 18.8261 75.0203 18.8212C74.8079 18.8175 74.7324 18.9521 74.6553 19.0897C74.6436 19.1105 74.6319 19.1314 74.6197 19.1518C74.0565 20.0957 73.4939 21.04 72.9314 21.9842L72.9265 21.9925L72.9247 21.9955L72.918 22.0067C72.5447 22.6333 72.1715 23.2598 71.798 23.8863C71.6016 24.2157 71.4045 24.5448 71.2075 24.8738C70.704 25.7146 70.2005 26.5554 69.7078 27.4025C69.5668 27.645 69.4159 27.7397 69.1313 27.7364C68.1144 27.7249 67.0974 27.7266 66.0798 27.7282C65.7187 27.7288 65.3575 27.7294 64.9962 27.7294C64.9459 27.5863 65.0145 27.4933 65.0791 27.4057C65.0975 27.3808 65.1156 27.3562 65.1306 27.3311C66.7983 24.5226 68.469 21.716 70.1397 18.9093L70.7876 17.8208C70.8925 17.6447 70.9979 17.469 71.1034 17.2932L71.1036 17.2929L71.1038 17.2925L71.104 17.2922L71.1042 17.2919C71.3604 16.865 71.6166 16.4382 71.8635 16.006C71.9697 15.8201 72.0937 15.7508 72.307 15.7516C73.3973 15.7554 74.4875 15.7559 75.5778 15.7565C76.7995 15.7571 78.0212 15.7577 79.2429 15.7629C80.1391 15.7667 81.0145 15.919 81.8578 16.231C82.6539 16.5255 83.337 16.9802 83.8327 17.6704C83.9545 17.6331 83.9974 17.5485 84.0382 17.4681C84.0489 17.4468 84.0596 17.4259 84.0715 17.4062L84.0932 17.3703C84.3679 16.9153 84.6426 16.4603 84.9072 15.9994C85.0009 15.836 85.1038 15.7491 85.3093 15.7511C85.8671 15.7567 86.425 15.7573 86.9829 15.7579H86.983C87.8611 15.7588 88.7392 15.7597 89.6169 15.7802C90.5117 15.8011 91.3814 15.9978 92.2052 16.3649C92.4946 16.4938 92.769 16.6491 93.0256 16.8351C93.878 17.4531 94.2491 18.1657 94.3254 19.3294C94.3984 19.3859 94.4486 19.34 94.4968 19.2959L94.5075 19.2863C96.2383 17.7271 98.3068 16.8451 100.535 16.2891C102.346 15.8375 104.186 15.6752 106.047 15.7774C107.012 15.8304 107.961 15.9897 108.847 16.3993C109.795 16.8371 110.475 17.5091 110.7 18.5713C110.845 19.2564 110.663 19.8487 110.22 20.3727C109.911 20.7396 109.525 21.0149 109.112 21.2505C108.106 21.8234 107.015 22.1787 105.908 22.4848C104.288 22.9327 102.633 23.2085 100.97 23.4437C99.4923 23.6527 98.0088 23.8105 96.523 23.9502L96.5125 23.951C96.4754 23.9537 96.4324 23.9568 96.4012 24.0476C96.4703 24.2131 96.6333 24.3379 96.7939 24.4609L96.8095 24.4728C97.4077 24.9313 98.1026 25.1417 98.8362 25.2497C99.7355 25.3822 100.633 25.308 101.529 25.234C101.648 25.2241 101.768 25.2142 101.887 25.2048C104.752 24.9799 107.452 24.1163 110.099 23.0549C111.205 22.6118 112.302 22.1502 113.386 21.6555L113.386 21.6551C113.763 21.4832 113.766 21.482 113.567 21.1031C113.228 20.4541 112.888 19.8053 112.548 19.1566L112.537 19.1343C112.021 18.1508 111.506 17.1673 110.992 16.183C110.978 16.155 110.96 16.1276 110.943 16.1C110.885 16.0076 110.826 15.9134 110.86 15.7894C110.954 15.7386 111.053 15.7439 111.15 15.749C111.18 15.7506 111.21 15.7522 111.24 15.7522C111.632 15.7514 112.024 15.7522 112.416 15.753C113.273 15.7546 114.131 15.7563 114.988 15.7424C115.295 15.7375 115.444 15.8491 115.577 16.1085C116.032 17.0015 116.499 17.8885 116.966 18.7755L116.967 18.776L116.967 18.7766L116.967 18.7773L116.968 18.7783L116.969 18.7797L116.969 18.7814L116.97 18.783L116.971 18.7847L116.972 18.7864C117.078 18.9878 117.184 19.1892 117.29 19.3907C117.451 19.6963 117.457 19.6987 117.771 19.5374C119.724 18.5333 121.642 17.4655 123.535 16.3529ZM123.535 16.3529C123.576 16.372 123.617 16.3901 123.659 16.4082L123.659 16.4083C123.618 16.3902 123.576 16.372 123.535 16.3529ZM96.0172 22.7006L96.0383 22.7086C96.0685 22.7204 96.0953 22.7309 96.1212 22.7289C96.2041 22.7226 96.2871 22.7167 96.3701 22.7107L96.3702 22.7107C96.6591 22.6899 96.948 22.6691 97.2351 22.6342C99.4612 22.3633 101.635 21.8523 103.776 21.1959C104.344 21.0219 104.865 20.7539 105.319 20.3677C105.574 20.1517 105.792 19.9041 105.915 19.5896C106.08 19.1681 105.958 18.8346 105.567 18.6006C105.303 18.4429 105.012 18.376 104.709 18.3462C103.682 18.2454 102.677 18.4048 101.68 18.6173C100.326 18.9063 99.0312 19.3557 97.8736 20.1414C97.2371 20.5734 96.6896 21.093 96.2973 21.7622C96.1297 22.0481 96.0027 22.3484 95.9903 22.6914C95.9956 22.693 96.0007 22.6947 96.0058 22.6964L96.0172 22.7006ZM40.0256 24.9912C39.5703 25.0615 39.113 25.0886 38.5152 25.0908C37.9753 25.0989 37.3063 25.0402 36.6589 24.8212C36.3439 24.7146 36.0469 24.5737 35.792 24.3567C35.3134 23.9493 35.1285 23.4327 35.2457 22.8162C35.3842 22.0873 35.7704 21.4872 36.2624 20.9516C37.0316 20.1143 37.9699 19.5129 38.9948 19.0398C40.4739 18.3571 42.0218 17.9773 43.6587 18.0194C44.3062 18.0362 44.9459 18.1256 45.5536 18.3642C46.9167 18.8996 47.2896 19.9476 46.5693 21.2282C46.1172 22.0322 45.4692 22.6574 44.7194 23.1801C43.3036 24.1672 41.7226 24.7293 40.0256 24.9912ZM23.8248 33.9335L23.4004 34.6417C23.5398 34.7179 23.6512 34.7124 23.7541 34.7073C23.7798 34.706 23.805 34.7047 23.8299 34.7048C24.2059 34.7057 24.5819 34.7048 24.958 34.704H24.9583C25.7307 34.7023 26.5031 34.7006 27.2753 34.7136C27.5922 34.7189 27.7578 34.6055 27.9124 34.3381C28.9504 32.5438 29.9969 30.7544 31.0434 28.9651L31.0437 28.9646C31.3589 28.4255 31.6742 27.8865 31.9892 27.3473C32.0013 27.3265 32.0138 27.3059 32.0262 27.2853L32.0263 27.2853L32.0263 27.2852L32.0264 27.2851C32.0585 27.232 32.0906 27.1788 32.1171 27.123C32.1997 26.9493 32.3138 26.9392 32.4604 27.0431C32.4975 27.0695 32.539 27.0899 32.5803 27.1101L32.6115 27.1254C34.1904 27.9199 35.8499 28.3535 37.6309 28.2626C40.5492 28.1136 43.2691 27.2834 45.8224 25.8838C47.2289 25.1128 48.5107 24.1755 49.5847 22.9738C50.2896 22.1851 50.8659 21.3178 51.1755 20.2931C51.6681 18.6634 51.153 17.1884 49.752 16.2171C49.2401 15.8622 48.6801 15.6087 48.0867 15.427C46.4201 14.9166 44.7188 14.9054 43.0102 15.1123C40.7494 15.3861 38.6294 16.1107 36.6028 17.1409C34.4099 18.2555 32.5684 19.7659 31.1945 21.8208C31.1098 21.9475 31.0246 22.0739 30.9394 22.2003L30.9394 22.2003L30.9394 22.2003L30.9394 22.2003L30.9394 22.2003C30.6235 22.6691 30.3074 23.138 30.0157 23.6214C28.7037 25.7951 27.3983 27.9728 26.0929 30.1505L26.0928 30.1506C25.6498 30.8897 25.2068 31.6287 24.7636 32.3676C24.4521 32.8866 24.141 33.4058 23.8248 33.9335ZM47.8708 27.6451C47.9341 27.5367 47.9906 27.4395 48.0429 27.3498L48.0431 27.3493L48.0438 27.3481C48.1447 27.1747 48.2294 27.029 48.3156 26.8841C48.6324 26.3514 48.949 25.8186 49.2657 25.2858C50.2679 23.5994 51.2701 21.9129 52.2768 20.2291C52.6677 19.5753 53.1278 18.9704 53.635 18.4006C54.9426 16.9315 56.5862 16.1136 58.5237 15.854C59.3213 15.7471 60.1216 15.6859 60.9261 15.6827C62.1458 15.6777 63.3656 15.6757 64.5853 15.6738C64.6518 15.6737 64.7183 15.6787 64.7833 15.6836C64.8129 15.6858 64.8423 15.688 64.8711 15.6897C64.899 15.7963 64.852 15.8649 64.8071 15.9305C64.7959 15.9468 64.7848 15.9629 64.7751 15.9794C64.6208 16.2407 64.4655 16.5014 64.3102 16.7621L64.3097 16.7629L64.309 16.7641C63.9729 17.3283 63.6367 17.8925 63.3109 18.4627C63.1858 18.6816 63.0395 18.7536 62.7959 18.7499L62.6542 18.7476C62.0415 18.7377 61.4282 18.7278 60.8164 18.7755C59.8314 18.8525 58.8983 19.1151 58.0328 19.595C57.2641 20.0212 56.6596 20.6115 56.2096 21.3763C55.632 22.3583 55.0479 23.3364 54.4639 24.3146C53.8715 25.3067 53.2791 26.2989 52.6933 27.295C52.5325 27.5685 52.3549 27.6576 52.0453 27.653C51.155 27.6396 50.2645 27.6416 49.374 27.6437C49.0447 27.6444 48.7154 27.6451 48.3861 27.6451H47.8708ZM70.6247 16.0087C70.6858 15.9201 70.7487 15.829 70.7466 15.7044C70.7322 15.7005 70.7184 15.6957 70.7049 15.691C70.6775 15.6815 70.6518 15.6726 70.626 15.6726C70.1962 15.6719 69.7664 15.6719 69.3366 15.6718C68.375 15.6718 67.4135 15.6717 66.452 15.6646C66.2426 15.6631 66.1451 15.7606 66.052 15.9193C65.7111 16.5007 65.3661 17.0796 65.0211 17.6586L64.8011 18.0279L63.6045 20.0371L63.6009 20.0432C62.1891 22.4138 60.7773 24.7844 59.3675 27.1563C59.3479 27.1893 59.3256 27.2217 59.3032 27.2542C59.2306 27.3595 59.1568 27.4668 59.167 27.6063C59.2759 27.6564 59.3786 27.6517 59.4781 27.6472C59.5067 27.646 59.535 27.6447 59.5632 27.6447C59.9546 27.6453 60.3461 27.6445 60.7376 27.6437C61.5798 27.642 62.4219 27.6403 63.2638 27.6523C63.5733 27.6567 63.748 27.5668 63.9097 27.2936C65.4476 24.6956 66.9923 22.1016 68.5369 19.5075C69.2148 18.3691 69.8927 17.2307 70.57 16.0919C70.5867 16.0638 70.6056 16.0364 70.6247 16.0087ZM131.725 29.9924C132.252 30.001 132.68 29.5863 132.691 29.0554C132.704 28.5064 132.314 28.0802 131.784 28.0636C131.238 28.0464 130.796 28.4696 130.788 29.0169C130.781 29.537 131.21 29.9839 131.725 29.9924ZM131.716 30.1681C131.078 30.1602 130.577 29.6376 130.594 28.9982C130.611 28.3586 131.136 27.8587 131.772 27.8774C132.415 27.8963 132.912 28.4162 132.896 29.0541C132.88 29.6916 132.367 30.176 131.716 30.1681ZM131.608 28.7887C131.604 28.7039 131.613 28.6228 131.71 28.6102C131.822 28.6268 131.889 28.6702 131.884 28.7719C131.879 28.8699 131.811 28.9195 131.719 28.927C131.623 28.9348 131.611 28.8584 131.608 28.7887ZM131.991 29.2659C131.969 29.2362 131.946 29.2066 131.924 29.1773C131.932 29.1653 131.939 29.1542 131.945 29.1441C131.957 29.1248 131.966 29.109 131.979 29.0972C132.149 28.9473 132.223 28.7748 132.103 28.5645C132.014 28.4089 131.687 28.3126 131.469 28.3584C131.379 28.3772 131.345 28.4298 131.344 28.5042C131.342 28.8614 131.344 29.2186 131.347 29.5757C131.347 29.6401 131.392 29.6834 131.456 29.6846C131.514 29.6857 131.565 29.6601 131.592 29.5983C131.606 29.5676 131.606 29.5332 131.606 29.498C131.606 29.4355 131.607 29.3702 131.683 29.3173C131.712 29.3495 131.739 29.3819 131.767 29.4143C131.831 29.4904 131.896 29.5661 131.966 29.6362C132.031 29.7011 132.128 29.7304 132.202 29.6633C132.26 29.6103 132.218 29.5609 132.179 29.5154C132.17 29.5046 132.161 29.4939 132.154 29.4835C132.1 29.4097 132.045 29.3372 131.991 29.2659Z" fill="white"/>
</mask>
<g mask="url(#mask0_0_45544)">
<rect width="156" height="39" fill="white"/>
</g>
</g>
</svg>
