<svg width="156" height="39" viewBox="0 0 156 39" fill="none" xmlns="http://www.w3.org/2000/svg">
<g opacity="0.4">
<g opacity="0.7">
<mask id="mask0_0_45542" style="mask-type:alpha" maskUnits="userSpaceOnUse" x="14" y="6" width="21" height="27">
<path fill-rule="evenodd" clip-rule="evenodd" d="M14.7324 32.7707V6.07227H34.7997V32.7707H14.7324Z" fill="white"/>
</mask>
<g mask="url(#mask0_0_45542)">
<path fill-rule="evenodd" clip-rule="evenodd" d="M34.2929 23.6445V23.6438C34.208 23.4402 34.114 23.2394 34.0101 23.0428L33.9889 23.0053L33.9351 22.9078L33.9111 22.8653L33.9026 22.8512L32.152 19.6845V19.6838L30.6998 17.0593L29.9787 15.7542L28.5314 13.1375L28.2415 12.615L26.5157 9.49635L26.5037 9.47514L26.4994 9.46524L26.4047 9.29061V9.2892L26.3863 9.26091L26.3552 9.20506C26.0983 8.76471 25.7905 8.35608 25.4382 7.98758C24.4024 6.90937 23.098 6.28649 21.749 6.11893C21.5018 6.08793 21.2529 6.07235 21.0038 6.07227H21.0024C19.3981 6.07227 17.7939 6.7107 16.5679 7.98828C15.9971 8.58351 15.5444 9.28167 15.2338 10.0457C14.489 11.8785 14.5775 13.9445 15.4763 15.7068L15.6517 16.025C15.663 16.0462 15.675 16.066 15.687 16.0865V16.0886L21.2922 26.2201L22.7395 28.8396L23.0471 29.3925L23.0555 29.4088V29.4095L23.0739 29.4406L23.1552 29.5877L23.1658 29.6061L23.1729 29.6202C23.2698 29.7856 23.373 29.9482 23.4861 30.1059V30.1066C23.6699 30.3668 23.875 30.6157 24.1012 30.8518C25.1328 31.9293 26.4344 32.5529 27.7777 32.7219V32.7226C28.2588 32.7835 28.7455 32.7859 29.2271 32.7297L29.2688 32.7247V32.7233C30.6199 32.5586 31.9293 31.9336 32.9665 30.8518C33.2875 30.516 33.5668 30.1526 33.8022 29.7687L34.1062 29.22L34.1091 29.2158L34.1126 29.2073C34.9599 27.4626 35.0257 25.4399 34.2936 23.6438" fill="white"/>
</g>
</g>
<g opacity="0.7">
<path fill-rule="evenodd" clip-rule="evenodd" d="M33.5546 30.2427H33.556C33.6835 30.0654 33.8024 29.882 33.9124 29.6933L33.9336 29.6559L33.9873 29.5604L34.0106 29.518L34.0184 29.5032L35.7704 26.3781L35.7711 26.3767L37.2226 23.7855L37.9445 22.4973L39.3925 19.9139L39.6809 19.3978L41.4061 16.3173L41.4174 16.2961L41.423 16.2876L41.5213 16.1158L41.5361 16.0847L41.5673 16.0302C42.6146 14.0458 42.5859 11.666 41.4909 9.70737V9.70666C40.6884 8.27425 39.3557 7.15787 37.6836 6.69477C37.3796 6.61032 37.0694 6.5498 36.756 6.51377C36.2749 6.45712 35.7887 6.45902 35.308 6.51943C33.4323 6.75275 31.7362 7.85852 30.7322 9.52991L30.5555 9.84453L30.5222 9.90534L30.5208 9.90746L24.9163 19.9118L23.4669 22.4959L23.1615 23.0438L23.1523 23.0587L23.1516 23.0594L23.1353 23.0912L23.054 23.2369L23.0441 23.2545L23.0363 23.268C22.9456 23.4372 22.863 23.6106 22.7889 23.7876V23.7883C22.663 24.0858 22.559 24.392 22.4778 24.7046C22.1119 26.0999 22.2127 27.5766 22.7648 28.9093H22.7641C22.9536 29.3688 23.1954 29.8051 23.4832 30.2066C23.4909 30.2187 23.4994 30.2293 23.5072 30.242L23.5086 30.2413C24.3382 31.398 25.5384 32.2363 26.9101 32.6169C27.3498 32.7378 27.791 32.8078 28.2272 32.829H28.8395L28.848 32.8283C28.9929 32.8212 29.1365 32.8085 29.2793 32.7908C30.979 32.5787 32.5309 31.6546 33.5546 30.2427Z" fill="white"/>
</g>
<path fill-rule="evenodd" clip-rule="evenodd" d="M57.0856 24.6887H57.1224L61.2952 13.4662H62.6915L57.7749 26.3855H56.3963L51.498 13.4662H52.9135L57.0856 24.6887ZM77.9228 19.9248C77.9228 20.9104 77.7539 21.8168 77.4152 22.644C77.0937 23.4452 76.6156 24.1742 76.0089 24.7884C75.4023 25.3958 74.6808 25.8765 73.8865 26.2024C73.0699 26.5432 72.184 26.7129 71.2281 26.7129C70.2736 26.7129 69.387 26.5432 68.5711 26.2024C67.7766 25.8766 67.0548 25.3959 66.4479 24.7884C65.8415 24.1741 65.3637 23.4451 65.0424 22.644C64.703 21.8168 64.534 20.9104 64.534 19.9248C64.534 18.9392 64.7037 18.0335 65.0424 17.2063C65.3637 16.4052 65.8415 15.6762 66.4479 15.0619C67.0548 14.4544 67.7766 13.9737 68.5711 13.6479C69.387 13.3071 70.2729 13.1367 71.2288 13.1367C72.184 13.1367 73.0699 13.3064 73.8865 13.6479C74.6808 13.9738 75.4023 14.4545 76.0089 15.0619C76.6156 15.6761 77.0937 16.4051 77.4152 17.2063C77.7539 18.0335 77.9228 18.9392 77.9228 19.9248ZM76.5441 19.9248C76.5477 19.1917 76.425 18.4634 76.1814 17.7719C75.951 17.1099 75.5937 16.4992 75.1294 15.974C74.6617 15.4511 74.0901 15.0316 73.4509 14.7424C72.792 14.4383 72.051 14.2863 71.2288 14.2863C70.4065 14.2863 69.6656 14.4383 69.0059 14.7424C68.3671 15.0317 67.7956 15.4512 67.3282 15.974C66.8639 16.4992 66.5065 17.1099 66.2761 17.7719C66.0323 18.4634 65.9094 19.1916 65.9127 19.9248C65.9127 20.6792 66.0336 21.3968 66.2761 22.0784C66.5052 22.7382 66.8628 23.3462 67.3282 23.8671C67.7877 24.3776 68.347 24.7848 69.0059 25.0889C69.6656 25.3929 70.4058 25.5456 71.2288 25.5456C72.051 25.5456 72.7913 25.3936 73.4509 25.0889C74.0883 24.8008 74.6597 24.3847 75.1294 23.8664C75.5948 23.3455 75.9523 22.7375 76.1814 22.0777C76.425 21.3862 76.5477 20.6579 76.5441 19.9248ZM85.6074 26.3848H84.3008V20.8192L79.4931 13.4655H81.1263L84.9902 19.724L88.8908 13.4655H90.4151L85.6074 20.8185V26.3848ZM91.931 26.3848H90.4971L96.0486 13.4655H97.3191L102.834 26.3848H101.383L99.9676 22.9911H93.3273L91.931 26.3848ZM93.8173 21.7864H99.4777L96.6475 14.9248L93.8173 21.7864ZM105.674 23.7568C105.771 24.268 105.998 24.6972 106.355 25.0436C106.711 25.39 107.18 25.5633 107.76 25.5633C108.208 25.5633 108.577 25.4812 108.868 25.3172C109.157 25.1532 109.391 24.9312 109.566 24.6512C109.741 24.3712 109.862 24.0524 109.929 23.6932C109.996 23.323 110.029 22.9474 110.028 22.5712V13.4648H111.334V22.6624C111.334 23.088 111.289 23.5384 111.199 24.0128C111.111 24.4794 110.936 24.9252 110.682 25.3264C110.417 25.7385 110.055 26.0799 109.629 26.3212C109.181 26.5828 108.607 26.7129 107.906 26.7129C106.974 26.7129 106.206 26.4668 105.601 25.974C105.008 25.5002 104.603 24.8308 104.459 24.0856L105.675 23.7568H105.674ZM128.326 19.9248C128.326 20.9104 128.156 21.8168 127.818 22.644C127.496 23.4452 127.018 24.1742 126.412 24.7884C125.805 25.3958 125.083 25.8765 124.289 26.2024C123.472 26.5432 122.587 26.7129 121.631 26.7129C120.676 26.7129 119.79 26.5432 118.974 26.2024C118.179 25.8766 117.457 25.3959 116.851 24.7884C116.244 24.1741 115.766 23.4451 115.445 22.644C115.106 21.8168 114.937 20.9104 114.937 19.9248C114.937 18.9392 115.106 18.0335 115.445 17.2063C115.766 16.4052 116.244 15.6762 116.851 15.0619C117.457 14.4544 118.179 13.9737 118.974 13.6479C119.79 13.3071 120.675 13.1367 121.631 13.1367C122.587 13.1367 123.472 13.3064 124.29 13.6479C125.084 13.9739 125.805 14.4545 126.412 15.0619C127.018 15.676 127.497 16.4051 127.818 17.2063C128.156 18.0335 128.326 18.9392 128.326 19.9248ZM126.947 19.9248C126.951 19.1916 126.828 18.4634 126.584 17.7719C126.354 17.1099 125.996 16.4992 125.532 15.974C125.064 15.4511 124.493 15.0316 123.854 14.7424C123.195 14.4383 122.454 14.2863 121.631 14.2863C120.809 14.2863 120.068 14.4383 119.408 14.7424C118.77 15.0317 118.198 15.4512 117.731 15.974C117.266 16.4992 116.909 17.1099 116.679 17.7719C116.435 18.4634 116.312 19.1916 116.315 19.9248C116.315 20.6792 116.436 21.3968 116.679 22.0784C116.908 22.7382 117.265 23.3462 117.731 23.8671C118.19 24.3776 118.75 24.7848 119.408 25.0889C120.068 25.3929 120.808 25.5456 121.631 25.5456C122.454 25.5456 123.195 25.3936 123.854 25.0889C124.491 24.8008 125.062 24.3847 125.532 23.8664C125.997 23.3455 126.355 22.7375 126.584 22.0777C126.828 21.3862 126.95 20.6579 126.947 19.9248H126.947ZM136.01 26.3848H134.703V20.8192L129.896 13.4655H131.529L135.393 19.724L139.293 13.4655H140.818L136.01 20.8185V26.3848Z" fill="white"/>
</g>
</svg>
