<svg width="156" height="39" viewBox="0 0 156 39" fill="none" xmlns="http://www.w3.org/2000/svg">
<g opacity="0.4">
<path fill-rule="evenodd" clip-rule="evenodd" d="M110.034 23.0634C110.868 23.0634 111.563 22.9798 112.174 22.8406V23.8986C111.535 24.1214 110.812 24.2049 110.007 24.2049C108.756 24.2049 107.811 23.8708 107.228 23.2026C106.616 22.5344 106.339 21.4764 106.339 20.0286V2.59961H107.645V9.6436H111.84V10.7851H107.645V19.8337C107.645 20.9195 107.839 21.7548 108.228 22.256C108.589 22.7849 109.201 23.0634 110.034 23.0634ZM58.4601 2.76666V24.2049V24.2327H59.8495V13.2352C60.4886 12.3721 61.2111 11.7039 62.0447 11.2027C62.8505 10.7016 63.7398 10.451 64.7123 10.451C66.0184 10.451 66.9631 10.8408 67.6023 11.6204C68.2414 12.3999 68.5471 13.4858 68.5471 14.85V24.2049H69.9364V14.85C69.9364 13.9869 69.8253 13.2074 69.6308 12.5391C69.4085 11.8709 69.1028 11.2863 68.7138 10.813C68.297 10.3118 67.7968 9.94986 67.1854 9.69928C66.5741 9.4487 65.8794 9.30949 65.0736 9.30949C63.9898 9.30949 63.0173 9.56007 62.1558 10.0612C61.2944 10.5624 60.5164 11.2306 59.8495 12.0658V2.76666H58.4601ZM32.5896 15.8523V2.7945H31.2002V24.2327H32.5896V16.8268H33.2843C33.5622 16.8268 33.7845 16.8546 33.9234 16.9103C34.0623 16.966 34.2013 17.1052 34.368 17.2723L40.5091 23.9265C40.6203 24.0378 40.7314 24.1214 40.8426 24.177C40.9537 24.2327 41.0649 24.2606 41.2038 24.2606H42.3987L35.6185 16.8546C35.5073 16.7154 35.3962 16.6041 35.285 16.4927C35.1739 16.3813 35.0627 16.2978 34.896 16.2143C35.0071 16.1586 35.1183 16.0751 35.2016 15.9915L35.4795 15.7131L41.9263 9.53223H40.7036C40.5091 9.53223 40.3702 9.58791 40.259 9.6436L40.259 9.64361C40.1479 9.72713 40.0367 9.81065 39.9256 9.92201L34.0623 15.5182C33.8956 15.6574 33.7567 15.7688 33.6455 15.7966C33.5344 15.8245 33.3954 15.8523 33.2565 15.8523H32.5896ZM123.289 11.2863C123.234 11.4255 123.122 11.4812 122.956 11.4812C122.844 11.4812 122.706 11.4255 122.539 11.2863C122.372 11.1749 122.15 11.0357 121.872 10.8686C121.594 10.7294 121.261 10.5902 120.844 10.451C120.427 10.3396 119.927 10.2561 119.343 10.2561C118.815 10.2561 118.343 10.3396 117.898 10.4789C117.454 10.6181 117.092 10.8408 116.787 11.0914C116.481 11.3419 116.231 11.6482 116.064 11.9823C115.898 12.3164 115.814 12.6784 115.814 13.0403C115.814 13.5136 115.925 13.8756 116.175 14.1818C116.398 14.4881 116.731 14.7387 117.092 14.9614C117.481 15.1841 117.898 15.3512 118.398 15.5182C118.706 15.6271 119.026 15.7241 119.357 15.8247L119.358 15.8248C119.535 15.8786 119.715 15.9334 119.899 15.9915C120.399 16.1586 120.899 16.3256 121.4 16.5205C121.872 16.7154 122.317 16.9382 122.706 17.2444C123.095 17.5228 123.4 17.8848 123.623 18.3024C123.845 18.72 123.984 19.2212 123.984 19.8059C123.984 20.4462 123.873 21.0309 123.65 21.5877C123.428 22.1446 123.095 22.6179 122.65 23.0077C122.205 23.3975 121.677 23.7316 121.038 23.9543C120.399 24.177 119.677 24.3162 118.871 24.3162C117.843 24.3162 116.953 24.1492 116.203 23.8151C115.453 23.481 114.786 23.0634 114.202 22.5344L114.536 22.0332C114.591 21.9497 114.647 21.894 114.703 21.8662C114.758 21.8383 114.842 21.8105 114.953 21.8105C115.092 21.8105 115.231 21.894 115.425 22.0332C115.62 22.2003 115.842 22.3673 116.148 22.5344C116.453 22.7293 116.815 22.8963 117.259 23.0355C117.704 23.2026 118.259 23.2583 118.926 23.2583C119.538 23.2583 120.093 23.1747 120.566 23.0077C121.038 22.8406 121.427 22.5901 121.733 22.3116C122.039 22.0054 122.289 21.6713 122.455 21.2815C122.622 20.8917 122.706 20.4741 122.706 20.0286C122.706 19.5275 122.594 19.1377 122.344 18.8036C122.122 18.4695 121.789 18.191 121.427 17.9683C121.038 17.7456 120.621 17.5507 120.121 17.3836C119.814 17.2748 119.494 17.1778 119.163 17.0772C118.985 17.0234 118.805 16.9685 118.621 16.9103C118.093 16.7433 117.593 16.5762 117.12 16.3813C116.648 16.1864 116.203 15.9637 115.814 15.6853C115.425 15.4069 115.119 15.0449 114.897 14.6551C114.675 14.2375 114.536 13.7363 114.536 13.1238C114.536 12.5948 114.647 12.0937 114.869 11.6204C115.092 11.1471 115.425 10.7294 115.842 10.3396C116.259 9.9777 116.759 9.69928 117.37 9.47655C117.982 9.25381 118.649 9.14244 119.371 9.14244C120.26 9.14244 121.066 9.28165 121.733 9.53223C122.428 9.78281 123.067 10.2004 123.65 10.7294L123.289 11.2863ZM42.0652 16.8825C42.0652 12.8454 45.3442 9.56007 49.3734 9.56007C53.4027 9.56007 56.6816 12.8454 56.6816 16.8825C56.6816 18.8314 56.3204 24.2049 56.3204 24.2049H49.3734C45.3442 24.2049 42.0652 20.9195 42.0652 16.8825ZM49.3734 22.9242C52.708 22.9242 55.4034 20.2235 55.4034 16.8825C55.4034 13.5415 52.708 10.8408 49.3734 10.8408C46.0389 10.8408 43.3435 13.5415 43.3435 16.8825C43.3713 20.2235 46.0667 22.9242 49.3734 22.9242ZM72.1039 16.799C72.1039 20.9752 75.494 24.3998 79.69 24.3998C83.8859 24.3998 87.3038 21.0031 87.2761 16.799C87.2761 12.6227 83.8581 9.19813 79.69 9.19813C75.5218 9.19813 72.1039 12.5948 72.1039 16.799ZM73.4933 16.799C73.4933 13.3744 76.2721 10.5902 79.69 10.5902C83.1079 10.5902 85.8867 13.3744 85.8867 16.799C85.8867 20.2235 83.1079 23.0077 79.69 23.0077C76.2721 23.0077 73.4933 20.2235 73.4933 16.799ZM96.2515 24.3998C92.0556 24.3998 88.6654 20.9752 88.6654 16.799C88.6654 12.5948 92.0833 9.19813 96.2515 9.19813C100.447 9.19813 103.838 12.6227 103.838 16.799C103.838 21.0031 100.42 24.3998 96.2515 24.3998ZM96.2515 10.5902C92.8336 10.5902 90.0548 13.3744 90.0548 16.799C90.0548 20.2235 92.8336 23.0077 96.2515 23.0077C99.6694 23.0077 102.448 20.2235 102.448 16.799C102.448 13.3744 99.6694 10.5902 96.2515 10.5902ZM47.8451 29.1886L47.9007 29.1329L47.9563 28.8823C47.734 28.6596 47.4839 28.4925 47.1782 28.3812C46.9003 28.2419 46.5669 28.1863 46.1778 28.1863C45.761 28.1863 45.3998 28.2698 45.0663 28.409C44.7329 28.5482 44.455 28.7431 44.2327 29.0215C44.0104 29.2721 43.8437 29.6062 43.7325 29.9681C43.6214 30.3301 43.5658 30.7477 43.5658 31.1932C43.5658 31.6665 43.6491 32.112 43.7603 32.4739C43.8992 32.8359 44.066 33.17 44.2883 33.4205C44.4828 33.6711 44.7607 33.866 45.0663 34.0052C45.372 34.1444 45.7332 34.2001 46.0945 34.2001C46.3168 34.2001 46.5391 34.1723 46.7336 34.1444C46.9281 34.1166 47.1226 34.0609 47.2894 33.9774C47.4839 33.9217 47.6228 33.8382 47.7617 33.7268C47.9007 33.6154 48.0118 33.5041 48.0952 33.3927L47.9563 33.1978C47.9285 33.17 47.9007 33.1421 47.8451 33.1421C47.8279 33.1421 47.8001 33.1634 47.7617 33.1928L47.7617 33.1928C47.738 33.211 47.7102 33.2322 47.6784 33.2535C47.6264 33.3056 47.5636 33.3468 47.4968 33.3907L47.4968 33.3907L47.4968 33.3908L47.4967 33.3908L47.4967 33.3908L47.4967 33.3908L47.4967 33.3908L47.4967 33.3908L47.4966 33.3908L47.4966 33.3908L47.4966 33.3909L47.4966 33.3909L47.4966 33.3909C47.4563 33.4174 47.4145 33.4448 47.3727 33.4762C47.2338 33.5597 47.0948 33.6433 46.9003 33.6989C46.7336 33.7825 46.4835 33.8103 46.2056 33.8103C45.9 33.8103 45.6221 33.7546 45.372 33.6433C45.1219 33.5319 44.8996 33.3648 44.7329 33.1421C44.5384 32.9194 44.3994 32.641 44.3161 32.3347C44.2327 32.0284 44.1771 31.6665 44.1771 31.2489C44.1771 30.8591 44.2327 30.4971 44.3161 30.1909C44.4272 29.8846 44.5661 29.6062 44.7329 29.3835C44.9274 29.1607 45.1497 28.9937 45.3998 28.8823C45.6499 28.7709 45.9555 28.7153 46.289 28.7153C46.5113 28.7153 46.7336 28.7431 46.9003 28.7988C47.067 28.8545 47.206 28.9102 47.3171 28.9658C47.4283 29.0215 47.5394 29.0772 47.595 29.1329C47.6784 29.1886 47.734 29.2164 47.7617 29.2164C47.7895 29.2164 47.8173 29.2164 47.8451 29.1886ZM49.4012 34.1444V28.3255H49.7069C49.7625 28.3255 49.818 28.3255 49.8458 28.3533C49.8736 28.3812 49.9014 28.4368 49.9014 28.4925L49.957 29.7176C50.1515 29.2443 50.4016 28.8823 50.7073 28.6039C51.0129 28.3255 51.402 28.2141 51.8743 28.2141C52.0411 28.2141 52.2078 28.2419 52.3745 28.2698C52.5135 28.2976 52.6524 28.3533 52.7913 28.4368L52.708 28.8266C52.708 28.8823 52.6524 28.9102 52.5968 28.9102C52.569 28.9102 52.5413 28.9102 52.4857 28.8823C52.4513 28.8651 52.4276 28.8585 52.3948 28.8494C52.3745 28.8438 52.3508 28.8373 52.319 28.8266C52.2867 28.8104 52.245 28.8037 52.1939 28.7954L52.1939 28.7954C52.1571 28.7894 52.1154 28.7826 52.0689 28.7709C51.9855 28.7431 51.8743 28.7431 51.7354 28.7431C51.2908 28.7431 50.9296 28.8823 50.6517 29.1607C50.3738 29.4391 50.1515 29.8289 49.957 30.3579V34.1444H49.4012ZM56.2648 28.2419C56.5983 28.2419 56.9039 28.2976 57.1818 28.409C57.4597 28.5204 57.7098 28.6874 57.9043 28.9102C58.0988 29.1329 58.2656 29.3835 58.3767 29.7176C58.4879 30.0238 58.5434 30.3858 58.5434 30.8034C58.5434 30.8869 58.5434 30.9426 58.5156 30.9704C58.4879 30.9983 58.4601 31.0261 58.4045 31.0261H54.1807V31.1375C54.1807 31.583 54.2363 31.9728 54.3197 32.3069C54.4308 32.641 54.5698 32.9194 54.7643 33.1421C54.9588 33.3648 55.1811 33.5319 55.4312 33.6433C55.7091 33.7546 55.9869 33.8103 56.3204 33.8103C56.6261 33.8103 56.8762 33.7825 57.0707 33.7268C57.293 33.6711 57.4597 33.5876 57.6264 33.5041L57.6264 33.5041C57.6679 33.4791 57.7069 33.4567 57.7441 33.4352L57.7442 33.4352L57.7442 33.4352L57.7443 33.4351C57.8318 33.3848 57.9097 33.3399 57.9877 33.2813C58.071 33.2256 58.1266 33.1978 58.1822 33.1978C58.2378 33.1978 58.2656 33.2256 58.2933 33.2535L58.4323 33.4484C58.3489 33.5597 58.21 33.6711 58.071 33.7825C57.9043 33.8938 57.7376 33.9774 57.5431 34.0331C57.3486 34.1166 57.154 34.1723 56.9317 34.2001C56.7094 34.2558 56.4871 34.2558 56.2648 34.2558C55.8758 34.2558 55.5146 34.2001 55.1811 34.0609C54.8476 33.9217 54.5698 33.7268 54.3475 33.4484C54.1252 33.17 53.9306 32.8637 53.7917 32.4739C53.6528 32.0841 53.5972 31.6387 53.5972 31.1375C53.5972 30.7199 53.6528 30.3301 53.7639 29.9681C53.8751 29.6062 54.0418 29.2999 54.2919 29.0494C54.5142 28.7988 54.7921 28.6039 55.1255 28.4368C55.4868 28.3255 55.848 28.2419 56.2648 28.2419ZM56.2648 28.6596C55.9592 28.6596 55.6813 28.7153 55.459 28.7988C55.2089 28.8823 55.0144 29.0215 54.8476 29.2164C54.6809 29.3835 54.542 29.6062 54.4308 29.8568C54.3197 30.1074 54.2641 30.3858 54.2085 30.692H58.0432C58.0432 30.3858 57.9877 30.1074 57.9043 29.8568C57.8209 29.6062 57.7098 29.4113 57.5431 29.2164C57.3763 29.0494 57.2096 28.9102 56.9873 28.8266C56.765 28.7153 56.5427 28.6596 56.2648 28.6596ZM63.5452 34.0052C63.573 34.1166 63.6564 34.1723 63.7675 34.1723V34.0609H63.9898V30.2466C63.9898 29.9125 63.9621 29.6062 63.8787 29.3556C63.7953 29.105 63.6842 28.8823 63.5175 28.6874C63.3507 28.5204 63.1562 28.3812 62.9339 28.2698C62.6838 28.1863 62.4059 28.1306 62.1003 28.1306C61.6835 28.1306 61.2944 28.1863 60.961 28.3533C60.6275 28.5204 60.2941 28.7431 59.9884 29.0494L60.0995 29.2164C60.1273 29.2999 60.1829 29.3278 60.2663 29.3278C60.3218 29.3278 60.4052 29.2999 60.4886 29.2164C60.5719 29.1329 60.6831 29.0494 60.822 28.9658C60.961 28.8823 61.1277 28.7988 61.3222 28.7153C61.5167 28.6317 61.7668 28.6039 62.0447 28.6039C62.4893 28.6039 62.8505 28.7709 63.0728 29.0494C63.3229 29.3556 63.4341 29.7733 63.4341 30.3022V30.9148C62.7672 30.9426 62.2114 30.9983 61.739 31.0818C61.2666 31.1653 60.8776 31.2767 60.5719 31.4438C60.2663 31.6108 60.044 31.7779 59.905 32.0006C59.7661 32.2233 59.6827 32.4461 59.6827 32.6966C59.6827 32.9751 59.7383 33.1978 59.8217 33.3927C59.9328 33.5876 60.044 33.7546 60.1829 33.866C60.3218 34.0052 60.4886 34.0887 60.6831 34.1444C60.8776 34.2001 61.0721 34.2279 61.2666 34.2279C61.5167 34.2279 61.739 34.2279 61.9335 34.1723L61.9336 34.1723L61.9336 34.1722L61.9336 34.1722L61.9337 34.1722L61.9337 34.1722L61.9337 34.1722L61.9337 34.1722L61.9338 34.1722L61.9338 34.1722L61.9338 34.1721C62.1283 34.1165 62.3227 34.0609 62.4893 33.9774C62.656 33.8938 62.8228 33.8103 62.9895 33.6711C63.1284 33.5597 63.2952 33.4205 63.4619 33.2535L63.5452 34.0052ZM62.0447 33.7825C61.878 33.8382 61.6557 33.866 61.4334 33.866C61.3113 33.866 61.2042 33.8511 61.0683 33.8322C61.0185 33.8252 60.965 33.8178 60.9054 33.8103C60.7665 33.7825 60.6553 33.699 60.5442 33.6154L60.5442 33.6154C60.433 33.5041 60.3496 33.3927 60.2941 33.2535C60.2385 33.1143 60.2107 32.9472 60.2107 32.7523C60.2107 32.5296 60.2941 32.3625 60.4052 32.1955C60.5442 32.0284 60.7387 31.8892 60.9888 31.7779C61.2666 31.6665 61.6001 31.5551 61.9891 31.4994C62.4059 31.4159 62.8783 31.3881 63.4341 31.3602V32.8915C63.2952 33.0307 63.1562 33.17 63.0173 33.2813C62.8783 33.3927 62.7394 33.5041 62.5727 33.5876C62.4059 33.6711 62.2392 33.7268 62.0447 33.7825ZM69.7697 28.3255H69.214V34.1723H69.7697V28.3255ZM73.4933 34.1723L71.0202 28.3255H71.4648C71.5203 28.3255 71.5759 28.3533 71.6037 28.3812L71.6871 28.4647L73.6044 33.0864L73.6878 33.337C73.7017 33.3788 73.7086 33.4205 73.7156 33.4623C73.7225 33.5041 73.7295 33.5458 73.7434 33.5876C73.7573 33.5458 73.7642 33.5041 73.7712 33.4623C73.7781 33.4205 73.7851 33.3788 73.799 33.337L73.8823 33.0864L75.8275 28.4647C75.8552 28.409 75.883 28.3812 75.9108 28.3533C75.9386 28.3255 75.9942 28.3255 76.022 28.3255H76.4388L73.9935 34.1723H73.4933ZM79.6344 28.2419C79.9678 28.2419 80.2735 28.2976 80.5514 28.409C80.8293 28.5204 81.0794 28.6874 81.2739 28.9102C81.4684 29.1329 81.6351 29.3835 81.7463 29.7176C81.8574 30.0238 81.913 30.3858 81.913 30.8034C81.913 30.8869 81.913 30.9426 81.8852 30.9704C81.8574 30.9983 81.8296 31.0261 81.7741 31.0261H77.5781V31.1375C77.5781 31.583 77.6337 31.9728 77.717 32.3069C77.8282 32.641 77.9671 32.9194 78.1616 33.1421C78.3562 33.3648 78.5785 33.5319 78.8285 33.6433C79.1064 33.7546 79.3843 33.8103 79.7178 33.8103C80.0234 33.8103 80.2735 33.7825 80.468 33.7268C80.6903 33.6711 80.857 33.5876 81.0238 33.5041L81.0238 33.5041C81.0653 33.4791 81.1042 33.4567 81.1415 33.4352C81.2291 33.3848 81.307 33.3399 81.385 33.2813C81.4684 33.2256 81.524 33.1978 81.5795 33.1978C81.6351 33.1978 81.6629 33.2256 81.6907 33.2535L81.8296 33.4484C81.7463 33.5597 81.6073 33.6711 81.4684 33.7825C81.3017 33.8938 81.1349 33.9774 80.9404 34.0331C80.7459 34.1166 80.5514 34.1723 80.3291 34.2001C80.1068 34.2558 79.8845 34.2558 79.6622 34.2558C79.2732 34.2558 78.9119 34.2001 78.5785 34.0609C78.245 33.9217 77.9671 33.7268 77.7448 33.4484C77.5225 33.17 77.328 32.8637 77.1891 32.4739C77.0501 32.0841 76.9945 31.6387 76.9945 31.1375C76.9945 30.7199 77.0501 30.3301 77.1613 29.9681C77.2724 29.6062 77.4392 29.2999 77.6892 29.0494C77.9115 28.7988 78.1894 28.6039 78.5229 28.4368C78.8563 28.3255 79.2176 28.2419 79.6344 28.2419ZM79.6344 28.6596C79.3287 28.6596 79.0508 28.7153 78.8285 28.7988C78.5785 28.8823 78.3839 29.0215 78.2172 29.2164C78.0505 29.3835 77.9116 29.6062 77.8004 29.8568C77.6893 30.1074 77.6337 30.3858 77.5781 30.692H81.4128C81.4128 30.3858 81.3572 30.1074 81.2739 29.8568C81.1905 29.6062 81.0794 29.4113 80.9126 29.2164C80.7459 29.0494 80.5792 28.9102 80.3569 28.8266C80.1624 28.7153 79.9123 28.6596 79.6344 28.6596ZM85.3587 28.2419C85.6088 28.2419 85.8589 28.2698 86.0534 28.3255C86.2757 28.3812 86.4702 28.4647 86.6369 28.576H88.1375V28.7709C88.1375 28.8545 88.0819 28.9102 87.9707 28.938L87.0815 28.9937C87.1927 29.1329 87.2761 29.2999 87.3316 29.4948C87.3872 29.6897 87.415 29.8846 87.415 30.0795C87.415 30.3579 87.3594 30.6085 87.2761 30.8591C87.1649 31.0818 87.026 31.2767 86.8592 31.4438C86.6647 31.6108 86.4702 31.7222 86.1923 31.8335C85.9422 31.9171 85.6644 31.9728 85.3587 31.9728C85.0252 31.9728 84.7196 31.9171 84.4417 31.8335C84.275 31.9171 84.136 32.0284 84.0527 32.1676C83.9693 32.3069 83.9137 32.4182 83.9137 32.5574C83.9137 32.7245 83.9693 32.8637 84.0804 32.9472C84.1916 33.0307 84.3583 33.1143 84.5528 33.1421C84.7474 33.17 84.9697 33.1978 85.2198 33.2256C85.3448 33.2256 85.4698 33.2326 85.5949 33.2396C85.7199 33.2465 85.845 33.2535 85.97 33.2535C86.0533 33.2628 86.1367 33.2689 86.22 33.2751L86.2201 33.2751C86.3868 33.2875 86.5536 33.2999 86.7203 33.337C86.9704 33.3648 87.1927 33.4205 87.3872 33.5319C87.5817 33.6154 87.7484 33.7546 87.8596 33.8938C87.9707 34.0609 88.0263 34.2558 88.0263 34.5342C88.0263 34.7848 87.9707 35.0075 87.8318 35.2303C87.7207 35.453 87.5261 35.6479 87.3038 35.8149C87.0815 35.982 86.8037 36.1212 86.4702 36.2326C86.1368 36.3439 85.7755 36.3996 85.3865 36.3996C84.9697 36.3996 84.6084 36.3439 84.3028 36.2604C83.9971 36.1769 83.747 36.0655 83.5247 35.9263C83.3024 35.7871 83.1634 35.62 83.0523 35.4251C82.9411 35.2303 82.8856 35.0354 82.8856 34.8126C82.8856 34.5064 82.9967 34.2279 83.1912 34.0052C83.3858 33.7825 83.6636 33.6154 84.0249 33.4762C83.8304 33.4205 83.6636 33.3092 83.5525 33.1978C83.4413 33.0586 83.3858 32.8915 83.3858 32.6688C83.3858 32.5853 83.4135 32.5018 83.4413 32.4182C83.4593 32.3643 83.4888 32.3104 83.5224 32.2489L83.5224 32.2489L83.5225 32.2488C83.5409 32.2152 83.5606 32.1792 83.5803 32.1398C83.6358 32.0563 83.7192 31.9728 83.8026 31.8892C83.8545 31.8372 83.9173 31.7959 83.9842 31.752C84.0245 31.7254 84.0664 31.6979 84.1082 31.6665C83.8304 31.4994 83.6081 31.3046 83.4691 31.0261C83.3024 30.7477 83.2468 30.4415 83.2468 30.0795C83.2468 29.8011 83.3024 29.5505 83.3858 29.2999C83.4969 29.0772 83.6358 28.8823 83.8026 28.7153C83.9971 28.5482 84.1916 28.4368 84.4695 28.3255C84.7474 28.2698 85.053 28.2419 85.3587 28.2419ZM87.5261 34.5899C87.5261 34.395 87.4706 34.2558 87.3872 34.1444C87.3038 34.0331 87.1649 33.9495 86.9982 33.8938C86.8314 33.8382 86.6647 33.7825 86.4424 33.7546L86.3819 33.747C86.184 33.7219 86.0027 33.699 85.7755 33.699C85.6677 33.699 85.5598 33.6924 85.4488 33.6857L85.4487 33.6856C85.3309 33.6785 85.2095 33.6711 85.0808 33.6711C84.8307 33.6711 84.6362 33.6433 84.4417 33.5876C84.3722 33.6154 84.3027 33.6502 84.2333 33.685C84.1638 33.7198 84.0943 33.7546 84.0249 33.7825C83.9322 33.8382 83.8643 33.8938 83.7964 33.9495C83.7624 33.9774 83.7285 34.0052 83.6914 34.0331C83.608 34.1166 83.5247 34.2279 83.4691 34.3393C83.4135 34.4507 83.3857 34.5899 83.3857 34.7291C83.3857 34.8962 83.4413 35.0632 83.5247 35.2024C83.608 35.3416 83.747 35.4808 83.9137 35.5922C84.0804 35.7036 84.3027 35.7871 84.5251 35.8428C84.7751 35.8985 85.053 35.9263 85.3865 35.9263C85.6921 35.9263 85.97 35.8985 86.2201 35.8149C86.4702 35.7593 86.6925 35.6479 86.887 35.5365C87.0815 35.4251 87.2205 35.2581 87.3316 35.091C87.4706 34.9518 87.5261 34.7848 87.5261 34.5899ZM86.0256 31.4994C85.8311 31.583 85.6088 31.6108 85.3587 31.6108C85.1086 31.6108 84.8863 31.5551 84.6918 31.4994C84.4973 31.4159 84.3305 31.3324 84.1916 31.1932C84.0527 31.054 83.9693 30.8869 83.8859 30.7199C83.8026 30.525 83.7748 30.3301 83.7748 30.1074C83.7748 29.8846 83.8026 29.6897 83.8859 29.4948C83.9415 29.2999 84.0527 29.1607 84.1916 29.0215C84.3305 28.8823 84.4973 28.7988 84.6918 28.7153C84.8863 28.6317 85.1086 28.6039 85.3587 28.6039C85.6088 28.6039 85.8311 28.6317 86.0256 28.7153C86.2201 28.7988 86.3868 28.8823 86.5258 29.0215C86.6647 29.1607 86.7481 29.2999 86.8314 29.4948C86.9148 29.6897 86.9426 29.8846 86.9426 30.1074C86.9426 30.3301 86.887 30.5528 86.8314 30.7199C86.7481 30.9148 86.6647 31.054 86.5258 31.1932C86.3868 31.3324 86.2201 31.4159 86.0256 31.4994ZM89.3601 28.3255V34.1444H89.9159V30.3579C90.1104 29.8289 90.3327 29.4391 90.6106 29.1607C90.8885 28.8823 91.2497 28.7431 91.6943 28.7431C91.8333 28.7431 91.9444 28.7431 92.0278 28.7709C92.0743 28.7826 92.116 28.7894 92.1528 28.7954L92.1528 28.7954C92.2039 28.8037 92.2456 28.8104 92.2779 28.8266C92.3097 28.8373 92.3334 28.8438 92.3537 28.8494C92.3865 28.8585 92.4102 28.8651 92.4446 28.8823C92.5002 28.9102 92.528 28.9102 92.5557 28.9102C92.6113 28.9102 92.6669 28.8823 92.6669 28.8266L92.7503 28.4368C92.6113 28.3533 92.4724 28.2976 92.3334 28.2698C92.1667 28.2419 92 28.2141 91.8333 28.2141C91.3609 28.2141 90.9718 28.3255 90.6662 28.6039C90.3605 28.8823 90.1104 29.2443 89.9159 29.7176L89.8603 28.4925C89.8603 28.4368 89.8325 28.3812 89.8047 28.3533C89.777 28.3255 89.7214 28.3255 89.6658 28.3255H89.3601ZM100.753 28.3255V32.0563C100.753 32.6131 100.892 33.0307 101.142 33.337C101.392 33.6433 101.781 33.8103 102.281 33.8103C102.671 33.8103 103.004 33.6989 103.337 33.5319C103.671 33.337 103.949 33.0586 104.227 32.7245V28.3255H104.782V34.1723H104.477C104.366 34.1723 104.31 34.1166 104.31 34.0331L104.254 33.17C103.977 33.5041 103.671 33.7825 103.31 33.9774C102.948 34.1723 102.559 34.2836 102.115 34.2836C101.781 34.2836 101.503 34.2279 101.253 34.1444C101.003 34.0331 100.809 33.8938 100.642 33.6989C100.475 33.5041 100.364 33.2813 100.281 33.0029C100.197 32.7245 100.17 32.4182 100.17 32.0841V28.3255H100.753ZM106.7 36.2326V28.3255H107.005C107.061 28.3255 107.089 28.3255 107.117 28.3533C107.144 28.3812 107.172 28.409 107.172 28.4647L107.228 29.3556C107.478 28.9937 107.783 28.7153 108.145 28.5204C108.478 28.3255 108.867 28.2141 109.312 28.2141C110.034 28.2141 110.59 28.4647 110.979 28.9658C111.368 29.467 111.59 30.2187 111.59 31.1932C111.59 31.6108 111.535 32.0284 111.424 32.3904C111.313 32.7523 111.146 33.0864 110.924 33.3648C110.701 33.6433 110.451 33.8382 110.118 34.0052C109.812 34.1723 109.451 34.2279 109.034 34.2279C108.645 34.2279 108.284 34.1444 108.006 34.0052C107.728 33.866 107.478 33.6433 107.256 33.3648V36.2326H106.7ZM109.145 28.6874C108.756 28.6874 108.395 28.7988 108.089 28.9937C107.783 29.1886 107.506 29.467 107.256 29.8289V32.8915C107.478 33.2256 107.728 33.4762 108.006 33.6154C108.284 33.7546 108.589 33.8103 108.923 33.8103C109.256 33.8103 109.562 33.7546 109.812 33.6154C110.062 33.4762 110.284 33.3092 110.451 33.0864C110.618 32.8637 110.757 32.5853 110.84 32.2512C110.924 31.9449 110.979 31.583 110.979 31.1932C110.979 30.3301 110.812 29.6897 110.507 29.2721C110.201 28.8823 109.729 28.6874 109.145 28.6874ZM66.7408 33.8382C67.0465 33.8382 67.3244 33.8103 67.5467 33.7546V34.1444C67.3244 34.2279 67.0465 34.2558 66.7408 34.2558C66.2684 34.2558 65.935 34.1444 65.7127 33.8938C65.4904 33.6433 65.3792 33.2535 65.3792 32.7245V26.2652H65.8794V28.8823H67.4355V29.2999H65.8794V32.641C65.8794 33.0586 65.9628 33.337 66.1017 33.5319C66.2129 33.7546 66.4352 33.8382 66.7408 33.8382ZM96.0292 34.1723C94.4175 34.1723 93.0837 32.8359 93.0837 31.221C93.0837 29.5784 94.4175 28.2698 96.0292 28.2698C97.6409 28.2698 98.9747 29.6062 98.9747 31.221C98.9747 32.8359 97.6687 34.1723 96.0292 34.1723ZM96.0292 28.8266C94.7232 28.8266 93.6672 29.8846 93.6672 31.1932C93.6672 32.5018 94.7232 33.5597 96.0292 33.5597C97.3353 33.5597 98.3912 32.5018 98.3912 31.1932C98.419 29.9125 97.3353 28.8266 96.0292 28.8266Z" fill="white"/>
<mask id="mask0_0_45540" style="mask-type:alpha" maskUnits="userSpaceOnUse" x="31" y="2" width="93" height="35">
<path fill-rule="evenodd" clip-rule="evenodd" d="M110.034 23.0634C110.868 23.0634 111.563 22.9798 112.174 22.8406V23.8986C111.535 24.1214 110.812 24.2049 110.007 24.2049C108.756 24.2049 107.811 23.8708 107.228 23.2026C106.616 22.5344 106.339 21.4764 106.339 20.0286V2.59961H107.645V9.6436H111.84V10.7851H107.645V19.8337C107.645 20.9195 107.839 21.7548 108.228 22.256C108.589 22.7849 109.201 23.0634 110.034 23.0634ZM58.4601 2.76666V24.2049V24.2327H59.8495V13.2352C60.4886 12.3721 61.2111 11.7039 62.0447 11.2027C62.8505 10.7016 63.7398 10.451 64.7123 10.451C66.0184 10.451 66.9631 10.8408 67.6023 11.6204C68.2414 12.3999 68.5471 13.4858 68.5471 14.85V24.2049H69.9364V14.85C69.9364 13.9869 69.8253 13.2074 69.6308 12.5391C69.4085 11.8709 69.1028 11.2863 68.7138 10.813C68.297 10.3118 67.7968 9.94986 67.1854 9.69928C66.5741 9.4487 65.8794 9.30949 65.0736 9.30949C63.9898 9.30949 63.0173 9.56007 62.1558 10.0612C61.2944 10.5624 60.5164 11.2306 59.8495 12.0658V2.76666H58.4601ZM32.5896 15.8523V2.7945H31.2002V24.2327H32.5896V16.8268H33.2843C33.5622 16.8268 33.7845 16.8546 33.9234 16.9103C34.0623 16.966 34.2013 17.1052 34.368 17.2723L40.5091 23.9265C40.6203 24.0378 40.7314 24.1214 40.8426 24.177C40.9537 24.2327 41.0649 24.2606 41.2038 24.2606H42.3987L35.6185 16.8546C35.5073 16.7154 35.3962 16.6041 35.285 16.4927C35.1739 16.3813 35.0627 16.2978 34.896 16.2143C35.0071 16.1586 35.1183 16.0751 35.2016 15.9915L35.4795 15.7131L41.9263 9.53223H40.7036C40.5091 9.53223 40.3702 9.58791 40.259 9.6436L40.259 9.64361C40.1479 9.72713 40.0367 9.81065 39.9256 9.92201L34.0623 15.5182C33.8956 15.6574 33.7567 15.7688 33.6455 15.7966C33.5344 15.8245 33.3954 15.8523 33.2565 15.8523H32.5896ZM123.289 11.2863C123.234 11.4255 123.122 11.4812 122.956 11.4812C122.844 11.4812 122.706 11.4255 122.539 11.2863C122.372 11.1749 122.15 11.0357 121.872 10.8686C121.594 10.7294 121.261 10.5902 120.844 10.451C120.427 10.3396 119.927 10.2561 119.343 10.2561C118.815 10.2561 118.343 10.3396 117.898 10.4789C117.454 10.6181 117.092 10.8408 116.787 11.0914C116.481 11.3419 116.231 11.6482 116.064 11.9823C115.898 12.3164 115.814 12.6784 115.814 13.0403C115.814 13.5136 115.925 13.8756 116.175 14.1818C116.398 14.4881 116.731 14.7387 117.092 14.9614C117.481 15.1841 117.898 15.3512 118.398 15.5182C118.706 15.6271 119.026 15.7241 119.357 15.8247L119.358 15.8248C119.535 15.8786 119.715 15.9334 119.899 15.9915C120.399 16.1586 120.899 16.3256 121.4 16.5205C121.872 16.7154 122.317 16.9382 122.706 17.2444C123.095 17.5228 123.4 17.8848 123.623 18.3024C123.845 18.72 123.984 19.2212 123.984 19.8059C123.984 20.4462 123.873 21.0309 123.65 21.5877C123.428 22.1446 123.095 22.6179 122.65 23.0077C122.205 23.3975 121.677 23.7316 121.038 23.9543C120.399 24.177 119.677 24.3162 118.871 24.3162C117.843 24.3162 116.953 24.1492 116.203 23.8151C115.453 23.481 114.786 23.0634 114.202 22.5344L114.536 22.0332C114.591 21.9497 114.647 21.894 114.703 21.8662C114.758 21.8383 114.842 21.8105 114.953 21.8105C115.092 21.8105 115.231 21.894 115.425 22.0332C115.62 22.2003 115.842 22.3673 116.148 22.5344C116.453 22.7293 116.815 22.8963 117.259 23.0355C117.704 23.2026 118.259 23.2583 118.926 23.2583C119.538 23.2583 120.093 23.1747 120.566 23.0077C121.038 22.8406 121.427 22.5901 121.733 22.3116C122.039 22.0054 122.289 21.6713 122.455 21.2815C122.622 20.8917 122.706 20.4741 122.706 20.0286C122.706 19.5275 122.594 19.1377 122.344 18.8036C122.122 18.4695 121.789 18.191 121.427 17.9683C121.038 17.7456 120.621 17.5507 120.121 17.3836C119.814 17.2748 119.494 17.1778 119.163 17.0772C118.985 17.0234 118.805 16.9685 118.621 16.9103C118.093 16.7433 117.593 16.5762 117.12 16.3813C116.648 16.1864 116.203 15.9637 115.814 15.6853C115.425 15.4069 115.119 15.0449 114.897 14.6551C114.675 14.2375 114.536 13.7363 114.536 13.1238C114.536 12.5948 114.647 12.0937 114.869 11.6204C115.092 11.1471 115.425 10.7294 115.842 10.3396C116.259 9.9777 116.759 9.69928 117.37 9.47655C117.982 9.25381 118.649 9.14244 119.371 9.14244C120.26 9.14244 121.066 9.28165 121.733 9.53223C122.428 9.78281 123.067 10.2004 123.65 10.7294L123.289 11.2863ZM42.0652 16.8825C42.0652 12.8454 45.3442 9.56007 49.3734 9.56007C53.4027 9.56007 56.6816 12.8454 56.6816 16.8825C56.6816 18.8314 56.3204 24.2049 56.3204 24.2049H49.3734C45.3442 24.2049 42.0652 20.9195 42.0652 16.8825ZM49.3734 22.9242C52.708 22.9242 55.4034 20.2235 55.4034 16.8825C55.4034 13.5415 52.708 10.8408 49.3734 10.8408C46.0389 10.8408 43.3435 13.5415 43.3435 16.8825C43.3713 20.2235 46.0667 22.9242 49.3734 22.9242ZM72.1039 16.799C72.1039 20.9752 75.494 24.3998 79.69 24.3998C83.8859 24.3998 87.3038 21.0031 87.2761 16.799C87.2761 12.6227 83.8581 9.19813 79.69 9.19813C75.5218 9.19813 72.1039 12.5948 72.1039 16.799ZM73.4933 16.799C73.4933 13.3744 76.2721 10.5902 79.69 10.5902C83.1079 10.5902 85.8867 13.3744 85.8867 16.799C85.8867 20.2235 83.1079 23.0077 79.69 23.0077C76.2721 23.0077 73.4933 20.2235 73.4933 16.799ZM96.2515 24.3998C92.0556 24.3998 88.6654 20.9752 88.6654 16.799C88.6654 12.5948 92.0833 9.19813 96.2515 9.19813C100.447 9.19813 103.838 12.6227 103.838 16.799C103.838 21.0031 100.42 24.3998 96.2515 24.3998ZM96.2515 10.5902C92.8336 10.5902 90.0548 13.3744 90.0548 16.799C90.0548 20.2235 92.8336 23.0077 96.2515 23.0077C99.6694 23.0077 102.448 20.2235 102.448 16.799C102.448 13.3744 99.6694 10.5902 96.2515 10.5902ZM47.8451 29.1886L47.9007 29.1329L47.9563 28.8823C47.734 28.6596 47.4839 28.4925 47.1782 28.3812C46.9003 28.2419 46.5669 28.1863 46.1778 28.1863C45.761 28.1863 45.3998 28.2698 45.0663 28.409C44.7329 28.5482 44.455 28.7431 44.2327 29.0215C44.0104 29.2721 43.8437 29.6062 43.7325 29.9681C43.6214 30.3301 43.5658 30.7477 43.5658 31.1932C43.5658 31.6665 43.6491 32.112 43.7603 32.4739C43.8992 32.8359 44.066 33.17 44.2883 33.4205C44.4828 33.6711 44.7607 33.866 45.0663 34.0052C45.372 34.1444 45.7332 34.2001 46.0945 34.2001C46.3168 34.2001 46.5391 34.1723 46.7336 34.1444C46.9281 34.1166 47.1226 34.0609 47.2894 33.9774C47.4839 33.9217 47.6228 33.8382 47.7617 33.7268C47.9007 33.6154 48.0118 33.5041 48.0952 33.3927L47.9563 33.1978C47.9285 33.17 47.9007 33.1421 47.8451 33.1421C47.8279 33.1421 47.8001 33.1634 47.7617 33.1928L47.7617 33.1928C47.738 33.211 47.7102 33.2322 47.6784 33.2535C47.6264 33.3056 47.5636 33.3468 47.4968 33.3907L47.4968 33.3907L47.4968 33.3908L47.4967 33.3908L47.4967 33.3908L47.4967 33.3908L47.4967 33.3908L47.4967 33.3908L47.4966 33.3908L47.4966 33.3908L47.4966 33.3909L47.4966 33.3909L47.4966 33.3909C47.4563 33.4174 47.4145 33.4448 47.3727 33.4762C47.2338 33.5597 47.0948 33.6433 46.9003 33.6989C46.7336 33.7825 46.4835 33.8103 46.2056 33.8103C45.9 33.8103 45.6221 33.7546 45.372 33.6433C45.1219 33.5319 44.8996 33.3648 44.7329 33.1421C44.5384 32.9194 44.3994 32.641 44.3161 32.3347C44.2327 32.0284 44.1771 31.6665 44.1771 31.2489C44.1771 30.8591 44.2327 30.4971 44.3161 30.1909C44.4272 29.8846 44.5661 29.6062 44.7329 29.3835C44.9274 29.1607 45.1497 28.9937 45.3998 28.8823C45.6499 28.7709 45.9555 28.7153 46.289 28.7153C46.5113 28.7153 46.7336 28.7431 46.9003 28.7988C47.067 28.8545 47.206 28.9102 47.3171 28.9658C47.4283 29.0215 47.5394 29.0772 47.595 29.1329C47.6784 29.1886 47.734 29.2164 47.7617 29.2164C47.7895 29.2164 47.8173 29.2164 47.8451 29.1886ZM49.4012 34.1444V28.3255H49.7069C49.7625 28.3255 49.818 28.3255 49.8458 28.3533C49.8736 28.3812 49.9014 28.4368 49.9014 28.4925L49.957 29.7176C50.1515 29.2443 50.4016 28.8823 50.7073 28.6039C51.0129 28.3255 51.402 28.2141 51.8743 28.2141C52.0411 28.2141 52.2078 28.2419 52.3745 28.2698C52.5135 28.2976 52.6524 28.3533 52.7913 28.4368L52.708 28.8266C52.708 28.8823 52.6524 28.9102 52.5968 28.9102C52.569 28.9102 52.5413 28.9102 52.4857 28.8823C52.4513 28.8651 52.4276 28.8585 52.3948 28.8494C52.3745 28.8438 52.3508 28.8373 52.319 28.8266C52.2867 28.8104 52.245 28.8037 52.1939 28.7954L52.1939 28.7954C52.1571 28.7894 52.1154 28.7826 52.0689 28.7709C51.9855 28.7431 51.8743 28.7431 51.7354 28.7431C51.2908 28.7431 50.9296 28.8823 50.6517 29.1607C50.3738 29.4391 50.1515 29.8289 49.957 30.3579V34.1444H49.4012ZM56.2648 28.2419C56.5983 28.2419 56.9039 28.2976 57.1818 28.409C57.4597 28.5204 57.7098 28.6874 57.9043 28.9102C58.0988 29.1329 58.2656 29.3835 58.3767 29.7176C58.4879 30.0238 58.5434 30.3858 58.5434 30.8034C58.5434 30.8869 58.5434 30.9426 58.5156 30.9704C58.4879 30.9983 58.4601 31.0261 58.4045 31.0261H54.1807V31.1375C54.1807 31.583 54.2363 31.9728 54.3197 32.3069C54.4308 32.641 54.5698 32.9194 54.7643 33.1421C54.9588 33.3648 55.1811 33.5319 55.4312 33.6433C55.7091 33.7546 55.9869 33.8103 56.3204 33.8103C56.6261 33.8103 56.8762 33.7825 57.0707 33.7268C57.293 33.6711 57.4597 33.5876 57.6264 33.5041L57.6264 33.5041C57.6679 33.4791 57.7069 33.4567 57.7441 33.4352L57.7442 33.4352L57.7442 33.4352L57.7443 33.4351C57.8318 33.3848 57.9097 33.3399 57.9877 33.2813C58.071 33.2256 58.1266 33.1978 58.1822 33.1978C58.2378 33.1978 58.2656 33.2256 58.2933 33.2535L58.4323 33.4484C58.3489 33.5597 58.21 33.6711 58.071 33.7825C57.9043 33.8938 57.7376 33.9774 57.5431 34.0331C57.3486 34.1166 57.154 34.1723 56.9317 34.2001C56.7094 34.2558 56.4871 34.2558 56.2648 34.2558C55.8758 34.2558 55.5146 34.2001 55.1811 34.0609C54.8476 33.9217 54.5698 33.7268 54.3475 33.4484C54.1252 33.17 53.9306 32.8637 53.7917 32.4739C53.6528 32.0841 53.5972 31.6387 53.5972 31.1375C53.5972 30.7199 53.6528 30.3301 53.7639 29.9681C53.8751 29.6062 54.0418 29.2999 54.2919 29.0494C54.5142 28.7988 54.7921 28.6039 55.1255 28.4368C55.4868 28.3255 55.848 28.2419 56.2648 28.2419ZM56.2648 28.6596C55.9592 28.6596 55.6813 28.7153 55.459 28.7988C55.2089 28.8823 55.0144 29.0215 54.8476 29.2164C54.6809 29.3835 54.542 29.6062 54.4308 29.8568C54.3197 30.1074 54.2641 30.3858 54.2085 30.692H58.0432C58.0432 30.3858 57.9877 30.1074 57.9043 29.8568C57.8209 29.6062 57.7098 29.4113 57.5431 29.2164C57.3763 29.0494 57.2096 28.9102 56.9873 28.8266C56.765 28.7153 56.5427 28.6596 56.2648 28.6596ZM63.5452 34.0052C63.573 34.1166 63.6564 34.1723 63.7675 34.1723V34.0609H63.9898V30.2466C63.9898 29.9125 63.9621 29.6062 63.8787 29.3556C63.7953 29.105 63.6842 28.8823 63.5175 28.6874C63.3507 28.5204 63.1562 28.3812 62.9339 28.2698C62.6838 28.1863 62.4059 28.1306 62.1003 28.1306C61.6835 28.1306 61.2944 28.1863 60.961 28.3533C60.6275 28.5204 60.2941 28.7431 59.9884 29.0494L60.0995 29.2164C60.1273 29.2999 60.1829 29.3278 60.2663 29.3278C60.3218 29.3278 60.4052 29.2999 60.4886 29.2164C60.5719 29.1329 60.6831 29.0494 60.822 28.9658C60.961 28.8823 61.1277 28.7988 61.3222 28.7153C61.5167 28.6317 61.7668 28.6039 62.0447 28.6039C62.4893 28.6039 62.8505 28.7709 63.0728 29.0494C63.3229 29.3556 63.4341 29.7733 63.4341 30.3022V30.9148C62.7672 30.9426 62.2114 30.9983 61.739 31.0818C61.2666 31.1653 60.8776 31.2767 60.5719 31.4438C60.2663 31.6108 60.044 31.7779 59.905 32.0006C59.7661 32.2233 59.6827 32.4461 59.6827 32.6966C59.6827 32.9751 59.7383 33.1978 59.8217 33.3927C59.9328 33.5876 60.044 33.7546 60.1829 33.866C60.3218 34.0052 60.4886 34.0887 60.6831 34.1444C60.8776 34.2001 61.0721 34.2279 61.2666 34.2279C61.5167 34.2279 61.739 34.2279 61.9335 34.1723L61.9336 34.1723L61.9336 34.1722L61.9336 34.1722L61.9337 34.1722L61.9337 34.1722L61.9337 34.1722L61.9337 34.1722L61.9338 34.1722L61.9338 34.1722L61.9338 34.1721C62.1283 34.1165 62.3227 34.0609 62.4893 33.9774C62.656 33.8938 62.8228 33.8103 62.9895 33.6711C63.1284 33.5597 63.2952 33.4205 63.4619 33.2535L63.5452 34.0052ZM62.0447 33.7825C61.878 33.8382 61.6557 33.866 61.4334 33.866C61.3113 33.866 61.2042 33.8511 61.0683 33.8322C61.0185 33.8252 60.965 33.8178 60.9054 33.8103C60.7665 33.7825 60.6553 33.699 60.5442 33.6154L60.5442 33.6154C60.433 33.5041 60.3496 33.3927 60.2941 33.2535C60.2385 33.1143 60.2107 32.9472 60.2107 32.7523C60.2107 32.5296 60.2941 32.3625 60.4052 32.1955C60.5442 32.0284 60.7387 31.8892 60.9888 31.7779C61.2666 31.6665 61.6001 31.5551 61.9891 31.4994C62.4059 31.4159 62.8783 31.3881 63.4341 31.3602V32.8915C63.2952 33.0307 63.1562 33.17 63.0173 33.2813C62.8783 33.3927 62.7394 33.5041 62.5727 33.5876C62.4059 33.6711 62.2392 33.7268 62.0447 33.7825ZM69.7697 28.3255H69.214V34.1723H69.7697V28.3255ZM73.4933 34.1723L71.0202 28.3255H71.4648C71.5203 28.3255 71.5759 28.3533 71.6037 28.3812L71.6871 28.4647L73.6044 33.0864L73.6878 33.337C73.7017 33.3788 73.7086 33.4205 73.7156 33.4623C73.7225 33.5041 73.7295 33.5458 73.7434 33.5876C73.7573 33.5458 73.7642 33.5041 73.7712 33.4623C73.7781 33.4205 73.7851 33.3788 73.799 33.337L73.8823 33.0864L75.8275 28.4647C75.8552 28.409 75.883 28.3812 75.9108 28.3533C75.9386 28.3255 75.9942 28.3255 76.022 28.3255H76.4388L73.9935 34.1723H73.4933ZM79.6344 28.2419C79.9678 28.2419 80.2735 28.2976 80.5514 28.409C80.8293 28.5204 81.0794 28.6874 81.2739 28.9102C81.4684 29.1329 81.6351 29.3835 81.7463 29.7176C81.8574 30.0238 81.913 30.3858 81.913 30.8034C81.913 30.8869 81.913 30.9426 81.8852 30.9704C81.8574 30.9983 81.8296 31.0261 81.7741 31.0261H77.5781V31.1375C77.5781 31.583 77.6337 31.9728 77.717 32.3069C77.8282 32.641 77.9671 32.9194 78.1616 33.1421C78.3562 33.3648 78.5785 33.5319 78.8285 33.6433C79.1064 33.7546 79.3843 33.8103 79.7178 33.8103C80.0234 33.8103 80.2735 33.7825 80.468 33.7268C80.6903 33.6711 80.857 33.5876 81.0238 33.5041L81.0238 33.5041C81.0653 33.4791 81.1042 33.4567 81.1415 33.4352C81.2291 33.3848 81.307 33.3399 81.385 33.2813C81.4684 33.2256 81.524 33.1978 81.5795 33.1978C81.6351 33.1978 81.6629 33.2256 81.6907 33.2535L81.8296 33.4484C81.7463 33.5597 81.6073 33.6711 81.4684 33.7825C81.3017 33.8938 81.1349 33.9774 80.9404 34.0331C80.7459 34.1166 80.5514 34.1723 80.3291 34.2001C80.1068 34.2558 79.8845 34.2558 79.6622 34.2558C79.2732 34.2558 78.9119 34.2001 78.5785 34.0609C78.245 33.9217 77.9671 33.7268 77.7448 33.4484C77.5225 33.17 77.328 32.8637 77.1891 32.4739C77.0501 32.0841 76.9945 31.6387 76.9945 31.1375C76.9945 30.7199 77.0501 30.3301 77.1613 29.9681C77.2724 29.6062 77.4392 29.2999 77.6892 29.0494C77.9115 28.7988 78.1894 28.6039 78.5229 28.4368C78.8563 28.3255 79.2176 28.2419 79.6344 28.2419ZM79.6344 28.6596C79.3287 28.6596 79.0508 28.7153 78.8285 28.7988C78.5785 28.8823 78.3839 29.0215 78.2172 29.2164C78.0505 29.3835 77.9116 29.6062 77.8004 29.8568C77.6893 30.1074 77.6337 30.3858 77.5781 30.692H81.4128C81.4128 30.3858 81.3572 30.1074 81.2739 29.8568C81.1905 29.6062 81.0794 29.4113 80.9126 29.2164C80.7459 29.0494 80.5792 28.9102 80.3569 28.8266C80.1624 28.7153 79.9123 28.6596 79.6344 28.6596ZM85.3587 28.2419C85.6088 28.2419 85.8589 28.2698 86.0534 28.3255C86.2757 28.3812 86.4702 28.4647 86.6369 28.576H88.1375V28.7709C88.1375 28.8545 88.0819 28.9102 87.9707 28.938L87.0815 28.9937C87.1927 29.1329 87.2761 29.2999 87.3316 29.4948C87.3872 29.6897 87.415 29.8846 87.415 30.0795C87.415 30.3579 87.3594 30.6085 87.2761 30.8591C87.1649 31.0818 87.026 31.2767 86.8592 31.4438C86.6647 31.6108 86.4702 31.7222 86.1923 31.8335C85.9422 31.9171 85.6644 31.9728 85.3587 31.9728C85.0252 31.9728 84.7196 31.9171 84.4417 31.8335C84.275 31.9171 84.136 32.0284 84.0527 32.1676C83.9693 32.3069 83.9137 32.4182 83.9137 32.5574C83.9137 32.7245 83.9693 32.8637 84.0804 32.9472C84.1916 33.0307 84.3583 33.1143 84.5528 33.1421C84.7474 33.17 84.9697 33.1978 85.2198 33.2256C85.3448 33.2256 85.4698 33.2326 85.5949 33.2396C85.7199 33.2465 85.845 33.2535 85.97 33.2535C86.0533 33.2628 86.1367 33.2689 86.22 33.2751L86.2201 33.2751C86.3868 33.2875 86.5536 33.2999 86.7203 33.337C86.9704 33.3648 87.1927 33.4205 87.3872 33.5319C87.5817 33.6154 87.7484 33.7546 87.8596 33.8938C87.9707 34.0609 88.0263 34.2558 88.0263 34.5342C88.0263 34.7848 87.9707 35.0075 87.8318 35.2303C87.7207 35.453 87.5261 35.6479 87.3038 35.8149C87.0815 35.982 86.8037 36.1212 86.4702 36.2326C86.1368 36.3439 85.7755 36.3996 85.3865 36.3996C84.9697 36.3996 84.6084 36.3439 84.3028 36.2604C83.9971 36.1769 83.747 36.0655 83.5247 35.9263C83.3024 35.7871 83.1634 35.62 83.0523 35.4251C82.9411 35.2303 82.8856 35.0354 82.8856 34.8126C82.8856 34.5064 82.9967 34.2279 83.1912 34.0052C83.3858 33.7825 83.6636 33.6154 84.0249 33.4762C83.8304 33.4205 83.6636 33.3092 83.5525 33.1978C83.4413 33.0586 83.3858 32.8915 83.3858 32.6688C83.3858 32.5853 83.4135 32.5018 83.4413 32.4182C83.4593 32.3643 83.4888 32.3104 83.5224 32.2489L83.5224 32.2489L83.5225 32.2488C83.5409 32.2152 83.5606 32.1792 83.5803 32.1398C83.6358 32.0563 83.7192 31.9728 83.8026 31.8892C83.8545 31.8372 83.9173 31.7959 83.9842 31.752C84.0245 31.7254 84.0664 31.6979 84.1082 31.6665C83.8304 31.4994 83.6081 31.3046 83.4691 31.0261C83.3024 30.7477 83.2468 30.4415 83.2468 30.0795C83.2468 29.8011 83.3024 29.5505 83.3858 29.2999C83.4969 29.0772 83.6358 28.8823 83.8026 28.7153C83.9971 28.5482 84.1916 28.4368 84.4695 28.3255C84.7474 28.2698 85.053 28.2419 85.3587 28.2419ZM87.5261 34.5899C87.5261 34.395 87.4706 34.2558 87.3872 34.1444C87.3038 34.0331 87.1649 33.9495 86.9982 33.8938C86.8314 33.8382 86.6647 33.7825 86.4424 33.7546L86.3819 33.747C86.184 33.7219 86.0027 33.699 85.7755 33.699C85.6677 33.699 85.5598 33.6924 85.4488 33.6857L85.4487 33.6856C85.3309 33.6785 85.2095 33.6711 85.0808 33.6711C84.8307 33.6711 84.6362 33.6433 84.4417 33.5876C84.3722 33.6154 84.3027 33.6502 84.2333 33.685C84.1638 33.7198 84.0943 33.7546 84.0249 33.7825C83.9322 33.8382 83.8643 33.8938 83.7964 33.9495C83.7624 33.9774 83.7285 34.0052 83.6914 34.0331C83.608 34.1166 83.5247 34.2279 83.4691 34.3393C83.4135 34.4507 83.3857 34.5899 83.3857 34.7291C83.3857 34.8962 83.4413 35.0632 83.5247 35.2024C83.608 35.3416 83.747 35.4808 83.9137 35.5922C84.0804 35.7036 84.3027 35.7871 84.5251 35.8428C84.7751 35.8985 85.053 35.9263 85.3865 35.9263C85.6921 35.9263 85.97 35.8985 86.2201 35.8149C86.4702 35.7593 86.6925 35.6479 86.887 35.5365C87.0815 35.4251 87.2205 35.2581 87.3316 35.091C87.4706 34.9518 87.5261 34.7848 87.5261 34.5899ZM86.0256 31.4994C85.8311 31.583 85.6088 31.6108 85.3587 31.6108C85.1086 31.6108 84.8863 31.5551 84.6918 31.4994C84.4973 31.4159 84.3305 31.3324 84.1916 31.1932C84.0527 31.054 83.9693 30.8869 83.8859 30.7199C83.8026 30.525 83.7748 30.3301 83.7748 30.1074C83.7748 29.8846 83.8026 29.6897 83.8859 29.4948C83.9415 29.2999 84.0527 29.1607 84.1916 29.0215C84.3305 28.8823 84.4973 28.7988 84.6918 28.7153C84.8863 28.6317 85.1086 28.6039 85.3587 28.6039C85.6088 28.6039 85.8311 28.6317 86.0256 28.7153C86.2201 28.7988 86.3868 28.8823 86.5258 29.0215C86.6647 29.1607 86.7481 29.2999 86.8314 29.4948C86.9148 29.6897 86.9426 29.8846 86.9426 30.1074C86.9426 30.3301 86.887 30.5528 86.8314 30.7199C86.7481 30.9148 86.6647 31.054 86.5258 31.1932C86.3868 31.3324 86.2201 31.4159 86.0256 31.4994ZM89.3601 28.3255V34.1444H89.9159V30.3579C90.1104 29.8289 90.3327 29.4391 90.6106 29.1607C90.8885 28.8823 91.2497 28.7431 91.6943 28.7431C91.8333 28.7431 91.9444 28.7431 92.0278 28.7709C92.0743 28.7826 92.116 28.7894 92.1528 28.7954L92.1528 28.7954C92.2039 28.8037 92.2456 28.8104 92.2779 28.8266C92.3097 28.8373 92.3334 28.8438 92.3537 28.8494C92.3865 28.8585 92.4102 28.8651 92.4446 28.8823C92.5002 28.9102 92.528 28.9102 92.5557 28.9102C92.6113 28.9102 92.6669 28.8823 92.6669 28.8266L92.7503 28.4368C92.6113 28.3533 92.4724 28.2976 92.3334 28.2698C92.1667 28.2419 92 28.2141 91.8333 28.2141C91.3609 28.2141 90.9718 28.3255 90.6662 28.6039C90.3605 28.8823 90.1104 29.2443 89.9159 29.7176L89.8603 28.4925C89.8603 28.4368 89.8325 28.3812 89.8047 28.3533C89.777 28.3255 89.7214 28.3255 89.6658 28.3255H89.3601ZM100.753 28.3255V32.0563C100.753 32.6131 100.892 33.0307 101.142 33.337C101.392 33.6433 101.781 33.8103 102.281 33.8103C102.671 33.8103 103.004 33.6989 103.337 33.5319C103.671 33.337 103.949 33.0586 104.227 32.7245V28.3255H104.782V34.1723H104.477C104.366 34.1723 104.31 34.1166 104.31 34.0331L104.254 33.17C103.977 33.5041 103.671 33.7825 103.31 33.9774C102.948 34.1723 102.559 34.2836 102.115 34.2836C101.781 34.2836 101.503 34.2279 101.253 34.1444C101.003 34.0331 100.809 33.8938 100.642 33.6989C100.475 33.5041 100.364 33.2813 100.281 33.0029C100.197 32.7245 100.17 32.4182 100.17 32.0841V28.3255H100.753ZM106.7 36.2326V28.3255H107.005C107.061 28.3255 107.089 28.3255 107.117 28.3533C107.144 28.3812 107.172 28.409 107.172 28.4647L107.228 29.3556C107.478 28.9937 107.783 28.7153 108.145 28.5204C108.478 28.3255 108.867 28.2141 109.312 28.2141C110.034 28.2141 110.59 28.4647 110.979 28.9658C111.368 29.467 111.59 30.2187 111.59 31.1932C111.59 31.6108 111.535 32.0284 111.424 32.3904C111.313 32.7523 111.146 33.0864 110.924 33.3648C110.701 33.6433 110.451 33.8382 110.118 34.0052C109.812 34.1723 109.451 34.2279 109.034 34.2279C108.645 34.2279 108.284 34.1444 108.006 34.0052C107.728 33.866 107.478 33.6433 107.256 33.3648V36.2326H106.7ZM109.145 28.6874C108.756 28.6874 108.395 28.7988 108.089 28.9937C107.783 29.1886 107.506 29.467 107.256 29.8289V32.8915C107.478 33.2256 107.728 33.4762 108.006 33.6154C108.284 33.7546 108.589 33.8103 108.923 33.8103C109.256 33.8103 109.562 33.7546 109.812 33.6154C110.062 33.4762 110.284 33.3092 110.451 33.0864C110.618 32.8637 110.757 32.5853 110.84 32.2512C110.924 31.9449 110.979 31.583 110.979 31.1932C110.979 30.3301 110.812 29.6897 110.507 29.2721C110.201 28.8823 109.729 28.6874 109.145 28.6874ZM66.7408 33.8382C67.0465 33.8382 67.3244 33.8103 67.5467 33.7546V34.1444C67.3244 34.2279 67.0465 34.2558 66.7408 34.2558C66.2684 34.2558 65.935 34.1444 65.7127 33.8938C65.4904 33.6433 65.3792 33.2535 65.3792 32.7245V26.2652H65.8794V28.8823H67.4355V29.2999H65.8794V32.641C65.8794 33.0586 65.9628 33.337 66.1017 33.5319C66.2129 33.7546 66.4352 33.8382 66.7408 33.8382ZM96.0292 34.1723C94.4175 34.1723 93.0837 32.8359 93.0837 31.221C93.0837 29.5784 94.4175 28.2698 96.0292 28.2698C97.6409 28.2698 98.9747 29.6062 98.9747 31.221C98.9747 32.8359 97.6687 34.1723 96.0292 34.1723ZM96.0292 28.8266C94.7232 28.8266 93.6672 29.8846 93.6672 31.1932C93.6672 32.5018 94.7232 33.5597 96.0292 33.5597C97.3353 33.5597 98.3912 32.5018 98.3912 31.1932C98.419 29.9125 97.3353 28.8266 96.0292 28.8266Z" fill="white"/>
</mask>
<g mask="url(#mask0_0_45540)">
<rect width="156" height="39" fill="white"/>
</g>
</g>
</svg>
