<svg width="156" height="39" viewBox="0 0 156 39" fill="none" xmlns="http://www.w3.org/2000/svg">
<g opacity="0.4">
<path fill-rule="evenodd" clip-rule="evenodd" d="M81.6439 12.6979C81.6439 14.5687 81.1824 15.991 80.2605 16.9646C79.3383 17.9383 77.9883 18.4251 76.2103 18.4251C74.4576 18.4251 73.1141 17.9356 72.1791 16.9571C71.2443 15.9784 70.777 14.5538 70.777 12.6827C70.777 10.8319 71.2419 9.41893 72.1715 8.44258C73.1012 7.46684 74.4528 6.97852 76.2256 6.97852C78.0036 6.97852 79.3513 7.46295 80.268 8.43123C81.1851 9.3995 81.6439 10.8217 81.6439 12.6979ZM73.9561 12.6979C73.9561 14.8478 74.7074 15.9228 76.2103 15.9228C76.9745 15.9228 77.5412 15.6616 77.9108 15.1395C78.2799 14.6171 78.4648 13.8034 78.4648 12.6979C78.4648 11.5877 78.2778 10.7676 77.903 10.2375C77.5285 9.70792 76.9694 9.44284 76.2256 9.44284C74.7125 9.44284 73.9561 10.528 73.9561 12.6979ZM63.6163 18.2727V14.2265H64.3808L66.7494 18.2727H70.1732L66.9178 13.428C68.1811 12.7236 68.8129 11.727 68.8129 10.4389C68.8129 8.24863 67.2947 7.15364 64.2586 7.15364H60.5978V18.2727H63.6163ZM64.2721 12.1707H63.6163V9.22468H64.3078C65.5071 9.22468 66.1068 9.66877 66.1068 10.5567C66.1068 11.6325 65.4954 12.1707 64.2721 12.1707ZM119.268 18.2727V14.2265H120.032L122.401 18.2727H125.825L122.57 13.428C123.833 12.7236 124.465 11.727 124.465 10.4389C124.465 8.24863 122.946 7.15364 119.91 7.15364H116.25V18.2727H119.268ZM119.924 12.1707H119.268V9.22468H119.959C121.159 9.22468 121.759 9.66877 121.759 10.5567C121.759 11.6325 121.147 12.1707 119.924 12.1707ZM89.9656 16.1888L90.516 18.2727H93.8173L90.1262 7.10792H86.0989L82.4538 18.2727H85.7703L86.3361 16.1888H89.9656ZM88.8578 11.8994L89.3389 13.7248H86.9625C87.4261 11.9804 87.7252 10.8116 87.8606 10.2187C87.9954 9.62514 88.0861 9.19957 88.1318 8.94077C88.1828 9.2196 88.2882 9.68132 88.4489 10.3247C88.6095 10.9688 88.7455 11.4935 88.8578 11.8994ZM105.001 12.4774C105.001 14.3329 104.488 15.7629 103.461 16.7668C102.434 17.7706 100.991 18.2727 99.1319 18.2727H95.5172V7.15364H99.3842C101.177 7.15364 102.562 7.60969 103.537 8.52238C104.513 9.43537 105.001 10.7536 105.001 12.4774ZM101.868 12.5838C101.868 11.5647 101.665 10.8092 101.26 10.3176C100.855 9.82566 100.24 9.57971 99.4145 9.57971H98.5356V15.8087H99.2082C100.125 15.8087 100.798 15.5436 101.226 15.014C101.654 14.4841 101.868 13.674 101.868 12.5838ZM111.932 18.2727H108.914V9.6102H106.186V7.15364H114.653V9.6102H111.932V18.2727ZM130.368 18.2727H127.334V7.15364H130.368V18.2727ZM139.786 13.5688C140.523 12.8919 140.89 11.9326 140.89 10.6902C140.89 9.55939 140.537 8.68734 139.828 8.0738C139.12 7.46026 138.06 7.15364 136.649 7.15364H132.782V18.2727H135.801V14.584H136.649C138.004 14.584 139.05 14.2457 139.786 13.5688ZM136.425 12.1352H135.801V9.23902H136.684C137.631 9.23902 138.105 9.66429 138.105 10.5148C138.105 11.0205 137.953 11.417 137.65 11.7042C137.347 11.9914 136.938 12.1352 136.425 12.1352ZM67.277 32.7813H71.2353V21.6619H68.5454V26.6892C68.5454 27.3685 68.5811 28.2686 68.6526 29.3893H68.6066L64.5411 21.6619H60.5978V32.7813H63.2724V27.7693C63.2724 27.1201 63.2241 26.1797 63.1274 24.9475H63.1962L67.277 32.7813ZM79.9551 30.6974L80.5052 32.7813H83.8065L80.1155 21.6162H76.0884L72.443 32.7813H75.7596L76.325 30.6974H79.9551ZM78.8468 26.408L79.3284 28.2334H76.9517C77.4151 26.489 77.7147 25.3202 77.8496 24.727C77.9844 24.1337 78.0751 23.7079 78.121 23.4494C78.1718 23.7282 78.2778 24.1896 78.4381 24.8333C78.5985 25.4774 78.7348 26.0021 78.8468 26.408ZM86.9243 32.7813H89.9427V24.1185H92.6636V21.6619H84.1963V24.1185H86.9243V32.7813ZM94.753 32.7813H97.7867V21.6619H94.753V32.7813ZM110.656 27.2062C110.656 29.0773 110.195 30.4996 109.273 31.4732C108.351 32.4469 107 32.9334 105.222 32.9334C103.47 32.9334 102.126 32.4442 101.191 31.4654C100.256 30.487 99.7889 29.0621 99.7889 27.1913C99.7889 25.3405 100.254 23.9272 101.184 22.9512C102.113 21.9751 103.465 21.4871 105.238 21.4871C107.016 21.4871 108.363 21.9713 109.28 22.9395C110.197 23.9081 110.656 25.3303 110.656 27.2062ZM102.968 27.2062C102.968 29.3564 103.719 30.4314 105.222 30.4314C105.987 30.4314 106.553 30.1699 106.923 29.6478C107.292 29.1254 107.477 28.312 107.477 27.2062C107.477 26.0963 107.29 25.2762 106.915 24.7461C106.541 24.2162 105.981 23.9511 105.238 23.9511C103.725 23.9511 102.968 25.0363 102.968 27.2062ZM123.311 32.7813H119.352L115.272 24.9475H115.203C115.3 26.1797 115.348 27.1201 115.348 27.7693V32.7813H112.673V21.6619H116.616L120.682 29.3893H120.728C120.656 28.2686 120.621 27.3685 120.621 26.6892V21.6619H123.311V32.7813ZM27.8937 7.15364H16.9362L16.297 19.4815L45.8739 16.8741C46.2519 16.8442 46.6288 16.947 46.9384 17.1651L53.2554 21.612C53.5926 21.9169 53.7493 22.3723 53.6704 22.8188L53.1935 25.5285C53.1689 25.6674 53.0146 25.741 52.8905 25.6731C52.8122 25.6298 52.7563 25.5548 52.738 25.4675C52.7032 25.3022 52.5927 25.1627 52.4392 25.0898L51.2393 24.5219L51.3864 23.5486C51.4075 23.409 51.3984 23.265 51.3471 23.1335C51.3129 23.0447 51.2615 22.9593 51.187 22.9267L49.3328 22.1198C48.9575 21.9563 48.5497 21.8819 48.1407 21.9019L16.0884 23.5046L15.798 29.1066L31.8172 28.7423C32.4393 28.7286 32.9678 28.2857 33.0876 27.6778C33.0897 27.6664 33.1114 27.5553 33.2678 26.7606C33.4669 25.7499 34.0041 25.0727 34.9347 25.0372L39.5782 24.8247C40.5607 24.7873 41.3772 25.5697 41.3772 26.5478V28.0092C41.3772 28.543 41.8123 28.9757 42.3486 28.9757C42.5246 28.9757 42.6999 28.953 42.8702 28.9085L46.6144 27.9238L46.5477 27.3745C46.536 27.2782 46.6582 27.2265 46.7195 27.3018C47.0498 27.7071 47.4948 28.0044 47.9966 28.156L50.5354 28.9216C50.7775 28.9945 50.9429 29.2163 50.9429 29.4679V29.8289C50.9429 30.0686 50.7925 30.2826 50.5661 30.3651L49.4743 30.7625L49.3103 31.1355H48.9863L48.738 31.2682L48.4689 31.1487L46.7129 31.3555L46.4862 31.7266C46.4033 31.862 46.3045 31.9875 46.1895 32.0969C45.6303 32.6305 44.883 32.9325 44.1011 32.9334H53.5836L57.5215 7.15364H40.9976C40.9976 7.15364 41.5168 7.52601 41.5619 7.56785C41.6075 7.60999 41.6258 7.69426 41.5697 7.74686C41.5135 7.79886 41.4679 7.7893 41.4111 7.7361C41.3485 7.67779 41.16 7.5302 41.0418 7.43771L41.0417 7.4376C40.9922 7.39885 40.9551 7.36978 40.9448 7.36105C40.8079 7.24569 40.6043 7.15364 40.6043 7.15364H27.8937ZM27.8937 7.15364L30.6506 7.15454L16.8196 9.40309L16.8614 8.59739L19.2174 8.2044C19.3852 8.18468 19.5483 8.26806 19.6297 8.41539L19.6321 8.4378L27.1913 7.21012C27.4235 7.17247 27.6583 7.15364 27.8937 7.15364ZM15.5996 32.9334L15.6409 32.1371L15.6032 32.9334L15.5996 32.9334ZM36.5989 32.9334L15.6032 32.9334C16.7935 32.4504 17.2337 31.6035 17.2337 30.3522L33.4143 30.3594L33.7053 31.0336C34.2021 32.1852 35.3397 32.932 36.5989 32.9334ZM42.8623 32.9334H38.6999C39.1304 32.9328 39.5526 32.8163 39.9223 32.5966L40.7877 32.0808C41.3395 32.626 42.0852 32.9325 42.8623 32.9334ZM48.9491 23.4891L49.0743 23.5701C49.2668 23.6944 49.3553 23.9287 49.2935 24.1484L49.3941 24.1236C49.5196 24.0928 49.6199 23.9984 49.6577 23.8752C49.6784 23.8068 49.7388 23.7578 49.81 23.7509L50.7507 23.6607C50.8126 23.6547 50.867 23.617 50.8937 23.5608C50.9369 23.4709 50.8967 23.3633 50.8048 23.3232L49.1971 22.6224C49.0896 22.5755 48.9671 22.6437 48.9506 22.759L48.8701 23.3161C48.8605 23.3839 48.8911 23.4518 48.9491 23.4891ZM53.88 28.3508C53.8671 28.1228 53.8274 27.2185 53.8274 27.2185C53.8274 27.2185 53.8466 26.7343 53.7941 26.5774C53.7604 26.4754 53.7017 26.4094 53.6432 26.3435C53.6116 26.3079 53.58 26.2723 53.5524 26.2311C53.952 26.4011 54.0445 26.6336 54.0643 26.8171C54.0782 26.9471 54.0889 27.5487 54.0962 27.9593V27.9595L54.0962 27.9604L54.0962 27.9613C54.0991 28.1282 54.1016 28.2633 54.1034 28.3218C54.1109 28.5253 53.8929 28.5809 53.88 28.3508ZM45.4991 26.252L46.0183 24.5665C46.0586 24.4365 46.1793 24.3477 46.3159 24.3477H47.9512L47.9455 24.4798L46.5354 24.5952C46.3865 24.6212 46.2781 24.75 46.2781 24.9003L49.0298 24.6911C49.1337 24.6875 49.2376 24.6932 49.3403 24.7084L50.8351 25.0372C50.9856 25.07 51.082 25.2162 51.0528 25.3668L50.9279 26.0096L49.6199 25.715L46.4414 25.9029L46.4039 26.0323L49.6259 26.0706L50.8691 26.3787L50.8393 26.5631L52.8875 27.6106C52.9881 27.662 53.0527 27.7639 53.0563 27.8762L53.0836 28.7357C53.089 28.9025 52.9602 29.0435 52.7926 29.0543L52.3717 29.0812C52.2386 29.0899 52.1149 29.0128 52.0639 28.8902L51.82 28.3012C51.7867 28.2205 51.7209 28.1578 51.6387 28.1279L48.2731 26.9086C48.2488 26.8999 48.2236 26.8942 48.1978 26.8915L45.7658 26.651C45.5703 26.6315 45.4415 26.4388 45.4991 26.252ZM28.7993 16.8501C29.8101 16.7151 29.9209 16.1036 29.9671 15.5806C30.0137 15.0576 30.1611 10.9099 30.1509 10.2464C30.144 9.79967 29.8722 9.43417 29.2516 9.51994C28.936 9.56367 27.8825 9.7339 26.5902 9.9427L26.5902 9.94271L26.5901 9.94271L26.5901 9.94273C24.1905 10.3305 20.9678 10.8512 20.1188 10.9419C18.8144 11.0808 18.7261 11.6821 18.6703 12.2703C18.6141 12.8587 18.3646 15.6518 18.3042 16.6646C18.2439 17.6771 18.6802 17.7981 19.5393 17.7207C19.6745 17.7083 19.9716 17.6815 20.3803 17.6447L20.3815 17.6446L20.3819 17.6446C22.5713 17.4475 27.9552 16.9627 28.7993 16.8501ZM38.9425 14.9339C38.9425 14.9339 33.7065 15.4826 32.8459 15.5259C31.985 15.5693 31.7586 15.4632 31.7586 14.3969C31.7586 13.661 31.8156 12.3804 31.858 11.4251V11.4251L31.8581 11.4246C31.8771 10.9963 31.8932 10.6334 31.9 10.4144C31.9223 9.70762 32.025 9.27638 32.9612 9.15714C33.1338 9.13492 33.5774 9.0711 34.1142 8.99388L34.1166 8.99353L34.119 8.99319L34.1194 8.99313C35.2571 8.82945 36.8101 8.60603 37.0907 8.59022C37.4868 8.57051 37.6433 8.7684 37.9129 9.109L37.951 9.15714C38.2287 9.50619 39.1936 10.7243 39.3023 10.8627C39.226 10.8441 39.0835 10.807 38.9193 10.7643L38.9192 10.7642L38.9191 10.7642L38.9191 10.7642L38.9189 10.7641L38.9186 10.7641C38.5739 10.6744 38.1334 10.5598 38.0065 10.5381C37.8069 10.505 37.6567 10.4885 37.5898 10.4885C37.5225 10.4885 37.4204 10.5567 37.4051 10.6556C37.3886 10.7724 37.3057 12.7738 37.3225 13.0745C37.3373 13.3487 37.4507 13.4281 37.5214 13.4776L37.5214 13.4776C37.528 13.4822 37.5342 13.4865 37.5399 13.4908C37.606 13.5407 38.0065 13.6082 38.2074 13.6411C38.2558 13.6492 38.3236 13.6629 38.4032 13.6799C38.3564 13.7098 38.3218 13.7376 38.3218 13.7376L38.3441 14.3577L38.5726 14.3252L38.9536 14.52L38.9425 14.9339ZM40.0322 14.8362C40.6977 14.8362 40.9583 14.5424 41.1871 14.2047C41.4165 13.8685 41.3054 13.509 40.7823 12.769C40.3283 12.1268 39.7905 11.501 39.6572 11.3468C39.6572 11.709 39.6506 12.8638 39.6046 13.1402L39.5965 13.1888C39.547 13.4855 39.4825 13.873 39.2131 13.841C39.0917 13.827 38.9116 13.7947 38.7437 13.7588L38.7386 14.1178L39.2419 14.2926V14.52L39.6205 14.847C39.6205 14.847 39.8584 14.8362 40.0322 14.8362ZM48.4104 14.9016C48.5085 14.8688 48.7701 15.1407 48.7701 15.1407L50.8168 18.1029L50.7844 18.1328C50.6408 18.0163 49.9454 17.4293 49.9454 17.4293L49.1731 16.7393L48.944 16.9359L48.5416 16.6096L48.6794 16.5916C48.747 16.583 48.8073 16.5474 48.8497 16.4948L48.85 16.4942L48.8496 16.4943L48.8494 16.4945C48.8494 16.4945 46.8852 15.0756 46.4937 14.9016C46.4446 14.8798 46.3962 14.8579 46.3479 14.836L46.3477 14.8359L46.3477 14.8359C46.0094 14.6824 45.6768 14.5315 45.1526 14.4555L45.1218 14.451C44.5185 14.3638 43.4969 14.2162 42.887 13.5846C42.2657 12.943 39.7163 9.42879 39.2803 8.76505C38.8452 8.1013 39.5635 7.68859 40.3475 7.8407C40.676 7.90436 41.0292 8.07111 41.3583 8.26596C41.3439 8.27523 41.3412 8.28957 41.3577 8.30571C41.3811 8.32932 41.4165 8.33231 41.4442 8.31707C41.8672 8.57617 44.3683 10.5381 44.3683 10.5381L44.4887 10.3863L44.6523 10.5058L44.8367 10.7455L44.7977 10.9266L45.3271 11.4311L46.1664 12.4648L46.8198 13.183L46.9117 13.3658C47.0059 13.5541 47.1735 13.6961 47.3753 13.7588L47.5828 13.9259C47.7356 14.0487 47.8723 14.1907 47.9876 14.3488C48.0617 14.4501 48.1314 14.5514 48.1743 14.6144C48.199 14.6506 48.22 14.688 48.2383 14.728C48.2716 14.8003 48.3401 14.9247 48.4104 14.9016ZM45.5922 14.0804C45.7607 14.2334 45.9397 14.3751 46.1282 14.5039L48.8974 16.398C48.8974 16.398 48.9058 16.2629 48.8701 16.2028C48.8037 16.0917 48.719 15.9545 48.6932 15.9354C48.6503 15.9025 48.6395 15.7716 48.6395 15.7716C48.6395 15.7716 48.5086 15.8586 48.4437 15.8045C48.3782 15.7504 48.0185 15.4019 47.9533 15.3042C47.9179 15.251 47.8791 15.1559 47.8389 15.0575L47.8388 15.0574C47.805 14.9747 47.7702 14.8895 47.7356 14.8248C47.695 14.7508 47.4516 14.4738 47.2291 14.2205L47.229 14.2205L47.229 14.2205L47.2289 14.2204L47.2289 14.2203C47.0267 13.9902 46.8417 13.7797 46.8417 13.7588C46.8417 13.7365 46.685 13.543 46.5244 13.3446C46.3738 13.1586 46.2197 12.9683 46.188 12.9107C46.1603 12.8592 46.1403 12.8018 46.1171 12.7351L46.1171 12.735C46.086 12.646 46.0493 12.5404 45.9808 12.4101C45.9481 12.3664 45.7876 12.1815 45.6282 11.9976L45.6281 11.9976L45.628 11.9975L45.6274 11.9968L45.6273 11.9966L45.6272 11.9965L45.6271 11.9965L45.627 11.9963C45.4706 11.816 45.3153 11.637 45.2829 11.594C45.2178 11.5067 44.7067 11.0178 44.3905 10.7778C44.156 10.6003 42.6068 9.40787 41.8195 8.8015C41.5165 8.5681 41.1733 8.39387 40.8055 8.28658C40.8055 8.28658 43.8683 12.0769 44.8013 13.2439C45.016 13.5126 45.2499 13.7651 45.503 13.9985C45.534 14.0272 45.564 14.0547 45.5922 14.0804ZM36.9294 27.4061C36.2283 27.4061 35.6598 27.9961 35.6598 28.7235C35.6598 29.4509 36.2283 30.0405 36.9294 30.0405C37.6306 30.0405 38.1993 29.4509 38.1993 28.7235C38.1993 27.9961 37.6306 27.4061 36.9294 27.4061ZM36.909 27.8747C36.8511 27.8747 36.8048 27.8299 36.7994 27.7734C36.7993 27.7751 36.7988 27.7766 36.7984 27.7781C36.7978 27.7799 36.7973 27.7817 36.7973 27.7836C36.7973 27.8562 36.8565 27.9154 36.9294 27.9154C37.0024 27.9154 37.0616 27.8562 37.0616 27.7836C37.0616 27.711 37.0024 27.6521 36.9294 27.6521C36.9275 27.6521 36.9257 27.6526 36.9239 27.6532C36.9224 27.6536 36.9209 27.6541 36.9192 27.6542C36.976 27.6596 37.0207 27.7053 37.0207 27.7633C37.0207 27.8248 36.9706 27.8747 36.909 27.8747ZM36.6426 28.1293C36.7289 28.0844 36.8263 28.0591 36.9294 28.0591C37.2832 28.0591 37.5699 28.3565 37.5699 28.7235C37.5699 29.0902 37.2832 29.3875 36.9294 29.3875C36.6745 29.3875 36.4544 29.2331 36.3513 29.0096C36.4518 29.1598 36.6192 29.2581 36.809 29.2581C37.1162 29.2581 37.3657 28.9996 37.3657 28.6807C37.3657 28.3619 37.1162 28.1031 36.809 28.1031C36.751 28.1031 36.6952 28.1123 36.6426 28.1293ZM37.6982 28.4754C37.6982 28.5481 37.7573 28.6069 37.8303 28.6069C37.9032 28.6069 37.9624 28.5481 37.9624 28.4754C37.9624 28.4025 37.9032 28.3436 37.8303 28.3436C37.8283 28.3436 37.8266 28.3442 37.8248 28.3447C37.8232 28.3451 37.8217 28.3456 37.8201 28.3457C37.8768 28.3511 37.9216 28.3971 37.9216 28.4548C37.9216 28.5161 37.8714 28.566 37.8099 28.566C37.7519 28.566 37.7057 28.5215 37.7003 28.465C37.7001 28.4666 37.6997 28.4681 37.6992 28.4696C37.6987 28.4714 37.6982 28.4733 37.6982 28.4754ZM37.3714 29.4509C37.3714 29.5235 37.4306 29.5827 37.5036 29.5827C37.5768 29.5827 37.636 29.5235 37.636 29.4509C37.636 29.3783 37.5768 29.3194 37.5036 29.3194C37.5017 29.3194 37.5 29.3199 37.4983 29.3204C37.4968 29.3209 37.4952 29.3213 37.4934 29.3215C37.5501 29.3266 37.5952 29.3729 37.5952 29.4306C37.5952 29.4918 37.545 29.5417 37.4834 29.5417C37.4252 29.5417 37.379 29.4972 37.3735 29.4407C37.3734 29.4424 37.373 29.4439 37.3725 29.4454V29.4454C37.372 29.4472 37.3714 29.4489 37.3714 29.4509ZM36.2382 29.4509C36.2382 29.5235 36.2973 29.5827 36.3703 29.5827C36.4433 29.5827 36.5027 29.5235 36.5027 29.4509C36.5027 29.3783 36.4433 29.3194 36.3703 29.3194C36.3684 29.3194 36.3666 29.3199 36.3648 29.3204C36.3633 29.3209 36.3618 29.3213 36.3601 29.3215C36.4169 29.3266 36.4616 29.3729 36.4616 29.4306C36.4616 29.4918 36.4117 29.5417 36.3499 29.5417C36.2916 29.5417 36.2454 29.4972 36.2403 29.4407C36.2402 29.4424 36.2397 29.4439 36.2392 29.4454C36.2387 29.4472 36.2382 29.4489 36.2382 29.4509ZM36.0349 28.6069C35.9619 28.6069 35.9028 28.5481 35.9028 28.4754C35.9028 28.4733 35.9033 28.4714 35.9039 28.4696V28.4696H35.9039C35.9043 28.4681 35.9047 28.4666 35.9049 28.465C35.9103 28.5215 35.9565 28.566 36.0148 28.566C36.0763 28.566 36.1262 28.5161 36.1262 28.4548C36.1262 28.3971 36.0814 28.3511 36.025 28.3457C36.0265 28.3456 36.028 28.3452 36.0295 28.3447H36.0295C36.0313 28.3442 36.0331 28.3436 36.0349 28.3436C36.1082 28.3436 36.1673 28.4025 36.1673 28.4754C36.1673 28.5481 36.1082 28.6069 36.0349 28.6069ZM38.7608 30.6508C39.2134 30.1669 39.4647 29.5133 39.4821 28.8565C39.4956 28.1993 39.2749 27.5347 38.8455 27.0305C38.423 26.5242 37.7786 26.191 37.1093 26.1827C36.4397 26.1632 35.7836 26.469 35.3419 26.9555C34.8929 27.4399 34.6464 28.0911 34.6323 28.7438C34.6158 29.3965 34.8317 30.0584 35.2575 30.5632C35.6758 31.0695 36.3169 31.4054 36.9865 31.417C37.6558 31.44 38.3149 31.137 38.7608 30.6508ZM38.6161 27.1943C39.0014 27.6512 39.1987 28.2537 39.1836 28.8502C39.1707 29.447 38.9455 30.0396 38.5392 30.478C38.1387 30.9185 37.5516 31.1911 36.9532 31.1741C36.3544 31.1663 35.7776 30.8698 35.3941 30.4111C35.0049 29.9547 34.8031 29.3496 34.8152 28.7492C34.8311 28.1482 35.0614 27.5535 35.4713 27.1154C35.8757 26.6752 36.4658 26.4056 37.0643 26.4256C37.663 26.4364 38.2366 26.7358 38.6161 27.1943Z" fill="white"/>
<mask id="mask0_5_84818" style="mask-type:alpha" maskUnits="userSpaceOnUse" x="15" y="6" width="126" height="27">
<path fill-rule="evenodd" clip-rule="evenodd" d="M81.6439 12.6979C81.6439 14.5687 81.1824 15.991 80.2605 16.9646C79.3383 17.9383 77.9883 18.4251 76.2103 18.4251C74.4576 18.4251 73.1141 17.9356 72.1791 16.9571C71.2443 15.9784 70.777 14.5538 70.777 12.6827C70.777 10.8319 71.2419 9.41893 72.1715 8.44258C73.1012 7.46684 74.4528 6.97852 76.2256 6.97852C78.0036 6.97852 79.3513 7.46295 80.268 8.43123C81.1851 9.3995 81.6439 10.8217 81.6439 12.6979ZM73.9561 12.6979C73.9561 14.8478 74.7074 15.9228 76.2103 15.9228C76.9745 15.9228 77.5412 15.6616 77.9108 15.1395C78.2799 14.6171 78.4648 13.8034 78.4648 12.6979C78.4648 11.5877 78.2778 10.7676 77.903 10.2375C77.5285 9.70792 76.9694 9.44284 76.2256 9.44284C74.7125 9.44284 73.9561 10.528 73.9561 12.6979ZM63.6163 18.2727V14.2265H64.3808L66.7494 18.2727H70.1732L66.9178 13.428C68.1811 12.7236 68.8129 11.727 68.8129 10.4389C68.8129 8.24863 67.2947 7.15364 64.2586 7.15364H60.5978V18.2727H63.6163ZM64.2721 12.1707H63.6163V9.22468H64.3078C65.5071 9.22468 66.1068 9.66877 66.1068 10.5567C66.1068 11.6325 65.4954 12.1707 64.2721 12.1707ZM119.268 18.2727V14.2265H120.032L122.401 18.2727H125.825L122.57 13.428C123.833 12.7236 124.465 11.727 124.465 10.4389C124.465 8.24863 122.946 7.15364 119.91 7.15364H116.25V18.2727H119.268ZM119.924 12.1707H119.268V9.22468H119.959C121.159 9.22468 121.759 9.66877 121.759 10.5567C121.759 11.6325 121.147 12.1707 119.924 12.1707ZM89.9656 16.1888L90.516 18.2727H93.8173L90.1262 7.10792H86.0989L82.4538 18.2727H85.7703L86.3361 16.1888H89.9656ZM88.8578 11.8994L89.3389 13.7248H86.9625C87.4261 11.9804 87.7252 10.8116 87.8606 10.2187C87.9954 9.62514 88.0861 9.19957 88.1318 8.94077C88.1828 9.2196 88.2882 9.68132 88.4489 10.3247C88.6095 10.9688 88.7455 11.4935 88.8578 11.8994ZM105.001 12.4774C105.001 14.3329 104.488 15.7629 103.461 16.7668C102.434 17.7706 100.991 18.2727 99.1319 18.2727H95.5172V7.15364H99.3842C101.177 7.15364 102.562 7.60969 103.537 8.52238C104.513 9.43537 105.001 10.7536 105.001 12.4774ZM101.868 12.5838C101.868 11.5647 101.665 10.8092 101.26 10.3176C100.855 9.82566 100.24 9.57971 99.4145 9.57971H98.5356V15.8087H99.2082C100.125 15.8087 100.798 15.5436 101.226 15.014C101.654 14.4841 101.868 13.674 101.868 12.5838ZM111.932 18.2727H108.914V9.6102H106.186V7.15364H114.653V9.6102H111.932V18.2727ZM130.368 18.2727H127.334V7.15364H130.368V18.2727ZM139.786 13.5688C140.523 12.8919 140.89 11.9326 140.89 10.6902C140.89 9.55939 140.537 8.68734 139.828 8.0738C139.12 7.46026 138.06 7.15364 136.649 7.15364H132.782V18.2727H135.801V14.584H136.649C138.004 14.584 139.05 14.2457 139.786 13.5688ZM136.425 12.1352H135.801V9.23902H136.684C137.631 9.23902 138.105 9.66429 138.105 10.5148C138.105 11.0205 137.953 11.417 137.65 11.7042C137.347 11.9914 136.938 12.1352 136.425 12.1352ZM67.277 32.7813H71.2353V21.6619H68.5454V26.6892C68.5454 27.3685 68.5811 28.2686 68.6526 29.3893H68.6066L64.5411 21.6619H60.5978V32.7813H63.2724V27.7693C63.2724 27.1201 63.2241 26.1797 63.1274 24.9475H63.1962L67.277 32.7813ZM79.9551 30.6974L80.5052 32.7813H83.8065L80.1155 21.6162H76.0884L72.443 32.7813H75.7596L76.325 30.6974H79.9551ZM78.8468 26.408L79.3284 28.2334H76.9517C77.4151 26.489 77.7147 25.3202 77.8496 24.727C77.9844 24.1337 78.0751 23.7079 78.121 23.4494C78.1718 23.7282 78.2778 24.1896 78.4381 24.8333C78.5985 25.4774 78.7348 26.0021 78.8468 26.408ZM86.9243 32.7813H89.9427V24.1185H92.6636V21.6619H84.1963V24.1185H86.9243V32.7813ZM94.753 32.7813H97.7867V21.6619H94.753V32.7813ZM110.656 27.2062C110.656 29.0773 110.195 30.4996 109.273 31.4732C108.351 32.4469 107 32.9334 105.222 32.9334C103.47 32.9334 102.126 32.4442 101.191 31.4654C100.256 30.487 99.7889 29.0621 99.7889 27.1913C99.7889 25.3405 100.254 23.9272 101.184 22.9512C102.113 21.9751 103.465 21.4871 105.238 21.4871C107.016 21.4871 108.363 21.9713 109.28 22.9395C110.197 23.9081 110.656 25.3303 110.656 27.2062ZM102.968 27.2062C102.968 29.3564 103.719 30.4314 105.222 30.4314C105.987 30.4314 106.553 30.1699 106.923 29.6478C107.292 29.1254 107.477 28.312 107.477 27.2062C107.477 26.0963 107.29 25.2762 106.915 24.7461C106.541 24.2162 105.981 23.9511 105.238 23.9511C103.725 23.9511 102.968 25.0363 102.968 27.2062ZM123.311 32.7813H119.352L115.272 24.9475H115.203C115.3 26.1797 115.348 27.1201 115.348 27.7693V32.7813H112.673V21.6619H116.616L120.682 29.3893H120.728C120.656 28.2686 120.621 27.3685 120.621 26.6892V21.6619H123.311V32.7813ZM27.8937 7.15364H16.9362L16.297 19.4815L45.8739 16.8741C46.2519 16.8442 46.6288 16.947 46.9384 17.1651L53.2554 21.612C53.5926 21.9169 53.7493 22.3723 53.6704 22.8188L53.1935 25.5285C53.1689 25.6674 53.0146 25.741 52.8905 25.6731C52.8122 25.6298 52.7563 25.5548 52.738 25.4675C52.7032 25.3022 52.5927 25.1627 52.4392 25.0898L51.2393 24.5219L51.3864 23.5486C51.4075 23.409 51.3984 23.265 51.3471 23.1335C51.3129 23.0447 51.2615 22.9593 51.187 22.9267L49.3328 22.1198C48.9575 21.9563 48.5497 21.8819 48.1407 21.9019L16.0884 23.5046L15.798 29.1066L31.8172 28.7423C32.4393 28.7286 32.9678 28.2857 33.0876 27.6778C33.0897 27.6664 33.1114 27.5553 33.2678 26.7606C33.4669 25.7499 34.0041 25.0727 34.9347 25.0372L39.5782 24.8247C40.5607 24.7873 41.3772 25.5697 41.3772 26.5478V28.0092C41.3772 28.543 41.8123 28.9757 42.3486 28.9757C42.5246 28.9757 42.6999 28.953 42.8702 28.9085L46.6144 27.9238L46.5477 27.3745C46.536 27.2782 46.6582 27.2265 46.7195 27.3018C47.0498 27.7071 47.4948 28.0044 47.9966 28.156L50.5354 28.9216C50.7775 28.9945 50.9429 29.2163 50.9429 29.4679V29.8289C50.9429 30.0686 50.7925 30.2826 50.5661 30.3651L49.4743 30.7625L49.3103 31.1355H48.9863L48.738 31.2682L48.4689 31.1487L46.7129 31.3555L46.4862 31.7266C46.4033 31.862 46.3045 31.9875 46.1895 32.0969C45.6303 32.6305 44.883 32.9325 44.1011 32.9334H53.5836L57.5215 7.15364H40.9976C40.9976 7.15364 41.5168 7.52601 41.5619 7.56785C41.6075 7.60999 41.6258 7.69426 41.5697 7.74686C41.5135 7.79886 41.4679 7.7893 41.4111 7.7361C41.3485 7.67779 41.16 7.5302 41.0418 7.43771L41.0417 7.4376C40.9922 7.39885 40.9551 7.36978 40.9448 7.36105C40.8079 7.24569 40.6043 7.15364 40.6043 7.15364H27.8937ZM27.8937 7.15364L30.6506 7.15454L16.8196 9.40309L16.8614 8.59739L19.2174 8.2044C19.3852 8.18468 19.5483 8.26806 19.6297 8.41539L19.6321 8.4378L27.1913 7.21012C27.4235 7.17247 27.6583 7.15364 27.8937 7.15364ZM15.5996 32.9334L15.6409 32.1371L15.6032 32.9334L15.5996 32.9334ZM36.5989 32.9334L15.6032 32.9334C16.7935 32.4504 17.2337 31.6035 17.2337 30.3522L33.4143 30.3594L33.7053 31.0336C34.2021 32.1852 35.3397 32.932 36.5989 32.9334ZM42.8623 32.9334H38.6999C39.1304 32.9328 39.5526 32.8163 39.9223 32.5966L40.7877 32.0808C41.3395 32.626 42.0852 32.9325 42.8623 32.9334ZM48.9491 23.4891L49.0743 23.5701C49.2668 23.6944 49.3553 23.9287 49.2935 24.1484L49.3941 24.1236C49.5196 24.0928 49.6199 23.9984 49.6577 23.8752C49.6784 23.8068 49.7388 23.7578 49.81 23.7509L50.7507 23.6607C50.8126 23.6547 50.867 23.617 50.8937 23.5608C50.9369 23.4709 50.8967 23.3633 50.8048 23.3232L49.1971 22.6224C49.0896 22.5755 48.9671 22.6437 48.9506 22.759L48.8701 23.3161C48.8605 23.3839 48.8911 23.4518 48.9491 23.4891ZM53.88 28.3508C53.8671 28.1228 53.8274 27.2185 53.8274 27.2185C53.8274 27.2185 53.8466 26.7343 53.7941 26.5774C53.7604 26.4754 53.7017 26.4094 53.6432 26.3435C53.6116 26.3079 53.58 26.2723 53.5524 26.2311C53.952 26.4011 54.0445 26.6336 54.0643 26.8171C54.0782 26.9471 54.0889 27.5487 54.0962 27.9593V27.9595L54.0962 27.9604L54.0962 27.9613C54.0991 28.1282 54.1016 28.2633 54.1034 28.3218C54.1109 28.5253 53.8929 28.5809 53.88 28.3508ZM45.4991 26.252L46.0183 24.5665C46.0586 24.4365 46.1793 24.3477 46.3159 24.3477H47.9512L47.9455 24.4798L46.5354 24.5952C46.3865 24.6212 46.2781 24.75 46.2781 24.9003L49.0298 24.6911C49.1337 24.6875 49.2376 24.6932 49.3403 24.7084L50.8351 25.0372C50.9856 25.07 51.082 25.2162 51.0528 25.3668L50.9279 26.0096L49.6199 25.715L46.4414 25.9029L46.4039 26.0323L49.6259 26.0706L50.8691 26.3787L50.8393 26.5631L52.8875 27.6106C52.9881 27.662 53.0527 27.7639 53.0563 27.8762L53.0836 28.7357C53.089 28.9025 52.9602 29.0435 52.7926 29.0543L52.3717 29.0812C52.2386 29.0899 52.1149 29.0128 52.0639 28.8902L51.82 28.3012C51.7867 28.2205 51.7209 28.1578 51.6387 28.1279L48.2731 26.9086C48.2488 26.8999 48.2236 26.8942 48.1978 26.8915L45.7658 26.651C45.5703 26.6315 45.4415 26.4388 45.4991 26.252ZM28.7993 16.8501C29.8101 16.7151 29.9209 16.1036 29.9671 15.5806C30.0137 15.0576 30.1611 10.9099 30.1509 10.2464C30.144 9.79967 29.8722 9.43417 29.2516 9.51994C28.936 9.56367 27.8825 9.7339 26.5902 9.9427L26.5902 9.94271L26.5901 9.94271L26.5901 9.94273C24.1905 10.3305 20.9678 10.8512 20.1188 10.9419C18.8144 11.0808 18.7261 11.6821 18.6703 12.2703C18.6141 12.8587 18.3646 15.6518 18.3042 16.6646C18.2439 17.6771 18.6802 17.7981 19.5393 17.7207C19.6745 17.7083 19.9716 17.6815 20.3803 17.6447L20.3815 17.6446L20.3819 17.6446C22.5713 17.4475 27.9552 16.9627 28.7993 16.8501ZM38.9425 14.9339C38.9425 14.9339 33.7065 15.4826 32.8459 15.5259C31.985 15.5693 31.7586 15.4632 31.7586 14.3969C31.7586 13.661 31.8156 12.3804 31.858 11.4251V11.4251L31.8581 11.4246C31.8771 10.9963 31.8932 10.6334 31.9 10.4144C31.9223 9.70762 32.025 9.27638 32.9612 9.15714C33.1338 9.13492 33.5774 9.0711 34.1142 8.99388L34.1166 8.99353L34.119 8.99319L34.1194 8.99313C35.2571 8.82945 36.8101 8.60603 37.0907 8.59022C37.4868 8.57051 37.6433 8.7684 37.9129 9.109L37.951 9.15714C38.2287 9.50619 39.1936 10.7243 39.3023 10.8627C39.226 10.8441 39.0835 10.807 38.9193 10.7643L38.9192 10.7642L38.9191 10.7642L38.9191 10.7642L38.9189 10.7641L38.9186 10.7641C38.5739 10.6744 38.1334 10.5598 38.0065 10.5381C37.8069 10.505 37.6567 10.4885 37.5898 10.4885C37.5225 10.4885 37.4204 10.5567 37.4051 10.6556C37.3886 10.7724 37.3057 12.7738 37.3225 13.0745C37.3373 13.3487 37.4507 13.4281 37.5214 13.4776L37.5214 13.4776C37.528 13.4822 37.5342 13.4865 37.5399 13.4908C37.606 13.5407 38.0065 13.6082 38.2074 13.6411C38.2558 13.6492 38.3236 13.6629 38.4032 13.6799C38.3564 13.7098 38.3218 13.7376 38.3218 13.7376L38.3441 14.3577L38.5726 14.3252L38.9536 14.52L38.9425 14.9339ZM40.0322 14.8362C40.6977 14.8362 40.9583 14.5424 41.1871 14.2047C41.4165 13.8685 41.3054 13.509 40.7823 12.769C40.3283 12.1268 39.7905 11.501 39.6572 11.3468C39.6572 11.709 39.6506 12.8638 39.6046 13.1402L39.5965 13.1888C39.547 13.4855 39.4825 13.873 39.2131 13.841C39.0917 13.827 38.9116 13.7947 38.7437 13.7588L38.7386 14.1178L39.2419 14.2926V14.52L39.6205 14.847C39.6205 14.847 39.8584 14.8362 40.0322 14.8362ZM48.4104 14.9016C48.5085 14.8688 48.7701 15.1407 48.7701 15.1407L50.8168 18.1029L50.7844 18.1328C50.6408 18.0163 49.9454 17.4293 49.9454 17.4293L49.1731 16.7393L48.944 16.9359L48.5416 16.6096L48.6794 16.5916C48.747 16.583 48.8073 16.5474 48.8497 16.4948L48.85 16.4942L48.8496 16.4943L48.8494 16.4945C48.8494 16.4945 46.8852 15.0756 46.4937 14.9016C46.4446 14.8798 46.3962 14.8579 46.3479 14.836L46.3477 14.8359L46.3477 14.8359C46.0094 14.6824 45.6768 14.5315 45.1526 14.4555L45.1218 14.451C44.5185 14.3638 43.4969 14.2162 42.887 13.5846C42.2657 12.943 39.7163 9.42879 39.2803 8.76505C38.8452 8.1013 39.5635 7.68859 40.3475 7.8407C40.676 7.90436 41.0292 8.07111 41.3583 8.26596C41.3439 8.27523 41.3412 8.28957 41.3577 8.30571C41.3811 8.32932 41.4165 8.33231 41.4442 8.31707C41.8672 8.57617 44.3683 10.5381 44.3683 10.5381L44.4887 10.3863L44.6523 10.5058L44.8367 10.7455L44.7977 10.9266L45.3271 11.4311L46.1664 12.4648L46.8198 13.183L46.9117 13.3658C47.0059 13.5541 47.1735 13.6961 47.3753 13.7588L47.5828 13.9259C47.7356 14.0487 47.8723 14.1907 47.9876 14.3488C48.0617 14.4501 48.1314 14.5514 48.1743 14.6144C48.199 14.6506 48.22 14.688 48.2383 14.728C48.2716 14.8003 48.3401 14.9247 48.4104 14.9016ZM45.5922 14.0804C45.7607 14.2334 45.9397 14.3751 46.1282 14.5039L48.8974 16.398C48.8974 16.398 48.9058 16.2629 48.8701 16.2028C48.8037 16.0917 48.719 15.9545 48.6932 15.9354C48.6503 15.9025 48.6395 15.7716 48.6395 15.7716C48.6395 15.7716 48.5086 15.8586 48.4437 15.8045C48.3782 15.7504 48.0185 15.4019 47.9533 15.3042C47.9179 15.251 47.8791 15.1559 47.8389 15.0575L47.8388 15.0574C47.805 14.9747 47.7702 14.8895 47.7356 14.8248C47.695 14.7508 47.4516 14.4738 47.2291 14.2205L47.229 14.2205L47.229 14.2205L47.2289 14.2204L47.2289 14.2203C47.0267 13.9902 46.8417 13.7797 46.8417 13.7588C46.8417 13.7365 46.685 13.543 46.5244 13.3446C46.3738 13.1586 46.2197 12.9683 46.188 12.9107C46.1603 12.8592 46.1403 12.8018 46.1171 12.7351L46.1171 12.735C46.086 12.646 46.0493 12.5404 45.9808 12.4101C45.9481 12.3664 45.7876 12.1815 45.6282 11.9976L45.6281 11.9976L45.628 11.9975L45.6274 11.9968L45.6273 11.9966L45.6272 11.9965L45.6271 11.9965L45.627 11.9963C45.4706 11.816 45.3153 11.637 45.2829 11.594C45.2178 11.5067 44.7067 11.0178 44.3905 10.7778C44.156 10.6003 42.6068 9.40787 41.8195 8.8015C41.5165 8.5681 41.1733 8.39387 40.8055 8.28658C40.8055 8.28658 43.8683 12.0769 44.8013 13.2439C45.016 13.5126 45.2499 13.7651 45.503 13.9985C45.534 14.0272 45.564 14.0547 45.5922 14.0804ZM36.9294 27.4061C36.2283 27.4061 35.6598 27.9961 35.6598 28.7235C35.6598 29.4509 36.2283 30.0405 36.9294 30.0405C37.6306 30.0405 38.1993 29.4509 38.1993 28.7235C38.1993 27.9961 37.6306 27.4061 36.9294 27.4061ZM36.909 27.8747C36.8511 27.8747 36.8048 27.8299 36.7994 27.7734C36.7993 27.7751 36.7988 27.7766 36.7984 27.7781C36.7978 27.7799 36.7973 27.7817 36.7973 27.7836C36.7973 27.8562 36.8565 27.9154 36.9294 27.9154C37.0024 27.9154 37.0616 27.8562 37.0616 27.7836C37.0616 27.711 37.0024 27.6521 36.9294 27.6521C36.9275 27.6521 36.9257 27.6526 36.9239 27.6532C36.9224 27.6536 36.9209 27.6541 36.9192 27.6542C36.976 27.6596 37.0207 27.7053 37.0207 27.7633C37.0207 27.8248 36.9706 27.8747 36.909 27.8747ZM36.6426 28.1293C36.7289 28.0844 36.8263 28.0591 36.9294 28.0591C37.2832 28.0591 37.5699 28.3565 37.5699 28.7235C37.5699 29.0902 37.2832 29.3875 36.9294 29.3875C36.6745 29.3875 36.4544 29.2331 36.3513 29.0096C36.4518 29.1598 36.6192 29.2581 36.809 29.2581C37.1162 29.2581 37.3657 28.9996 37.3657 28.6807C37.3657 28.3619 37.1162 28.1031 36.809 28.1031C36.751 28.1031 36.6952 28.1123 36.6426 28.1293ZM37.6982 28.4754C37.6982 28.5481 37.7573 28.6069 37.8303 28.6069C37.9032 28.6069 37.9624 28.5481 37.9624 28.4754C37.9624 28.4025 37.9032 28.3436 37.8303 28.3436C37.8283 28.3436 37.8266 28.3442 37.8248 28.3447C37.8232 28.3451 37.8217 28.3456 37.8201 28.3457C37.8768 28.3511 37.9216 28.3971 37.9216 28.4548C37.9216 28.5161 37.8714 28.566 37.8099 28.566C37.7519 28.566 37.7057 28.5215 37.7003 28.465C37.7001 28.4666 37.6997 28.4681 37.6992 28.4696C37.6987 28.4714 37.6982 28.4733 37.6982 28.4754ZM37.3714 29.4509C37.3714 29.5235 37.4306 29.5827 37.5036 29.5827C37.5768 29.5827 37.636 29.5235 37.636 29.4509C37.636 29.3783 37.5768 29.3194 37.5036 29.3194C37.5017 29.3194 37.5 29.3199 37.4983 29.3204C37.4968 29.3209 37.4952 29.3213 37.4934 29.3215C37.5501 29.3266 37.5952 29.3729 37.5952 29.4306C37.5952 29.4918 37.545 29.5417 37.4834 29.5417C37.4252 29.5417 37.379 29.4972 37.3735 29.4407C37.3734 29.4424 37.373 29.4439 37.3725 29.4454V29.4454C37.372 29.4472 37.3714 29.4489 37.3714 29.4509ZM36.2382 29.4509C36.2382 29.5235 36.2973 29.5827 36.3703 29.5827C36.4433 29.5827 36.5027 29.5235 36.5027 29.4509C36.5027 29.3783 36.4433 29.3194 36.3703 29.3194C36.3684 29.3194 36.3666 29.3199 36.3648 29.3204C36.3633 29.3209 36.3618 29.3213 36.3601 29.3215C36.4169 29.3266 36.4616 29.3729 36.4616 29.4306C36.4616 29.4918 36.4117 29.5417 36.3499 29.5417C36.2916 29.5417 36.2454 29.4972 36.2403 29.4407C36.2402 29.4424 36.2397 29.4439 36.2392 29.4454C36.2387 29.4472 36.2382 29.4489 36.2382 29.4509ZM36.0349 28.6069C35.9619 28.6069 35.9028 28.5481 35.9028 28.4754C35.9028 28.4733 35.9033 28.4714 35.9039 28.4696V28.4696H35.9039C35.9043 28.4681 35.9047 28.4666 35.9049 28.465C35.9103 28.5215 35.9565 28.566 36.0148 28.566C36.0763 28.566 36.1262 28.5161 36.1262 28.4548C36.1262 28.3971 36.0814 28.3511 36.025 28.3457C36.0265 28.3456 36.028 28.3452 36.0295 28.3447H36.0295C36.0313 28.3442 36.0331 28.3436 36.0349 28.3436C36.1082 28.3436 36.1673 28.4025 36.1673 28.4754C36.1673 28.5481 36.1082 28.6069 36.0349 28.6069ZM38.7608 30.6508C39.2134 30.1669 39.4647 29.5133 39.4821 28.8565C39.4956 28.1993 39.2749 27.5347 38.8455 27.0305C38.423 26.5242 37.7786 26.191 37.1093 26.1827C36.4397 26.1632 35.7836 26.469 35.3419 26.9555C34.8929 27.4399 34.6464 28.0911 34.6323 28.7438C34.6158 29.3965 34.8317 30.0584 35.2575 30.5632C35.6758 31.0695 36.3169 31.4054 36.9865 31.417C37.6558 31.44 38.3149 31.137 38.7608 30.6508ZM38.6161 27.1943C39.0014 27.6512 39.1987 28.2537 39.1836 28.8502C39.1707 29.447 38.9455 30.0396 38.5392 30.478C38.1387 30.9185 37.5516 31.1911 36.9532 31.1741C36.3544 31.1663 35.7776 30.8698 35.3941 30.4111C35.0049 29.9547 34.8031 29.3496 34.8152 28.7492C34.8311 28.1482 35.0614 27.5535 35.4713 27.1154C35.8757 26.6752 36.4658 26.4056 37.0643 26.4256C37.663 26.4364 38.2366 26.7358 38.6161 27.1943Z" fill="white"/>
</mask>
<g mask="url(#mask0_5_84818)">
<rect width="156" height="39" fill="white"/>
</g>
</g>
</svg>
