<svg width="156" height="39" viewBox="0 0 156 39" fill="none" xmlns="http://www.w3.org/2000/svg">
<g opacity="0.4">
<path fill-rule="evenodd" clip-rule="evenodd" d="M36.8906 24.9099C37.1629 24.218 37.0195 23.4003 36.4601 22.8409C35.7078 22.0886 34.488 22.0886 33.7357 22.8409C33.5788 22.9978 33.4547 23.175 33.3632 23.364L30.8255 26.9895L30.836 26.9938C29.7832 28.2323 29.8417 30.0923 31.0113 31.2619C32.2423 32.493 34.2383 32.493 35.4694 31.2619C36.0387 30.6926 36.3448 29.9596 36.3875 29.2144L36.3982 29.2186L36.8906 24.9099ZM41.1084 23.5244C40.8117 22.8425 40.132 22.3658 39.341 22.3658C38.2771 22.3658 37.4145 23.2283 37.4145 24.2922C37.4145 24.5141 37.452 24.7271 37.521 24.9255L38.2902 29.2835L38.3006 29.2791C38.432 30.8993 39.7885 32.1732 41.4426 32.1732C43.1836 32.1732 44.595 30.7618 44.595 29.0208C44.595 28.2157 44.2931 27.481 43.7964 26.9238L43.8069 26.9192L41.1084 23.5244ZM34.087 21.1398C34.087 20.0759 33.2245 19.2134 32.1606 19.2134C31.9387 19.2134 31.7256 19.2509 31.5273 19.3199L27.1693 20.089L27.1737 20.0995C25.5535 20.2309 24.2796 21.5874 24.2796 23.2414C24.2796 24.9825 25.691 26.3938 27.432 26.3938C28.2371 26.3938 28.9718 26.092 29.529 25.5953L29.5336 25.6057L32.9284 22.9072C33.6103 22.6105 34.087 21.9309 34.087 21.1398ZM47.4197 20.0546L43.1111 19.5622C42.4192 19.2899 41.6014 19.4333 41.0421 19.9927C40.2898 20.745 40.2898 21.9648 41.0421 22.7171C41.199 22.874 41.3762 22.9981 41.5652 23.0896L45.1907 25.6273L45.1949 25.6168C46.4335 26.6695 48.2935 26.6111 49.4631 25.4415C50.6942 24.2104 50.6942 22.2145 49.4631 20.9834C48.8937 20.414 48.1608 20.108 47.4156 20.0653L47.4197 20.0546ZM40.3009 19.0664C40.3009 17.3911 38.9428 16.0331 37.2676 16.0331C35.5923 16.0331 34.2342 17.3911 34.2342 19.0664C34.2342 20.7417 35.5923 22.0997 37.2676 22.0997C38.9428 22.0997 40.3009 20.7417 40.3009 19.0664ZM50.3744 15.0102C50.3744 13.2692 48.963 11.8578 47.222 11.8578C46.4168 11.8578 45.6822 12.1596 45.125 12.6564L45.1204 12.6459L41.7255 15.3444C41.0437 15.6411 40.5669 16.3208 40.5669 17.1118C40.5669 18.1757 41.4294 19.0382 42.4934 19.0382C42.7152 19.0382 42.9283 19.0007 43.1266 18.9317L47.4847 18.1626L47.4803 18.1522C49.1005 18.0208 50.3744 16.6642 50.3744 15.0102ZM29.4633 12.6243L29.459 12.6348C28.2205 11.5821 26.3605 11.6405 25.1909 12.8101C23.9598 14.0412 23.9598 16.0372 25.1909 17.2682C25.7602 17.8376 26.4931 18.1436 27.2384 18.1864L27.2342 18.197L31.5429 18.6894C32.2348 18.9618 33.0525 18.8183 33.6119 18.2589C34.3642 17.5066 34.3642 16.2868 33.6119 15.5345C33.455 15.3777 33.2778 15.2535 33.0888 15.162L29.4633 12.6243ZM43.818 11.2579C44.8707 10.0193 44.8123 8.15931 43.6427 6.98972C42.4116 5.75863 40.4156 5.75863 39.1845 6.98972C38.6152 7.55905 38.3092 8.29198 38.2664 9.03718L38.2558 9.03304L37.7634 13.3417C37.491 14.0336 37.6345 14.8513 38.1938 15.4107C38.9462 16.163 40.1659 16.163 40.9183 15.4107C41.0751 15.2538 41.1993 15.0766 41.2907 14.8876L43.8285 11.2621L43.818 11.2579ZM36.3533 8.97252C36.2219 7.35231 34.8654 6.07841 33.2114 6.07841C31.4703 6.07841 30.059 7.48978 30.059 9.2308C30.059 10.036 30.3608 10.7706 30.8575 11.3278L30.8471 11.3324L33.5456 14.7273C33.8423 15.4091 34.5219 15.8859 35.313 15.8859C36.3769 15.8859 37.2394 15.0233 37.2394 13.9594C37.2394 13.7376 37.2019 13.5245 37.1329 13.3261L36.3637 8.9681L36.3533 8.97252ZM70.395 26.5544L70.6238 24.4328C70.2356 24.4328 69.9617 24.4085 69.8022 24.36C69.6428 24.3115 69.5318 24.1728 69.4694 23.944C69.407 23.7152 69.3758 23.3235 69.3758 22.7688V10.7464H66.7966V23.8296C66.7966 24.6339 67.0185 25.2891 67.4622 25.7952C67.906 26.3013 68.5716 26.5544 69.459 26.5544H70.395ZM61.4095 26.3464C62.8793 26.3464 64.0372 25.9824 64.883 25.2544C65.7289 24.5264 66.1519 23.5107 66.1519 22.2072C66.1519 20.252 65.2297 18.9763 63.3855 18.38C64.4532 17.7699 64.9871 16.7437 64.9871 15.3016C64.9871 12.9581 63.6004 11.7864 60.827 11.7864H55.3358V26.3464H61.4095ZM60.4318 17.5064H57.9982V14.1576H60.4318C61.0836 14.1576 61.5689 14.2893 61.8878 14.5528C62.2068 14.8163 62.3662 15.2461 62.3662 15.8424C62.3662 16.4109 62.2068 16.8304 61.8878 17.1008C61.5689 17.3712 61.0836 17.5064 60.4318 17.5064ZM57.9982 23.9752H61.0142C61.7908 23.9752 62.3836 23.8192 62.7926 23.5072C63.2017 23.1952 63.4062 22.6648 63.4062 21.916C63.4062 21.1811 63.1948 20.6576 62.7718 20.3456C62.3489 20.0336 61.763 19.8776 61.0142 19.8776H57.9982V23.9752ZM76.635 26.3152C76.219 26.4747 75.8169 26.5544 75.4286 26.5544C73.8894 26.5544 72.7697 26.1107 72.0694 25.2232C71.3692 24.3357 71.019 23.1085 71.019 21.5416V15.9464H73.5982V21.5416C73.5982 22.5123 73.7612 23.2299 74.087 23.6944C74.4129 24.1589 74.9364 24.3912 75.6574 24.3912C76.4617 24.3912 77.1134 24.1 77.6126 23.5176V15.9464H80.1918V26.3464H77.779L77.7374 25.7224C77.4185 25.9581 77.051 26.1557 76.635 26.3152ZM86.5774 26.5544C87.2708 26.5544 87.9121 26.4816 88.5014 26.336C89.0908 26.1904 89.6073 25.9997 90.051 25.764L89.9262 23.58C88.9695 24.1485 87.9294 24.4328 86.8062 24.4328C85.9881 24.4328 85.2878 24.2075 84.7054 23.7568C84.123 23.3061 83.7625 22.6232 83.6238 21.708H90.3422C90.4532 21.1811 90.5087 20.7096 90.5087 20.2936C90.5087 19.4477 90.3388 18.6851 89.999 18.0056C89.6593 17.3261 89.1532 16.7853 88.4807 16.3832C87.8081 15.9811 86.9865 15.78 86.0158 15.78C84.962 15.78 84.0537 16.0192 83.291 16.4976C82.5284 16.976 81.946 17.6173 81.5438 18.4216C81.1417 19.2259 80.9406 20.1133 80.9406 21.084C80.9406 22.0963 81.1521 23.0149 81.575 23.84C81.998 24.6651 82.6358 25.3237 83.4886 25.816C84.3414 26.3083 85.371 26.5544 86.5774 26.5544ZM83.6862 19.9608H87.8879C87.8879 19.42 87.7353 18.9416 87.4303 18.5256C87.1252 18.1096 86.6537 17.9016 86.0158 17.9016C85.378 17.9016 84.8649 18.0888 84.4766 18.4632C84.0884 18.8376 83.8249 19.3368 83.6862 19.9608ZM93.9614 26.3464V21.292H96.5406C98.2046 21.292 99.4734 20.8968 100.347 20.1064C101.221 19.316 101.657 18.1096 101.657 16.4872C101.657 13.3533 99.931 11.7864 96.4782 11.7864H91.299V26.3464H93.9614ZM93.9615 19.0664H96.2287C97.1438 19.0664 97.8268 18.8584 98.2775 18.4424C98.7281 18.0264 98.9534 17.3885 98.9534 16.5288C98.9534 15.6691 98.7246 15.0347 98.267 14.6256C97.8094 14.2165 97.1092 14.012 96.1663 14.012H93.9615V19.0664ZM104.715 14.3656V11.7864H102.136V14.3656H104.715ZM104.715 15.9464V26.3464H102.136V15.9464H104.715ZM108.667 31.38V25.7224C109.069 26.0136 109.489 26.2251 109.925 26.3568C110.362 26.4885 110.893 26.5544 111.517 26.5544C112.501 26.5544 113.347 26.3117 114.054 25.8264C114.761 25.3411 115.295 24.6893 115.656 23.8712C116.016 23.0531 116.197 22.1517 116.197 21.1672C116.197 20.1827 116.016 19.2813 115.656 18.4632C115.295 17.6451 114.761 16.9933 114.054 16.508C113.347 16.0227 112.501 15.78 111.517 15.78C110.879 15.78 110.317 15.8736 109.832 16.0608C109.347 16.248 108.882 16.5288 108.438 16.9032L108.168 15.9464H106.088V31.38H108.667ZM109.187 23.5592C109.617 24.1416 110.262 24.4328 111.121 24.4328C111.884 24.4328 112.48 24.1347 112.91 23.5384C113.34 22.9421 113.555 22.1517 113.555 21.1672C113.555 20.1827 113.34 19.3923 112.91 18.796C112.48 18.1997 111.884 17.9016 111.121 17.9016C110.262 17.9016 109.617 18.1928 109.187 18.7752C108.757 19.3576 108.542 20.1549 108.542 21.1672C108.542 22.1795 108.757 22.9768 109.187 23.5592ZM121.958 26.5544C122.652 26.5544 123.293 26.4816 123.882 26.336C124.472 26.1904 124.988 25.9997 125.432 25.764L125.307 23.58C124.35 24.1485 123.31 24.4328 122.187 24.4328C121.369 24.4328 120.669 24.2075 120.086 23.7568C119.504 23.3061 119.143 22.6232 119.005 21.708H125.723C125.834 21.1811 125.889 20.7096 125.889 20.2936C125.889 19.4477 125.72 18.6851 125.38 18.0056C125.04 17.3261 124.534 16.7853 123.861 16.3832C123.189 15.9811 122.367 15.78 121.397 15.78C120.343 15.78 119.435 16.0192 118.672 16.4976C117.909 16.976 117.327 17.6173 116.925 18.4216C116.523 19.2259 116.321 20.1133 116.321 21.084C116.321 22.0963 116.533 23.0149 116.956 23.84C117.379 24.6651 118.017 25.3237 118.869 25.816C119.722 26.3083 120.752 26.5544 121.958 26.5544ZM119.067 19.9608H123.269C123.269 19.42 123.116 18.9416 122.811 18.5256C122.506 18.1096 122.035 17.9016 121.397 17.9016C120.759 17.9016 120.246 18.0888 119.857 18.4632C119.469 18.8376 119.206 19.3368 119.067 19.9608ZM129.571 26.5544C130.875 26.5544 131.88 26.284 132.587 25.7432C133.294 25.2024 133.648 24.4397 133.648 23.4552C133.648 22.6787 133.426 22.0581 132.982 21.5936C132.539 21.1291 131.811 20.7027 130.798 20.3144C130.188 20.0787 129.751 19.8949 129.488 19.7632C129.224 19.6315 129.02 19.4824 128.874 19.316C128.729 19.1496 128.656 18.9347 128.656 18.6712C128.656 18.3384 128.777 18.0819 129.02 17.9016C129.263 17.7213 129.606 17.6312 130.049 17.6312C130.563 17.6312 131.051 17.7283 131.516 17.9224C131.98 18.1165 132.476 18.3939 133.003 18.7544L133.232 16.5496C132.261 16.0088 131.187 15.7384 130.008 15.7384C128.829 15.7384 127.893 16.0192 127.2 16.5808C126.507 17.1424 126.16 17.8739 126.16 18.7752C126.16 19.5933 126.403 20.2416 126.888 20.72C127.373 21.1984 128.129 21.6248 129.155 21.9992C129.876 22.2765 130.375 22.5157 130.653 22.7168C130.93 22.9179 131.069 23.2056 131.069 23.58C131.069 24.2733 130.542 24.62 129.488 24.62C128.947 24.62 128.424 24.5333 127.917 24.36C127.411 24.1867 126.867 23.9267 126.285 23.58L126.056 25.7848C126.638 26.0483 127.203 26.2424 127.751 26.3672C128.299 26.492 128.905 26.5544 129.571 26.5544Z" fill="#D8D8D8"/>
<mask id="mask0_0_45539" style="mask-type:alpha" maskUnits="userSpaceOnUse" x="24" y="6" width="110" height="27">
<path fill-rule="evenodd" clip-rule="evenodd" d="M36.8906 24.9099C37.1629 24.218 37.0195 23.4003 36.4601 22.8409C35.7078 22.0886 34.488 22.0886 33.7357 22.8409C33.5788 22.9978 33.4547 23.175 33.3632 23.364L30.8255 26.9895L30.836 26.9938C29.7832 28.2323 29.8417 30.0923 31.0113 31.2619C32.2423 32.493 34.2383 32.493 35.4694 31.2619C36.0387 30.6926 36.3448 29.9596 36.3875 29.2144L36.3982 29.2186L36.8906 24.9099ZM41.1084 23.5244C40.8117 22.8425 40.132 22.3658 39.341 22.3658C38.2771 22.3658 37.4145 23.2283 37.4145 24.2922C37.4145 24.5141 37.452 24.7271 37.521 24.9255L38.2902 29.2835L38.3006 29.2791C38.432 30.8993 39.7885 32.1732 41.4426 32.1732C43.1836 32.1732 44.595 30.7618 44.595 29.0208C44.595 28.2157 44.2931 27.481 43.7964 26.9238L43.8069 26.9192L41.1084 23.5244ZM34.087 21.1398C34.087 20.0759 33.2245 19.2134 32.1606 19.2134C31.9387 19.2134 31.7256 19.2509 31.5273 19.3199L27.1693 20.089L27.1737 20.0995C25.5535 20.2309 24.2796 21.5874 24.2796 23.2414C24.2796 24.9825 25.691 26.3938 27.432 26.3938C28.2371 26.3938 28.9718 26.092 29.529 25.5953L29.5336 25.6057L32.9284 22.9072C33.6103 22.6105 34.087 21.9309 34.087 21.1398ZM47.4197 20.0546L43.1111 19.5622C42.4192 19.2899 41.6014 19.4333 41.0421 19.9927C40.2898 20.745 40.2898 21.9648 41.0421 22.7171C41.199 22.874 41.3762 22.9981 41.5652 23.0896L45.1907 25.6273L45.1949 25.6168C46.4335 26.6695 48.2935 26.6111 49.4631 25.4415C50.6942 24.2104 50.6942 22.2145 49.4631 20.9834C48.8937 20.414 48.1608 20.108 47.4156 20.0653L47.4197 20.0546ZM40.3009 19.0664C40.3009 17.3911 38.9428 16.0331 37.2676 16.0331C35.5923 16.0331 34.2342 17.3911 34.2342 19.0664C34.2342 20.7417 35.5923 22.0997 37.2676 22.0997C38.9428 22.0997 40.3009 20.7417 40.3009 19.0664ZM50.3744 15.0102C50.3744 13.2692 48.963 11.8578 47.222 11.8578C46.4168 11.8578 45.6822 12.1596 45.125 12.6564L45.1204 12.6459L41.7255 15.3444C41.0437 15.6411 40.5669 16.3208 40.5669 17.1118C40.5669 18.1757 41.4294 19.0382 42.4934 19.0382C42.7152 19.0382 42.9283 19.0007 43.1266 18.9317L47.4847 18.1626L47.4803 18.1522C49.1005 18.0208 50.3744 16.6642 50.3744 15.0102ZM29.4633 12.6243L29.459 12.6348C28.2205 11.5821 26.3605 11.6405 25.1909 12.8101C23.9598 14.0412 23.9598 16.0372 25.1909 17.2682C25.7602 17.8376 26.4931 18.1436 27.2384 18.1864L27.2342 18.197L31.5429 18.6894C32.2348 18.9618 33.0525 18.8183 33.6119 18.2589C34.3642 17.5066 34.3642 16.2868 33.6119 15.5345C33.455 15.3777 33.2778 15.2535 33.0888 15.162L29.4633 12.6243ZM43.818 11.2579C44.8707 10.0193 44.8123 8.15931 43.6427 6.98972C42.4116 5.75863 40.4156 5.75863 39.1845 6.98972C38.6152 7.55905 38.3092 8.29198 38.2664 9.03718L38.2558 9.03304L37.7634 13.3417C37.491 14.0336 37.6345 14.8513 38.1938 15.4107C38.9462 16.163 40.1659 16.163 40.9183 15.4107C41.0751 15.2538 41.1993 15.0766 41.2907 14.8876L43.8285 11.2621L43.818 11.2579ZM36.3533 8.97252C36.2219 7.35231 34.8654 6.07841 33.2114 6.07841C31.4703 6.07841 30.059 7.48978 30.059 9.2308C30.059 10.036 30.3608 10.7706 30.8575 11.3278L30.8471 11.3324L33.5456 14.7273C33.8423 15.4091 34.5219 15.8859 35.313 15.8859C36.3769 15.8859 37.2394 15.0233 37.2394 13.9594C37.2394 13.7376 37.2019 13.5245 37.1329 13.3261L36.3637 8.9681L36.3533 8.97252ZM70.395 26.5544L70.6238 24.4328C70.2356 24.4328 69.9617 24.4085 69.8022 24.36C69.6428 24.3115 69.5318 24.1728 69.4694 23.944C69.407 23.7152 69.3758 23.3235 69.3758 22.7688V10.7464H66.7966V23.8296C66.7966 24.6339 67.0185 25.2891 67.4622 25.7952C67.906 26.3013 68.5716 26.5544 69.459 26.5544H70.395ZM61.4095 26.3464C62.8793 26.3464 64.0372 25.9824 64.883 25.2544C65.7289 24.5264 66.1519 23.5107 66.1519 22.2072C66.1519 20.252 65.2297 18.9763 63.3855 18.38C64.4532 17.7699 64.9871 16.7437 64.9871 15.3016C64.9871 12.9581 63.6004 11.7864 60.827 11.7864H55.3358V26.3464H61.4095ZM60.4318 17.5064H57.9982V14.1576H60.4318C61.0836 14.1576 61.5689 14.2893 61.8878 14.5528C62.2068 14.8163 62.3662 15.2461 62.3662 15.8424C62.3662 16.4109 62.2068 16.8304 61.8878 17.1008C61.5689 17.3712 61.0836 17.5064 60.4318 17.5064ZM57.9982 23.9752H61.0142C61.7908 23.9752 62.3836 23.8192 62.7926 23.5072C63.2017 23.1952 63.4062 22.6648 63.4062 21.916C63.4062 21.1811 63.1948 20.6576 62.7718 20.3456C62.3489 20.0336 61.763 19.8776 61.0142 19.8776H57.9982V23.9752ZM76.635 26.3152C76.219 26.4747 75.8169 26.5544 75.4286 26.5544C73.8894 26.5544 72.7697 26.1107 72.0694 25.2232C71.3692 24.3357 71.019 23.1085 71.019 21.5416V15.9464H73.5982V21.5416C73.5982 22.5123 73.7612 23.2299 74.087 23.6944C74.4129 24.1589 74.9364 24.3912 75.6574 24.3912C76.4617 24.3912 77.1134 24.1 77.6126 23.5176V15.9464H80.1918V26.3464H77.779L77.7374 25.7224C77.4185 25.9581 77.051 26.1557 76.635 26.3152ZM86.5774 26.5544C87.2708 26.5544 87.9121 26.4816 88.5014 26.336C89.0908 26.1904 89.6073 25.9997 90.051 25.764L89.9262 23.58C88.9695 24.1485 87.9294 24.4328 86.8062 24.4328C85.9881 24.4328 85.2878 24.2075 84.7054 23.7568C84.123 23.3061 83.7625 22.6232 83.6238 21.708H90.3422C90.4532 21.1811 90.5087 20.7096 90.5087 20.2936C90.5087 19.4477 90.3388 18.6851 89.999 18.0056C89.6593 17.3261 89.1532 16.7853 88.4807 16.3832C87.8081 15.9811 86.9865 15.78 86.0158 15.78C84.962 15.78 84.0537 16.0192 83.291 16.4976C82.5284 16.976 81.946 17.6173 81.5438 18.4216C81.1417 19.2259 80.9406 20.1133 80.9406 21.084C80.9406 22.0963 81.1521 23.0149 81.575 23.84C81.998 24.6651 82.6358 25.3237 83.4886 25.816C84.3414 26.3083 85.371 26.5544 86.5774 26.5544ZM83.6862 19.9608H87.8879C87.8879 19.42 87.7353 18.9416 87.4303 18.5256C87.1252 18.1096 86.6537 17.9016 86.0158 17.9016C85.378 17.9016 84.8649 18.0888 84.4766 18.4632C84.0884 18.8376 83.8249 19.3368 83.6862 19.9608ZM93.9614 26.3464V21.292H96.5406C98.2046 21.292 99.4734 20.8968 100.347 20.1064C101.221 19.316 101.657 18.1096 101.657 16.4872C101.657 13.3533 99.931 11.7864 96.4782 11.7864H91.299V26.3464H93.9614ZM93.9615 19.0664H96.2287C97.1438 19.0664 97.8268 18.8584 98.2775 18.4424C98.7281 18.0264 98.9534 17.3885 98.9534 16.5288C98.9534 15.6691 98.7246 15.0347 98.267 14.6256C97.8094 14.2165 97.1092 14.012 96.1663 14.012H93.9615V19.0664ZM104.715 14.3656V11.7864H102.136V14.3656H104.715ZM104.715 15.9464V26.3464H102.136V15.9464H104.715ZM108.667 31.38V25.7224C109.069 26.0136 109.489 26.2251 109.925 26.3568C110.362 26.4885 110.893 26.5544 111.517 26.5544C112.501 26.5544 113.347 26.3117 114.054 25.8264C114.761 25.3411 115.295 24.6893 115.656 23.8712C116.016 23.0531 116.197 22.1517 116.197 21.1672C116.197 20.1827 116.016 19.2813 115.656 18.4632C115.295 17.6451 114.761 16.9933 114.054 16.508C113.347 16.0227 112.501 15.78 111.517 15.78C110.879 15.78 110.317 15.8736 109.832 16.0608C109.347 16.248 108.882 16.5288 108.438 16.9032L108.168 15.9464H106.088V31.38H108.667ZM109.187 23.5592C109.617 24.1416 110.262 24.4328 111.121 24.4328C111.884 24.4328 112.48 24.1347 112.91 23.5384C113.34 22.9421 113.555 22.1517 113.555 21.1672C113.555 20.1827 113.34 19.3923 112.91 18.796C112.48 18.1997 111.884 17.9016 111.121 17.9016C110.262 17.9016 109.617 18.1928 109.187 18.7752C108.757 19.3576 108.542 20.1549 108.542 21.1672C108.542 22.1795 108.757 22.9768 109.187 23.5592ZM121.958 26.5544C122.652 26.5544 123.293 26.4816 123.882 26.336C124.472 26.1904 124.988 25.9997 125.432 25.764L125.307 23.58C124.35 24.1485 123.31 24.4328 122.187 24.4328C121.369 24.4328 120.669 24.2075 120.086 23.7568C119.504 23.3061 119.143 22.6232 119.005 21.708H125.723C125.834 21.1811 125.889 20.7096 125.889 20.2936C125.889 19.4477 125.72 18.6851 125.38 18.0056C125.04 17.3261 124.534 16.7853 123.861 16.3832C123.189 15.9811 122.367 15.78 121.397 15.78C120.343 15.78 119.435 16.0192 118.672 16.4976C117.909 16.976 117.327 17.6173 116.925 18.4216C116.523 19.2259 116.321 20.1133 116.321 21.084C116.321 22.0963 116.533 23.0149 116.956 23.84C117.379 24.6651 118.017 25.3237 118.869 25.816C119.722 26.3083 120.752 26.5544 121.958 26.5544ZM119.067 19.9608H123.269C123.269 19.42 123.116 18.9416 122.811 18.5256C122.506 18.1096 122.035 17.9016 121.397 17.9016C120.759 17.9016 120.246 18.0888 119.857 18.4632C119.469 18.8376 119.206 19.3368 119.067 19.9608ZM129.571 26.5544C130.875 26.5544 131.88 26.284 132.587 25.7432C133.294 25.2024 133.648 24.4397 133.648 23.4552C133.648 22.6787 133.426 22.0581 132.982 21.5936C132.539 21.1291 131.811 20.7027 130.798 20.3144C130.188 20.0787 129.751 19.8949 129.488 19.7632C129.224 19.6315 129.02 19.4824 128.874 19.316C128.729 19.1496 128.656 18.9347 128.656 18.6712C128.656 18.3384 128.777 18.0819 129.02 17.9016C129.263 17.7213 129.606 17.6312 130.049 17.6312C130.563 17.6312 131.051 17.7283 131.516 17.9224C131.98 18.1165 132.476 18.3939 133.003 18.7544L133.232 16.5496C132.261 16.0088 131.187 15.7384 130.008 15.7384C128.829 15.7384 127.893 16.0192 127.2 16.5808C126.507 17.1424 126.16 17.8739 126.16 18.7752C126.16 19.5933 126.403 20.2416 126.888 20.72C127.373 21.1984 128.129 21.6248 129.155 21.9992C129.876 22.2765 130.375 22.5157 130.653 22.7168C130.93 22.9179 131.069 23.2056 131.069 23.58C131.069 24.2733 130.542 24.62 129.488 24.62C128.947 24.62 128.424 24.5333 127.917 24.36C127.411 24.1867 126.867 23.9267 126.285 23.58L126.056 25.7848C126.638 26.0483 127.203 26.2424 127.751 26.3672C128.299 26.492 128.905 26.5544 129.571 26.5544Z" fill="white"/>
</mask>
<g mask="url(#mask0_0_45539)">
<rect width="156" height="39" fill="white"/>
</g>
</g>
</svg>
