<svg width="103" height="23" viewBox="0 0 103 23" fill="none" xmlns="http://www.w3.org/2000/svg">
<path fill-rule="evenodd" clip-rule="evenodd" d="M39.9916 6.93981H37.4979V5.74422C37.4979 4.86049 37.6572 4.25866 37.9771 3.9378C38.297 3.61735 38.8405 3.45692 39.6075 3.45692C39.9553 3.45692 40.2752 3.47891 40.5672 3.52183C40.8592 3.56542 41.1973 3.65643 41.5815 3.79486V0.363907C40.5211 0.121479 39.5264 0 38.5932 0C36.7211 0 35.4135 0.493865 34.6675 1.48159C33.9228 2.46919 33.5498 3.90773 33.5498 5.79629V6.93981H31.6316V10.2148H33.5498V21.9371H37.4979V10.2148H39.9916V6.93981ZM9.10044 13.6847C9.70341 13.9706 10.2332 14.3129 10.6902 14.7114C11.1467 15.1103 11.5079 15.5606 11.7729 16.0629C12.0376 16.5658 12.1703 17.1201 12.1703 17.7265C12.1703 18.4892 11.987 19.1561 11.6209 19.7278C11.2543 20.2996 10.778 20.7805 10.1921 21.1703C9.60618 21.5602 8.94662 21.8551 8.21429 22.0541C7.48153 22.2531 6.75799 22.3529 6.0441 22.3529C4.83508 22.3529 3.72232 22.1406 2.70596 21.7163C1.68918 21.2918 0.796603 20.6116 0.0275221 19.6758L2.41216 17.3886C2.88716 17.9604 3.43537 18.4067 4.05678 18.7271C4.67791 19.048 5.34515 19.208 6.05779 19.208C6.67892 19.208 7.19527 19.0999 7.60657 18.8832C8.01772 18.6666 8.22323 18.3417 8.22323 17.9084C8.22323 17.458 7.93068 17.0811 7.34615 16.7778C6.76107 16.4748 5.93876 16.1758 4.87909 15.881C4.25768 15.708 3.65471 15.4871 3.07004 15.2183C2.48495 14.9499 1.96413 14.6204 1.50757 14.2305C1.05059 13.8407 0.685257 13.3948 0.411154 12.892C0.137051 12.3897 0 11.8093 0 11.1505C0 10.4227 0.178684 9.76893 0.535772 9.18816C0.893 8.60779 1.3599 8.12254 1.93674 7.73266C2.51373 7.34266 3.16853 7.0438 3.90143 6.83595C4.63376 6.62796 5.37546 6.52397 6.1268 6.52397C8.54399 6.52397 10.5224 7.39062 12.0607 9.12312L9.70341 11.3845C9.24643 10.8475 8.72561 10.4227 8.14094 10.1108C7.55599 9.799 6.91656 9.64308 6.22222 9.64308C5.98458 9.64308 5.73311 9.67355 5.46851 9.73396C5.20335 9.79489 4.95662 9.8814 4.72835 9.99387C4.49965 10.1069 4.31258 10.2538 4.16645 10.4358C4.02004 10.6177 3.94711 10.8216 3.94711 11.0465C3.94711 11.4454 4.22554 11.7918 4.78325 12.0863C5.3404 12.3811 6.14007 12.6756 7.18172 12.9699C7.85748 13.1608 8.49733 13.3989 9.10044 13.6847ZM25.4511 7.13481C26.4821 7.54217 27.3832 8.09644 28.1502 8.79829C28.9186 9.50014 29.5207 10.3363 29.9594 11.3064C30.398 12.2771 30.6174 13.3167 30.6174 14.4255C30.6174 15.5521 30.398 16.5957 29.9594 17.5575C29.5207 18.5191 28.9186 19.3509 28.1502 20.0528C27.3832 20.7545 26.4821 21.3092 25.4511 21.7163C24.4172 22.1232 23.3164 22.327 22.1474 22.327C20.9778 22.327 19.8814 22.1232 18.8582 21.7163C17.8346 21.3092 16.9395 20.7504 16.1719 20.0397C15.4045 19.3295 14.8014 18.4932 14.3629 17.5315C14.0495 16.8444 13.8502 16.1191 13.7607 15.3567H17.7412C17.8003 15.6549 17.8891 15.9424 18.0071 16.219C18.2441 16.7736 18.5675 17.2586 18.9772 17.6745C19.3871 18.0903 19.8656 18.4153 20.412 18.6491C20.9585 18.8832 21.5419 19 22.1611 19C22.7804 19 23.3639 18.8832 23.9101 18.6491C24.4564 18.4153 24.9341 18.0903 25.3449 17.6745C25.7542 17.2586 26.0783 16.7736 26.3144 16.219C26.5519 15.6646 26.6707 15.0667 26.6707 14.4255C26.6707 13.7846 26.5519 13.1869 26.3144 12.6321C26.0783 12.0777 25.7542 11.5923 25.3449 11.1765C24.9341 10.7606 24.4564 10.4358 23.9101 10.2019C23.3639 9.96791 22.7804 9.85093 22.1611 9.85093C21.5419 9.85093 20.9585 9.96791 20.412 10.2019C19.8656 10.4358 19.3871 10.7606 18.9772 11.1765C18.5675 11.5923 18.2441 12.0777 18.0071 12.6321C17.9068 12.8672 17.829 13.1107 17.7711 13.3614H13.7811C13.8803 12.6606 14.0772 11.9881 14.3766 11.3455C14.8242 10.3837 15.4319 9.54346 16.1993 8.82425C16.9669 8.10545 17.862 7.54217 18.8856 7.13481C19.9088 6.72785 20.9963 6.52397 22.1474 6.52397C23.3164 6.52397 24.4172 6.72785 25.4511 7.13481ZM53.0807 7.13481C54.1131 7.54217 55.0128 8.09644 55.7798 8.79829C56.5482 9.50014 57.1503 10.3363 57.589 11.3064C58.0277 12.2771 58.247 13.3167 58.247 14.4255C58.247 15.5521 58.0277 16.5957 57.589 17.5575C57.1503 18.5191 56.5482 19.3509 55.7798 20.0528C55.0128 20.7545 54.1131 21.3092 53.0807 21.7163C52.0483 22.1232 50.946 22.327 49.7766 22.327C48.6073 22.327 47.5106 22.1232 46.488 21.7163C45.4639 21.3092 44.5698 20.7504 43.8014 20.0397C43.0344 19.3295 42.4309 18.4932 41.9922 17.5315C41.6793 16.8444 41.4795 16.1191 41.3901 15.3567H45.3717C45.4304 15.6549 45.5184 15.9424 45.6372 16.219C45.8733 16.7736 46.1974 17.2586 46.6067 17.6745C47.0175 18.0903 47.4953 18.4153 48.0415 18.6491C48.5877 18.8832 49.1717 19 49.7906 19C50.4109 19 50.9935 18.8832 51.5397 18.6491C52.086 18.4153 52.5652 18.0903 52.9745 17.6745C53.3839 17.2586 53.708 16.7736 53.9441 16.219C54.1816 15.6646 54.3003 15.0667 54.3003 14.4255C54.3003 13.7846 54.1816 13.1869 53.9441 12.6321C53.708 12.0777 53.3839 11.5923 52.9745 11.1765C52.5652 10.7606 52.086 10.4358 51.5397 10.2019C50.9935 9.96791 50.4109 9.85093 49.7906 9.85093C49.1717 9.85093 48.5877 9.96791 48.0415 10.2019C47.4953 10.4358 47.0175 10.7606 46.6067 11.1765C46.1974 11.5923 45.8733 12.0777 45.6372 12.6321C45.5366 12.8672 45.4583 13.1107 45.4011 13.3614H41.4111C41.5103 12.6606 41.7072 11.9881 42.0062 11.3455C42.4547 10.3837 43.0624 9.54346 43.8294 8.82425C44.5964 8.10545 45.4919 7.54217 46.5159 7.13481C47.5386 6.72785 48.6255 6.52397 49.7766 6.52397C50.946 6.52397 52.0483 6.72785 53.0807 7.13481ZM82.0096 7.99258C81.4605 7.48163 80.8165 7.10884 80.0761 6.87489C79.3342 6.64094 78.5519 6.52397 77.729 6.52397C76.7217 6.52397 75.7983 6.67141 74.9572 6.9659C74.1148 7.26066 73.2836 7.75452 72.4593 8.44736C71.8739 7.82354 71.1936 7.34716 70.4154 7.01783C69.6372 6.6889 68.8647 6.52397 68.0963 6.52397C67.4005 6.52397 66.7202 6.66293 66.0524 6.93981C65.3846 7.21721 64.8034 7.58111 64.3089 8.03153L64.3047 6.91384H60.358V21.9371H64.3047V10.9946C64.7978 10.5617 65.2728 10.2453 65.7297 10.0459C66.1865 9.84682 66.7174 9.74694 67.3195 9.74694C68.0879 9.74694 68.7403 10.0198 69.2796 10.5656C69.8189 11.1116 70.0885 11.9132 70.0885 12.9699V21.9371H74.0352V12.9699C74.0352 12.2077 73.9541 11.5233 73.7893 10.9166C74.3006 10.5007 74.8259 10.2019 75.3652 10.0198C75.9044 9.83795 76.4758 9.74694 77.078 9.74694C77.8631 9.74694 78.5267 10.0198 79.066 10.5656C79.6039 11.1116 79.8735 11.9132 79.8735 12.9699V21.9371H83.8216V12.788C83.8216 11.6793 83.6567 10.7306 83.327 9.94194C82.9973 9.15359 82.5586 8.50393 82.0096 7.99258ZM100.35 8.79829C101.117 9.50014 101.721 10.3363 102.159 11.3064C102.598 12.2771 102.817 13.3167 102.817 14.4255C102.817 15.5521 102.598 16.5957 102.159 17.5575C101.721 18.5191 101.117 19.3509 100.35 20.0528C99.5818 20.7545 98.6821 21.3092 97.6497 21.7163C96.6172 22.1232 95.5164 22.327 94.347 22.327C93.1777 22.327 92.081 22.1232 91.0583 21.7163C90.0343 21.3092 89.1388 20.7504 88.3718 20.0397C87.6034 19.3295 87.0013 18.4932 86.5626 17.5315C86.2497 16.8444 86.0499 16.1191 85.9605 15.3567H89.9407C89.9994 15.6549 90.0888 15.9424 90.2061 16.219C90.4436 16.7736 90.7664 17.2586 91.1771 17.6745C91.5864 18.0903 92.0642 18.4153 92.6119 18.6491C93.1581 18.8832 93.7407 19 94.361 19C94.9799 19 95.5625 18.8832 96.1087 18.6491C96.6564 18.4153 97.1341 18.0903 97.5449 17.6745C97.9542 17.2586 98.2769 16.7736 98.5144 16.219C98.7505 15.6646 98.8693 15.0667 98.8693 14.4255C98.8693 13.7846 98.7505 13.1869 98.5144 12.6321C98.2769 12.0777 97.9542 11.5923 97.5449 11.1765C97.1341 10.7606 96.6564 10.4358 96.1087 10.2019C95.5625 9.96791 94.9799 9.85093 94.361 9.85093C93.7407 9.85093 93.1581 9.96791 92.6119 10.2019C92.0642 10.4358 91.5864 10.7606 91.1771 11.1765C90.7664 11.5923 90.4436 12.0777 90.2061 12.6321C90.1055 12.8672 90.0287 13.1107 89.97 13.3614H85.98C86.0792 12.6606 86.2762 11.9881 86.5766 11.3455C87.0236 10.3837 87.6314 9.54346 88.3983 8.82425C89.1667 8.10545 90.0608 7.54217 91.0849 7.13481C92.1089 6.72785 93.1958 6.52397 94.347 6.52397C95.5164 6.52397 96.6172 6.72785 97.6497 7.13481C98.6821 7.54217 99.5818 8.09644 100.35 8.79829Z" fill="#404040"/>
<mask id="mask0_263_28829" style="mask-type:alpha" maskUnits="userSpaceOnUse" x="0" y="0" width="103" height="23">
<path fill-rule="evenodd" clip-rule="evenodd" d="M39.9916 6.93981H37.4979V5.74422C37.4979 4.86049 37.6572 4.25866 37.9771 3.9378C38.297 3.61735 38.8405 3.45692 39.6075 3.45692C39.9553 3.45692 40.2752 3.47891 40.5672 3.52183C40.8592 3.56542 41.1973 3.65643 41.5815 3.79486V0.363907C40.5211 0.121479 39.5264 0 38.5932 0C36.7211 0 35.4135 0.493865 34.6675 1.48159C33.9228 2.46919 33.5498 3.90773 33.5498 5.79629V6.93981H31.6316V10.2148H33.5498V21.9371H37.4979V10.2148H39.9916V6.93981ZM9.10044 13.6847C9.70341 13.9706 10.2332 14.3129 10.6902 14.7114C11.1467 15.1103 11.5079 15.5606 11.7729 16.0629C12.0376 16.5658 12.1703 17.1201 12.1703 17.7265C12.1703 18.4892 11.987 19.1561 11.6209 19.7278C11.2543 20.2996 10.778 20.7805 10.1921 21.1703C9.60618 21.5602 8.94662 21.8551 8.21429 22.0541C7.48153 22.2531 6.75799 22.3529 6.0441 22.3529C4.83508 22.3529 3.72232 22.1406 2.70596 21.7163C1.68918 21.2918 0.796603 20.6116 0.0275221 19.6758L2.41216 17.3886C2.88716 17.9604 3.43537 18.4067 4.05678 18.7271C4.67791 19.048 5.34515 19.208 6.05779 19.208C6.67892 19.208 7.19527 19.0999 7.60657 18.8832C8.01772 18.6666 8.22323 18.3417 8.22323 17.9084C8.22323 17.458 7.93068 17.0811 7.34615 16.7778C6.76107 16.4748 5.93876 16.1758 4.87909 15.881C4.25768 15.708 3.65471 15.4871 3.07004 15.2183C2.48495 14.9499 1.96413 14.6204 1.50757 14.2305C1.05059 13.8407 0.685257 13.3948 0.411154 12.892C0.137051 12.3897 0 11.8093 0 11.1505C0 10.4227 0.178684 9.76893 0.535772 9.18816C0.893 8.60779 1.3599 8.12254 1.93674 7.73266C2.51373 7.34266 3.16853 7.0438 3.90143 6.83595C4.63376 6.62796 5.37546 6.52397 6.1268 6.52397C8.54399 6.52397 10.5224 7.39062 12.0607 9.12312L9.70341 11.3845C9.24643 10.8475 8.72561 10.4227 8.14094 10.1108C7.55599 9.799 6.91656 9.64308 6.22222 9.64308C5.98458 9.64308 5.73311 9.67355 5.46851 9.73396C5.20335 9.79489 4.95662 9.8814 4.72835 9.99387C4.49965 10.1069 4.31258 10.2538 4.16645 10.4358C4.02004 10.6177 3.94711 10.8216 3.94711 11.0465C3.94711 11.4454 4.22554 11.7918 4.78325 12.0863C5.3404 12.3811 6.14007 12.6756 7.18172 12.9699C7.85748 13.1608 8.49733 13.3989 9.10044 13.6847ZM25.4511 7.13481C26.4821 7.54217 27.3832 8.09644 28.1502 8.79829C28.9186 9.50014 29.5207 10.3363 29.9594 11.3064C30.398 12.2771 30.6174 13.3167 30.6174 14.4255C30.6174 15.5521 30.398 16.5957 29.9594 17.5575C29.5207 18.5191 28.9186 19.3509 28.1502 20.0528C27.3832 20.7545 26.4821 21.3092 25.4511 21.7163C24.4172 22.1232 23.3164 22.327 22.1474 22.327C20.9778 22.327 19.8814 22.1232 18.8582 21.7163C17.8346 21.3092 16.9395 20.7504 16.1719 20.0397C15.4045 19.3295 14.8014 18.4932 14.3629 17.5315C14.0495 16.8444 13.8502 16.1191 13.7607 15.3567H17.7412C17.8003 15.6549 17.8891 15.9424 18.0071 16.219C18.2441 16.7736 18.5675 17.2586 18.9772 17.6745C19.3871 18.0903 19.8656 18.4153 20.412 18.6491C20.9585 18.8832 21.5419 19 22.1611 19C22.7804 19 23.3639 18.8832 23.9101 18.6491C24.4564 18.4153 24.9341 18.0903 25.3449 17.6745C25.7542 17.2586 26.0783 16.7736 26.3144 16.219C26.5519 15.6646 26.6707 15.0667 26.6707 14.4255C26.6707 13.7846 26.5519 13.1869 26.3144 12.6321C26.0783 12.0777 25.7542 11.5923 25.3449 11.1765C24.9341 10.7606 24.4564 10.4358 23.9101 10.2019C23.3639 9.96791 22.7804 9.85093 22.1611 9.85093C21.5419 9.85093 20.9585 9.96791 20.412 10.2019C19.8656 10.4358 19.3871 10.7606 18.9772 11.1765C18.5675 11.5923 18.2441 12.0777 18.0071 12.6321C17.9068 12.8672 17.829 13.1107 17.7711 13.3614H13.7811C13.8803 12.6606 14.0772 11.9881 14.3766 11.3455C14.8242 10.3837 15.4319 9.54346 16.1993 8.82425C16.9669 8.10545 17.862 7.54217 18.8856 7.13481C19.9088 6.72785 20.9963 6.52397 22.1474 6.52397C23.3164 6.52397 24.4172 6.72785 25.4511 7.13481ZM53.0807 7.13481C54.1131 7.54217 55.0128 8.09644 55.7798 8.79829C56.5482 9.50014 57.1503 10.3363 57.589 11.3064C58.0277 12.2771 58.247 13.3167 58.247 14.4255C58.247 15.5521 58.0277 16.5957 57.589 17.5575C57.1503 18.5191 56.5482 19.3509 55.7798 20.0528C55.0128 20.7545 54.1131 21.3092 53.0807 21.7163C52.0483 22.1232 50.946 22.327 49.7766 22.327C48.6073 22.327 47.5106 22.1232 46.488 21.7163C45.4639 21.3092 44.5698 20.7504 43.8014 20.0397C43.0344 19.3295 42.4309 18.4932 41.9922 17.5315C41.6793 16.8444 41.4795 16.1191 41.3901 15.3567H45.3717C45.4304 15.6549 45.5184 15.9424 45.6372 16.219C45.8733 16.7736 46.1974 17.2586 46.6067 17.6745C47.0175 18.0903 47.4953 18.4153 48.0415 18.6491C48.5877 18.8832 49.1717 19 49.7906 19C50.4109 19 50.9935 18.8832 51.5397 18.6491C52.086 18.4153 52.5652 18.0903 52.9745 17.6745C53.3839 17.2586 53.708 16.7736 53.9441 16.219C54.1816 15.6646 54.3003 15.0667 54.3003 14.4255C54.3003 13.7846 54.1816 13.1869 53.9441 12.6321C53.708 12.0777 53.3839 11.5923 52.9745 11.1765C52.5652 10.7606 52.086 10.4358 51.5397 10.2019C50.9935 9.96791 50.4109 9.85093 49.7906 9.85093C49.1717 9.85093 48.5877 9.96791 48.0415 10.2019C47.4953 10.4358 47.0175 10.7606 46.6067 11.1765C46.1974 11.5923 45.8733 12.0777 45.6372 12.6321C45.5366 12.8672 45.4583 13.1107 45.4011 13.3614H41.4111C41.5103 12.6606 41.7072 11.9881 42.0062 11.3455C42.4547 10.3837 43.0624 9.54346 43.8294 8.82425C44.5964 8.10545 45.4919 7.54217 46.5159 7.13481C47.5386 6.72785 48.6255 6.52397 49.7766 6.52397C50.946 6.52397 52.0483 6.72785 53.0807 7.13481ZM82.0096 7.99258C81.4605 7.48163 80.8165 7.10884 80.0761 6.87489C79.3342 6.64094 78.5519 6.52397 77.729 6.52397C76.7217 6.52397 75.7983 6.67141 74.9572 6.9659C74.1148 7.26066 73.2836 7.75452 72.4593 8.44736C71.8739 7.82354 71.1936 7.34716 70.4154 7.01783C69.6372 6.6889 68.8647 6.52397 68.0963 6.52397C67.4005 6.52397 66.7202 6.66293 66.0524 6.93981C65.3846 7.21721 64.8034 7.58111 64.3089 8.03153L64.3047 6.91384H60.358V21.9371H64.3047V10.9946C64.7978 10.5617 65.2728 10.2453 65.7297 10.0459C66.1865 9.84682 66.7174 9.74694 67.3195 9.74694C68.0879 9.74694 68.7403 10.0198 69.2796 10.5656C69.8189 11.1116 70.0885 11.9132 70.0885 12.9699V21.9371H74.0352V12.9699C74.0352 12.2077 73.9541 11.5233 73.7893 10.9166C74.3006 10.5007 74.8259 10.2019 75.3652 10.0198C75.9044 9.83795 76.4758 9.74694 77.078 9.74694C77.8631 9.74694 78.5267 10.0198 79.066 10.5656C79.6039 11.1116 79.8735 11.9132 79.8735 12.9699V21.9371H83.8216V12.788C83.8216 11.6793 83.6567 10.7306 83.327 9.94194C82.9973 9.15359 82.5586 8.50393 82.0096 7.99258ZM100.35 8.79829C101.117 9.50014 101.721 10.3363 102.159 11.3064C102.598 12.2771 102.817 13.3167 102.817 14.4255C102.817 15.5521 102.598 16.5957 102.159 17.5575C101.721 18.5191 101.117 19.3509 100.35 20.0528C99.5818 20.7545 98.6821 21.3092 97.6497 21.7163C96.6172 22.1232 95.5164 22.327 94.347 22.327C93.1777 22.327 92.081 22.1232 91.0583 21.7163C90.0343 21.3092 89.1388 20.7504 88.3718 20.0397C87.6034 19.3295 87.0013 18.4932 86.5626 17.5315C86.2497 16.8444 86.0499 16.1191 85.9605 15.3567H89.9407C89.9994 15.6549 90.0888 15.9424 90.2061 16.219C90.4436 16.7736 90.7664 17.2586 91.1771 17.6745C91.5864 18.0903 92.0642 18.4153 92.6119 18.6491C93.1581 18.8832 93.7407 19 94.361 19C94.9799 19 95.5625 18.8832 96.1087 18.6491C96.6564 18.4153 97.1341 18.0903 97.5449 17.6745C97.9542 17.2586 98.2769 16.7736 98.5144 16.219C98.7505 15.6646 98.8693 15.0667 98.8693 14.4255C98.8693 13.7846 98.7505 13.1869 98.5144 12.6321C98.2769 12.0777 97.9542 11.5923 97.5449 11.1765C97.1341 10.7606 96.6564 10.4358 96.1087 10.2019C95.5625 9.96791 94.9799 9.85093 94.361 9.85093C93.7407 9.85093 93.1581 9.96791 92.6119 10.2019C92.0642 10.4358 91.5864 10.7606 91.1771 11.1765C90.7664 11.5923 90.4436 12.0777 90.2061 12.6321C90.1055 12.8672 90.0287 13.1107 89.97 13.3614H85.98C86.0792 12.6606 86.2762 11.9881 86.5766 11.3455C87.0236 10.3837 87.6314 9.54346 88.3983 8.82425C89.1667 8.10545 90.0608 7.54217 91.0849 7.13481C92.1089 6.72785 93.1958 6.52397 94.347 6.52397C95.5164 6.52397 96.6172 6.72785 97.6497 7.13481C98.6821 7.54217 99.5818 8.09644 100.35 8.79829Z" fill="white"/>
</mask>
<g mask="url(#mask0_263_28829)">
<rect width="103" height="23" fill="#122E45"/>
</g>
</svg>
