<svg width="40" height="40" viewBox="0 0 40 40" fill="none" xmlns="http://www.w3.org/2000/svg">
<path fill-rule="evenodd" clip-rule="evenodd" d="M22.816 14.418C22.816 19.409 20.332 22.836 15.962 22.836C11.592 22.836 9.2 19.409 9.2 14.418C9.2 9.404 11.592 6 15.962 6C20.332 6 22.816 9.404 22.816 14.418ZM7.187 6.23V22.606H4.68V8.829L1 10.669V8.139L4.68 6.23H7.187ZM15.962 20.605C13.202 20.605 11.776 18.213 11.776 14.418C11.776 10.623 13.202 8.231 15.962 8.231C18.722 8.231 20.217 10.623 20.217 14.418C20.217 18.213 18.722 20.605 15.962 20.605ZM30.878 16.235V20.467H28.532V16.235H24.346V13.912H28.532V9.68H30.878V13.912H35.064V16.235H30.878Z" fill="white"/>
<mask id="mask0_213_62499" style="mask-type:alpha" maskUnits="userSpaceOnUse" x="1" y="6" width="35" height="17">
<path fill-rule="evenodd" clip-rule="evenodd" d="M22.816 14.418C22.816 19.409 20.332 22.836 15.962 22.836C11.592 22.836 9.2 19.409 9.2 14.418C9.2 9.404 11.592 6 15.962 6C20.332 6 22.816 9.404 22.816 14.418ZM7.187 6.23V22.606H4.68V8.829L1 10.669V8.139L4.68 6.23H7.187ZM15.962 20.605C13.202 20.605 11.776 18.213 11.776 14.418C11.776 10.623 13.202 8.231 15.962 8.231C18.722 8.231 20.217 10.623 20.217 14.418C20.217 18.213 18.722 20.605 15.962 20.605ZM30.878 16.235V20.467H28.532V16.235H24.346V13.912H28.532V9.68H30.878V13.912H35.064V16.235H30.878Z" fill="white"/>
</mask>
<g mask="url(#mask0_213_62499)">
<rect width="40" height="40" fill="#6B79EF"/>
</g>
</svg>
