<svg width="40" height="40" viewBox="0 0 40 40" fill="none" xmlns="http://www.w3.org/2000/svg">
<path fill-rule="evenodd" clip-rule="evenodd" d="M5.87851 12.6406C5.87851 8.26493 9.43653 4.70612 13.8114 4.70294C13.8127 4.70294 13.8138 4.7027 13.8148 4.70249L13.8148 4.70249C13.8155 4.70231 13.8163 4.70215 13.817 4.70215H20.1677C20.6067 4.70215 20.9616 5.057 20.9616 5.49599V7.94977C23.2106 8.32844 24.9308 10.2853 24.9308 12.6406V13.4329C25.3698 13.4337 25.7239 13.7877 25.7239 14.2267V18.9938C25.7239 19.4328 25.369 19.7868 24.9308 19.7876C24.93 23.3036 23.0097 26.3726 20.1677 28.023V30.1068L22.5493 30.106C25.6127 30.106 28.1062 32.5987 28.1062 35.6621V38.0421C28.1062 38.4811 27.7514 38.8359 27.3124 38.8359C26.8734 38.8359 26.5185 38.4811 26.5185 38.0421V35.6621C26.5185 33.4735 24.7379 31.6937 22.5493 31.6937L19.7033 31.6953L18.3482 33.0496C18.3418 33.0557 18.3342 33.0597 18.3266 33.0637C18.3193 33.0676 18.312 33.0716 18.3054 33.0774C18.253 33.1242 18.1966 33.1607 18.1339 33.1917C18.1251 33.1961 18.1166 33.2008 18.1081 33.2055C18.092 33.2143 18.0761 33.2231 18.0585 33.2298C17.9712 33.2616 17.8807 33.2822 17.7862 33.2822C17.7036 33.2822 17.6187 33.2687 17.5353 33.2409L15.4047 32.5304L13.2748 33.2401C13.1914 33.2679 13.1065 33.2814 13.0239 33.2814C12.9295 33.2814 12.8382 33.2608 12.7516 33.229C12.7346 33.2223 12.7185 33.2136 12.7024 33.2048C12.6937 33.2001 12.6851 33.1953 12.6762 33.1909C12.6135 33.1592 12.5563 33.1234 12.5047 33.0766C12.4987 33.0716 12.492 33.0681 12.4853 33.0645C12.4771 33.0602 12.4689 33.0558 12.4619 33.0488L11.1068 31.6945L8.26005 31.6937C6.07141 31.6937 4.29082 33.4735 4.29082 35.6621V38.0421C4.29082 38.4811 3.93597 38.8359 3.49697 38.8359C3.05797 38.8359 2.70312 38.4811 2.70312 38.0421V35.6621C2.70312 32.5987 5.1966 30.106 8.26005 30.106L10.6416 30.1068V28.023C7.79962 26.3726 5.8793 23.3036 5.87851 19.7876C5.44031 19.7868 5.08546 19.4328 5.08546 18.9938V14.2267C5.08546 13.7877 5.43951 13.4337 5.87851 13.4329V12.6406ZM24.1362 18.1999V15.0206H23.3439V18.1999H24.1362ZM21.7562 18.9938C21.7562 19.432 21.4006 19.7876 20.9624 19.7876H9.84695C9.40874 19.7876 9.0531 19.432 9.0531 18.9938V14.2267C9.0531 13.7885 9.40874 13.4329 9.84695 13.4329H20.9624C21.4006 13.4329 21.7562 13.7885 21.7562 14.2267V18.9938ZM6.67315 18.1999H7.46541V15.0206H6.67315V18.1999ZM18.58 30.572L17.5711 31.5802L15.6555 30.9411C15.6394 30.9358 15.6234 30.9349 15.6073 30.9341C15.5948 30.9335 15.5823 30.9328 15.5698 30.93C15.515 30.9181 15.4618 30.9094 15.4047 30.9094C15.3475 30.9094 15.2935 30.9189 15.2387 30.93C15.2263 30.9328 15.2139 30.9335 15.2016 30.9341H15.2016H15.2016C15.1857 30.9349 15.1699 30.9358 15.1538 30.9411L13.2383 31.5802L12.2293 30.572V28.7557C13.224 29.1089 14.2901 29.3114 15.4047 29.3114C16.5192 29.3114 17.5854 29.1089 18.58 28.7557V30.572ZM7.4662 19.7876C7.46779 24.1641 11.0282 27.7237 15.4047 27.7237C19.7811 27.7237 23.3415 24.1641 23.3431 19.7876H23.1971C22.8684 20.7093 21.996 21.3753 20.9624 21.3753H9.84695C8.81415 21.3753 7.94092 20.7093 7.61227 19.7876H7.4662ZM23.3431 12.6406V13.4329H23.1971C22.8684 12.5112 21.9952 11.8452 20.9624 11.8452H9.84695C8.81336 11.8452 7.94092 12.5112 7.61227 13.4329H7.4662V12.6406C7.4662 9.13895 10.3153 6.29063 13.817 6.29063C13.8178 6.29063 13.8184 6.29044 13.819 6.29024C13.8196 6.29004 13.8201 6.28984 13.8209 6.28984H19.3739V8.67138C19.3739 9.11038 19.7287 9.46523 20.1677 9.46523C21.919 9.46523 23.3431 10.8894 23.3431 12.6406ZM11.4354 15.8168H19.3739C19.8129 15.8168 20.1677 16.1716 20.1677 16.6106C20.1677 17.0496 19.8129 17.4045 19.3739 17.4045H11.4354C10.9964 17.4045 10.6416 17.0496 10.6416 16.6106C10.6416 16.1716 10.9964 15.8168 11.4354 15.8168Z" fill="white"/>
<mask id="mask0_213_62502" style="mask-type:alpha" maskUnits="userSpaceOnUse" x="2" y="4" width="27" height="35">
<path fill-rule="evenodd" clip-rule="evenodd" d="M5.87851 12.6406C5.87851 8.26493 9.43653 4.70612 13.8114 4.70294C13.8127 4.70294 13.8138 4.7027 13.8148 4.70249L13.8148 4.70249C13.8155 4.70231 13.8163 4.70215 13.817 4.70215H20.1677C20.6067 4.70215 20.9616 5.057 20.9616 5.49599V7.94977C23.2106 8.32844 24.9308 10.2853 24.9308 12.6406V13.4329C25.3698 13.4337 25.7239 13.7877 25.7239 14.2267V18.9938C25.7239 19.4328 25.369 19.7868 24.9308 19.7876C24.93 23.3036 23.0097 26.3726 20.1677 28.023V30.1068L22.5493 30.106C25.6127 30.106 28.1062 32.5987 28.1062 35.6621V38.0421C28.1062 38.4811 27.7514 38.8359 27.3124 38.8359C26.8734 38.8359 26.5185 38.4811 26.5185 38.0421V35.6621C26.5185 33.4735 24.7379 31.6937 22.5493 31.6937L19.7033 31.6953L18.3482 33.0496C18.3418 33.0557 18.3342 33.0597 18.3266 33.0637C18.3193 33.0676 18.312 33.0716 18.3054 33.0774C18.253 33.1242 18.1966 33.1607 18.1339 33.1917C18.1251 33.1961 18.1166 33.2008 18.1081 33.2055C18.092 33.2143 18.0761 33.2231 18.0585 33.2298C17.9712 33.2616 17.8807 33.2822 17.7862 33.2822C17.7036 33.2822 17.6187 33.2687 17.5353 33.2409L15.4047 32.5304L13.2748 33.2401C13.1914 33.2679 13.1065 33.2814 13.0239 33.2814C12.9295 33.2814 12.8382 33.2608 12.7516 33.229C12.7346 33.2223 12.7185 33.2136 12.7024 33.2048C12.6937 33.2001 12.6851 33.1953 12.6762 33.1909C12.6135 33.1592 12.5563 33.1234 12.5047 33.0766C12.4987 33.0716 12.492 33.0681 12.4853 33.0645C12.4771 33.0602 12.4689 33.0558 12.4619 33.0488L11.1068 31.6945L8.26005 31.6937C6.07141 31.6937 4.29082 33.4735 4.29082 35.6621V38.0421C4.29082 38.4811 3.93597 38.8359 3.49697 38.8359C3.05797 38.8359 2.70312 38.4811 2.70312 38.0421V35.6621C2.70312 32.5987 5.1966 30.106 8.26005 30.106L10.6416 30.1068V28.023C7.79962 26.3726 5.8793 23.3036 5.87851 19.7876C5.44031 19.7868 5.08546 19.4328 5.08546 18.9938V14.2267C5.08546 13.7877 5.43951 13.4337 5.87851 13.4329V12.6406ZM24.1362 18.1999V15.0206H23.3439V18.1999H24.1362ZM21.7562 18.9938C21.7562 19.432 21.4006 19.7876 20.9624 19.7876H9.84695C9.40874 19.7876 9.0531 19.432 9.0531 18.9938V14.2267C9.0531 13.7885 9.40874 13.4329 9.84695 13.4329H20.9624C21.4006 13.4329 21.7562 13.7885 21.7562 14.2267V18.9938ZM6.67315 18.1999H7.46541V15.0206H6.67315V18.1999ZM18.58 30.572L17.5711 31.5802L15.6555 30.9411C15.6394 30.9358 15.6234 30.9349 15.6073 30.9341C15.5948 30.9335 15.5823 30.9328 15.5698 30.93C15.515 30.9181 15.4618 30.9094 15.4047 30.9094C15.3475 30.9094 15.2935 30.9189 15.2387 30.93C15.2263 30.9328 15.2139 30.9335 15.2016 30.9341H15.2016H15.2016C15.1857 30.9349 15.1699 30.9358 15.1538 30.9411L13.2383 31.5802L12.2293 30.572V28.7557C13.224 29.1089 14.2901 29.3114 15.4047 29.3114C16.5192 29.3114 17.5854 29.1089 18.58 28.7557V30.572ZM7.4662 19.7876C7.46779 24.1641 11.0282 27.7237 15.4047 27.7237C19.7811 27.7237 23.3415 24.1641 23.3431 19.7876H23.1971C22.8684 20.7093 21.996 21.3753 20.9624 21.3753H9.84695C8.81415 21.3753 7.94092 20.7093 7.61227 19.7876H7.4662ZM23.3431 12.6406V13.4329H23.1971C22.8684 12.5112 21.9952 11.8452 20.9624 11.8452H9.84695C8.81336 11.8452 7.94092 12.5112 7.61227 13.4329H7.4662V12.6406C7.4662 9.13895 10.3153 6.29063 13.817 6.29063C13.8178 6.29063 13.8184 6.29044 13.819 6.29024C13.8196 6.29004 13.8201 6.28984 13.8209 6.28984H19.3739V8.67138C19.3739 9.11038 19.7287 9.46523 20.1677 9.46523C21.919 9.46523 23.3431 10.8894 23.3431 12.6406ZM11.4354 15.8168H19.3739C19.8129 15.8168 20.1677 16.1716 20.1677 16.6106C20.1677 17.0496 19.8129 17.4045 19.3739 17.4045H11.4354C10.9964 17.4045 10.6416 17.0496 10.6416 16.6106C10.6416 16.1716 10.9964 15.8168 11.4354 15.8168Z" fill="white"/>
</mask>
<g mask="url(#mask0_213_62502)">
<rect width="40" height="40" fill="#6B79EF"/>
</g>
</svg>
