<svg width="40" height="40" viewBox="0 0 40 40" fill="none" xmlns="http://www.w3.org/2000/svg">
<path fill-rule="evenodd" clip-rule="evenodd" d="M29.7421 8.02038L25.8703 11.8876C25.7055 12.0522 25.4821 12.1446 25.2491 12.1446H23.2127C25.2839 14.5376 26.4143 17.5731 26.4143 20.7929C26.4143 28.1267 20.5387 34 13.2071 34C5.87325 34 0 28.1244 0 20.7929C0 13.459 5.8756 7.58568 13.2071 7.58562C16.4269 7.58562 19.4625 8.71601 21.8554 10.7872V8.7514C21.8554 8.52318 21.9442 8.30392 22.1029 8.13997L25.8529 4.26752C26.102 4.01029 26.4821 3.9299 26.8142 4.06426C27.146 4.19861 27.3632 4.52088 27.3632 4.87894V6.51957H29.1211C29.4766 6.51957 29.7972 6.73384 29.9332 7.06244C30.0692 7.39097 29.9938 7.76908 29.7421 8.02038ZM13.2071 32.2422C16.2817 32.2422 19.1614 31.0557 21.3157 28.9014C25.5775 24.6395 25.7769 17.83 21.9139 13.3296L20.666 14.5775C22.1123 16.3114 22.9001 18.4869 22.9001 20.7928C22.9001 26.1814 18.594 30.4858 13.2071 30.4858C7.81839 30.4858 3.51416 26.1795 3.51416 20.7928C3.51416 15.4042 7.82026 11.0998 13.2071 11.0998C15.5133 11.0998 17.689 11.8879 19.4231 13.3345L20.6709 12.0867C18.5311 10.2496 15.8691 9.33101 13.2071 9.33101C6.95097 9.33101 1.75781 14.3471 1.75781 20.7929C1.75781 27.1551 6.84714 32.2422 13.2071 32.2422ZM13.2364 18.1277C11.778 18.1277 10.6007 19.3048 10.6007 20.7635C10.6007 22.222 11.7778 23.3992 13.2364 23.3992C14.6949 23.3992 15.8722 22.2222 15.8722 20.7635C15.8722 20.3634 15.7837 19.9772 15.6164 19.627L16.9024 18.341C17.3747 19.0571 17.6286 19.9026 17.6286 20.7929C17.6286 24.841 12.7553 26.6143 10.0704 23.9296C7.39194 21.2511 9.14782 16.3714 13.2071 16.3714C14.0977 16.3714 14.9434 16.6254 15.6596 17.0979L14.3737 18.3838C14.0233 18.2163 13.6368 18.1277 13.2364 18.1277ZM13.2365 21.6415C13.7235 21.6415 14.1145 21.2505 14.1145 20.7636C14.1145 20.2765 13.7234 19.8856 13.2365 19.8856C12.7495 19.8856 12.3586 20.2767 12.3586 20.7636C12.3586 20.9989 12.4496 21.2197 12.615 21.385C12.7804 21.5504 13.0011 21.6415 13.2365 21.6415ZM16.9211 15.8365C15.861 15.043 14.5705 14.6136 13.2071 14.6136C9.76592 14.6136 7.0279 17.3498 7.0279 20.7928C7.0279 24.234 9.76423 26.972 13.2071 26.972C16.6483 26.972 19.3864 24.2358 19.3864 20.7928C19.3864 19.4297 18.9571 18.1395 18.1639 17.0795L19.4167 15.8267C20.5347 17.2245 21.1423 18.9575 21.1423 20.7927C21.1423 25.2079 17.6243 28.7279 13.2071 28.7279C8.79175 28.7279 5.27197 25.2097 5.27197 20.7927C5.27197 16.3765 8.7911 12.8576 13.2071 12.8576C15.0426 12.8576 16.7759 13.4653 18.1738 14.5836L16.9211 15.8365ZM23.6133 9.10724V10.3867H24.8854L26.9974 8.27738H26.4843C25.999 8.27738 25.6054 7.88386 25.6054 7.39847V7.05001L23.6133 9.10724Z" fill="white"/>
<mask id="mask0_213_62505" style="mask-type:alpha" maskUnits="userSpaceOnUse" x="0" y="4" width="30" height="30">
<path fill-rule="evenodd" clip-rule="evenodd" d="M29.7421 8.02038L25.8703 11.8876C25.7055 12.0522 25.4821 12.1446 25.2491 12.1446H23.2127C25.2839 14.5376 26.4143 17.5731 26.4143 20.7929C26.4143 28.1267 20.5387 34 13.2071 34C5.87325 34 0 28.1244 0 20.7929C0 13.459 5.8756 7.58568 13.2071 7.58562C16.4269 7.58562 19.4625 8.71601 21.8554 10.7872V8.7514C21.8554 8.52318 21.9442 8.30392 22.1029 8.13997L25.8529 4.26752C26.102 4.01029 26.4821 3.9299 26.8142 4.06426C27.146 4.19861 27.3632 4.52088 27.3632 4.87894V6.51957H29.1211C29.4766 6.51957 29.7972 6.73384 29.9332 7.06244C30.0692 7.39097 29.9938 7.76908 29.7421 8.02038ZM13.2071 32.2422C16.2817 32.2422 19.1614 31.0557 21.3157 28.9014C25.5775 24.6395 25.7769 17.83 21.9139 13.3296L20.666 14.5775C22.1123 16.3114 22.9001 18.4869 22.9001 20.7928C22.9001 26.1814 18.594 30.4858 13.2071 30.4858C7.81839 30.4858 3.51416 26.1795 3.51416 20.7928C3.51416 15.4042 7.82026 11.0998 13.2071 11.0998C15.5133 11.0998 17.689 11.8879 19.4231 13.3345L20.6709 12.0867C18.5311 10.2496 15.8691 9.33101 13.2071 9.33101C6.95097 9.33101 1.75781 14.3471 1.75781 20.7929C1.75781 27.1551 6.84714 32.2422 13.2071 32.2422ZM13.2364 18.1277C11.778 18.1277 10.6007 19.3048 10.6007 20.7635C10.6007 22.222 11.7778 23.3992 13.2364 23.3992C14.6949 23.3992 15.8722 22.2222 15.8722 20.7635C15.8722 20.3634 15.7837 19.9772 15.6164 19.627L16.9024 18.341C17.3747 19.0571 17.6286 19.9026 17.6286 20.7929C17.6286 24.841 12.7553 26.6143 10.0704 23.9296C7.39194 21.2511 9.14782 16.3714 13.2071 16.3714C14.0977 16.3714 14.9434 16.6254 15.6596 17.0979L14.3737 18.3838C14.0233 18.2163 13.6368 18.1277 13.2364 18.1277ZM13.2365 21.6415C13.7235 21.6415 14.1145 21.2505 14.1145 20.7636C14.1145 20.2765 13.7234 19.8856 13.2365 19.8856C12.7495 19.8856 12.3586 20.2767 12.3586 20.7636C12.3586 20.9989 12.4496 21.2197 12.615 21.385C12.7804 21.5504 13.0011 21.6415 13.2365 21.6415ZM16.9211 15.8365C15.861 15.043 14.5705 14.6136 13.2071 14.6136C9.76592 14.6136 7.0279 17.3498 7.0279 20.7928C7.0279 24.234 9.76423 26.972 13.2071 26.972C16.6483 26.972 19.3864 24.2358 19.3864 20.7928C19.3864 19.4297 18.9571 18.1395 18.1639 17.0795L19.4167 15.8267C20.5347 17.2245 21.1423 18.9575 21.1423 20.7927C21.1423 25.2079 17.6243 28.7279 13.2071 28.7279C8.79175 28.7279 5.27197 25.2097 5.27197 20.7927C5.27197 16.3765 8.7911 12.8576 13.2071 12.8576C15.0426 12.8576 16.7759 13.4653 18.1738 14.5836L16.9211 15.8365ZM23.6133 9.10724V10.3867H24.8854L26.9974 8.27738H26.4843C25.999 8.27738 25.6054 7.88386 25.6054 7.39847V7.05001L23.6133 9.10724Z" fill="white"/>
</mask>
<g mask="url(#mask0_213_62505)">
<rect width="40" height="40" fill="#6B79EF"/>
</g>
</svg>
