<svg width="20" height="20" viewBox="0 0 20 20" fill="none" xmlns="http://www.w3.org/2000/svg">
<path fill-rule="evenodd" clip-rule="evenodd" d="M4.4223 15.5781C4.94303 16.0989 4.94631 16.9408 4.38128 17.5059C3.81624 18.0709 2.97427 18.0676 2.45353 17.5469C1.93154 17.0249 1.92951 16.1842 2.49455 15.6192C3.05958 15.0541 3.9003 15.0561 4.4223 15.5781ZM7.70356 12.2969C8.2243 12.8176 8.22758 13.6596 7.66255 14.2246C7.09751 14.7897 6.25554 14.7864 5.7348 14.2656C5.21281 13.7436 5.21078 12.9029 5.77582 12.3379C6.34085 11.7729 7.18157 11.7749 7.70356 12.2969ZM18.4907 16.6035C19.0322 17.145 19.0115 17.9695 18.4907 18.4903C17.9687 19.0123 17.1455 19.0318 16.604 18.4903C16.0625 17.9488 16.082 17.1255 16.604 16.6035C17.1247 16.0828 17.9492 16.062 18.4907 16.6035ZM3.3969 1.5097C3.93839 2.05119 3.91764 2.87569 3.3969 3.39643C2.8749 3.91843 2.05166 3.93792 1.51017 3.39643C0.968678 2.85494 0.988174 2.0317 1.51017 1.5097C2.03091 0.988965 2.85541 0.968211 3.3969 1.5097ZM7.17036 5.28316C7.71185 5.82465 7.69109 6.64915 7.17036 7.16989C6.64836 7.69188 5.82512 7.71138 5.28363 7.16989C4.74214 6.6284 4.76163 5.80516 5.28363 5.28316C5.80437 4.76242 6.62887 4.74167 7.17036 5.28316ZM10.9438 9.05662C11.4853 9.59811 11.4646 10.4226 10.9438 10.9433C10.4218 11.4653 9.59858 11.4848 9.05709 10.9433C8.51559 10.4019 8.53509 9.57861 9.05709 9.05662C9.57782 8.53588 10.4023 8.51513 10.9438 9.05662ZM14.7173 12.8301C15.2588 13.3716 15.238 14.1961 14.7173 14.7168C14.1953 15.2388 13.372 15.2583 12.8305 14.7168C12.2891 14.1753 12.3085 13.3521 12.8305 12.8301C13.3513 12.3093 14.1758 12.2886 14.7173 12.8301ZM14.2661 5.73433C14.7868 6.25507 14.7901 7.09704 14.2251 7.66208C13.66 8.22711 12.8181 8.22383 12.2973 7.7031C11.7753 7.1811 11.7733 6.34038 12.3384 5.77535C12.9034 5.21032 13.7441 5.21234 14.2661 5.73433ZM17.5474 2.45307C18.0681 2.9738 18.0714 3.81578 17.5064 4.38081C16.9413 4.94585 16.0993 4.94256 15.5786 4.42183C15.0566 3.89983 15.0546 3.05912 15.6196 2.49408C16.1847 1.92905 17.0254 1.93107 17.5474 2.45307Z" fill="#404040"/>
<mask id="mask0_0_1249" style="mask-type:alpha" maskUnits="userSpaceOnUse" x="1" y="1" width="18" height="18">
<path fill-rule="evenodd" clip-rule="evenodd" d="M4.4223 15.5781C4.94303 16.0989 4.94631 16.9408 4.38128 17.5059C3.81624 18.0709 2.97427 18.0676 2.45353 17.5469C1.93154 17.0249 1.92951 16.1842 2.49455 15.6192C3.05958 15.0541 3.9003 15.0561 4.4223 15.5781ZM7.70356 12.2969C8.2243 12.8176 8.22758 13.6596 7.66255 14.2246C7.09751 14.7897 6.25554 14.7864 5.7348 14.2656C5.21281 13.7436 5.21078 12.9029 5.77582 12.3379C6.34085 11.7729 7.18157 11.7749 7.70356 12.2969ZM18.4907 16.6035C19.0322 17.145 19.0115 17.9695 18.4907 18.4903C17.9687 19.0123 17.1455 19.0318 16.604 18.4903C16.0625 17.9488 16.082 17.1255 16.604 16.6035C17.1247 16.0828 17.9492 16.062 18.4907 16.6035ZM3.3969 1.5097C3.93839 2.05119 3.91764 2.87569 3.3969 3.39643C2.8749 3.91843 2.05166 3.93792 1.51017 3.39643C0.968678 2.85494 0.988174 2.0317 1.51017 1.5097C2.03091 0.988965 2.85541 0.968211 3.3969 1.5097ZM7.17036 5.28316C7.71185 5.82465 7.69109 6.64915 7.17036 7.16989C6.64836 7.69188 5.82512 7.71138 5.28363 7.16989C4.74214 6.6284 4.76163 5.80516 5.28363 5.28316C5.80437 4.76242 6.62887 4.74167 7.17036 5.28316ZM10.9438 9.05662C11.4853 9.59811 11.4646 10.4226 10.9438 10.9433C10.4218 11.4653 9.59858 11.4848 9.05709 10.9433C8.51559 10.4019 8.53509 9.57861 9.05709 9.05662C9.57782 8.53588 10.4023 8.51513 10.9438 9.05662ZM14.7173 12.8301C15.2588 13.3716 15.238 14.1961 14.7173 14.7168C14.1953 15.2388 13.372 15.2583 12.8305 14.7168C12.2891 14.1753 12.3085 13.3521 12.8305 12.8301C13.3513 12.3093 14.1758 12.2886 14.7173 12.8301ZM14.2661 5.73433C14.7868 6.25507 14.7901 7.09704 14.2251 7.66208C13.66 8.22711 12.8181 8.22383 12.2973 7.7031C11.7753 7.1811 11.7733 6.34038 12.3384 5.77535C12.9034 5.21032 13.7441 5.21234 14.2661 5.73433ZM17.5474 2.45307C18.0681 2.9738 18.0714 3.81578 17.5064 4.38081C16.9413 4.94585 16.0993 4.94256 15.5786 4.42183C15.0566 3.89983 15.0546 3.05912 15.6196 2.49408C16.1847 1.92905 17.0254 1.93107 17.5474 2.45307Z" fill="white"/>
</mask>
<g mask="url(#mask0_0_1249)">
<rect width="20" height="20" fill="#444A4D"/>
</g>
</svg>
